<svg xmlns="http://www.w3.org/2000/svg" xmlns:xlink="http://www.w3.org/1999/xlink" width="126" height="28" viewBox="0 0 126 28"><defs><path id="t4p2a" d="M1169.01 1133c0 .83-.11 1.6-.33 2.28-.22.7-.54 1.3-.95 1.8-.42.5-.95.9-1.56 1.16-.62.28-1.32.42-2.1.42a5.34 5.34 0 0 1-2.23-.45c-.15-.07-.32.04-.32.2v3.65c0 .12-.1.22-.23.22h-2.13a.23.23 0 0 1-.23-.22v-14c0-.1.07-.18.17-.2.5-.13 1.09-.25 1.78-.36.8-.13 1.62-.2 2.44-.19.88 0 1.67.13 2.37.4.7.26 1.3.64 1.8 1.13.5.51.88 1.12 1.12 1.8.27.7.4 1.48.4 2.35zm-2.65.03c0-1.12-.26-2-.78-2.62-.52-.62-1.36-.93-2.52-.93a9.7 9.7 0 0 0-1.37.12.23.23 0 0 0-.17.22v5.92c0 .07.03.14.1.18a4.37 4.37 0 0 0 2.02.56c.94 0 1.63-.31 2.07-.93.43-.63.65-1.46.65-2.52zm11.2-5.45c.59.21 1.05.5 1.4.88.36.38.62.85.75 1.36.15.53.23 1.12.23 1.76v6.42c0 .1-.08.2-.19.22-.54.1-1.08.18-1.62.26-.8.12-1.72.18-2.73.18-.67 0-1.29-.07-1.84-.19a3.91 3.91 0 0 1-1.43-.6c-.39-.28-.7-.65-.92-1.09-.22-.44-.33-.99-.33-1.64 0-.63.13-1.15.38-1.58.25-.43.6-.8 1.01-1.06.46-.28.96-.47 1.5-.58a8.62 8.62 0 0 1 3.66.05v-.41c0-.3-.03-.57-.1-.84a1.7 1.7 0 0 0-1.09-1.16c-.29-.11-.66-.17-1.1-.17a10.07 10.07 0 0 0-2.62.34.23.23 0 0 1-.29-.18l-.25-1.6a.22.22 0 0 1 .16-.24 12.25 12.25 0 0 1 3.26-.44c.86 0 1.58.1 2.16.31zm-.32 8.99c.11-.02.2-.11.2-.22v-2.43c0-.1-.08-.2-.18-.22a6.98 6.98 0 0 0-1.35-.14c-.28 0-.57.02-.86.06-.28.04-.55.11-.8.23a1.28 1.28 0 0 0-.78 1.23c0 .6.2 1 .58 1.23.38.23.9.35 1.56.35.69 0 1.23-.03 1.63-.1zm14.64-8.75a77.45 77.45 0 0 1-3.94 10.96c-.24.56-.54 1.1-.88 1.6a4.8 4.8 0 0 1-1 1.1c-.37.3-.8.51-1.25.64a5.85 5.85 0 0 1-3.48-.12.22.22 0 0 1-.14-.26l.37-1.59c.03-.13.17-.2.3-.16.42.14.85.2 1.29.2.67 0 1.2-.15 1.58-.46.36-.3.68-.75.95-1.35a.22.22 0 0 0 0-.2 57.72 57.72 0 0 1-4.24-10.35.23.23 0 0 1 .23-.29h2.27c.1 0 .2.07.23.17a57.51 57.51 0 0 0 2.52 7.3c.08.19.35.18.42-.01.4-1.13.76-2.26 1.09-3.41.38-1.34.73-2.63 1.04-3.88.03-.1.12-.17.23-.17h2.2c.14 0 .26.14.21.28zm8.41 4.88c0-1.14-.15-1.96-.44-2.46-.3-.51-.84-.76-1.64-.76a7.85 7.85 0 0 0-1.52.13c-.1.02-.19.11-.19.22v8.37c0 .13-.1.23-.23.23h-2.13a.23.23 0 0 1-.23-.23v-10.13c0-.1.07-.2.17-.22a19.1 19.1 0 0 1 4.35-.54c.77 0 1.4.1 1.9.3.4.15.76.36 1.09.64.08.07.19.08.28.03a6.23 6.23 0 0 1 2.4-.9 5.66 5.66 0 0 1 3 .3c.55.24 1 .58 1.32 1.02.32.43.54.96.66 1.58.12.62.18 1.3.18 2.03v5.9c0 .12-.1.22-.23.22h-2.13a.23.23 0 0 1-.23-.23v-5.5c0-1.13-.14-1.96-.43-2.46-.28-.51-.83-.76-1.65-.76-.41 0-.8.06-1.17.2-.24.07-.46.17-.68.28a.22.22 0 0 0-.1.26c.08.3.14.62.18.94.04.4.06.8.06 1.25v5.8a.23.23 0 0 1-.23.22h-2.13a.23.23 0 0 1-.23-.23v-5.5zm11.5.34c0-.96.14-1.8.44-2.52a4.84 4.84 0 0 1 2.84-2.88 5.3 5.3 0 0 1 1.92-.37c1.54 0 2.75.46 3.61 1.4.87.92 1.3 2.31 1.3 4.16l-.03.73a.23.23 0 0 1-.23.2h-6.92c-.14 0-.25.12-.23.25.1.76.42 1.35.93 1.78.56.48 1.38.72 2.45.72a8.27 8.27 0 0 0 2.7-.42.23.23 0 0 1 .3.17l.27 1.62c.02.1-.04.2-.14.25-.11.04-.25.1-.42.14a8.61 8.61 0 0 1-1.9.37c-.37.04-.75.06-1.13.06-.99 0-1.84-.14-2.57-.43a4.8 4.8 0 0 1-1.8-1.19 4.82 4.82 0 0 1-1.05-1.78 7.13 7.13 0 0 1-.34-2.26zm7.5-1.36a3.16 3.16 0 0 0-.14-.76c-.1-.3-.24-.57-.44-.8a2.07 2.07 0 0 0-1.7-.75 2.37 2.37 0 0 0-2.3 1.6c-.08.22-.14.44-.18.67a.23.23 0 0 0 .22.27h4.31c.13 0 .24-.1.23-.23zm5.33-3.62c0-.1.06-.19.16-.21a19.11 19.11 0 0 1 4.44-.54c.91 0 1.67.12 2.29.37.61.24 1.1.58 1.46 1.02.37.43.62.96.77 1.58.15.62.23 1.3.23 2.03v5.9c0 .12-.1.22-.23.22h-2.13a.23.23 0 0 1-.23-.23v-5.5c0-.58-.04-1.08-.12-1.49a2.6 2.6 0 0 0-.38-1 1.53 1.53 0 0 0-.73-.56c-.3-.11-.68-.17-1.13-.17a8.87 8.87 0 0 0-1.62.13c-.11.02-.2.11-.2.22v8.38c0 .12-.1.22-.22.22h-2.13a.23.23 0 0 1-.23-.23zm12.29-3.42l2.13-.35a.23.23 0 0 1 .27.22v2.8c0 .13.1.23.23.23h3.52c.13 0 .23.1.23.22v1.66c0 .12-.1.22-.23.22h-3.52c-.13 0-.23.1-.23.23v4.2c0 .88.14 1.5.42 1.88.29.38.77.56 1.46.56a4.87 4.87 0 0 0 1.88-.33.23.23 0 0 1 .3.17l.33 1.56c.02.1-.04.22-.14.25a6.61 6.61 0 0 1-2.71.51c-.8 0-1.47-.1-2-.3-.54-.21-.96-.51-1.28-.91-.31-.4-.53-.87-.66-1.44-.13-.56-.2-1.2-.2-1.92v-9.24c0-.11.09-.2.2-.22zm13.46 11.74c.31-.16.47-.44.47-.82 0-.37-.17-.66-.5-.9-.34-.24-.9-.5-1.67-.77-.47-.17-.9-.34-1.3-.53-.36-.17-.7-.4-1-.66a2.69 2.69 0 0 1-.93-2.2c0-1 .38-1.79 1.14-2.37a4.97 4.97 0 0 1 3.08-.86 9.77 9.77 0 0 1 3.03.45c.12.04.18.15.16.26l-.37 1.6a.23.23 0 0 1-.3.15 6.78 6.78 0 0 0-2.4-.4c-.52 0-.95.09-1.28.26a.85.85 0 0 0-.49.8c0 .18.03.34.1.48.06.14.17.27.33.39.16.11.36.23.62.35.26.12.57.24.94.36.62.23 1.14.44 1.56.66.43.22.79.46 1.06.73.28.27.49.58.61.93.13.34.2.76.2 1.24 0 1.05-.4 1.83-1.2 2.37-.78.53-1.92.8-3.38.8a9.52 9.52 0 0 1-3.46-.56.22.22 0 0 1-.14-.25l.35-1.66a.23.23 0 0 1 .3-.17c.33.12.71.24 1.14.35.53.14 1.14.2 1.83.2a3.5 3.5 0 0 0 1.5-.23z"/><path id="t4p2b" d="M1142.52 1121.91l-.92-.04H1140.68l-.48.03c-.12 0-.24.02-.35.03l-.33.03-.48.06-.19.02-.6.1-.06.01a14 14 0 0 0-8.8 5.42 13.72 13.72 0 0 1 13.5-7.53h.05l.07.02.3.02c2.32.23 4.65 1.17 6.43 2.6l.07.06a10.28 10.28 0 0 1 3.93 8.8c-.34 4.42-3.45 7.94-7.74 9.24a11.25 11.25 0 0 0 4.22-4.14 11.63 11.63 0 0 0 1.7-4.67c.07-.46.1-.75.1-.82.33-4.26-3.08-8.16-7.94-9.05-.3-.05-.62-.1-.93-.13v-.02l-.28-.02a3.78 3.78 0 0 0-.35-.02m-3.24 10.5c-.19 2.42.5 3.8 1.33 4.57-3.02-.85-4.44-2.42-5.1-3.73a5.7 5.7 0 0 1-.6-2.84v-.13c.05-.46.16-.84.3-1.09 1.62-2.34 4.34-3.55 7.46-3.32 2.63.2 4.34 1.23 5.3 2.44l-.08-.05-.12-.07a2.57 2.57 0 0 0-.4-.2l-.13-.05-.15-.06-.13-.05-.17-.04-.12-.04-.19-.04-.12-.03a5.64 5.64 0 0 0-.22-.03l-.1-.02a6.97 6.97 0 0 0-5.16 1.48l-.14.13a4.86 4.86 0 0 0-1.46 3.18m3.88 5.61a8.06 8.06 0 0 0 7.1-2.7 12.14 12.14 0 0 1-1.62 2.54 10.07 10.07 0 0 1-6.64 3.43 6.83 6.83 0 0 1-.72-.03h-.18a7.77 7.77 0 0 1-6.77-10.36c0 .28.04.56.09.83l.01.1.03.11c.1.53.28 1.04.52 1.53.85 1.7 2.87 3.85 7.66 4.5v-.01l.52.06m.81-7.6c.07-.77-.54-1.51-1.35-1.73.03 0 .05-.02.07-.03l.1-.04.45-.16.08-.03.51-.14.12-.02.5-.08.04-.01a6.28 6.28 0 0 1 1.36-.02h.02l.17.03.11.02.1.01.12.03.1.02.1.03.12.03.1.04c.05.01.1.02.13.04l.12.04.12.05.1.06.13.05.1.07.13.07.1.07c.05.02.09.05.12.08l.1.08.12.1c.04.02.07.06.1.1.04.02.07.06.1.1l.1.1.1.12.1.13.08.12.09.15.07.13.08.18.06.13c.02.08.09.42.05.85-.15 2.03-2.34 4.06-5.36 3.84-2.46-.19-3.35-1.51-3.66-2.26l.32.03c3.14.23 3.62-1.58 3.68-2.37m-12.41-4.46c1.5-1.29 3.36-2.27 5.33-2.86a11.54 11.54 0 0 0-6.33 9.06h-.02l-.02.28c-.17 2.24.19 4.28 1.02 6.05l.05.12c.53 1.22 1.75 4.06 5.3 6.17a14.72 14.72 0 0 0 6.4 1.92c1.82.13 3.59-.03 5.13-.45-2 .94-4.5 1.36-7.18 1.16l-.14-.02h-.17l-.1-.01a13.74 13.74 0 0 1-12.79-14.83v-.02l.06-.49a10.4 10.4 0 0 1 3.46-6.08m11.78 20.17c-2.3-.17-4.42-.8-6.16-1.84-.91-.54-1.75-1.2-2.5-1.95 1.24.95 2.73 1.69 4.45 2.18a14.31 14.31 0 0 0 13.5-3.8c.04.14.05.27.06.4v.2l-.03.32-.01.07a3.5 3.5 0 0 1-.15.57 5.5 5.5 0 0 1-1.71 2.33c-1.77 1.17-4.56 1.73-7.45 1.52"/></defs><g><g transform="translate(-1128 -1120)"><g><use fill="#fff" xlink:href="#t4p2a"/></g><g><use fill="#e5353e" xlink:href="#t4p2b"/></g></g></g></svg>