<svg xmlns="http://www.w3.org/2000/svg" xmlns:xlink="http://www.w3.org/1999/xlink" width="22" height="16" viewBox="0 0 22 16"><defs><path id="th46a" d="M31 587.6c0-.88.72-1.6 1.6-1.6h18.8c.88 0 1.6.72 1.6 1.6v12.8c0 .88-.72 1.6-1.6 1.6H32.6a1.6 1.6 0 0 1-1.6-1.6z"/><path id="th46c" d="M31 602v-16h22v16z"/><path id="th46e" d="M36.24 596.66H31v-5.33h5.24l-7.42-5.1 1.17-1.76 9.4 6.44v-5.98h5.23v5.98l9.39-6.44 1.17 1.76-7.42 5.1H53v5.33h-5.24l7.42 5.1-1.17 1.76-9.4-6.44v5.98h-5.23v-5.98L30 603.52l-1.17-1.76z"/><path id="th46g" d="M45.67 591.07l9.95-6.67"/><path id="th46i" d="M46.72 596.96l8.94 6.12"/><path id="th46k" d="M37.29 591.05l-9.3-6.39"/><path id="th46m" d="M38.3 596.88l-10.32 6.98"/><path id="th46o" d="M31 595.6h9.43v6.4h3.14v-6.4H53v-3.2h-9.43V586h-3.14v6.4H31z"/><clipPath id="th46b"><use xlink:href="#th46a"/></clipPath><clipPath id="th46d"><use xlink:href="#th46a"/></clipPath><clipPath id="th46f"><use xlink:href="#th46a"/></clipPath><clipPath id="th46h"><use xlink:href="#th46a"/></clipPath><clipPath id="th46j"><use xlink:href="#th46a"/></clipPath><clipPath id="th46l"><use xlink:href="#th46a"/></clipPath><clipPath id="th46n"><use xlink:href="#th46a"/></clipPath></defs><g><g transform="translate(-31 -586)"><g><g><use fill="#fff" xlink:href="#th46a"/></g></g><g><g/><g clip-path="url(#th46b)"><use fill="#0a17a7" xlink:href="#th46c"/></g></g><g><g/><g clip-path="url(#th46d)"><use fill="#fff" xlink:href="#th46e"/></g></g><g><g/><g clip-path="url(#th46f)"><use fill="#fff" fill-opacity="0" stroke="#db1f35" stroke-linecap="round" stroke-miterlimit="50" stroke-width=".53" xlink:href="#th46g"/></g></g><g><g/><g clip-path="url(#th46h)"><use fill="#fff" fill-opacity="0" stroke="#db1f35" stroke-linecap="round" stroke-miterlimit="50" stroke-width=".53" xlink:href="#th46i"/></g></g><g><g/><g clip-path="url(#th46j)"><use fill="#fff" fill-opacity="0" stroke="#db1f35" stroke-linecap="round" stroke-miterlimit="50" stroke-width=".53" xlink:href="#th46k"/></g></g><g><g/><g clip-path="url(#th46l)"><use fill="#fff" fill-opacity="0" stroke="#db1f35" stroke-linecap="round" stroke-miterlimit="50" stroke-width=".53" xlink:href="#th46m"/></g></g><g><g/><g clip-path="url(#th46n)"><use fill="#e6273e" xlink:href="#th46o"/></g></g></g></g></svg>