<svg xmlns="http://www.w3.org/2000/svg" xmlns:xlink="http://www.w3.org/1999/xlink" width="22" height="16" viewBox="0 0 22 16"><defs><path id="8y2aa" d="M32 529.4c0-.77.63-1.4 1.4-1.4h17.2c.77 0 1.4.63 1.4 1.4v11.2c0 .77-.63 1.4-1.4 1.4H33.4a1.4 1.4 0 0 1-1.4-1.4z"/><path id="8y2ab" d="M32.18 529.57c0-.77.63-1.4 1.4-1.4h16.84c.77 0 1.4.63 1.4 1.4v10.85c0 .77-.63 1.4-1.4 1.4H33.58a1.4 1.4 0 0 1-1.4-1.4z"/><path id="8y2ad" d="M32 537.33v-4.66h20v4.66z"/><path id="8y2af" d="M32 542v-4.67h20V542z"/><clipPath id="8y2ac"><use xlink:href="#8y2aa"/></clipPath><clipPath id="8y2ae"><use xlink:href="#8y2aa"/></clipPath></defs><g><g transform="translate(-31 -527)"><g><g><g><use fill="#fff" xlink:href="#8y2aa"/></g></g><g><use fill="#fff" fill-opacity="0" stroke="#f5f5f5" stroke-miterlimit="50" stroke-width=".5" xlink:href="#8y2ab"/></g></g><g><g/><g clip-path="url(#8y2ac)"><use fill="#0c47b7" xlink:href="#8y2ad"/></g></g><g><g/><g clip-path="url(#8y2ae)"><use fill="#e53b35" xlink:href="#8y2af"/></g></g></g></g></svg>