<?xml version="1.0" encoding="UTF-8"?>
<svg width="25px" height="25px" viewBox="0 0 25 25" version="1.1" xmlns="http://www.w3.org/2000/svg" xmlns:xlink="http://www.w3.org/1999/xlink">
    <!-- Generator: Sketch 52.1 (67048) - http://www.bohemiancoding.com/sketch -->
    <title>gift (1)</title>
    <desc>Created with Sketch.</desc>
    <g id="PC" stroke="none" stroke-width="1" fill="none" fill-rule="evenodd">
        <g id="Регистрация/Вход" transform="translate(-1096.000000, -38.000000)">
            <g id="Контент">
                <g id="Шапка">
                    <g id="Бонус-Copy" transform="translate(1069.000000, 21.000000)">
                        <g id="Бонус" transform="translate(27.000000, 17.000000)">
                            <g id="gift-(1)">
                                <polygon id="Path" fill="#68B612" points="0.77990099 6.62915842 12.4783168 12.4783663 24.1767327 6.62915842 24.1767327 19.1074752 12.4783168 24.9565842 0.77990099 19.1073762"></polygon>
                                <polygon id="Path" fill="#284704" points="0.77990099 7.79891089 0.77990099 11.444901 12.4393069 17.1576238 24.1766832 11.425396 24.1766832 7.79891089 12.4783168 13.5311881"></polygon>
                                <polygon id="Path" fill="#68B612" points="12.4783168 24.9565842 12.4783168 12.4783663 1.55980198 7.01910891 0.77990099 7.01910891 0.77990099 19.1074752"></polygon>
                                <polygon id="Path" fill="#284704" points="0.77990099 7.79891089 0.77990099 11.444901 12.4393069 17.1576238 12.4783168 17.1381188 12.4783168 13.5116337 12.4783168 13.5311386"></polygon>
                                <polygon id="Path" fill="#7ED321" points="0 6.21970297 12.4783168 4.95049505e-05 24.9566337 6.21970297 24.9566337 7.03861386 12.4783168 13.2581683 0 7.05806931"></polygon>
                                <path d="M19.6338119,1.96925743 C19.2243564,1.22836634 18.3469802,0.77990099 17.3136139,0.77990099 C14.9544554,0.77990099 13.2971782,2.98311881 12.4782673,4.38693069 C11.6593564,2.98311881 9.98262376,0.799405941 7.64292079,0.799405941 C6.14163366,0.799405941 5.06925743,1.71579208 5.06925743,2.96361386 C5.06925743,5.18628713 7.50643564,6.62910891 12.4002475,6.62910891 C17.2940594,6.62910891 19.8872277,4.77688119 19.8872277,2.98311881 C19.8872772,2.63217822 19.8093069,2.28123762 19.6338119,1.96925743 Z M8.14990099,4.36747525 C7.6039604,3.9970297 7.4090099,3.58757426 7.4090099,3.31460396 C7.4090099,2.98316832 7.7209901,2.72970297 8.16940594,2.72970297 C9.22227723,2.72970297 10.0606436,4.1140099 10.5285644,5.06940594 C9.30024752,4.97188119 8.57881188,4.64039604 8.14990099,4.36747525 Z M16.8066832,4.36747525 C16.3777228,4.64044554 15.6563366,4.97188119 14.4280198,5.06935644 C14.8764356,4.1140099 15.7148515,2.72965347 16.7871782,2.72965347 C17.2355941,2.72965347 17.5475743,2.98311881 17.5475743,3.31455446 C17.5476238,3.58757426 17.3526238,3.9969802 16.8066832,4.36747525 Z" id="Shape" fill="#EFEFEF" fill-rule="nonzero"></path>
                                <polygon id="Path" fill="#417505" points="0 6.23920792 12.4783168 12.3418812 24.9566337 6.23920792 24.9566337 10.2751485 12.4393069 16.3778218 0 10.2751485"></polygon>
                                <polygon id="Path" fill="#EFEFEF" points="17.1576733 10.5870792 17.1576733 10.1386634 12.4783168 7.6040099 7.7989604 10.1386634 7.7989604 10.5870792 4.67940594 9.22227723 4.67940594 8.59836634 12.3223267 4.56242574 12.4783168 4.64039604 12.6343069 4.56242574 20.2772277 8.57886139 20.2772277 9.20277228"></polygon>
                                <polygon id="Path" fill="#DCDCDC" points="17.1576733 10.1386634 17.1576733 22.5974752 20.2772277 21.0376733 20.2772277 8.57886139"></polygon>
                                <path d="M4.67935644,21.0571287 L7.79891089,22.6169307 L7.79891089,10.1581683 L4.67935644,8.57886139 C4.67935644,8.57886139 4.67935644,21.0571287 4.67935644,21.0571287 Z" id="Path" fill="#D1D1D1"></path>
                            </g>
                        </g>
                    </g>
                </g>
            </g>
        </g>
    </g>
</svg>