<svg xmlns="http://www.w3.org/2000/svg" xmlns:xlink="http://www.w3.org/1999/xlink" width="21" height="20" viewBox="0 0 21 20"><defs><path id="2doja" d="M33.2 355.67H51.8c.22 0 .4-.19.4-.42 0-.18-.1-.33-.26-.39l-8.83-5.8a.4.4 0 0 0-.42 0L33 354.89a.42.42 0 0 0-.19.47c.05.18.21.3.4.3z"/><path id="2dojb" d="M51.78 365.67H33.2c-.22 0-.4.18-.4.41v2.5c0 .23.18.42.4.42h18.58c.22 0 .4-.19.4-.42v-2.5a.41.41 0 0 0-.4-.41z"/><path id="2dojc" d="M38.87 357.33c.22 0 .4-.18.4-.41a.41.41 0 0 0-.4-.42h-4.04c-.22 0-.4.19-.4.42 0 .23.18.41.4.41h.4V364h-.4c-.22 0-.4.19-.4.42 0 .23.18.41.4.41h4.03c.23 0 .41-.18.41-.41a.41.41 0 0 0-.4-.42h-.4v-6.67z"/><path id="2dojd" d="M44.51 357.33c.22 0 .4-.18.4-.41a.41.41 0 0 0-.4-.42h-4.03c-.23 0-.41.19-.41.42 0 .23.18.41.4.41h.4V364h-.4c-.22 0-.4.19-.4.42 0 .23.18.41.4.41h4.04c.22 0 .4-.18.4-.41a.41.41 0 0 0-.4-.42h-.4v-6.67z"/><path id="2doje" d="M50.16 357.33c.23 0 .4-.18.4-.41a.41.41 0 0 0-.4-.42h-4.03c-.23 0-.4.19-.4.42 0 .23.17.41.4.41h.4V364h-.4c-.23 0-.4.19-.4.42 0 .23.17.41.4.41h4.03c.23 0 .4-.18.4-.41a.41.41 0 0 0-.4-.42h-.4v-6.67z"/></defs><g><g transform="translate(-32 -349)"><g><use fill="#4a9aeb" xlink:href="#2doja"/></g><g><use fill="#4a9aeb" xlink:href="#2dojb"/></g><g><use fill="#4a9aeb" xlink:href="#2dojc"/></g><g><use fill="#4a9aeb" xlink:href="#2dojd"/></g><g><use fill="#4a9aeb" xlink:href="#2doje"/></g></g></g></svg>