<svg xmlns="http://www.w3.org/2000/svg" xmlns:xlink="http://www.w3.org/1999/xlink" width="34" height="22" viewBox="0 0 34 22"><defs><path id="hv1oa" d="M1081.92 634.09v4.2h5.72c-.9 2.71-2.3 4.2-5.72 4.2a6.2 6.2 0 0 1-6.19-6.3 6.2 6.2 0 0 1 10.3-4.76c.87-.87.8-1 3-3.09a10.6 10.6 0 1 0-7.12 18.45c8.74 0 10.88-7.62 10.17-12.7h-10.16zm19.08.2v-3.67h-2.62v3.68h-3.77v2.62h3.77v3.78h2.62v-3.78h3.66v-2.62H1101z"/></defs><g><g transform="translate(-1071 -625)"><use fill="#fff" xlink:href="#hv1oa"/></g></g></svg>