<svg xmlns="http://www.w3.org/2000/svg" xmlns:xlink="http://www.w3.org/1999/xlink" width="22" height="24" viewBox="0 0 22 24"><defs><path id="g46ca" d="M39.28 775.92a.5.5 0 0 1-.7-.14l-1-1.5a.5.5 0 1 1 .84-.56l1 1.5a.5.5 0 0 1-.14.7zm-2.06.53a.5.5 0 0 1-.67-.23l-1-2a.5.5 0 0 1 .9-.44l1 2a.5.5 0 0 1-.23.67zm-2 .5a.5.5 0 0 1-.67-.23l-1-2a.5.5 0 0 1 .9-.44l1 2a.5.5 0 0 1-.23.67zm16.2-21.73A.5.5 0 0 0 51 755h-2a.5.5 0 0 0-.47.33l-6.49 17.6c-1.2-.46-2.93-.93-5.04-.93-3.56 0-6.5.19-6.5 2.5 0 2.53 2.42 4.5 4.5 4.5 1.8 0 7.9-1.94 8.15-2.02a.5.5 0 0 0 .32-.3l8-21a.5.5 0 0 0-.06-.46z"/><path id="g46cb" d="M33.5 765.95v2.55a.5.5 0 0 0 1 0v-2.55a2.5 2.5 0 1 0-1 0z"/></defs><g><g transform="translate(-30 -755)"><g><use fill="#4a9aeb" xlink:href="#g46ca"/></g><g><use fill="#4a9aeb" xlink:href="#g46cb"/></g></g></g></svg>