<svg xmlns="http://www.w3.org/2000/svg" xmlns:xlink="http://www.w3.org/1999/xlink" width="24" height="24" viewBox="0 0 24 24"><defs><path id="f2rwa" d="M30 177a12 12 0 1 1 24 0 12 12 0 0 1-24 0z"/><path id="f2rwb" d="M33 177a9 9 0 1 1 18 0 9 9 0 0 1-18 0z"/><path id="f2rwc" d="M42 185.77a8.77 8.77 0 0 1 0-17.54 4.38 4.38 0 1 1 0 8.77 4.38 4.38 0 1 0 0 8.77"/><path id="f2rwd" d="M40.85 181.38a1.15 1.15 0 1 1 2.3 0 1.15 1.15 0 0 1-2.3 0z"/><path id="f2rwe" d="M40.85 172.62a1.15 1.15 0 1 1 2.3-.01 1.15 1.15 0 0 1-2.3 0z"/></defs><g><g transform="translate(-30 -165)"><g><use fill="#fff" xlink:href="#f2rwa"/></g><g><g><use xlink:href="#f2rwb"/></g><g><use fill="#fff" xlink:href="#f2rwc"/></g><g><use fill="#fff" xlink:href="#f2rwd"/></g><g><use xlink:href="#f2rwe"/></g></g></g></g></svg>