<svg xmlns="http://www.w3.org/2000/svg" xmlns:xlink="http://www.w3.org/1999/xlink" width="24" height="24" viewBox="0 0 24 24"><defs><path id="qrhoa" d="M34.38 442.91c1.23 2.74 5.24 6.83 7.92 7.5v-.01l.24.05c.16.02.32.05.46.05 2.85 0 10-1.78 10-6 0-1.72-1.5-3.5-4-3.5-.99 0-1.76.45-2.03 1.17-.49 1.32-.22 1.87.88 2.98a.5.5 0 0 1-.7.7c-.3-.3-.56-.58-.77-.86-2.24-.17-6.38-4.98-6.38-6.49 0-.5.2-1.2.5-1.9l-.41-.82a.5.5 0 0 1-.09-.28c0-.27.22-.5.5-.5l.08.02V435c.2.03.26.05.48.47.38-.63.8-1.16 1.17-1.4a.5.5 0 0 1 .54.84c-.63.4-1.77 2.57-1.77 3.58 0 .75 2.97 4.43 4.82 5.31a3.4 3.4 0 0 1 .21-1.98C46.45 440.7 47.6 440 49 440a4.9 4.9 0 0 1 4.47 2.52 4.1 4.1 0 0 0 .53-2.02c0-1.81-3.17-9.5-9.5-9.5-6.28 0-10.5 8.7-10.5 10.5 0 .39.15.87.4 1.4z"/><path id="qrhob" d="M37.85 450.85a.5.5 0 0 1-.7 0l-3-3a.5.5 0 1 1 .7-.7l3 3c.2.19.2.5 0 .7zm-2 1a.5.5 0 0 1-.7 0l-2-2a.5.5 0 1 1 .7-.7l2 2c.2.19.2.5 0 .7zm-2.2-8.21l-2.8 2.8a2.92 2.92 0 0 0 0 4.12l3.58 3.58a2.91 2.91 0 0 0 4.13 0l2.95-2.95c-2.84-1.07-6.42-4.71-7.86-7.55z"/><path id="qrhoc" d="M41.5 452.75c-3 0-9-6.46-9-9 0-1.8 4.22-10.5 10.5-10.5a.5.5 0 0 1 0 1c-5.65 0-9.5 8.32-9.5 9.5 0 1.84 5.38 8 8 8 2.48 0 9-1.54 9-5a.5.5 0 0 1 1 0c0 4.27-7.06 6-10 6z"/></defs><g><g transform="translate(-30 -431)"><g><g><use fill="#4a9aeb" xlink:href="#qrhoa"/></g><g><use fill="#4a9aeb" xlink:href="#qrhob"/></g></g><g><use fill="#4a9aeb" xlink:href="#qrhoc"/></g></g></g></svg>