<svg xmlns="http://www.w3.org/2000/svg" xmlns:xlink="http://www.w3.org/1999/xlink" width="24" height="24" viewBox="0 0 24 24"><defs><path id="gg01a" d="M39.28 897.9c2.96-.63 10.8-5.34 10.97-7.13 0-.05.02-.1.04-.14a16.68 16.68 0 0 0-2.7-1.42c-.99.95-4.8 4.52-7.63 5.36-.34.18-.63 1.55-.68 3.32z"/><path id="gg01b" d="M53.02 893.35a.5.5 0 0 1 .12-.17 10.57 10.57 0 0 0-2-1.96c-.9 2.7-8.92 7.1-11.86 7.69.02.75.08 1.55.2 2.33 2.02-.1 10.86-1.65 13.54-7.89z"/><path id="gg01c" d="M31.02 896.33a11.51 11.51 0 0 0 2.87 4.79c.15-2.2.64-8.05 1.64-9.42a25.18 25.18 0 0 1-1.96-2.08 16.6 16.6 0 0 0-2.55 6.7v.01z"/><path id="gg01d" d="M47.49 886.47c.23.63.4 1.25.45 1.8.9.36 3.6 1.56 5.53 3.73-.11-1.24-.41-2.43-.88-3.53a28 28 0 0 0-5.1-2z"/><path id="gg01e" d="M44.78 890.28c-.04-1.15-4.23-7.32-5.32-8.4l-.04-.07c-1.44.34-2.78.94-3.96 1.76 1.5 1.55 7.2 7.72 7.46 8 .05.05.08.12.1.2.63-.46 1.23-.94 1.78-1.4l-.02-.09z"/><path id="gg01f" d="M38.26 898.66a.5.5 0 0 1 0-.39c0-1.6.2-3.02.59-3.83l.1-.18a13.8 13.8 0 0 1-2.69-1.9c-.58.91-1.17 5.4-1.41 9.41 0 .06-.02.12-.04.17a11.43 11.43 0 0 0 4.32 2.18 17.92 17.92 0 0 1-.87-5.46z"/><path id="gg01g" d="M39.65 902.24c.16.72.36 1.42.63 2.05l.01.07a11.51 11.51 0 0 0 13.07-9.49c-3.3 5.62-11.4 7.2-13.7 7.37z"/><path id="gg01h" d="M32.85 888.9c.02-.04.05-.06.07-.08-.39-.53-.7-1.01-.92-1.43a11.46 11.46 0 0 0-1.47 5.61c0 .24.03.48.04.72a18.42 18.42 0 0 1 2.28-4.83z"/><path id="gg01i" d="M45.64 889.65c.62-.55 1.08-1 1.31-1.22-.16-2.36-3.14-6.57-3.17-6.62a.5.5 0 0 1-.08-.17 11.59 11.59 0 0 0-3.15-.03c1.28 1.56 4.4 6.05 5.09 8.04z"/><path id="gg01j" d="M47.04 885.4c1.2.06 3.36.95 4.79 1.6a11.55 11.55 0 0 0-6.77-5.08c.51.77 1.34 2.1 1.98 3.48z"/><path id="gg01k" d="M32.66 886.4c.08.98 4.2 6 7.17 7.16.75-.25 1.59-.71 2.42-1.26l-.07-.05c-.06-.07-6.2-6.72-7.52-8.07a11.6 11.6 0 0 0-2 2.18v.04z"/></defs><g><g transform="translate(-30 -881)"><g><use fill="#4a9aeb" xlink:href="#gg01a"/></g><g><use fill="#4a9aeb" xlink:href="#gg01b"/></g><g><use fill="#4a9aeb" xlink:href="#gg01c"/></g><g><use fill="#4a9aeb" xlink:href="#gg01d"/></g><g><use fill="#4a9aeb" xlink:href="#gg01e"/></g><g><use fill="#4a9aeb" xlink:href="#gg01f"/></g><g><use fill="#4a9aeb" xlink:href="#gg01g"/></g><g><use fill="#4a9aeb" xlink:href="#gg01h"/></g><g><use fill="#4a9aeb" xlink:href="#gg01i"/></g><g><use fill="#4a9aeb" xlink:href="#gg01j"/></g><g><use fill="#4a9aeb" xlink:href="#gg01k"/></g></g></g></svg>