<svg xmlns="http://www.w3.org/2000/svg" xmlns:xlink="http://www.w3.org/1999/xlink" width="99" height="98" viewBox="0 0 99 98"><defs><path id="zkh1a" d="M1079.55 734.2h16.07c.96 0 1.6-.64 1.6-1.6v-3.2c0-.96-.64-1.6-1.6-1.6h-16.07c-.96 0-1.6.64-1.6 1.6v3.2c0 .96.64 1.6 1.6 1.6z"/><path id="zkh1b" d="M1082.78 734.2v3.2"/><path id="zkh1c" d="M1092.42 737.4v-3.2"/><path id="zkh1d" d="M1053.85 774.2c0-18.56 15.1-33.6 33.74-33.6a33.67 33.67 0 0 1 33.74 33.6c0 18.56-15.1 33.6-33.74 33.6a33.67 33.67 0 0 1-33.74-33.6z"/><path id="zkh1e" d="M1087.59 750.2v9.6c8.03 0 14.46 6.4 14.46 14.4s-6.43 14.4-14.46 14.4a14.9 14.9 0 0 1-10.28-4.16l-6.75 6.72a24.23 24.23 0 0 0 17.03 7.04 24.02 24.02 0 0 0 24.1-24c0-13.28-10.77-24-24.1-24z"/><path id="zkh1f" d="M1087.6 748.6v25.6l-18.16 18.08"/><path id="zkh1g" d="M1068.96 788.28a23.52 23.52 0 0 1-4.66-14.08 23.31 23.31 0 0 1 20.08-23.04"/><path id="zkh1h" d="M1118.28 748.12l-2.25 2.4"/><path id="zkh1i" d="M1111.37 745.88l2.41-2.24"/><path id="zkh1j" d="M1118.28 748.12l-4.5-4.48a1.54 1.54 0 0 1 0-2.24l1.13-1.12c.64-.64 1.6-.64 2.25 0l4.5 4.48c.64.64.64 1.6 0 2.24l-1.13 1.12c-.64.64-1.6.64-2.25 0z"/><path id="zkh1k" d="M1121.33 723c9.8 0 17.67 7.84 17.67 17.6"/><path id="zkh1l" d="M1121.33 729.4c6.27 0 11.25 4.96 11.25 11.2"/><path id="zkh1m" d="M1121.33 735.8a4.72 4.72 0 0 1 4.82 4.8"/><path id="zkh1n" d="M1042.6 774.2a44.84 44.84 0 0 1 30.53-42.4"/><path id="zkh1o" d="M1042.6 777.4v1.6"/><path id="zkh1p" d="M1132.57 774.2c0 24.8-20.08 44.8-44.98 44.8"/><path id="zkh1q" d="M1132.57 769.4v1.6"/><path id="zkh1r" d="M1048.39 798.68h6.43"/><path id="zkh1s" d="M1051.6 795.48v6.4"/><path id="zkh1t" d="M1059.64 809.08h6.41"/><path id="zkh1u" d="M1062.84 805.88v6.4"/></defs><g><g transform="translate(-1041 -722)"><g><g><use fill="#fff" fill-opacity="0" stroke="#4a9aeb" stroke-linecap="round" stroke-linejoin="round" stroke-miterlimit="50" stroke-width="1.6" xlink:href="#zkh1a"/></g><g><use fill="#fff" fill-opacity="0" stroke="#4a9aeb" stroke-linecap="round" stroke-linejoin="round" stroke-miterlimit="50" stroke-width="1.6" xlink:href="#zkh1b"/></g><g><use fill="#fff" fill-opacity="0" stroke="#4a9aeb" stroke-linecap="round" stroke-linejoin="round" stroke-miterlimit="50" stroke-width="1.6" xlink:href="#zkh1c"/></g><g><use fill="#fff" fill-opacity="0" stroke="#4a9aeb" stroke-linecap="round" stroke-linejoin="round" stroke-miterlimit="50" stroke-width="1.6" xlink:href="#zkh1d"/></g><g><use fill="#fff" fill-opacity="0" stroke="#4a9aeb" stroke-linecap="round" stroke-linejoin="round" stroke-miterlimit="50" stroke-width="1.6" xlink:href="#zkh1e"/></g><g><use fill="#fff" fill-opacity="0" stroke="#7ed321" stroke-linecap="round" stroke-linejoin="round" stroke-miterlimit="50" stroke-width="1.6" xlink:href="#zkh1f"/></g><g><use fill="#fff" fill-opacity="0" stroke="#4a9aeb" stroke-linecap="round" stroke-linejoin="round" stroke-miterlimit="50" stroke-width="1.6" xlink:href="#zkh1g"/></g><g><use fill="#fff" fill-opacity="0" stroke="#4a9aeb" stroke-linecap="round" stroke-linejoin="round" stroke-miterlimit="50" stroke-width="1.6" xlink:href="#zkh1h"/></g><g><use fill="#fff" fill-opacity="0" stroke="#4a9aeb" stroke-linecap="round" stroke-linejoin="round" stroke-miterlimit="50" stroke-width="1.6" xlink:href="#zkh1i"/></g><g><use fill="#fff" fill-opacity="0" stroke="#4a9aeb" stroke-linecap="round" stroke-linejoin="round" stroke-miterlimit="50" stroke-width="1.6" xlink:href="#zkh1j"/></g></g><g><g><use fill="#fff" fill-opacity="0" stroke="#7ed321" stroke-linecap="round" stroke-linejoin="round" stroke-miterlimit="50" stroke-width="1.6" xlink:href="#zkh1k"/></g><g><use fill="#fff" fill-opacity="0" stroke="#7ed321" stroke-linecap="round" stroke-linejoin="round" stroke-miterlimit="50" stroke-width="1.6" xlink:href="#zkh1l"/></g><g><use fill="#fff" fill-opacity="0" stroke="#7ed321" stroke-linecap="round" stroke-linejoin="round" stroke-miterlimit="50" stroke-width="1.6" xlink:href="#zkh1m"/></g></g><g><use fill="#fff" fill-opacity="0" stroke="#4a9aeb" stroke-linecap="round" stroke-linejoin="round" stroke-miterlimit="50" stroke-width="1.6" xlink:href="#zkh1n"/></g><g><use fill="#fff" fill-opacity="0" stroke="#4a9aeb" stroke-linecap="round" stroke-linejoin="round" stroke-miterlimit="50" stroke-width="1.6" xlink:href="#zkh1o"/></g><g><use fill="#fff" fill-opacity="0" stroke="#4a9aeb" stroke-linecap="round" stroke-linejoin="round" stroke-miterlimit="50" stroke-width="1.6" xlink:href="#zkh1p"/></g><g><use fill="#fff" fill-opacity="0" stroke="#4a9aeb" stroke-linecap="round" stroke-linejoin="round" stroke-miterlimit="50" stroke-width="1.6" xlink:href="#zkh1q"/></g><g><use fill="#fff" fill-opacity="0" stroke="#7ed321" stroke-linecap="round" stroke-linejoin="round" stroke-miterlimit="50" stroke-width="1.6" xlink:href="#zkh1r"/></g><g><use fill="#fff" fill-opacity="0" stroke="#7ed321" stroke-linecap="round" stroke-linejoin="round" stroke-miterlimit="50" stroke-width="1.6" xlink:href="#zkh1s"/></g><g><use fill="#fff" fill-opacity="0" stroke="#7ed321" stroke-linecap="round" stroke-linejoin="round" stroke-miterlimit="50" stroke-width="1.6" xlink:href="#zkh1t"/></g><g><use fill="#fff" fill-opacity="0" stroke="#7ed321" stroke-linecap="round" stroke-linejoin="round" stroke-miterlimit="50" stroke-width="1.6" xlink:href="#zkh1u"/></g></g></g></svg>