<svg xmlns="http://www.w3.org/2000/svg" xmlns:xlink="http://www.w3.org/1999/xlink" width="22" height="24" viewBox="0 0 22 24"><defs><path id="iat4a" d="M52.5 449c0 .83-.67 1.5-1.5 1.5h-1a1.5 1.5 0 0 1-1.5-1.5.5.5 0 0 1 1 0c0 .28.23.5.5.5h1a.5.5 0 0 0 0-1h-1a.5.5 0 0 1 0-1h1a.5.5 0 0 0 0-1h-1a.5.5 0 0 0-.5.5.5.5 0 0 1-1 0c0-.83.67-1.5 1.5-1.5h1a1.5 1.5 0 0 1 1.12 2.5c.23.27.38.62.38 1zm.5-5.5h-5a.5.5 0 0 0-.5.5v8c0 .28.22.5.5.5h5a.5.5 0 0 0 .5-.5v-8a.5.5 0 0 0-.5-.5z"/><path id="iat4b" d="M37 449.5a.5.5 0 0 1 0 1h-3a.5.5 0 0 1-.35-.85l2.64-2.65a.7.7 0 0 0 .2-.5 1 1 0 0 0-2 0 .5.5 0 0 1-1 0 2 2 0 0 1 4 0c0 .46-.17.88-.5 1.2l-1.78 1.8H37zm1-7h-5a.5.5 0 0 0-.5.5v9c0 .28.22.5.5.5h5a.5.5 0 0 0 .5-.5v-9a.5.5 0 0 0-.5-.5z"/><path id="iat4c" d="M44 447.5h-2a.5.5 0 0 1 0-1h.5v-3.85l-.08.13a.5.5 0 0 1-.84-.56l1-1.5a.5.5 0 1 1 .92.28v5.5h.5a.5.5 0 0 1 0 1zm2-9h-6a.5.5 0 0 0-.5.5v13c0 .28.22.5.5.5h6a.5.5 0 0 0 .5-.5v-13a.5.5 0 0 0-.5-.5z"/><path id="iat4d" d="M46.82 432.25h-2.56l-.79-2.44c-.13-.41-.81-.41-.95 0l-.8 2.44h-2.55a.5.5 0 0 0-.3.9l2.07 1.51-.79 2.44a.5.5 0 0 0 .77.56l2.07-1.5 2.08 1.5a.5.5 0 0 0 .58 0 .5.5 0 0 0 .19-.56l-.8-2.44 2.08-1.5a.5.5 0 1 0-.3-.9z"/></defs><g><g transform="translate(-32 -429)"><g><use fill="#4a9aeb" xlink:href="#iat4a"/></g><g><use fill="#4a9aeb" xlink:href="#iat4b"/></g><g><use fill="#4a9aeb" xlink:href="#iat4c"/></g><g><use fill="#4a9aeb" xlink:href="#iat4d"/></g></g></g></svg>