<svg xmlns="http://www.w3.org/2000/svg" xmlns:xlink="http://www.w3.org/1999/xlink" width="25" height="30" viewBox="0 0 25 30"><defs><path id="xghxa" d="M369.1 60.06h.32c1.52 3.87 4.44 6.47 7.47 6.48 3.03.01 5.88-2.65 7.41-6.54h.4a2.83 2.83 0 0 0 2.57-3 3 3 0 0 0-1.83-2.88c.07-6.74-3.57-10.12-8.55-10.12s-8.63 3.38-8.56 10.17A3 3 0 0 0 366.5 57a2.83 2.83 0 0 0 2.6 3.06zm14.84 6.69h-.46a9.59 9.59 0 0 1-6.55 2.81 9.68 9.68 0 0 1-6.57-2.81h-.44c-2.32.3-4.72 2.25-5.1 4.14v.18a1.86 1.86 0 0 0 1.48 2.17c3.34.52 6.71.78 10.1.76a60.9 60.9 0 0 0 11.1-.94 1.85 1.85 0 0 0 1.5-2.15c-.39-1.86-2.79-3.84-5.06-4.16z"/></defs><g><g transform="translate(-364 -44)"><g><use fill="#4a9aeb" xlink:href="#xghxa"/></g></g></g></svg>