<svg xmlns="http://www.w3.org/2000/svg" xmlns:xlink="http://www.w3.org/1999/xlink" width="101" height="101" viewBox="0 0 101 101"><defs><path id="3np3a" d="M829.2 794.46v1.6"/><path id="3np3b" d="M829.2 760.93v30.34"/><path id="3np3c" d="M921.8 781.7v1.59"/><path id="3np3d" d="M921.8 748.15v30.34"/><path id="3np3e" d="M839.1 728.19v6.39"/><path id="3np3f" d="M842.29 731.38h-6.4"/><path id="3np3g" d="M829.19 740.97v6.39"/><path id="3np3h" d="M832.39 744.15H826"/><path id="3np3i" d="M913.81 740.97v59.88c0 2.23-1.75 3.99-3.99 3.99h-68.65c-2.24 0-4-1.76-4-4v-59.87"/><path id="3np3j" d="M921 737.77h-91c-2.24 0-4-1.75-4-3.99V729c0-2.23 1.76-3.99 4-3.99h91c2.24 0 4 1.76 4 4v4.78c0 2.24-1.76 4-4 4z"/><path id="3np3k" d="M851.56 790.47h-6.4c-.96 0-1.6-.64-1.6-1.6v-28.74c0-.96.64-1.6 1.6-1.6h6.4c.96 0 1.6.64 1.6 1.6v28.74c0 .96-.64 1.6-1.6 1.6z"/><path id="3np3l" d="M880.29 790.48h-6.39c-.95 0-1.6-.64-1.6-1.6v-39.93c0-.96.65-1.6 1.6-1.6h6.39c.96 0 1.6.64 1.6 1.6v39.93c0 .96-.64 1.6-1.6 1.6z"/><path id="3np3m" d="M865.92 790.48h-6.39c-.96 0-1.6-.64-1.6-1.6v-19.17c0-.96.64-1.6 1.6-1.6h6.39c.96 0 1.6.64 1.6 1.6v19.17c0 .96-.64 1.6-1.6 1.6z"/><path id="3np3n" d="M891.47 769.71h15.97"/><path id="3np3o" d="M891.47 780.89h15.97"/><path id="3np3p" d="M891.47 785.68h15.97"/><path id="3np3q" d="M891.47 790.47h7.98"/><path id="3np3r" d="M875.5 808.03v6.39"/><path id="3np3s" d="M870.71 819.21a4.79 4.79 0 1 1 9.58 0 4.79 4.79 0 0 1-9.58 0z"/><path id="3np3t" d="M909.03 750.56v-8h-7.98"/><path id="3np3u" d="M925 802.45h-6.39"/><path id="3np3v" d="M921.8 799.25v6.39"/><path id="3np3w" d="M913.83 812.8h-6.39"/><path id="3np3x" d="M910.62 809.63v6.39"/></defs><g><g transform="translate(-825 -724)"><g><g><use fill="#fff" fill-opacity="0" stroke="#4a9aeb" stroke-linecap="round" stroke-linejoin="round" stroke-miterlimit="50" stroke-width="1.6" xlink:href="#3np3a"/></g><g><use fill="#fff" fill-opacity="0" stroke="#4a9aeb" stroke-linecap="round" stroke-linejoin="round" stroke-miterlimit="50" stroke-width="1.6" xlink:href="#3np3b"/></g></g><g><g><use fill="#fff" fill-opacity="0" stroke="#4a9aeb" stroke-linecap="round" stroke-linejoin="round" stroke-miterlimit="50" stroke-width="1.6" xlink:href="#3np3c"/></g><g><use fill="#fff" fill-opacity="0" stroke="#4a9aeb" stroke-linecap="round" stroke-linejoin="round" stroke-miterlimit="50" stroke-width="1.6" xlink:href="#3np3d"/></g></g><g><g><g><use fill="#fff" fill-opacity="0" stroke="#4a9aeb" stroke-linecap="round" stroke-linejoin="round" stroke-miterlimit="50" stroke-width="1.6" xlink:href="#3np3e"/></g><g><use fill="#fff" fill-opacity="0" stroke="#4a9aeb" stroke-linecap="round" stroke-linejoin="round" stroke-miterlimit="50" stroke-width="1.6" xlink:href="#3np3f"/></g></g><g><g><use fill="#fff" fill-opacity="0" stroke="#4a9aeb" stroke-linecap="round" stroke-linejoin="round" stroke-miterlimit="50" stroke-width="1.6" xlink:href="#3np3g"/></g><g><use fill="#fff" fill-opacity="0" stroke="#4a9aeb" stroke-linecap="round" stroke-linejoin="round" stroke-miterlimit="50" stroke-width="1.6" xlink:href="#3np3h"/></g></g></g><g><g><use fill="#fff" fill-opacity="0" stroke="#4a9aeb" stroke-linecap="round" stroke-linejoin="round" stroke-miterlimit="50" stroke-width="1.6" xlink:href="#3np3i"/></g><g><use fill="#fff" fill-opacity="0" stroke="#4a9aeb" stroke-linecap="round" stroke-linejoin="round" stroke-miterlimit="50" stroke-width="1.6" xlink:href="#3np3j"/></g><g><use fill="#fff" fill-opacity="0" stroke="#7ed321" stroke-linecap="round" stroke-linejoin="round" stroke-miterlimit="50" stroke-width="1.6" xlink:href="#3np3k"/></g><g><use fill="#fff" fill-opacity="0" stroke="#7ed321" stroke-linecap="round" stroke-linejoin="round" stroke-miterlimit="50" stroke-width="1.6" xlink:href="#3np3l"/></g><g><use fill="#fff" fill-opacity="0" stroke="#7ed321" stroke-linecap="round" stroke-linejoin="round" stroke-miterlimit="50" stroke-width="1.6" xlink:href="#3np3m"/></g><g><use fill="#fff" fill-opacity="0" stroke="#4a9aeb" stroke-linecap="round" stroke-linejoin="round" stroke-miterlimit="50" stroke-width="1.6" xlink:href="#3np3n"/></g><g><use fill="#fff" fill-opacity="0" stroke="#4a9aeb" stroke-linecap="round" stroke-linejoin="round" stroke-miterlimit="50" stroke-width="1.6" xlink:href="#3np3o"/></g><g><use fill="#fff" fill-opacity="0" stroke="#4a9aeb" stroke-linecap="round" stroke-linejoin="round" stroke-miterlimit="50" stroke-width="1.6" xlink:href="#3np3p"/></g><g><use fill="#fff" fill-opacity="0" stroke="#4a9aeb" stroke-linecap="round" stroke-linejoin="round" stroke-miterlimit="50" stroke-width="1.6" xlink:href="#3np3q"/></g><g><use fill="#fff" fill-opacity="0" stroke="#4a9aeb" stroke-linecap="round" stroke-linejoin="round" stroke-miterlimit="50" stroke-width="1.6" xlink:href="#3np3r"/></g><g><use fill="#fff" fill-opacity="0" stroke="#4a9aeb" stroke-linecap="round" stroke-linejoin="round" stroke-miterlimit="50" stroke-width="1.6" xlink:href="#3np3s"/></g><g><use fill="#fff" fill-opacity="0" stroke="#4a9aeb" stroke-linecap="round" stroke-linejoin="round" stroke-miterlimit="50" stroke-width="1.6" xlink:href="#3np3t"/></g></g><g><g><g><use fill="#fff" fill-opacity="0" stroke="#7ed321" stroke-linecap="round" stroke-linejoin="round" stroke-miterlimit="50" stroke-width="1.6" xlink:href="#3np3u"/></g><g><use fill="#fff" fill-opacity="0" stroke="#7ed321" stroke-linecap="round" stroke-linejoin="round" stroke-miterlimit="50" stroke-width="1.6" xlink:href="#3np3v"/></g></g><g><g><use fill="#fff" fill-opacity="0" stroke="#7ed321" stroke-linecap="round" stroke-linejoin="round" stroke-miterlimit="50" stroke-width="1.6" xlink:href="#3np3w"/></g><g><use fill="#fff" fill-opacity="0" stroke="#7ed321" stroke-linecap="round" stroke-linejoin="round" stroke-miterlimit="50" stroke-width="1.6" xlink:href="#3np3x"/></g></g></g></g></g></svg>