<svg xmlns="http://www.w3.org/2000/svg" xmlns:xlink="http://www.w3.org/1999/xlink" width="22" height="24" viewBox="0 0 22 24"><defs><path id="bw0ba" d="M798.91 353.69a3.16 3.16 0 0 0-1.91 2.9v3.08a.5.5 0 0 1-.85.35l-1.59-1.58a1.53 1.53 0 0 0-2.12 0 1.5 1.5 0 0 0-.28 1.72.5.5 0 0 1-.36.84H791.5a.5.5 0 0 1-.5-.5v-6a2.5 2.5 0 0 1 2.5-2.5h6.92a.5.5 0 0 1 .2.96zm2.09 9.81a.5.5 0 0 0-1 0v2a.5.5 0 0 0 1 0zm7-9.34v17.25c0 .86-.51 1.64-1.3 1.98l-5.69 2.44a2.16 2.16 0 0 1-3.01-1.98v-17.26c0-.86.51-1.64 1.3-1.98l5.69-2.44a2.16 2.16 0 0 1 3.01 1.98zm-11.04 8.15a.5.5 0 0 1-.1.55l-3 3a.5.5 0 0 1-.71 0 .5.5 0 0 1 0-.71l2.14-2.15h-8.79a.5.5 0 0 1 0-1h8.8l-2.15-2.15a.5.5 0 0 1 .7-.7l3 3c.05.04.09.1.11.16zm.04 3.02v7.17a.5.5 0 0 1-.5.5h-3a2.5 2.5 0 0 1-2.5-2.5v-6c0-.28.22-.5.5-.5h.28a.5.5 0 0 1 .43.75 1.5 1.5 0 0 0 .23 1.81c.57.57 1.56.57 2.12 0l1.59-1.59a.5.5 0 1 1 .85.35z"/></defs><g><g transform="translate(-786 -352)"><g><use fill="#fff" xlink:href="#bw0ba"/></g></g></g></svg>