<svg xmlns="http://www.w3.org/2000/svg" xmlns:xlink="http://www.w3.org/1999/xlink" width="25" height="14" viewBox="0 0 25 14"><defs><path id="agw7a" d="M1067.27 459.17h-3.92a.89.89 0 0 0-.78.45s-1.56 2.82-2.06 3.77c-1.35 2.56-2.22 1.76-2.22.57v-4.09a1.3 1.3 0 0 0-1.32-1.29h-2.94c-.82-.06-1.6.3-2.09.95 0 0 1.5-.24 1.5 1.74 0 .49.02 1.9.05 3.08 0 .36-.21.68-.55.81a.88.88 0 0 1-.97-.22 24.98 24.98 0 0 1-2.97-5.3.83.83 0 0 0-.75-.47h-3.56a.6.6 0 0 0-.5.25.58.58 0 0 0-.07.55c1.08 2.9 5.73 12.03 11.05 12.03h2.23c.49 0 .89-.39.89-.87v-1.32c0-.34.2-.65.52-.78a.88.88 0 0 1 .94.16l2.68 2.47c.24.22.55.34.88.34h3.52c1.7 0 1.7-1.15.77-2.05-.65-.62-3-3.05-3-3.05a1.17 1.17 0 0 1-.1-1.54l2.53-3.27c.72-.94 2.03-2.92.24-2.92z"/></defs><g><g transform="translate(-1044 -458)"><use fill="#fff" xlink:href="#agw7a"/></g></g></svg>