<svg xmlns="http://www.w3.org/2000/svg" xmlns:xlink="http://www.w3.org/1999/xlink" width="22" height="22" viewBox="0 0 22 22"><defs><path id="wk5ma" d="M52.18 405.56h-4.6v-.45a2.3 2.3 0 0 1 4.6 0zm-1.85 3.53v.6a.46.46 0 0 1-.91 0v-.6a.9.9 0 0 1-.46-.77.92.92 0 0 1 1.83 0 .9.9 0 0 1-.46.77zm3.21-3.53h-.46v-.45a3.21 3.21 0 0 0-6.41 0v.45h-.46c-.25 0-.46.2-.46.46v5.5c0 .26.2.46.46.46h7.33c.25 0 .46-.2.46-.46v-5.5c0-.25-.2-.46-.46-.46zm-5.86-3.93a.46.46 0 0 0 .18-.21l.16-.46c.54-.13.96-.59 1.04-1.17l.22-1.83a1.37 1.37 0 0 0-.87-1.45l.08-1.73.34-.34c.52-.55.95-1.5.05-2.86-.68-1.05-1.85-1.58-3.47-1.58-.64 0-2.1 0-3.47.92-3.9.08-4.44 1.9-4.44 3.66 0 .41.1 1.34.17 1.9a1.37 1.37 0 0 0-.95 1.48l.23 1.84c.07.6.52 1.06 1.1 1.18.19 1.26.8 2.5 1.68 3.4l-.32 1.28-3.5.88a5.14 5.14 0 0 0-3.91 5c0 .12.05.24.13.32.09.09.2.14.33.14l11.92-.02c.25 0 .45-.2.45-.46v-5.5c0-.5.29-.97.75-1.2.12-.08.21-.2.24-.34.18-1.17.86-2.2 1.86-2.85z"/></defs><g><g transform="translate(-32 -390)"><g><use fill="#4a9aeb" xlink:href="#wk5ma"/></g></g></g></svg>