<svg xmlns="http://www.w3.org/2000/svg" xmlns:xlink="http://www.w3.org/1999/xlink" width="24" height="24" viewBox="0 0 24 24"><defs><path id="s81da" d="M49.95 322l-.44-4.43 1.31-3.5 1.87.38a10.93 10.93 0 0 1-.9 7.55zm-6.87.33l1.3-3.87 4.17-.41.42 4.18-3.43 2.14zm1.47 5.36a10.96 10.96 0 0 1-8.58-1.5l1.35-2.72 5.02-.45 2.62 2.18zM31 317c0-2.2.65-4.23 1.76-5.95l2.39.4 1.29 3-2.24 3.59-3.09.44A10.9 10.9 0 0 1 31 317zm11.34-6.8l-1.67 3.34-3.36.42-1.2-2.8 3.43-2.56zm-2.34-4a10.91 10.91 0 0 1 7.5 1.3v1.55l-4.4.44-3.1-1.78zm-4.92 12.31l2.22-3.54 3.47-.44 2.67 3.56-1.31 3.94-4.85.44zm13.42-10.36c1.77 1.3 3.13 3.1 3.87 5.2l-1.56-.3-2.31-3.7zM42 305a11.99 11.99 0 0 0-12 12c0 6.62 5.38 12 12 12s12-5.38 12-12-5.38-12-12-12z"/></defs><g><g transform="translate(-30 -305)"><g><use fill="#4a9aeb" xlink:href="#s81da"/></g></g></g></svg>