<svg xmlns="http://www.w3.org/2000/svg" xmlns:xlink="http://www.w3.org/1999/xlink" width="22" height="10" viewBox="0 0 22 10"><defs><path id="b2s5a" d="M43.5 363.92v-4l-1 .05v4l1-.05z"/><path id="b2s5b" d="M45.5 363.73v-3.99l-1 .1v4l1-.1z"/><path id="b2s5c" d="M47.5 363.4v-3.97l-1 .17v3.99l1-.19z"/><path id="b2s5d" d="M49.5 362.87v-3.94c-.32.1-.65.2-1 .28v3.96l1-.3z"/><path id="b2s5e" d="M41 354c-6.41 0-10.5 1.48-10.5 2.5S34.59 359 41 359s10.5-1.48 10.5-2.5S47.41 354 41 354z"/><path id="b2s5f" d="M50.5 362.46c.65-.33 1-.66 1-.96v-3.48c-.28.2-.62.37-1 .54z"/><path id="b2s5g" d="M40.5 360v4h1v-4h-1z"/><path id="b2s5h" d="M33.5 363.17v-3.96c-.35-.09-.69-.18-1-.28v3.94l1 .3z"/><path id="b2s5i" d="M31.5 362.46v-3.9a6.04 6.04 0 0 1-1-.54v3.48c0 .3.35.63 1 .96z"/><path id="b2s5j" d="M37.5 363.84v-4l-1-.1v4l1 .1z"/><path id="b2s5k" d="M35.5 363.59v-3.99a26.2 26.2 0 0 1-1-.17v3.97l1 .19z"/><path id="b2s5l" d="M39.5 363.97v-4l-1-.05v4l1 .05z"/></defs><g><g transform="translate(-30 -354)"><g><use fill="#4a9aeb" xlink:href="#b2s5a"/></g><g><use fill="#4a9aeb" xlink:href="#b2s5b"/></g><g><use fill="#4a9aeb" xlink:href="#b2s5c"/></g><g><use fill="#4a9aeb" xlink:href="#b2s5d"/></g><g><use fill="#4a9aeb" xlink:href="#b2s5e"/></g><g><use fill="#4a9aeb" xlink:href="#b2s5f"/></g><g><use fill="#4a9aeb" xlink:href="#b2s5g"/></g><g><use fill="#4a9aeb" xlink:href="#b2s5h"/></g><g><use fill="#4a9aeb" xlink:href="#b2s5i"/></g><g><use fill="#4a9aeb" xlink:href="#b2s5j"/></g><g><use fill="#4a9aeb" xlink:href="#b2s5k"/></g><g><use fill="#4a9aeb" xlink:href="#b2s5l"/></g></g></g></svg>