<svg xmlns="http://www.w3.org/2000/svg" xmlns:xlink="http://www.w3.org/1999/xlink" width="16" height="24" viewBox="0 0 16 24"><defs><path id="twl1a" d="M42 926c-.83 0-1.5.67-1.5 1.5a.5.5 0 0 1-1 0A2.5 2.5 0 0 1 42 925a.5.5 0 0 1 0 1zm0-3a4.5 4.5 0 1 0 .01 9.01A4.5 4.5 0 0 0 42 923z"/><path id="twl1b" d="M46.45 931.29c-.08-.17-.46-.75-1.98-1.07a.5.5 0 0 0-.59.39v.1h-3.76v-.1a.5.5 0 0 0-.6-.4c-1.51.33-1.9.9-1.97 1.08a.5.5 0 0 0-.05.21v1c0 .13.05.25.14.35.11.11 1.2 1.15 4.36 1.15s4.25-1.04 4.36-1.15a.5.5 0 0 0 .14-.35v-1a.5.5 0 0 0-.05-.21z"/><path id="twl1c" d="M47.42 942.23c-.03-.05-2.92-4.47-2.92-8.73a.5.5 0 0 0-1 0h-3a.5.5 0 0 0-1 0c0 4.25-2.89 8.68-2.92 8.72a.5.5 0 0 0 .1.67c.14.1 1.46 1.11 5.32 1.11 3.86 0 5.18-1 5.32-1.11a.5.5 0 0 0 .1-.66z"/><path id="twl1d" d="M39.84 941.86c.64.1 1.37.14 2.16.14.78 0 1.5-.05 2.15-.14a.5.5 0 0 0 .38-.71l-.17-.36a.5.5 0 0 0-.46-.29H40.1a.5.5 0 0 0-.46.29l-.16.36a.5.5 0 0 0 .37.71z"/><path id="twl1e" d="M49.5 942.65v-.24a.5.5 0 0 0-1 .07c0 .46-.2.89-.54 1.17-.27.23-1.84 1.35-5.96 1.35s-5.69-1.12-5.96-1.35a1.49 1.49 0 0 1-.54-1.17c0-.26-.19-.5-.45-.53-.28-.01-.5.14-.53.4a.55.55 0 0 0-.02.15v2c0 .1.03.2.1.29.05.09 1.61 2.21 7.4 2.21s7.35-2.12 7.4-2.21a.5.5 0 0 0 .1-.29z"/></defs><g><g transform="translate(-34 -923)"><g><use fill="#4a9aeb" xlink:href="#twl1a"/></g><g><use fill="#4a9aeb" xlink:href="#twl1b"/></g><g><use fill="#4a9aeb" xlink:href="#twl1c"/></g><g><g><use fill="#4a9aeb" xlink:href="#twl1d"/></g><g><use fill="#4a9aeb" xlink:href="#twl1e"/></g></g></g></g></svg>