<svg xmlns="http://www.w3.org/2000/svg" xmlns:xlink="http://www.w3.org/1999/xlink" width="22" height="22" viewBox="0 0 22 22"><defs><path id="xk2ma" d="M50.25 674.45a.5.5 0 0 1-.7 0 1.49 1.49 0 0 0-1.07-.44c-.3 0-.83.04-1.14.35l-1.5 1.5a.5.5 0 0 1-.71 0 .5.5 0 0 1 0-.7l1.5-1.5c.53-.54 1.3-.65 1.85-.65.67 0 1.3.26 1.77.73.2.2.2.51 0 .7zm-4.24-1.42l-2.4 2.14a.5.5 0 0 0-.02.73l4.5 4.5c.2.2.53.2.73-.02l2.12-2.38.02-.02a3.46 3.46 0 0 0 1-2.51c-.16-3.52-4.06-4.33-5.95-2.44z"/><path id="xk2mb" d="M44.42 678.16l-.16-.16a.66.66 0 0 0-.77-.09l-12.02 7.58a.55.55 0 0 0-.19.7l2.02 3.11c.17.22.32.38.32.38l.36-.37 10.44-10.45a.5.5 0 0 0 0-.7z"/><path id="xk2mc" d="M42.82 676.57l-.12-.12a.84.84 0 0 0-.82-.18l-11.43 4.4c-.25.1-.44.4-.41.68l.52 2.96c.07.27.31.36.55.22l11.64-7.34c.24-.15.27-.43.07-.62z"/><path id="xk2md" d="M46 679.73l-.16-.16a.5.5 0 0 0-.71 0l-10.44 10.44-.36.36c-.01 0 .15.15.37.32l3.1 2.02c.25.13.57.04.71-.19l7.57-12.01a.66.66 0 0 0-.09-.78z"/><path id="xk2me" d="M47.42 681.16c-.2-.2-.48-.16-.62.07l-7.33 11.66c-.15.23-.05.48.21.55l2.96.52a.7.7 0 0 0 .68-.42l4.39-11.44a.84.84 0 0 0-.17-.82z"/></defs><g><g transform="translate(-30 -672)"><g><use fill="#4a9aeb" xlink:href="#xk2ma"/></g><g><use fill="#4a9aeb" xlink:href="#xk2mb"/></g><g><use fill="#4a9aeb" xlink:href="#xk2mc"/></g><g><use fill="#4a9aeb" xlink:href="#xk2md"/></g><g><use fill="#4a9aeb" xlink:href="#xk2me"/></g></g></g></svg>