<svg xmlns="http://www.w3.org/2000/svg" xmlns:xlink="http://www.w3.org/1999/xlink" width="102" height="79" viewBox="0 0 102 79"><defs><path id="j9sla" d="M1335.86 741.61c-.48 0-.8.33-.8.8v1.93h-.48c-1.9 0-3.5 1.6-3.5 3.53 0 1.93 1.6 3.53 3.5 3.53h2.71c.96 0 1.92.8 1.92 1.93 0 .96-.8 1.92-1.92 1.92h-3.98c-.48 0-.8.32-.8.8 0 .48.32.8.8.8h1.75v1.6c0 .49.32.81.8.81.48 0 .8-.32.8-.8v-1.93h.47c1.92 0 3.51-1.6 3.51-3.53 0-1.92-1.6-3.52-3.5-3.52h-2.71c-.96 0-1.92-.8-1.92-1.93 0-.96.8-1.92 1.92-1.92h3.98c.48 0 .8-.33.8-.8 0-.49-.32-.8-.8-.8h-1.75v-1.61c0-.48-.32-.8-.8-.8z"/><path id="j9slb" d="M1311.95 793.75v11.23c0 4.5-3.51 8.02-7.97 8.02h-30.28a7.92 7.92 0 0 1-7.97-8.02v-60.96c0-4.5 3.5-8.02 7.97-8.02h30.28a7.92 7.92 0 0 1 7.97 8.02v11.23"/><path id="j9slc" d="M1311.95 803.38h-46.22"/><path id="j9sld" d="M1265.73 745.63h46.22"/><path id="j9sle" d="M1284.07 740.81h9.56"/><path id="j9slf" d="M1292.03 809.8h-6.37c-.96 0-1.6-.65-1.6-1.61 0-.97.64-1.6 1.6-1.6h6.37c.96 0 1.6.64 1.6 1.6 0 .96-.64 1.6-1.6 1.6z"/><path id="j9slg" d="M1333.15 813c-.64 0-1.27-.16-1.75-.64l-7.97-7.86a2.34 2.34 0 0 1 0-3.37 2.3 2.3 0 0 1 3.34 0l6.22 6.26 12.91-13a2.3 2.3 0 0 1 3.35 0c.95.96.95 2.4 0 3.37l-14.67 14.76c-.15.32-.8.48-1.43.48z"/><path id="j9slh" d="M1327.89 790.54h-39.85a3.96 3.96 0 0 1-3.98-4v-24.07a3.96 3.96 0 0 1 3.98-4.01h39.85a3.96 3.96 0 0 1 3.98 4v24.07a3.96 3.96 0 0 1-3.98 4.01z"/><path id="j9sli" d="M1331.88 764.23c1.28.32 2.55.65 3.99.65 7.97 0 14.34-6.42 14.34-14.44s-6.37-14.44-14.34-14.44a14.33 14.33 0 0 0-14.35 14.44c0 3.05.96 5.77 2.4 8.02"/><path id="j9slj" d="M1284.06 771.3v-6.41h47.81v6.41z"/><path id="j9slk" d="M1320.72 781.72a3.2 3.2 0 0 1 3.19-3.21 3.2 3.2 0 0 1 3.19 3.21 3.2 3.2 0 0 1-3.19 3.21 3.2 3.2 0 0 1-3.19-3.21z"/><path id="j9sll" d="M1320.71 781.72c0-.96.48-1.92 1.28-2.4a2.93 2.93 0 0 0-1.92-.8 3.2 3.2 0 0 0 0 6.4c.8 0 1.44-.31 1.92-.8a2.83 2.83 0 0 1-1.28-2.4z"/><path id="j9slm" d="M1288.84 779.32h-30.28"/><path id="j9sln" d="M1251.4 782.52h-1.6"/><path id="j9slo" d="M1279.28 782.52h-24.7"/></defs><g><g transform="translate(-1249 -735)"><g><use fill="#7ed321" xlink:href="#j9sla"/></g><g><g><use fill="#fff" fill-opacity="0" stroke="#4a9aeb" stroke-linecap="round" stroke-linejoin="round" stroke-miterlimit="50" stroke-width="1.6" xlink:href="#j9slb"/></g><g><use fill="#fff" fill-opacity="0" stroke="#4a9aeb" stroke-linecap="round" stroke-linejoin="round" stroke-miterlimit="50" stroke-width="1.6" xlink:href="#j9slc"/></g><g><use fill="#fff" fill-opacity="0" stroke="#4a9aeb" stroke-linecap="round" stroke-linejoin="round" stroke-miterlimit="50" stroke-width="1.6" xlink:href="#j9sld"/></g><g><use fill="#fff" fill-opacity="0" stroke="#4a9aeb" stroke-linecap="round" stroke-linejoin="round" stroke-miterlimit="50" stroke-width="1.6" xlink:href="#j9sle"/></g><g><use fill="#fff" fill-opacity="0" stroke="#4a9aeb" stroke-linecap="round" stroke-linejoin="round" stroke-miterlimit="50" stroke-width="1.6" xlink:href="#j9slf"/></g></g><g><use fill="#fff" fill-opacity="0" stroke="#7ed321" stroke-linecap="round" stroke-linejoin="round" stroke-miterlimit="50" stroke-width="1.6" xlink:href="#j9slg"/></g><g><g><use fill="#fff" fill-opacity="0" stroke="#4a9aeb" stroke-linecap="round" stroke-linejoin="round" stroke-miterlimit="50" stroke-width="1.6" xlink:href="#j9slh"/></g><g><use fill="#fff" fill-opacity="0" stroke="#7ed321" stroke-linecap="round" stroke-linejoin="round" stroke-miterlimit="50" stroke-width="1.6" xlink:href="#j9sli"/></g><g><use fill="#fff" fill-opacity="0" stroke="#4a9aeb" stroke-linecap="round" stroke-linejoin="round" stroke-miterlimit="50" stroke-width="1.6" xlink:href="#j9slj"/></g><g><g><use fill="#fff" fill-opacity="0" stroke="#4a9aeb" stroke-linecap="round" stroke-linejoin="round" stroke-miterlimit="50" stroke-width="1.6" xlink:href="#j9slk"/></g><g><use fill="#fff" fill-opacity="0" stroke="#4a9aeb" stroke-linecap="round" stroke-linejoin="round" stroke-miterlimit="50" stroke-width="1.6" xlink:href="#j9sll"/></g></g></g><g><g><use fill="#fff" fill-opacity="0" stroke="#7ed321" stroke-linecap="round" stroke-linejoin="round" stroke-miterlimit="50" stroke-width="1.6" xlink:href="#j9slm"/></g><g><use fill="#fff" fill-opacity="0" stroke="#7ed321" stroke-linecap="round" stroke-linejoin="round" stroke-miterlimit="50" stroke-width="1.6" xlink:href="#j9sln"/></g><g><use fill="#fff" fill-opacity="0" stroke="#7ed321" stroke-linecap="round" stroke-linejoin="round" stroke-miterlimit="50" stroke-width="1.6" xlink:href="#j9slo"/></g></g></g></g></svg>