<svg xmlns="http://www.w3.org/2000/svg" xmlns:xlink="http://www.w3.org/1999/xlink" width="24" height="24" viewBox="0 0 24 24"><defs><path id="qusia" d="M40.21 474.74a4.38 4.38 0 0 1 1.24 2.78l.1-.01c.64-.02 1.28-.01 1.9.03.03-1.22.04-2.54.05-3.93a11.43 11.43 0 0 0-4.54.31c.42.18.86.44 1.25.82z"/><path id="qusib" d="M40.45 477.58a3.4 3.4 0 0 0-.93-2.12 3.7 3.7 0 0 0-2.21-.95 11.55 11.55 0 0 0-6.12 6.6c1.81-1.63 5.29-3.16 9.26-3.53z"/><path id="qusic" d="M47.58 478.37c2.05.7 3.88 1.8 5.42 3.29a11.53 11.53 0 0 0-3.7-5.54c-.51.24-1.44.86-1.72 2.25z"/><path id="qusid" d="M44.5 473.78c0 1.37-.02 2.67-.05 3.88.75.1 1.47.23 2.18.42a4.14 4.14 0 0 1 1.79-2.62c-1.17-.79-2.5-1.36-3.92-1.68z"/><path id="qusie" d="M35.52 486.2c2.1-2.41 4.69-5.38 4.95-7.61-4.4.42-8.19 2.35-9.34 4.07a.5.5 0 0 1-.42.22 11.43 11.43 0 0 0 1.41 7.98c.39-1.21 1.74-2.77 3.4-4.67z"/><path id="qusif" d="M47.51 479.36c.05 1.94.92 3.97 1.76 5.93.97 2.25 1.96 4.55 1.76 6.8a11.44 11.44 0 0 0 2.37-8.53 13.18 13.18 0 0 0-5.89-4.2z"/><path id="qusig" d="M43.42 478.54c-.64-.05-1.26-.05-1.84-.03h-.1c-.2 2.6-2.85 5.64-5.2 8.34-1.62 1.84-3.28 3.75-3.28 4.65a.5.5 0 0 1-.19.38c1.6 2.14 3.93 3.7 6.61 4.32 2.66-4.1 3.73-8.61 4-17.66z"/><path id="qusih" d="M48.35 485.69c-.9-2.12-1.85-4.3-1.85-6.5l.01-.14c-.7-.2-1.4-.33-2.09-.42-.27 8.98-1.33 13.6-3.93 17.76a11.44 11.44 0 0 0 9.13-2.8c1.07-2.45-.06-5.1-1.27-7.9z"/></defs><g><g transform="translate(-30 -473)"><g><use fill="#4a9aeb" xlink:href="#qusia"/></g><g><use fill="#4a9aeb" xlink:href="#qusib"/></g><g><use fill="#4a9aeb" xlink:href="#qusic"/></g><g><use fill="#4a9aeb" xlink:href="#qusid"/></g><g><use fill="#4a9aeb" xlink:href="#qusie"/></g><g><use fill="#4a9aeb" xlink:href="#qusif"/></g><g><use fill="#4a9aeb" xlink:href="#qusig"/></g><g><use fill="#4a9aeb" xlink:href="#qusih"/></g></g></g></svg>