<svg xmlns="http://www.w3.org/2000/svg" xmlns:xlink="http://www.w3.org/1999/xlink" width="98" height="101" viewBox="0 0 98 101"><defs><path id="gdo1a" d="M603 773.42c0-5.32 4.3-9.63 9.6-9.63s9.6 4.31 9.6 9.63c0 5.33-4.3 9.64-9.6 9.64s-9.6-4.31-9.6-9.63z"/><path id="gdo1b" d="M601 810.49h-4v-18.47c0-4.02 3.2-7.23 7.2-7.23"/><path id="gdo1c" d="M622 784.79c4 0 7.2 3.21 7.2 7.23v18.47h-4"/><path id="gdo1d" d="M607 784.79l5.6 4.82"/><path id="gdo1e" d="M618.6 784.79l-5.6 4.82v9.63"/><path id="gdo1f" d="M621.6 799.79v11.24H604V799.8"/><path id="gdo1g" d="M635 781.46c0-5.33 4.3-9.64 9.6-9.64s9.6 4.31 9.6 9.63c0 5.33-4.3 9.64-9.6 9.64s-9.6-4.31-9.6-9.63z"/><path id="gdo1h" d="M633 818.52h-4v-18.47c0-4.02 3.2-7.23 7.2-7.23"/><path id="gdo1i" d="M654 792.82c4 0 7.2 3.21 7.2 7.23v18.47h-4"/><path id="gdo1j" d="M639 792.82l5.6 4.82"/><path id="gdo1k" d="M650.6 792.82l-5.6 4.82v9.63"/><path id="gdo1l" d="M653.6 807.82v11.24H636v-11.24"/><path id="gdo1m" d="M667 773.42c0-5.32 4.3-9.63 9.6-9.63s9.6 4.31 9.6 9.63c0 5.33-4.3 9.64-9.6 9.64s-9.6-4.31-9.6-9.63z"/><path id="gdo1n" d="M665 810.49h-4v-18.47c0-4.02 3.2-7.23 7.2-7.23"/><path id="gdo1o" d="M686 784.79c4 0 7.2 3.21 7.2 7.23v18.47h-4"/><path id="gdo1p" d="M671 784.79l5.6 4.82"/><path id="gdo1q" d="M682.6 784.79l-5.6 4.82v9.63"/><path id="gdo1r" d="M685.6 799.79v11.24H668V799.8"/><path id="gdo1s" d="M675 726.21a3.2 3.2 0 1 1 6.41-.01 3.2 3.2 0 0 1-6.41.01z"/><path id="gdo1t" d="M610 749.21a3.2 3.2 0 1 1 6.41-.01 3.2 3.2 0 0 1-6.41.01z"/><path id="gdo1u" d="M601.8 819.2h-1.6"/><path id="gdo1v" d="M624.4 819.2h-19.2"/><path id="gdo1w" d="M687.8 819.2h1.6"/><path id="gdo1x" d="M665.8 819.2H685"/></defs><g><g transform="translate(-596 -719)"><g><g><use fill="#fff" fill-opacity="0" stroke="#4a9aeb" stroke-linecap="round" stroke-linejoin="round" stroke-miterlimit="50" stroke-width="1.6" xlink:href="#gdo1a"/></g><g><use fill="#fff" fill-opacity="0" stroke="#4a9aeb" stroke-linecap="round" stroke-linejoin="round" stroke-miterlimit="50" stroke-width="1.6" xlink:href="#gdo1b"/></g><g><use fill="#fff" fill-opacity="0" stroke="#4a9aeb" stroke-linecap="round" stroke-linejoin="round" stroke-miterlimit="50" stroke-width="1.6" xlink:href="#gdo1c"/></g><g><use fill="#fff" fill-opacity="0" stroke="#4a9aeb" stroke-linecap="round" stroke-linejoin="round" stroke-miterlimit="50" stroke-width="1.6" xlink:href="#gdo1d"/></g><g><use fill="#fff" fill-opacity="0" stroke="#4a9aeb" stroke-linecap="round" stroke-linejoin="round" stroke-miterlimit="50" stroke-width="1.6" xlink:href="#gdo1e"/></g><g><use fill="#fff" fill-opacity="0" stroke="#4a9aeb" stroke-linecap="round" stroke-linejoin="round" stroke-miterlimit="50" stroke-width="1.6" xlink:href="#gdo1f"/></g></g><g><g><use fill="#fff" fill-opacity="0" stroke="#4a9aeb" stroke-linecap="round" stroke-linejoin="round" stroke-miterlimit="50" stroke-width="1.6" xlink:href="#gdo1g"/></g><g><use fill="#fff" fill-opacity="0" stroke="#4a9aeb" stroke-linecap="round" stroke-linejoin="round" stroke-miterlimit="50" stroke-width="1.6" xlink:href="#gdo1h"/></g><g><use fill="#fff" fill-opacity="0" stroke="#4a9aeb" stroke-linecap="round" stroke-linejoin="round" stroke-miterlimit="50" stroke-width="1.6" xlink:href="#gdo1i"/></g><g><use fill="#fff" fill-opacity="0" stroke="#4a9aeb" stroke-linecap="round" stroke-linejoin="round" stroke-miterlimit="50" stroke-width="1.6" xlink:href="#gdo1j"/></g><g><use fill="#fff" fill-opacity="0" stroke="#4a9aeb" stroke-linecap="round" stroke-linejoin="round" stroke-miterlimit="50" stroke-width="1.6" xlink:href="#gdo1k"/></g><g><use fill="#fff" fill-opacity="0" stroke="#4a9aeb" stroke-linecap="round" stroke-linejoin="round" stroke-miterlimit="50" stroke-width="1.6" xlink:href="#gdo1l"/></g></g><g><g><use fill="#fff" fill-opacity="0" stroke="#4a9aeb" stroke-linecap="round" stroke-linejoin="round" stroke-miterlimit="50" stroke-width="1.6" xlink:href="#gdo1m"/></g><g><use fill="#fff" fill-opacity="0" stroke="#4a9aeb" stroke-linecap="round" stroke-linejoin="round" stroke-miterlimit="50" stroke-width="1.6" xlink:href="#gdo1n"/></g><g><use fill="#fff" fill-opacity="0" stroke="#4a9aeb" stroke-linecap="round" stroke-linejoin="round" stroke-miterlimit="50" stroke-width="1.6" xlink:href="#gdo1o"/></g><g><use fill="#fff" fill-opacity="0" stroke="#4a9aeb" stroke-linecap="round" stroke-linejoin="round" stroke-miterlimit="50" stroke-width="1.6" xlink:href="#gdo1p"/></g><g><use fill="#fff" fill-opacity="0" stroke="#4a9aeb" stroke-linecap="round" stroke-linejoin="round" stroke-miterlimit="50" stroke-width="1.6" xlink:href="#gdo1q"/></g><g><use fill="#fff" fill-opacity="0" stroke="#4a9aeb" stroke-linecap="round" stroke-linejoin="round" stroke-miterlimit="50" stroke-width="1.6" xlink:href="#gdo1r"/></g></g><g><use fill="#fff" fill-opacity="0" stroke="#7ed321" stroke-linecap="round" stroke-linejoin="round" stroke-miterlimit="50" stroke-width="1.6" xlink:href="#gdo1s"/></g><g><use fill="#fff" fill-opacity="0" stroke="#7ed321" stroke-linecap="round" stroke-linejoin="round" stroke-miterlimit="50" stroke-width="1.6" xlink:href="#gdo1t"/></g><g><g><use fill="#fff" fill-opacity="0" stroke="#4a9aeb" stroke-linecap="round" stroke-linejoin="round" stroke-miterlimit="50" stroke-width="1.6" xlink:href="#gdo1u"/></g><g><use fill="#fff" fill-opacity="0" stroke="#4a9aeb" stroke-linecap="round" stroke-linejoin="round" stroke-miterlimit="50" stroke-width="1.6" xlink:href="#gdo1v"/></g></g><g><g><use fill="#fff" fill-opacity="0" stroke="#4a9aeb" stroke-linecap="round" stroke-linejoin="round" stroke-miterlimit="50" stroke-width="1.6" xlink:href="#gdo1w"/></g><g><use fill="#fff" fill-opacity="0" stroke="#4a9aeb" stroke-linecap="round" stroke-linejoin="round" stroke-miterlimit="50" stroke-width="1.6" xlink:href="#gdo1x"/></g></g><g><g fill="#7ed321" font-family="'Roboto','Roboto-Bold'" font-size="42"><text dominant-baseline="text-before-edge" font-family="Helvetica, Arial, sans-serif" transform="translate(622 710)"><tspan letter-spacing="-1.4">7</tspan><tspan>0</tspan></text></g></g></g></g></svg>