<svg xmlns="http://www.w3.org/2000/svg" xmlns:xlink="http://www.w3.org/1999/xlink" width="24" height="24" viewBox="0 0 24 24"><defs><path id="4fh4a" d="M47.17 973.7a3.73 3.73 0 1 0 0 7.45 3.73 3.73 0 0 0 0-7.45z"/><path id="4fh4b" d="M31.85 984.24l2.7 2.7-1.48 1.47a1.26 1.26 0 0 1-1.8 0l-.9-.9a1.26 1.26 0 0 1 0-1.8zm21.49-12.04l-2.51 2.52a4.54 4.54 0 1 0-6.36 6.35l-2.87 2.87c-.28.28-.66.44-1.06.44-.7 0-1.3-.49-1.49-1.21a.36.36 0 0 0-.33-.28.3.3 0 0 0-.21.09l-2.34 2.33-2.7-2.7 2.57-2.57c.05-.05.04-.1.03-.14a.12.12 0 0 0-.1-.08c-.7-.07-1.24-.45-1.45-1.04a1.5 1.5 0 0 1 .35-1.56l11.75-11.74c.6-.61 1.67-.61 2.28 0l4.44 4.44c.63.63.63 1.65 0 2.28zm-18.2 14.15l-2.7-2.7.44-.45 2.7 2.7z"/></defs><g><g transform="translate(-30 -965)"><g><use fill="#4a9aeb" xlink:href="#4fh4a"/></g><g><use fill="#4a9aeb" xlink:href="#4fh4b"/></g></g></g></svg>