<svg xmlns="http://www.w3.org/2000/svg" xmlns:xlink="http://www.w3.org/1999/xlink" width="24" height="24" viewBox="0 0 24 24"><defs><path id="6ebpa" d="M1037.5 373v-2c0-.28.22-.5.5-.5h5c.28 0 .5.22.5.5v2a.5.5 0 0 1-.5.5h-5a.5.5 0 0 1-.5-.5zm17-15.5h-21V373c0 .83.67 1.5 1.5 1.5h18c.83 0 1.5-.67 1.5-1.5zm-20-2.5a.5.5 0 1 0 1 0 .5.5 0 0 0-1 0zm2 0a.5.5 0 1 0 1 0 .5.5 0 0 0-1 0zm2 0a.5.5 0 1 0 1 0 .5.5 0 0 0-1 0zm17 0v18a2.5 2.5 0 0 1-2.5 2.5h-18a2.5 2.5 0 0 1-2.5-2.5v-18a2.5 2.5 0 0 1 2.5-2.5h18a2.5 2.5 0 0 1 2.5 2.5zm-16 9c0 .98.32 1.88.85 2.61a4.26 4.26 0 0 1 1.99-1.76 2.48 2.48 0 0 1 1.66-4.35 2.49 2.49 0 1 1 1.66 4.36c.83.35 1.53.96 1.99 1.75a4.5 4.5 0 1 0-8.15-2.61zm.61 3.89a5.48 5.48 0 0 1 3.89-9.39 5.5 5.5 0 0 1 3.89 9.38v.01l-.04.03c-.24.24-.5.45-.78.64l-.1.06c-.26.17-.54.33-.84.45l-.1.04c-.3.12-.61.21-.93.28h-.06a5.53 5.53 0 0 1-2.08 0h-.06a5.44 5.44 0 0 1-.93-.28l-.1-.04c-.3-.13-.58-.28-.85-.45l-.09-.06c-.28-.19-.55-.4-.79-.65l-.03-.02zm4.89 2.61h5c.28 0 .5.22.5.5v2a.5.5 0 0 1-.5.5h-5a.5.5 0 0 1-.5-.5v-2c0-.28.22-.5.5-.5z"/></defs><g><g transform="translate(-1032 -352)"><g><use fill="#fff" xlink:href="#6ebpa"/></g></g></g></svg>