<svg xmlns="http://www.w3.org/2000/svg" xmlns:xlink="http://www.w3.org/1999/xlink" width="24" height="17" viewBox="0 0 24 17"><defs><path id="fz9wa" d="M49.5 638a.5.5 0 1 1 0-1 .5.5 0 0 1 0 1zm-1 2a.5.5 0 1 1 0-1 .5.5 0 0 1 0 1zm-1-4a.5.5 0 1 1 0-1 .5.5 0 0 1 0 1zm-1 2a.5.5 0 1 1 0-1 .5.5 0 0 1 0 1zm-1 6a1.5 1.5 0 1 1 0-3 1.5 1.5 0 0 1 0 3zm-6-1H39v.5a.5.5 0 0 1-.5.5.5.5 0 0 1-.5-.5v-.5h-.5a.5.5 0 0 1 0-1h.5l.01-.4c.04-.56.15-.57.44-.6a.5.5 0 0 1 .54.4v.6h.51a.5.5 0 0 1 0 1zm-3.5-3a2 2 0 1 1 0-4 2 2 0 0 1 0 4zm12-7c-1.2 0-1.89.47-2.56.92A5.26 5.26 0 0 1 42 635a5.26 5.26 0 0 1-3.44-1.08c-.67-.45-1.37-.92-2.56-.92-2.56 0-6 5.93-6 12 0 1.87 0 5 2.5 5 1.67 0 2.42-.93 3.14-1.82.22-.28.45-.56.71-.83.86-.86 2.92-1.35 5.65-1.35 2.73 0 4.79.5 5.65 1.35.26.27.49.55.7.83.73.9 1.48 1.82 3.15 1.82 2.5 0 2.5-3.13 2.5-5 0-6.07-3.44-12-6-12z"/><path id="fz9wb" d="M43.92 634.72l-1-1.5a.5.5 0 0 0-.42-.22h-1a.5.5 0 0 0-.42.22l-1 1.5a.5.5 0 1 0 .84.56l.18-.28h1.8l.18.28a.5.5 0 1 0 .84-.56z"/></defs><g><g transform="translate(-30 -633)"><g><use fill="#4a9aeb" xlink:href="#fz9wa"/></g><g><use fill="#4a9aeb" xlink:href="#fz9wb"/></g></g></g></svg>