<?xml version="1.0" encoding="UTF-8"?>
<svg width="98px" height="98px" viewBox="0 0 98 98" version="1.1" xmlns="http://www.w3.org/2000/svg" xmlns:xlink="http://www.w3.org/1999/xlink">
    <!-- Generator: Sketch 52.3 (67297) - http://www.bohemiancoding.com/sketch -->
    <title>knowledge-worker</title>
    <desc>Created with Sketch.</desc>
    <g id="PC" stroke="none" stroke-width="1" fill="none" fill-rule="evenodd">
        <g id="Партнерская-программа" transform="translate(-596.000000, -722.000000)">
            <g id="Сайт">
                <g id="Иконки" transform="translate(565.000000, 710.000000)">
                    <g id="1">
                        <g id="knowledge-worker" transform="translate(32.000000, 0.000000)">
                            <g id="Group" transform="translate(0.000000, 53.787879)" stroke="#4A9AEB" stroke-linecap="round" stroke-linejoin="round" stroke-width="1.6">
                                <ellipse id="Oval" cx="15.6" cy="9.63636364" rx="9.6" ry="9.63636364"></ellipse>
                                <path d="M4,46.6969697 L0,46.6969697 L0,28.2272727 C0,24.2121212 3.2,21 7.2,21" id="Path"></path>
                                <path d="M25,21 C29,21 32.2,24.2121212 32.2,28.2272727 L32.2,46.6969697 L28.2,46.6969697" id="Path"></path>
                                <path d="M10,21 L15.6,25.8181818" id="Path"></path>
                                <polyline id="Path" points="21.6 21 16 25.8181818 16 35.4545455"></polyline>
                                <polyline id="Path" points="24.6 36 24.6 47.2424242 7 47.2424242 7 36"></polyline>
                            </g>
                            <g id="Group" transform="translate(32.000000, 61.818182)" stroke="#4A9AEB" stroke-linecap="round" stroke-linejoin="round" stroke-width="1.6">
                                <ellipse id="Oval" cx="15.6" cy="9.63636364" rx="9.6" ry="9.63636364"></ellipse>
                                <path d="M4,46.6969697 L0,46.6969697 L0,28.2272727 C0,24.2121212 3.2,21 7.2,21" id="Path"></path>
                                <path d="M25,21 C29,21 32.2,24.2121212 32.2,28.2272727 L32.2,46.6969697 L28.2,46.6969697" id="Path"></path>
                                <path d="M10,21 L15.6,25.8181818" id="Path"></path>
                                <polyline id="Path" points="21.6 21 16 25.8181818 16 35.4545455"></polyline>
                                <polyline id="Path" points="24.6 36 24.6 47.2424242 7 47.2424242 7 36"></polyline>
                            </g>
                            <g id="Group" transform="translate(64.000000, 53.787879)" stroke="#4A9AEB" stroke-linecap="round" stroke-linejoin="round" stroke-width="1.6">
                                <ellipse id="Oval" cx="15.6" cy="9.63636364" rx="9.6" ry="9.63636364"></ellipse>
                                <path d="M4,46.6969697 L0,46.6969697 L0,28.2272727 C0,24.2121212 3.2,21 7.2,21" id="Path"></path>
                                <path d="M25,21 C29,21 32.2,24.2121212 32.2,28.2272727 L32.2,46.6969697 L28.2,46.6969697" id="Path"></path>
                                <path d="M10,21 L15.6,25.8181818" id="Path"></path>
                                <polyline id="Path" points="21.6 21 16 25.8181818 16 35.4545455"></polyline>
                                <polyline id="Path" points="24.6 36 24.6 47.2424242 7 47.2424242 7 36"></polyline>
                            </g>
                            <ellipse id="Oval" stroke="#7ED321" stroke-width="1.6" stroke-linecap="round" stroke-linejoin="round" cx="81.2" cy="16.2121212" rx="3.2" ry="3.21212121"></ellipse>
                            <ellipse id="Oval" stroke="#7ED321" stroke-width="1.6" stroke-linecap="round" stroke-linejoin="round" cx="16.2" cy="39.2121212" rx="3.2" ry="3.21212121"></ellipse>
                            <g id="Group" transform="translate(3.200000, 108.393939)" stroke="#4A9AEB" stroke-linecap="round" stroke-linejoin="round" stroke-width="1.6">
                                <path d="M1.6,0.803030303 L0,0.803030303" id="Path"></path>
                                <path d="M24.2,0.803030303 L5,0.803030303" id="Path"></path>
                            </g>
                            <g id="Group" transform="translate(68.800000, 108.393939)" stroke="#4A9AEB" stroke-linecap="round" stroke-linejoin="round" stroke-width="1.6">
                                <path d="M22,0.803030303 L23.6,0.803030303" id="Path"></path>
                                <path d="M0,0.803030303 L19.2,0.803030303" id="Path"></path>
                            </g>
                            <text id="50" font-family="Roboto-Bold, Roboto" font-size="42" font-weight="bold" letter-spacing="-1.39999998" fill="#7ED321">
                                <tspan x="25.8033203" y="44">50</tspan>
                            </text>
                        </g>
                    </g>
                </g>
            </g>
        </g>
    </g>
</svg>