<svg xmlns="http://www.w3.org/2000/svg" xmlns:xlink="http://www.w3.org/1999/xlink" width="225" height="44" viewBox="0 0 225 44"><defs><path id="b1uqa" d="M192.2 33.8L187.16 59h-6.99l-7.23-11.74L170.6 59h-8.28l5.04-25.2h6.98l7.24 11.73 2.34-11.73zm-38.49 9.1c0-1.7-1.05-2.55-3.17-2.55h-2.84l-1.19 5.9h3.5c1.17 0 2.08-.3 2.73-.88.65-.6.97-1.41.97-2.47zm8.6-.82c0 2.23-.59 4.18-1.78 5.85a10.54 10.54 0 0 1-5.02 3.72l4.21 7.35h-8.82l-3.56-6.34h-2.09L144 59h-8.5l5.05-25.2h11.3c3.31 0 5.89.72 7.72 2.17 1.84 1.46 2.76 3.49 2.76 6.1zm-42.33 17.48c-2.26 0-4.2-.38-5.85-1.13a8.55 8.55 0 0 1-3.78-3.22 9 9 0 0 1-1.31-4.9c0-.76.1-1.65.28-2.66l2.78-13.85h8.5l-2.74 13.7a8.82 8.82 0 0 0-.22 1.84c0 1.13.29 1.97.86 2.52.58.55 1.42.83 2.52.83 1.25 0 2.22-.4 2.92-1.19.7-.79 1.24-2.12 1.62-4l2.74-13.7h8.35L133.8 48c-.76 3.82-2.3 6.7-4.6 8.64-2.3 1.94-5.38 2.91-9.22 2.91zM93.16 40.38h-7.38l1.33-6.58h23.26l-1.34 6.58h-7.38L97.95 59h-8.5zm-19.52 8.1l-1.22-6.44-3.7 6.44zm1.2 6.12h-9.62L62.7 59h-8.96l16.05-25.2h8.35L84.12 59h-8.46zm-31.76 4.97c-2.19 0-4.24-.23-6.16-.7a16.56 16.56 0 0 1-4.75-1.85l3.28-6.27a16.8 16.8 0 0 0 8.5 2.34c1.07 0 1.9-.13 2.48-.4.57-.26.86-.62.86-1.07 0-.44-.3-.78-.88-1.05-.59-.26-1.52-.55-2.8-.86a34.39 34.39 0 0 1-4.17-1.32 7.73 7.73 0 0 1-2.9-2.05 5.27 5.27 0 0 1-1.24-3.65c0-1.9.51-3.56 1.53-4.99a9.76 9.76 0 0 1 4.41-3.31 18.02 18.02 0 0 1 6.8-1.17c1.88 0 3.62.19 5.24.56 1.62.37 3.02.9 4.2 1.6l-3.06 6.2c-.99-.63-2.07-1.1-3.26-1.41-1.19-.31-2.4-.47-3.65-.47-1.18 0-2.1.17-2.74.5-.65.34-.97.74-.97 1.2 0 .45.3.8.88 1.07.59.27 1.55.55 2.9.87 1.63.38 3 .79 4.12 1.22a7.45 7.45 0 0 1 2.9 2.02 5.2 5.2 0 0 1 1.22 3.6c0 1.87-.51 3.51-1.55 4.93a9.93 9.93 0 0 1-4.42 3.3 17.91 17.91 0 0 1-6.77 1.16z"/><path id="b1uqb" d="M183.32 68.66l-.27-1.43-.82 1.43zm.27 1.36h-2.14l-.56.98h-1.99l3.57-5.6h1.86l1.32 5.6h-1.88zm-8.77-1.84c.26 0 .46-.07.6-.2a.71.71 0 0 0 .22-.55c0-.39-.23-.58-.7-.58h-.63l-.27 1.33zm.38-2.78c.75 0 1.33.16 1.74.49.4.32.61.78.61 1.36 0 .47-.11.89-.34 1.24-.24.36-.57.64-1 .84-.43.2-.92.3-1.49.3h-.97l-.27 1.37h-1.89l1.12-5.6zm-8.84 4.2c.3 0 .56-.08.78-.23.22-.16.39-.37.5-.63.12-.26.18-.54.18-.85 0-.33-.1-.6-.29-.8-.2-.2-.46-.3-.8-.3-.3 0-.56.09-.78.24-.22.15-.4.36-.51.62-.12.27-.18.55-.18.86 0 .33.1.6.3.8.19.19.46.29.8.29zm-.16 1.53c-.57 0-1.07-.1-1.5-.32a2.34 2.34 0 0 1-1.34-2.19c0-.65.15-1.23.45-1.74.3-.5.72-.9 1.26-1.19a3.84 3.84 0 0 1 1.82-.42c.57 0 1.07.1 1.5.32a2.34 2.34 0 0 1 1.34 2.18c0 .65-.15 1.23-.45 1.74-.3.51-.72.9-1.26 1.2-.54.27-1.14.42-1.82.42zm-4.6-4.27h-1.66l-.8 4.14h-1.86l.8-4.14h-1.61l.29-1.46h5.13zm-7.26-1.46l-1.12 5.6h-1.9l.42-2.07H150l-.42 2.07h-1.88l1.12-5.6h1.88l-.4 1.98h1.75l.4-1.98zm-11.92 4.2c.3 0 .56-.08.78-.23.22-.16.4-.37.51-.63.12-.26.18-.54.18-.85 0-.33-.1-.6-.3-.8-.2-.2-.46-.3-.8-.3-.3 0-.56.09-.78.24-.22.15-.4.36-.5.62-.13.27-.18.55-.18.86 0 .33.1.6.29.8.2.19.46.29.8.29zm-.16 1.53c-.57 0-1.07-.1-1.5-.32a2.34 2.34 0 0 1-1.34-2.19c0-.65.15-1.23.45-1.74.3-.5.72-.9 1.26-1.19a3.84 3.84 0 0 1 1.82-.42c.57 0 1.07.1 1.5.32a2.34 2.34 0 0 1 1.34 2.18c0 .65-.15 1.23-.45 1.74-.3.51-.72.9-1.26 1.2-.53.27-1.14.42-1.82.42zm-6.35-2.96l1.07 2.83h-2l-.68-2.03h-.61l-.41 2.03h-1.88l1.11-5.6h1.89l-.42 2.09h.48l1.6-2.1h2.1zm-13.27-1.3a.9.9 0 0 0-.64.2.78.78 0 0 0-.23.6c0 .2.05.35.15.45.1.09.24.14.45.14h.74l.27-1.4zm2.9-1.46L124.4 71h-1.85l.27-1.33h-.48L121.23 71h-2.04l1.45-1.64a1.55 1.55 0 0 1-.6-.63c-.14-.26-.21-.56-.21-.92 0-.48.12-.9.37-1.26.26-.36.6-.64 1.06-.84.45-.2.98-.3 1.57-.3zm-10.41 3.25l-.27-1.43-.83 1.43zm.26 1.36h-2.13l-.56.98h-2l3.57-5.6h1.86l1.33 5.6h-1.88zm-7.35-1.85L109.1 71h-2l-.68-2.03h-.62l-.4 2.03h-1.9l1.13-5.6h1.89l-.42 2.09h.48l1.6-2.1h2.1zm-9.2 2.96c-.57 0-1.08-.1-1.51-.32-.44-.21-.77-.5-1.01-.88a2.4 2.4 0 0 1-.36-1.3c0-.66.15-1.24.46-1.74.3-.51.72-.9 1.25-1.2a3.83 3.83 0 0 1 1.83-.42c.54 0 1.02.1 1.43.3a2 2 0 0 1 .93.82l-1.36 1.06a1.21 1.21 0 0 0-1.12-.65 1.44 1.44 0 0 0-1.32.82c-.13.26-.2.55-.2.88 0 .33.11.6.32.8.21.2.5.3.84.3.47 0 .9-.22 1.25-.65l1.11 1.06c-.33.4-.7.69-1.1.86-.42.17-.9.26-1.44.26zm-7.68-2.95c.26 0 .47-.07.6-.2a.71.71 0 0 0 .23-.55c0-.39-.24-.58-.7-.58h-.64l-.27 1.33zm.39-2.78c.74 0 1.32.16 1.73.49.41.32.62.78.62 1.36 0 .47-.12.89-.35 1.24-.23.36-.56.64-1 .84-.42.2-.92.3-1.48.3h-.97L89.82 71h-1.88l1.12-5.6zm-8.1 1.42l-.13.66h2.37l-.28 1.36h-2.37l-.15.73h2.81L85.41 71h-4.65l1.12-5.6h4.55l-.29 1.42zm-6 1.35L78.54 71h-2l-.68-2.03h-.61L74.83 71h-1.9l1.13-5.6h1.89l-.42 2.09h.48l1.6-2.1h2.1zm-9.04-1.35l-.13.66h2.37l-.27 1.36H68l-.14.73h2.8L70.38 71h-4.66l1.12-5.6h4.55l-.29 1.42zm-4.35-1.42L62.95 71h-1.72l.5-2.55-1.58 2.04h-.84l-.86-2.01-.5 2.52h-1.73l1.12-5.6h1.54l1.22 2.97 2.34-2.97zm-11.14 2.77L54 71h-2l-.68-2.03h-.61L50.29 71H48.4l1.12-5.6h1.89l-.42 2.09h.48l1.6-2.1h2.1zm-5.6-2.77l-3.09 4.28c-.36.48-.74.85-1.16 1.1a2.53 2.53 0 0 1-2.42.12l.6-1.32c.18.05.34.07.48.07a1 1 0 0 0 .46-.1c.14-.07.27-.17.4-.31l-1.34-3.84h1.95l.64 2.33 1.62-2.33zm-11.17 4.28c.21 0 .38-.05.5-.15.13-.1.2-.22.2-.38 0-.25-.18-.37-.53-.37h-.96l-.18.9zm-1.97-4.28h4.86l-.3 1.42h-3l-.12.65h1.34c.58 0 1.03.13 1.34.4.32.27.48.64.48 1.13 0 .4-.11.76-.34 1.06-.22.3-.54.53-.96.7-.41.16-.9.24-1.47.24h-2.95z"/><path id="b1uqc" d="M209.91 28h37c6.63 0 10.88 5.37 9.48 12l-2.63 12.5c-1.39 6.63-7.89 12-14.52 12h-37c-6.62 0-10.87-5.37-9.48-12L195.4 40c1.4-6.63 7.9-12 14.52-12z"/><path id="b1uqe" d="M235.6 53.5h4.95l2.17-10.86h4.3l.78-3.84h-13.57l-.77 3.84h4.3zm-3.2-10.96l.76-3.74h-11.95l-2.94 14.7h12.22l.76-3.74h-7.37l.38-1.93h6.23l.72-3.57h-6.22l.34-1.72zm-24.8 7.5l.47-2.32h3.19c.35 0 .64.09.87.26.23.16.35.4.35.71 0 .43-.16.77-.47 1-.3.23-.7.34-1.21.34zm3.97-7.77c.42 0 .75.07.97.23.22.15.34.37.34.67 0 .85-.55 1.28-1.64 1.28h-2.52l.44-2.19zm5.78 2.21c.46-.62.7-1.35.7-2.17 0-1.12-.46-1.99-1.35-2.6-.9-.6-2.2-.91-3.93-.91h-7.79l-2.94 14.7h8.48c2.02 0 3.67-.4 4.95-1.18a3.85 3.85 0 0 0 1.92-3.5c0-.68-.17-1.25-.51-1.74a3.46 3.46 0 0 0-1.46-1.14 4.54 4.54 0 0 0 1.93-1.46z"/><linearGradient id="b1uqd" x1="210.58" x2="247.47" y1="24.11" y2="64.5" gradientUnits="userSpaceOnUse"><stop offset="0" stop-color="#7fc9ff"/><stop offset="1" stop-color="#2e81e1"/></linearGradient></defs><g><g transform="translate(-32 -28)"><g><use fill="#fff" xlink:href="#b1uqa"/></g><g><use fill="#9b9b9b" xlink:href="#b1uqb"/></g><g><use fill="url(#b1uqd)" xlink:href="#b1uqc"/></g><g><use fill="#fff" xlink:href="#b1uqe"/></g></g></g></svg>