<svg xmlns="http://www.w3.org/2000/svg" xmlns:xlink="http://www.w3.org/1999/xlink" width="70" height="41" viewBox="0 0 70 41"><defs><path id="8ck4a" d="M850.75 1137.51A20.57 20.57 0 0 1 830.1 1158a20.57 20.57 0 0 1-20.65-20.49c0-11.32 9.25-20.5 20.65-20.5 11.4 0 20.64 9.18 20.64 20.5"/><path id="8ck4b" d="M857.8 1117.02a20.64 20.64 0 0 0-15.93 7.47h4.17c.57.69 1.1 1.41 1.57 2.17h-7.31c-.44.7-.84 1.42-1.2 2.17h9.7c.33.7.62 1.43.87 2.17h-11.44c-.24.7-.44 1.43-.6 2.17h12.64a20.5 20.5 0 0 1-.6 10.85h-11.44c.25.74.54 1.47.88 2.17h9.69c-.35.75-.75 1.47-1.2 2.17h-7.3c.47.76 1 1.48 1.57 2.17h4.17c-.64.77-1.34 1.5-2.09 2.17 3.66 3.3 8.52 5.3 13.86 5.3 11.4 0 20.63-9.17 20.63-20.49 0-11.32-9.24-20.5-20.63-20.5"/><path id="8ck4c" d="M826.9 1143.52h-1.85l.04-.87a2.82 2.82 0 0 1-2.34 1.02c-1.22 0-2.05-.94-2.05-2.31 0-2.06 1.45-3.26 3.93-3.26.26 0 .58.02.92.07.07-.28.08-.4.08-.55 0-.56-.39-.77-1.43-.77-1.1-.01-2 .26-2.37.38l.3-1.9a8.96 8.96 0 0 1 2.69-.45c1.92 0 2.94.86 2.94 2.48 0 .43-.07.97-.18 1.67-.2 1.23-.61 3.85-.67 4.5zm-1.62-3.76a3.88 3.88 0 0 0-.5-.04c-1.27 0-1.91.43-1.91 1.29 0 .52.31.86.8.86.91 0 1.57-.86 1.6-2.11z"/><path id="8ck4d" d="M819.76 1143.52h-2.24l1.29-7.99-2.87 7.99h-1.52l-.2-7.95-1.34 7.95h-2.1l1.75-10.4h3.22l.2 5.82 1.96-5.81h3.59l-1.74 10.39"/><path id="8ck4e" d="M862.2 1143.52h-1.85l.04-.87a2.82 2.82 0 0 1-2.34 1.02c-1.22 0-2.05-.94-2.05-2.31 0-2.06 1.45-3.26 3.93-3.26.26 0 .58.02.92.07.07-.28.08-.4.08-.55 0-.56-.39-.77-1.43-.77-1.1-.01-2 .26-2.38.38l.32-1.9a8.96 8.96 0 0 1 2.68-.45c1.92 0 2.94.86 2.94 2.48 0 .43-.07.97-.18 1.67-.2 1.23-.62 3.85-.67 4.5zm-1.62-3.76a3.88 3.88 0 0 0-.5-.04c-1.27 0-1.92.43-1.92 1.29 0 .52.32.86.8.86.92 0 1.58-.86 1.62-2.11z"/><path id="8ck4f" d="M836.87 1143.4c-.62.18-1.1.27-1.61.27-1.15 0-1.77-.66-1.77-1.86-.02-.38.16-1.36.3-2.25l.98-5.77h2.22l-.26 1.28h1.35l-.3 2.03h-1.36c-.25 1.6-.62 3.6-.63 3.87 0 .44.24.63.77.63.26 0 .45-.03.6-.08l-.3 1.87"/><path id="8ck4g" d="M842.45 1138.31c.01-.17.24-1.5-1.04-1.5-.71 0-1.22.53-1.43 1.5h2.47zm1.25 5.01c-.77.24-1.5.35-2.29.35-2.49 0-3.79-1.3-3.79-3.77 0-2.9 1.65-5.02 3.9-5.02 1.83 0 3 1.2 3 3.06 0 .62-.07 1.22-.27 2.08h-4.43c-.15 1.22.64 1.73 1.93 1.73.8 0 1.52-.16 2.32-.53l-.37 2.1z"/><path id="8ck4h" d="M828.25 1137.74c0 1.07.52 1.8 1.7 2.36.91.42 1.05.55 1.05.93 0 .53-.4.77-1.28.77-.67 0-1.29-.1-2-.34l-.31 1.96c.5.1.96.2 2.32.25 2.36 0 3.45-.9 3.45-2.83 0-1.16-.45-1.84-1.57-2.36-.94-.42-1.05-.52-1.05-.91 0-.46.37-.7 1.1-.7.44 0 1.03.05 1.6.13l.32-1.96c-.58-.09-1.46-.16-1.97-.16-2.5 0-3.36 1.3-3.36 2.86"/><path id="8ck4i" d="M854.6 1135.1c.61 0 1.2.16 2 .56l.36-2.25c-.33-.13-1.48-.88-2.46-.88-1.5 0-2.77.74-3.66 1.95-1.3-.42-1.84.44-2.5 1.3l-.57.14c.04-.29.08-.57.07-.85h-2.06c-.28 2.61-.78 5.26-1.17 7.88l-.1.57h2.24c.37-2.41.58-3.96.7-5l.85-.47c.12-.47.52-.62 1.31-.6a9.4 9.4 0 0 0-.16 1.73c0 2.76 1.5 4.49 3.92 4.49.62 0 1.15-.09 1.98-.3l.39-2.38c-.74.37-1.35.54-1.9.54-1.3 0-2.1-.96-2.1-2.54 0-2.29 1.18-3.89 2.85-3.89"/><path id="8ck4j" d="M870.76 1141.56c-.77 0-1.15-.56-1.15-1.66 0-1.66.72-2.83 1.73-2.83.77 0 1.2.58 1.2 1.65 0 1.67-.74 2.84-1.78 2.84zm2.8-8.43l-.5 3c-.61-.8-1.27-1.38-2.14-1.38-1.13 0-2.16.85-2.83 2.1-.94-.19-1.9-.51-1.9-.51h-.01c.07-.7.1-1.12.1-1.27h-2.06c-.28 2.62-.78 5.27-1.17 7.89l-.1.56h2.24c.3-1.95.54-3.57.7-4.85.77-.7 1.16-1.29 1.93-1.25a7.2 7.2 0 0 0-.54 2.74c0 2.11 1.07 3.51 2.7 3.51.82 0 1.45-.28 2.07-.93l-.1.78h2.11l1.7-10.39h-2.2z"/><path id="8ck4k" d="M820.4 1142.9h-2.24l1.29-7.99-2.87 8h-1.52l-.2-7.95-1.34 7.94h-2.1l1.76-10.39h3.21l.1 6.43 2.17-6.43h3.47l-1.73 10.4"/><path id="8ck4l" d="M827.56 1142.9h-1.86l.04-.87a2.82 2.82 0 0 1-2.34 1.02c-1.22 0-2.05-.94-2.05-2.31 0-2.06 1.45-3.26 3.93-3.26.26 0 .58.02.92.07.07-.28.08-.4.08-.55 0-.56-.39-.77-1.43-.77-1.1-.01-2 .26-2.37.38l.3-1.9a8.99 8.99 0 0 1 2.69-.45c1.92 0 2.94.86 2.94 2.48 0 .43-.07.97-.18 1.67-.2 1.23-.61 3.85-.67 4.5zm-1.63-3.76a3.75 3.75 0 0 0-.5-.04c-1.27 0-1.91.43-1.91 1.29 0 .52.31.86.8.86.91 0 1.57-.86 1.6-2.11z"/><path id="8ck4m" d="M857.6 1132.79l-.37 2.26a4.3 4.3 0 0 0-2-.57c-1.67 0-2.84 1.6-2.84 3.9 0 1.58.78 2.53 2.09 2.53.55 0 1.16-.17 1.9-.53l-.4 2.36c-.82.23-1.35.3-1.97.3-2.41 0-3.91-1.71-3.91-4.48 0-3.71 2.07-6.31 5.04-6.31.97 0 2.13.41 2.45.54"/><path id="8ck4n" d="M862.85 1142.9h-1.86l.04-.87a2.82 2.82 0 0 1-2.34 1.02c-1.22 0-2.05-.94-2.05-2.31 0-2.06 1.45-3.26 3.93-3.26.26 0 .58.02.91.07.07-.28.1-.4.1-.55 0-.56-.4-.77-1.44-.77a7.5 7.5 0 0 0-2.37.38l.3-1.9a8.98 8.98 0 0 1 2.69-.45c1.92 0 2.94.86 2.94 2.48 0 .43-.07.97-.18 1.67-.2 1.23-.61 3.85-.67 4.5zm-1.63-3.76a3.72 3.72 0 0 0-.5-.04c-1.27 0-1.91.43-1.91 1.29 0 .52.31.86.8.86.91 0 1.57-.86 1.6-2.11z"/><path id="8ck4o" d="M837.51 1142.77c-.61.2-1.09.28-1.6.28-1.15 0-1.78-.65-1.78-1.86-.01-.37.17-1.35.31-2.25l.97-5.77h2.23l-.26 1.28h1.14l-.3 2.03h-1.15c-.26 1.61-.63 3.61-.63 3.88 0 .43.23.62.76.62.26 0 .46-.02.6-.08l-.29 1.87"/><path id="8ck4p" d="M843.09 1137.68c0-.17.23-1.5-1.04-1.5-.71 0-1.22.54-1.42 1.5h2.46zm1.25 5.03c-.77.23-1.5.34-2.29.34-2.5 0-3.79-1.3-3.79-3.77 0-2.9 1.65-5.02 3.9-5.02 1.83 0 3 1.2 3 3.06a9.1 9.1 0 0 1-.27 2.08h-4.43c-.15 1.22.64 1.74 1.93 1.74.8 0 1.52-.17 2.32-.54l-.37 2.1z"/><path id="8ck4q" d="M828.9 1137.12c0 1.07.52 1.8 1.7 2.36.91.43 1.05.55 1.05.94 0 .52-.4.76-1.28.76-.67 0-1.3-.1-2.01-.33 0 0-.3 1.86-.3 1.95.5.1.95.21 2.32.25 2.37 0 3.46-.9 3.46-2.83 0-1.16-.46-1.84-1.58-2.35-.94-.43-1.05-.52-1.05-.92 0-.46.37-.7 1.1-.7.44 0 1.04.06 1.6.14l.33-1.96c-.58-.1-1.46-.17-1.97-.17-2.51 0-3.38 1.3-3.37 2.86"/><path id="8ck4r" d="M871.4 1140.95c1.05 0 1.79-1.17 1.79-2.85 0-1.07-.42-1.66-1.2-1.66-1.01 0-1.74 1.18-1.74 2.84 0 1.11.39 1.67 1.15 1.67zm3.3 1.95h-2.11l.1-.78c-.61.65-1.24.93-2.06.93-1.63 0-2.71-1.4-2.71-3.5 0-2.82 1.67-5.19 3.65-5.19.86 0 1.52.35 2.13 1.15l.5-3h2.21l-1.7 10.4z"/><path id="8ck4s" d="M864.87 1134.45c-.28 2.62-.78 5.27-1.17 7.88l-.1.57h2.24c.8-5.17 1-6.17 2.25-6.05.2-1.06.57-1.98.85-2.45-.94-.2-1.46.33-2.15 1.33.05-.43.15-.85.14-1.28h-2.06"/><path id="8ck4t" d="M846.43 1134.45c-.28 2.62-.78 5.27-1.17 7.88l-.1.57h2.24c.8-5.17 1-6.17 2.25-6.05a8.3 8.3 0 0 1 .86-2.45c-.94-.2-1.47.33-2.16 1.33.06-.43.16-.85.14-1.28h-2.06"/></defs><g><g transform="translate(-809 -1117)"><g><use fill="#c00" xlink:href="#8ck4a"/></g><g><use fill="#f90" xlink:href="#8ck4b"/></g><g><use fill="#006" xlink:href="#8ck4c"/></g><g><use fill="#006" xlink:href="#8ck4d"/></g><g><use fill="#006" xlink:href="#8ck4e"/></g><g><use fill="#006" xlink:href="#8ck4f"/></g><g><use fill="#006" xlink:href="#8ck4g"/></g><g><use fill="#006" xlink:href="#8ck4h"/></g><g><use fill="#006" xlink:href="#8ck4i"/></g><g><use fill="#006" xlink:href="#8ck4j"/></g><g><use fill="#fff" xlink:href="#8ck4k"/></g><g><use fill="#fff" xlink:href="#8ck4l"/></g><g><use fill="#fff" xlink:href="#8ck4m"/></g><g><use fill="#fff" xlink:href="#8ck4n"/></g><g><use fill="#fff" xlink:href="#8ck4o"/></g><g><use fill="#fff" xlink:href="#8ck4p"/></g><g><use fill="#fff" xlink:href="#8ck4q"/></g><g><use fill="#fff" xlink:href="#8ck4r"/></g><g><use fill="#fff" xlink:href="#8ck4s"/></g><g><use fill="#fff" xlink:href="#8ck4t"/></g></g></g></svg>