<svg xmlns="http://www.w3.org/2000/svg" xmlns:xlink="http://www.w3.org/1999/xlink" width="92" height="37" viewBox="0 0 92 37"><defs><path id="ehf6a" d="M1031.1 1129.17h-1.27a.2.2 0 0 0-.19.2v2.95c0 .11.09.2.2.2h1.19c1.26 0 2.39-.38 2.39-1.73s-1.1-1.62-2.3-1.62zm.2 6.06h-1.47a.2.2 0 0 0-.19.2v4.93a.2.2 0 0 1-.06.15.2.2 0 0 1-.14.06h-2.98a.2.2 0 0 1-.14-.06.2.2 0 0 1-.06-.15v-13.74c0-.12.1-.21.2-.21h4.93c3.05 0 5.46 1.13 5.46 4.36 0 3.24-2.62 4.46-5.55 4.46z"/><path id="ehf6b" d="M1046 1130.68l-1.5 4.1a.2.2 0 0 0 .03.18c.04.05.1.08.15.08h2.97c.06 0 .12-.03.15-.08a.2.2 0 0 0 .03-.17l-1.47-4.11a.2.2 0 0 0-.19-.12.2.2 0 0 0-.17.13zm3.88 9.77l-.99-2.54a.2.2 0 0 0-.18-.12h-5.14a.2.2 0 0 0-.18.12l-.93 2.54a.2.2 0 0 1-.18.12h-3.25a.19.19 0 0 1-.16-.09.2.2 0 0 1-.02-.18l5.7-13.77a.2.2 0 0 1 .18-.12h3.03a.2.2 0 0 1 .17.12l5.64 13.78a.2.2 0 0 1-.02.19.19.19 0 0 1-.16.08h-3.33a.2.2 0 0 1-.18-.13z"/><path id="ehf6c" d="M1065.97 1140.47l-2.83-4.64a.2.2 0 0 0-.33 0l-2.72 4.64a.2.2 0 0 1-.17.1h-3.58a.2.2 0 0 1-.17-.11.2.2 0 0 1 .01-.2l4.63-7.07a.2.2 0 0 0 0-.22l-4.19-6.26a.2.2 0 0 1 0-.2.2.2 0 0 1 .16-.1h3.58a.2.2 0 0 1 .17.1l2.4 4.01a.2.2 0 0 0 .31 0l2.4-4.02a.2.2 0 0 1 .16-.1h3.45a.2.2 0 0 1 .17.11.2.2 0 0 1-.01.2l-4.2 6.25a.2.2 0 0 0 0 .22l4.78 7.06a.2.2 0 0 1 .02.2.2.2 0 0 1-.17.1h-3.66a.19.19 0 0 1-.21-.07z"/><path id="ehf6d" d="M1080.06 1140.96c-3.67 0-5.98-2.33-5.98-5.72v-8.63c0-.1.09-.2.2-.2h2.96c.1 0 .19.1.19.2v8.34c-.07 1 .42 1.94 1.25 2.46.84.51 1.9.51 2.73 0a2.68 2.68 0 0 0 1.26-2.46v-8.34a.2.2 0 0 1 .07-.16c.05-.04.11-.05.17-.03h2.99c.1 0 .19.08.19.19v8.63c-.03 3.4-2.4 5.72-6.03 5.72z"/><path id="ehf6e" d="M1104.42 1140.55a.2.2 0 0 1-.2-.2l.08-9.81-3.59 9.88a.2.2 0 0 1-.19.13h-2.08a.2.2 0 0 1-.19-.13l-3.53-9.88.07 9.8a.2.2 0 0 1-.06.15.2.2 0 0 1-.15.06h-2.83a.2.2 0 0 1-.14-.06.2.2 0 0 1-.06-.14v-13.74c0-.11.09-.2.2-.2h4.45a.2.2 0 0 1 .19.13l3.13 8.94h.12l2.98-8.94a.2.2 0 0 1 .2-.13h4.52c.12 0 .2.09.2.2v13.75c0 .11-.08.2-.2.2z"/><path id="ehf6f" d="M1016 1128.12h3.64a8.42 8.42 0 0 1 8.3-8.42v-3.7c-6.6 0-11.94 5.43-11.94 12.12z"/><path id="ehf6g" d="M1027.87 1147.72c.62 0 1.2-.15 1.2-.8 0-.64-.56-.76-1.2-.76h-.65v1.5zm-1.61-2.42h1.74c1.2 0 2.02.44 2.02 1.58 0 1.14-.88 1.6-2.08 1.6h-.72v2.24h-.96z"/><path id="ehf6h" d="M1033.23 1149.05h-.2c-.58 0-1.4.07-1.4.61 0 .35.33.46.64.46.26.03.51-.05.7-.24a.88.88 0 0 0 .26-.7zm0 1.2c-.26.38-.68.59-1.13.56-.33.05-.67-.04-.93-.26a1.22 1.22 0 0 1-.43-.87c0-1.1 1.36-1.22 2.5-1.22v-.1c0-.44-.39-.67-.84-.67-.37 0-.73.16-1 .42l-.46-.56c.42-.38.96-.6 1.52-.61.43-.07.87.07 1.18.37.32.3.48.74.43 1.18v2.24h-.84z"/><path id="ehf6i" d="M1035.12 1147.05h1l1.02 2.68.9-2.68h.94l-1.72 4.48c-.14.65-.72 1.1-1.38 1.05a2 2 0 0 1-.46 0l.07-.8c.11.02.22.02.33 0 .39 0 .5-.2.65-.58l.18-.47z"/><path id="ehf6j" d="M1042.03 1145.3h1.03l1.04 3.99 1.2-4h.97l1.2 4 1.06-4h1.01l-1.56 5.44h-.93l-1.25-4.07-1.26 4.07h-.95z"/><path id="ehf6k" d="M1050.72 1147.05h.9v3.62h-.9zm.45-1.81a.56.56 0 1 1-.03 1.11.56.56 0 0 1-.55-.55.57.57 0 0 1 .58-.56z"/><path id="ehf6l" d="M1052.78 1147.78v-.74h.63v-1.06h.9v1.06h.9v.74h-.9v1.7c0 .33.07.57.47.57.14 0 .27-.02.39-.07v.73c-.2.06-.4.1-.61.1-.96 0-1.2-.6-1.2-1.31v-1.72z"/><path id="ehf6m" d="M1059.8 1148.44v2.3h-.9v-2.03c0-.43-.1-.97-.67-.97a.88.88 0 0 0-.65.3.9.9 0 0 0-.21.7v2.01h-.91v-5.82h.9v2.63c.23-.4.64-.63 1.1-.62.38 0 .74.15 1 .44.26.28.38.67.34 1.06z"/><path id="ehf6n" d="M1063.95 1145.3h3.58v.85h-2.64v1.38h2.49v.81h-2.49v1.54h2.74v.86h-3.68z"/><path id="ehf6o" d="M1071.35 1149.05h-.2c-.58 0-1.4.07-1.4.62 0 .35.33.46.64.46.26.03.51-.06.7-.24a.88.88 0 0 0 .26-.7zm0 1.21c-.26.37-.68.58-1.13.56-.33.05-.67-.05-.93-.26a1.22 1.22 0 0 1-.43-.88c0-1.1 1.36-1.21 2.5-1.21v-.1c0-.45-.39-.68-.84-.68-.37.01-.73.16-1 .43l-.46-.56c.41-.38.95-.6 1.5-.62.43-.05.86.09 1.17.39.31.3.47.73.43 1.16v2.25h-.85z"/><path id="ehf6p" d="M1075.81 1148.04c-.19-.25-.48-.4-.79-.4-.28 0-.58.1-.58.4 0 .29.27.36.79.48.51.13 1.2.38 1.2 1.11 0 .73-.72 1.22-1.52 1.22-.56 0-1.1-.21-1.5-.61l.6-.57c.22.29.57.46.93.46.26 0 .59-.11.59-.44s-.28-.4-.84-.53c-.56-.14-1.07-.36-1.07-1.05 0-.7.72-1.21 1.44-1.21.51-.03 1.01.18 1.36.55z"/><path id="ehf6q" d="M1080.3 1148.53a.83.83 0 0 0-.23-.64.8.8 0 0 0-.63-.25.97.97 0 0 0-1 .89zm.9.65h-2.76c.06.53.51.93 1.04.91.38.02.74-.16.96-.47l.6.5c-.52.64-1.38.9-2.16.62a2 2 0 0 1-1.35-1.83 1.9 1.9 0 0 1 .54-1.42c.36-.37.87-.57 1.39-.55.5-.01 1 .2 1.33.58.34.4.5.91.42 1.42l-.01.24z"/></defs><g><g transform="translate(-1016 -1116)"><g><g><use fill="#fff" xlink:href="#ehf6a"/></g><g><use fill="#fff" xlink:href="#ehf6b"/></g><g><use fill="#fff" xlink:href="#ehf6c"/></g><g><use fill="#fff" xlink:href="#ehf6d"/></g><g><use fill="#fff" xlink:href="#ehf6e"/></g></g><g><use fill="#ff5252" xlink:href="#ehf6f"/></g><g opacity=".65"><g opacity=".65"><use fill="#fff" xlink:href="#ehf6g"/></g><g opacity=".65"><use fill="#fff" xlink:href="#ehf6h"/></g><g opacity=".65"><use fill="#fff" xlink:href="#ehf6i"/></g><g opacity=".65"><use fill="#fff" xlink:href="#ehf6j"/></g><g opacity=".65"><use fill="#fff" xlink:href="#ehf6k"/></g><g opacity=".65"><use fill="#fff" xlink:href="#ehf6l"/></g><g opacity=".65"><use fill="#fff" xlink:href="#ehf6m"/></g><g opacity=".65"><use fill="#fff" xlink:href="#ehf6n"/></g><g opacity=".65"><use fill="#fff" xlink:href="#ehf6o"/></g><g opacity=".65"><use fill="#fff" xlink:href="#ehf6p"/></g><g opacity=".65"><use fill="#fff" xlink:href="#ehf6q"/></g></g></g></g></svg>