<svg xmlns="http://www.w3.org/2000/svg" xmlns:xlink="http://www.w3.org/1999/xlink" width="18" height="11" viewBox="0 0 18 11"><defs><path id="jofga" d="M1451.44 1074.2c.05-.72.37-1.83 1.17-1.22.49.36.88.9 1.31 1.36.43.46.94.86 1.89.83.56-.01 2.18.04 2.6-.11 1.27-.46-.98-2.57-1.53-3.04-.24-.2-.5-.49-.7-.7-.24-.26-.36-.52-.16-.93l.85-1.2a26.6 26.6 0 0 0 1.41-1.97c.33-.53 1-1.57.13-1.73-.48-.1-2.05 0-2.65 0-1.17 0-.93-.13-1.51 1.21-.4.9-1.59 3-2.22 3.24-1.17.44-.25-3.81-.75-4.55-.3-.45-1.69-.4-2.34-.38-.76 0-1.8.05-2.02.67.06.06 0 .02.12.07.1.04.24.05.4.13.14.08.27.21.35.33.35.57.31 2.97.02 3.55-.56 1.1-2.17-1.96-2.45-2.51-.4-.78-.55-1.53-1-1.73-.32-.14-2.15-.06-2.65-.05-.45 0-.84.08-.67.61.09.27.3.65.42.93a30.27 30.27 0 0 0 3.02 5.14c1.19 1.58 2.95 2.98 5.17 3 1.6 0 1.72.08 1.79-.95"/></defs><g><g transform="translate(-1441 -1065)"><use fill="#fff" xlink:href="#jofga"/></g></g></svg>