<svg xmlns="http://www.w3.org/2000/svg" xmlns:xlink="http://www.w3.org/1999/xlink" width="17" height="14" viewBox="0 0 17 14"><defs><path id="sr3la" d="M1397.02 1076c-.49 0-.4-.19-.58-.66l-1.44-4.75 8.95-5.59 1.05.28-.87 2.38z"/><path id="sr3lb" d="M1397 1076.5c.4 0 .56-.18.79-.38l4.71-4.48-2.68-.64-2.5 1.53-.32 3.84z"/><path id="sr3lc" d="M1396.96 1072.24l6.12 4.57c.7.38 1.2.2 1.37-.65l2.5-11.88c.25-1.03-.4-1.5-1.07-1.19l-14.61 5.71c-1 .41-.99.97-.18 1.22l3.76 1.19 8.68-5.54c.4-.26.78-.12.48.16z"/><linearGradient id="sr3ld" x1="1400.62" x2="1403.78" y1="1069.6" y2="1074.72" gradientUnits="userSpaceOnUse"><stop offset="0" stop-color="#eff7fc"/><stop offset="1" stop-color="#fff"/></linearGradient></defs><g><g transform="translate(-1390 -1063)"><use fill="#c8daea" xlink:href="#sr3la"/></g><g transform="translate(-1390 -1063)"><use fill="#a9c9dd" xlink:href="#sr3lb"/></g><g transform="translate(-1390 -1063)"><use fill="url(#sr3ld)" xlink:href="#sr3lc"/></g></g></svg>