<svg xmlns="http://www.w3.org/2000/svg" xmlns:xlink="http://www.w3.org/1999/xlink" width="65" height="21" viewBox="0 0 65 21"><defs><path id="7rw9a" d="M745.74 1147.51l3.25-20.01h5.2l-3.25 20.01h-5.2"/><path id="7rw9b" d="M769.8 1127.99c-1.03-.4-2.65-.84-4.66-.84-5.14 0-8.76 2.72-8.79 6.6-.03 2.89 2.58 4.5 4.55 5.45 2.03.98 2.7 1.6 2.7 2.48-.01 1.35-1.62 1.96-3.11 1.96-2.08 0-3.19-.3-4.9-1.05l-.66-.32-.73 4.48c1.21.56 3.46 1.05 5.79 1.07 5.46 0 9-2.68 9.05-6.84.02-2.28-1.37-4.01-4.36-5.44-1.82-.93-2.94-1.55-2.92-2.49 0-.83.94-1.72 2.97-1.72 1.7-.03 2.93.36 3.9.77l.46.23.7-4.34"/><path id="7rw9c" d="M783.15 1127.52h-4.02c-1.25 0-2.18.35-2.73 1.66l-7.72 18.35h5.46l1.1-3h6.66l.63 3h4.83l-4.21-20.01zm-6.42 12.9l2.07-5.6.7-1.9.35 1.73 1.2 5.78h-4.32z"/><path id="7rw9d" d="M741.38 1127.51l-5.1 13.66-.54-2.77c-.95-3.2-3.9-6.67-7.2-8.4l4.65 17.52h5.5l8.2-20h-5.51"/><path id="7rw9e" d="M731.55 1127.5h-8.38l-.06.41c6.52 1.66 10.83 5.67 12.62 10.48l-1.82-9.2c-.31-1.27-1.23-1.65-2.36-1.69"/></defs><g><g transform="translate(-723 -1127)"><g><use fill="#fff" xlink:href="#7rw9a"/></g><g><use fill="#fff" xlink:href="#7rw9b"/></g><g><use fill="#fff" xlink:href="#7rw9c"/></g><g><use fill="#fff" xlink:href="#7rw9d"/></g><g><use fill="#fff" xlink:href="#7rw9e"/></g></g></g></svg>