<svg xmlns="http://www.w3.org/2000/svg" xmlns:xlink="http://www.w3.org/1999/xlink" width="37" height="37" viewBox="0 0 37 37"><defs><path id="22dka" d="M684.55 1118.16a17.97 17.97 0 0 1 9.11 2.47l-1.67 1.5-2.52-2.62-4.25 3.82-2.52-2.77-7.92 7.19 5.07 5.63-2 1.77 5 5.64-1.97 1.76 7.14 8.01 4.24-3.93 3.67 4.22c-.73.57-1.53 1.1-2.4 1.6a17.97 17.97 0 0 1-8.98 2.4 18.31 18.31 0 0 1-18.2-18.34c0-10.1 8.17-18.35 18.2-18.35"/><path id="22dkb" d="M681.23 1135.34l4.32-3.93 3.9 4.37-4.33 3.92-3.9-4.36"/><path id="22dkc" d="M684.3 1142.88l4.33-3.93 3.9 4.36-4.33 3.93-3.9-4.36"/><path id="22dkd" d="M678.13 1127.9l4.33-3.93 3.9 4.36-4.33 3.93-3.9-4.36"/><path id="22dke" d="M686.07 1125.78l3.25-2.94 2.92 3.27-3.24 2.94-2.93-3.27"/><path id="22dkf" d="M691.84 1139.27l3.25-2.95 2.92 3.28-3.24 2.95-2.93-3.28"/><path id="22dkg" d="M694.7 1145.87l3.24-2.94 2.93 3.27-3.25 2.94-2.92-3.27"/><path id="22dkh" d="M696 1130.74l2.17-1.97 1.95 2.18-2.17 1.96-1.94-2.17"/><path id="22dki" d="M693.24 1124.26l2.16-1.96 1.95 2.18-2.16 1.96-1.95-2.18"/><path id="22dkj" d="M698.77 1137.21l2.17-1.96 1.94 2.18-2.16 1.96-1.95-2.18"/><path id="22dkk" d="M689.07 1132.36l3.24-2.95 2.91 3.28-3.24 2.95-2.91-3.28"/></defs><g><g transform="translate(-666 -1118)"><g><use fill="#4a9aeb" xlink:href="#22dka"/></g><g><use fill="#4a9aeb" xlink:href="#22dkb"/></g><g><use fill="#4a9aeb" xlink:href="#22dkc"/></g><g><use fill="#4a9aeb" xlink:href="#22dkd"/></g><g><use fill="#4a9aeb" xlink:href="#22dke"/></g><g><use fill="#4a9aeb" xlink:href="#22dkf"/></g><g><use fill="#4a9aeb" xlink:href="#22dkg"/></g><g><use fill="#4a9aeb" xlink:href="#22dkh"/></g><g><use fill="#4a9aeb" xlink:href="#22dki"/></g><g><use fill="#4a9aeb" xlink:href="#22dkj"/></g><g><use fill="#4a9aeb" xlink:href="#22dkk"/></g></g></g></svg>