<svg xmlns="http://www.w3.org/2000/svg" xmlns:xlink="http://www.w3.org/1999/xlink" width="96" height="35" viewBox="0 0 96 35"><defs><path id="ch1ca" d="M951.21 1123.04c-2.24 9.49-2.52 10.98-2.81 12.62h-.05c-.38-2.24-.56-3.15-2.57-12.62h-3.82c-1.83 9.06-2.1 10.81-2.4 12.62h-.05c-.32-1.97-.54-3.18-2.75-12.62h-3.84l4.88 17.25h3.36c1.86-8.89 2.14-10.14 2.67-13.45h.05c.57 3.31.89 5 2.67 13.45H950l4.86-17.25z"/><path id="ch1cb" d="M945.1 1146.2h-2.02v-2.21h2.14c1 0 1.2.64 1.2 1.08 0 .81-.43 1.13-1.33 1.13zm2.8 2.73c0-1.54-.36-1.79-1.04-2.08.82-.28 1.27-1.05 1.27-1.96 0-.7-.4-2.32-2.58-2.32h-4.15v8.2h1.68v-3.2h1.77c1.27 0 1.34.43 1.34 1.55 0 .85.07 1.27.18 1.66h1.9v-.22c-.36-.13-.36-.43-.36-1.63z"/><path id="ch1cc" d="M933.7 1142.57v1.45h2.48v6.76h1.71v-6.76h2.48v-1.45z"/><path id="ch1cd" d="M924.92 1131.14l-.06-1.14-.18 1.13-.2 1.28c-.07.49-.3 1.01-.47 1.6-.16.57-.37 1.19-.7 1.79-.31.6-.59 1.26-1.06 1.83l-.63.9c-.23.3-.52.55-.78.82-.5.58-1.1 1.04-1.7 1.5-.57.49-1.28.82-1.88 1.22-.7.3-1.3.68-1.99.9-.65.26-1.3.48-1.93.64-.61.2-1.23.3-1.77.43-.34.06-.66.12-.97.16l.1-.27a16.52 16.52 0 0 0 .8-4.24c.02-.51.01-1.04-.04-1.6a11.85 11.85 0 0 0-2.67 1.55 16.6 16.6 0 0 0-2.12 1.86 20.45 20.45 0 0 0-3.22 4.36l-.11.2a2.7 2.7 0 0 0 .35 3.1 20.3 20.3 0 0 0 3.5 3.14c.66.46 1.37.89 2.13 1.27.77.37 1.56.73 2.5.95a15.24 15.24 0 0 0-1.27-4.9c.7-.23 1.55-.55 2.51-.95.62-.3 1.3-.57 1.98-.97.69-.35 1.39-.78 2.1-1.26.72-.43 1.38-1.04 2.09-1.57.63-.64 1.33-1.2 1.9-1.93.58-.69 1.14-1.38 1.57-2.16.22-.38.48-.74.66-1.13l.5-1.16c.36-.74.52-1.53.7-2.25.22-.71.3-1.41.33-2.05.05-.64.16-1.21.11-1.73l-.08-1.32z"/><path id="ch1ce" d="M920.8 1125.61a20.4 20.4 0 0 0-3.4-3.25 15.74 15.74 0 0 0-4.56-2.36 15.46 15.46 0 0 0 1.12 4.94c-.71.21-1.57.5-2.54.88-.63.28-1.31.53-2 .9-.7.34-1.42.75-2.14 1.2-.73.42-1.42 1-2.13 1.51-.66.62-1.38 1.16-1.96 1.87-.6.68-1.19 1.35-1.64 2.12-.23.37-.5.72-.7 1.1l-.52 1.15c-.4.73-.57 1.51-.78 2.23-.24.7-.32 1.4-.39 2.04-.05.63-.19 1.2-.16 1.72l.04 1.32.04 1.14.2-1.12.25-1.27c.07-.49.32-1.01.5-1.58.2-.58.4-1.19.77-1.78.33-.6.62-1.24 1.1-1.8l.67-.88c.24-.29.53-.53.8-.8.5-.55 1.12-1 1.73-1.44.6-.47 1.3-.78 1.92-1.17.7-.28 1.33-.63 2.02-.83.66-.24 1.31-.45 1.95-.59.61-.18 1.23-.26 1.78-.38l.97-.13-.1.28a16.62 16.62 0 0 0-.93 4.21 11.1 11.1 0 0 0-.01 1.6 11.75 11.75 0 0 0 2.71-1.46 16.5 16.5 0 0 0 2.2-1.8 20.75 20.75 0 0 0 3.34-4.27l.11-.19c.57-.96.5-2.21-.26-3.1z"/><path id="ch1cf" d="M984.62 1137.24v-4.47h8.4v-3.05h-8.4v-3.62h9.15v-3.05h-12.69v17.25h13.1v-3.06z"/><path id="ch1cg" d="M979.43 1144.02v-1.45h-5.84v8.21h1.71v-3.45h3.61v-1.46h-3.6v-1.85z"/><path id="ch1ch" d="M971.49 1130.63h-4.22v-4.61h4.48c2.12 0 2.53 1.34 2.53 2.26 0 1.7-.92 2.35-2.8 2.35zm5.9 5.77c0-3.22-.76-3.75-2.18-4.38 1.71-.57 2.67-2.21 2.67-4.1 0-1.5-.84-4.88-5.43-4.88h-8.72v17.25h3.54v-6.76h3.72c2.66 0 2.8.92 2.8 3.27 0 1.78.15 2.67.4 3.5h3.98v-.47c-.77-.28-.77-.91-.77-3.43z"/><path id="ch1ci" d="M982.26 1149.32v-2.12h4v-1.45h-4v-1.73h4.36v-1.45h-6.04v8.2h6.23v-1.45z"/><path id="ch1cj" d="M991.9 1146.2h-2v-2.21h2.13c1 0 1.2.64 1.2 1.08 0 .81-.43 1.13-1.33 1.13zm2.81 2.73c0-1.54-.37-1.79-1.04-2.08.81-.28 1.27-1.05 1.27-1.96 0-.7-.4-2.32-2.58-2.32h-4.15v8.2h1.68v-3.2h1.77c1.27 0 1.34.43 1.34 1.55 0 .85.07 1.27.18 1.66h1.9v-.22c-.37-.13-.37-.43-.37-1.63z"/><path id="ch1ck" d="M970.12 1146.1l-2-.49c-.34-.07-.87-.21-.87-.85 0-.75.79-.99 1.43-.99 1.5 0 1.64.88 1.69 1.24h1.64c-.01-1-.69-2.65-3.2-2.65-2.67 0-3.15 1.61-3.15 2.53 0 1.8 1.27 2.1 2.6 2.4l.88.21c.87.21 1.49.38 1.49 1.02 0 .87-.91 1.06-1.72 1.06-1.5 0-1.73-.87-1.74-1.32h-1.63c0 1.01.5 2.74 3.5 2.74.72 0 3.24-.22 3.24-2.69 0-1.47-1.03-1.93-2.16-2.2z"/><path id="ch1cl" d="M956.76 1140.29v-17.25h3.6v17.25z"/><path id="ch1cm" d="M951.63 1147.67l1.05-3.25h.02l1.02 3.25zm2.07-5.1h-1.98l-2.93 8.2h1.8l.58-1.68h3.03l.52 1.69h1.87z"/><path id="ch1cn" d="M962.7 1142.57v5.72h-.02l-3.26-5.72h-1.8v8.21h1.6v-5.85h.02l3.34 5.85h1.72v-8.2z"/></defs><g><g transform="translate(-899 -1120)"><g><use fill="#fff" xlink:href="#ch1ca"/></g><g><use fill="#fff" xlink:href="#ch1cb"/></g><g><use fill="#fff" xlink:href="#ch1cc"/></g><g><use fill="#7ed321" xlink:href="#ch1cd"/></g><g><use fill="#4a9aeb" xlink:href="#ch1ce"/></g><g><use fill="#fff" xlink:href="#ch1cf"/></g><g><use fill="#fff" xlink:href="#ch1cg"/></g><g><use fill="#fff" xlink:href="#ch1ch"/></g><g><use fill="#fff" xlink:href="#ch1ci"/></g><g><use fill="#fff" xlink:href="#ch1cj"/></g><g><use fill="#fff" xlink:href="#ch1ck"/></g><g><use fill="#fff" xlink:href="#ch1cl"/></g><g><use fill="#fff" xlink:href="#ch1cm"/></g><g><use fill="#fff" xlink:href="#ch1cn"/></g></g></g></svg>