<svg xmlns="http://www.w3.org/2000/svg" width="22" height="22" viewBox="0 0 22 22">
  <defs>
    <style>
      .cls-1 {
        fill: #0f204c;
        fill-rule: evenodd;
      }
    </style>
  </defs>
  <path id="Facebook" class="cls-1" d="M4630.64,316h-16.51a2.757,2.757,0,0,0-2.75,2.75v16.5a2.757,2.757,0,0,0,2.75,2.749h8.25v-7.561h-2.75V327h2.75v-2.75a4.128,4.128,0,0,1,4.13-4.124h2.75v3.437h-1.37c-0.76,0-1.38-.071-1.38.687V327h3.44l-1.38,3.436h-2.06V338h4.13a2.757,2.757,0,0,0,2.75-2.749v-16.5A2.757,2.757,0,0,0,4630.64,316Z" transform="translate(-4611.38 -316)"/>
</svg>
