<svg xmlns="http://www.w3.org/2000/svg" width="18" height="18" viewBox="0 0 18 18">
  <defs>
    <style>
      .cls-1 {
        fill-rule: evenodd;
        fill: #526586;
      }
    </style>
  </defs>
  <path id="Forma_1" data-name="Forma 1" class="cls-1" d="M904.034,1464h-8.068a4.975,4.975,0,0,1-4.969-4.97v-8.06a4.975,4.975,0,0,1,4.969-4.97h8.068a4.975,4.975,0,0,1,4.968,4.97v8.06A4.975,4.975,0,0,1,904.034,1464Zm3.371-4.97v-8.06a3.382,3.382,0,0,0-3.371-3.38h-8.068a3.382,3.382,0,0,0-3.371,3.38v8.06a3.373,3.373,0,0,0,3.371,3.37h8.068a3.373,3.373,0,0,0,3.371-3.37h0Zm-2.571-7.68a1.212,1.212,0,0,1-.828-0.34,1.173,1.173,0,0,1,0-1.66,1.178,1.178,0,0,1,1.656,0,1.176,1.176,0,0,1,0,1.66A1.21,1.21,0,0,1,904.834,1451.35ZM900,1459.64a4.64,4.64,0,1,1,4.639-4.64A4.645,4.645,0,0,1,900,1459.64Zm0-7.68a3.04,3.04,0,1,0,3.042,3.04A3.042,3.042,0,0,0,900,1451.96Z" transform="translate(-891 -1446)"/>
</svg>
