<svg xmlns="http://www.w3.org/2000/svg" width="15" height="16" viewBox="0 0 15 16">
  <defs>
    <style>
      .cls-1 {
        fill: #526586;
        fill-rule: evenodd;
      }
    </style>
  </defs>
  <path id="stopwatch" class="cls-1" d="M479.039,192.311l-3.44-2.435a0.271,0.271,0,0,0-.344.027,0.255,0.255,0,0,0-.028.336l2.49,3.367a0.96,0.96,0,0,0,1.435.111A0.914,0.914,0,0,0,479.039,192.311Zm6.555-1.354s0,0,0,0a0,0,0,0,1,0,0,7.1,7.1,0,0,0-.726-1.714s0-.011-0.006-0.017-0.009-.008-0.012-0.013a7.247,7.247,0,0,0-.97-1.28l0.584-.571,0.385,0.376L486,186.6l-1.153-1.129-1.155,1.129,0.385,0.376-0.584.572a7.318,7.318,0,0,0-1.308-.949,0.142,0.142,0,0,0-.013-0.012c-0.006,0-.012,0-0.018-0.006a7.344,7.344,0,0,0-1.75-.71l0,0h0a7.4,7.4,0,0,0-1.082-.2V185.33h0.408a0.666,0.666,0,1,0,0-1.331h-2.448a0.666,0.666,0,1,0,0,1.331h0.408v0.344a7.4,7.4,0,0,0-1.082.2H476.6a7.41,7.41,0,0,0-1.75.71c-0.006,0-.012,0-0.018.006l-0.013.012a7.318,7.318,0,0,0-1.308.949l-0.584-.571,0.384-.377-1.154-1.129L471,186.6l1.154,1.129,0.385-.376,0.583,0.571a7.241,7.241,0,0,0-.969,1.28,0.142,0.142,0,0,0-.012.013c0,0.006,0,.012-0.006.017a7.025,7.025,0,0,0-.726,1.714l0,0v0a7.026,7.026,0,0,0,0,3.715v0a0.014,0.014,0,0,1,0,0,7.05,7.05,0,0,0,.726,1.712c0,0.006,0,.012.006,0.017s0.011,0.014.016,0.021a7.253,7.253,0,0,0,1.14,1.452,0.153,0.153,0,0,0,.011.016,0.14,0.14,0,0,0,.016.01,7.363,7.363,0,0,0,1.492,1.12,0.154,0.154,0,0,0,.013.012l0.026,0.01a7.358,7.358,0,0,0,1.742.706l0,0h0a7.492,7.492,0,0,0,3.793,0h0l0,0a7.358,7.358,0,0,0,1.742-.706,0.2,0.2,0,0,0,.026-0.01s0.008-.009.013-0.012a7.357,7.357,0,0,0,1.491-1.12,0.1,0.1,0,0,0,.017-0.01s0.006-.012.011-0.016a7.253,7.253,0,0,0,1.14-1.452c0-.007.011-0.013,0.016-0.021s0-.011.006-0.017a7.089,7.089,0,0,0,.726-1.712,0.014,0.014,0,0,1,0,0v0A7.026,7.026,0,0,0,485.594,190.957Zm-1.939,3.567,0.45,0.117a5.644,5.644,0,0,1-.41.962l-0.4-.226a0.237,0.237,0,0,0-.321.084,0.226,0.226,0,0,0,.086.313l0.4,0.226a5.742,5.742,0,0,1-.649.826l-0.326-.319a0.238,0.238,0,0,0-.332,0,0.225,0.225,0,0,0,0,.324l0.327,0.319a5.824,5.824,0,0,1-.845.634l-0.231-.391a0.237,0.237,0,0,0-.32-0.084,0.227,0.227,0,0,0-.086.314l0.231,0.392a5.838,5.838,0,0,1-.983.4l-0.121-.439a0.234,0.234,0,0,0-.287-0.163,0.23,0.23,0,0,0-.166.282l0.12,0.438a6.016,6.016,0,0,1-1.056.135v-0.453a0.235,0.235,0,0,0-.47,0v0.453a6.016,6.016,0,0,1-1.056-.135l0.12-.438a0.23,0.23,0,0,0-.166-0.282,0.236,0.236,0,0,0-.288.163l-0.12.439a5.872,5.872,0,0,1-.983-0.4l0.231-.392a0.227,0.227,0,0,0-.086-0.314,0.238,0.238,0,0,0-.321.084l-0.23.391a5.824,5.824,0,0,1-.845-0.634l0.327-.319a0.226,0.226,0,0,0,0-.324,0.239,0.239,0,0,0-.333,0l-0.326.319a5.806,5.806,0,0,1-.648-0.826l0.4-.226a0.226,0.226,0,0,0,.086-0.313,0.237,0.237,0,0,0-.321-0.084l-0.4.226a5.565,5.565,0,0,1-.41-0.962l0.449-.118a0.227,0.227,0,0,0,.166-0.281,0.233,0.233,0,0,0-.287-0.162l-0.448.117a5.575,5.575,0,0,1-.139-1.032H473.1a0.23,0.23,0,1,0,0-.46h-0.464a5.575,5.575,0,0,1,.139-1.032l0.448,0.117a0.255,0.255,0,0,0,.061.008,0.233,0.233,0,0,0,.226-0.17,0.228,0.228,0,0,0-.166-0.282l-0.449-.117a5.61,5.61,0,0,1,.41-0.962l0.4,0.226a0.238,0.238,0,0,0,.321-0.084,0.226,0.226,0,0,0-.086-0.313l-0.4-.226a5.806,5.806,0,0,1,.648-0.826l0.326,0.319a0.238,0.238,0,0,0,.333,0,0.226,0.226,0,0,0,0-.324l-0.327-.319a5.9,5.9,0,0,1,.845-0.635l0.23,0.392a0.239,0.239,0,0,0,.2.115,0.236,0.236,0,0,0,.117-0.031,0.227,0.227,0,0,0,.086-0.314l-0.231-.392a5.838,5.838,0,0,1,.983-0.4l0.12,0.44a0.235,0.235,0,0,0,.227.17,0.262,0.262,0,0,0,.061-0.008,0.229,0.229,0,0,0,.166-0.281l-0.12-.439a6.016,6.016,0,0,1,1.056-.135v0.453a0.235,0.235,0,0,0,.47,0V187.2a6.016,6.016,0,0,1,1.056.135l-0.12.439a0.23,0.23,0,0,0,.166.281,0.262,0.262,0,0,0,.061.008,0.235,0.235,0,0,0,.227-0.17l0.121-.44a5.907,5.907,0,0,1,.983.4l-0.232.392a0.227,0.227,0,0,0,.086.314,0.238,0.238,0,0,0,.321-0.084l0.23-.392a5.9,5.9,0,0,1,.845.635l-0.327.319a0.225,0.225,0,0,0,0,.324,0.237,0.237,0,0,0,.332,0l0.28-.339a6.012,6.012,0,0,1,.695.846l-0.4.226a0.226,0.226,0,0,0-.086.313,0.238,0.238,0,0,0,.321.084l0.4-.226a5.61,5.61,0,0,1,.41.962l-0.45.117a0.23,0.23,0,0,0-.166.282,0.235,0.235,0,0,0,.227.17,0.262,0.262,0,0,0,.061-0.008l0.448-.117a5.575,5.575,0,0,1,.139,1.032H483.9a0.23,0.23,0,1,0,0,.46h0.464a5.575,5.575,0,0,1-.139,1.032l-0.448-.117a0.236,0.236,0,0,0-.288.163A0.23,0.23,0,0,0,483.655,194.524Z" transform="translate(-471 -184)"/>
</svg>
