<svg xmlns="http://www.w3.org/2000/svg" width="28" height="16" viewBox="0 0 28 16">
  <defs>
    <style>
      .cls-1 {
        fill: #526586;
        fill-rule: evenodd;
      }
    </style>
  </defs>
  <path id="VK" class="cls-1" d="M4676.09,329.179a37.544,37.544,0,0,1,2.74,2.789,8.223,8.223,0,0,1,.99,1.432,1.034,1.034,0,0,1-.62,1.6l-4.09,0a3.113,3.113,0,0,1-2.59-1.068c-0.57-.581-1.09-1.2-1.63-1.8a4.1,4.1,0,0,0-.74-0.66,0.85,0.85,0,0,0-1.36.334,4.552,4.552,0,0,0-.43,1.925,1.086,1.086,0,0,1-1.3,1.271,10.3,10.3,0,0,1-5.83-1.269,12.872,12.872,0,0,1-3.93-3.719,50.056,50.056,0,0,1-5.17-9.316c-0.33-.735-0.09-1.129.71-1.143,1.33-.026,2.66-0.024,4,0a1.168,1.168,0,0,1,1.1.838,25.418,25.418,0,0,0,2.71,5.072,4.533,4.533,0,0,0,1.02,1.137,0.622,0.622,0,0,0,1.06-.314,3.529,3.529,0,0,0,.23-1.064,16.031,16.031,0,0,0-.06-3.728,1.548,1.548,0,0,0-1.31-1.422c-0.39-.075-0.33-0.222-0.14-0.447a1.443,1.443,0,0,1,1.25-.629h4.61a1.107,1.107,0,0,1,.99,1.213v5.178a1.511,1.511,0,0,0,.65,1.323,0.9,0.9,0,0,0,.92-0.456,16.111,16.111,0,0,0,2.6-4.034c0.31-.638.58-1.3,0.84-1.961a0.982,0.982,0,0,1,1.04-.722l4.44,0a2.322,2.322,0,0,1,.39.024,0.777,0.777,0,0,1,.72,1.193,11.186,11.186,0,0,1-1.76,3.093c-0.74,1.035-1.53,2.035-2.27,3.076a1.415,1.415,0,0,0,.22,2.257h0Z" transform="translate(-4652 -319)"/>
</svg>
