<svg xmlns="http://www.w3.org/2000/svg" xmlns:xlink="http://www.w3.org/1999/xlink" width="1500" height="90"><symbol id="a"><path fill-rule="evenodd" d="M7.65 7.647a12.872 12.872 0 0 0-3.42 6.171l5.89 5.886a12.789 12.789 0 0 0 6.181-3.41 12.78 12.78 0 0 0 3.41-6.18L13.815 4.22a12.898 12.898 0 0 0-6.164 3.426zm9.13-3.786c-.53 0-1.057.044-1.58.109l4.754 4.751c.16-1.372.121-2.777-.176-4.173a.573.573 0 0 0-.438-.431 13.017 13.017 0 0 0-2.56-.256zM4.55 19.768c1.395.3 2.802.339 4.176.18l-4.744-4.743a12.882 12.882 0 0 0 .137 4.128c.043.212.22.39.43.435zm-2.26.448a15.186 15.186 0 0 1 .055-6.172c.008-.031.01-.064.023-.094a15.176 15.176 0 0 1 4.084-7.501 15.17 15.17 0 0 1 7.504-4.083c.03-.012.062-.013.093-.02 2.005-.427 4.1-.473 6.177-.056.713.145 1.296.72 1.448 1.43.437 2.046.422 4.11.03 6.09a.637.637 0 0 1-.062.27 15.058 15.058 0 0 1-4.067 7.487 15.072 15.072 0 0 1-13.852 4.095 1.876 1.876 0 0 1-1.433-1.446zm6.372-4.382a.579.579 0 0 1-.408-.988L9 14.1l-.748-.748a.578.578 0 0 1 .818-.817l.747.748 1.326-1.325-.747-.748a.578.578 0 0 1 .818-.818l.747.748 1.236-1.235-.747-.749a.578.578 0 0 1 .818-.817l.747.748.748-.747a.579.579 0 0 1 .817.817l-.747.748.749.748a.578.578 0 1 1-.82.816l-.747-.747-1.236 1.236.748.748a.578.578 0 1 1-.819.816l-.747-.747-1.326 1.325.749.749a.578.578 0 1 1-.82.816l-.747-.747-.747.748a.581.581 0 0 1-.41.169z"/></symbol><symbol id="b"><path fill-rule="evenodd" d="M14.007 5.02c1.121-.767 2.243-1.415 3.272-1.846-2.81-.13-6.656 1.548-9.607 4.499-2.95 2.95-4.629 6.796-4.499 9.606.432-1.03 1.08-2.15 1.847-3.272l.892.893a20.673 20.673 0 0 0-.891 1.484c-1.143 2.11-1.176 3.258-.92 3.515.257.256 1.405.223 3.515-.92 2.038-1.103 4.376-2.906 6.416-4.946 2.041-2.041 3.844-4.38 4.947-6.417 1.143-2.11 1.176-3.258.92-3.514-.257-.257-1.405-.224-3.515.919-.48.26-.978.56-1.485.892l-.892-.893zm.11-3.124c2.921-.788 5.361-.392 6.87 1.117 1.509 1.509 1.905 3.949 1.117 6.87-.723 2.677-2.39 5.464-4.574 7.648-2.183 2.184-4.97 3.85-7.646 4.573-2.922.788-5.362.392-6.871-1.117-1.509-1.508-1.905-3.949-1.117-6.871.722-2.675 2.39-5.462 4.573-7.646 2.185-2.185 4.972-3.852 7.647-4.574zm2.206 14.428c2.952-2.951 4.63-6.798 4.5-9.607-1.106 2.635-3.63 5.874-5.93 8.176-2.302 2.301-5.541 4.824-8.176 5.93 2.81.13 6.656-1.548 9.606-4.5zM5.456 11.216a.782.782 0 0 1 1.106 0l1.618 1.617a.782.782 0 0 1-1.106 1.106l-1.618-1.617a.782.782 0 0 1 0-1.106zM8.222 8.45a.782.782 0 0 1 1.106 0l1.617 1.618a.782.782 0 0 1-1.106 1.106L8.222 9.557a.782.782 0 0 1 0-1.107zm2.765-2.765a.782.782 0 0 1 1.106 0l1.618 1.618a.782.782 0 0 1-1.107 1.106L10.987 6.79a.782.782 0 0 1 0-1.106z"/></symbol><symbol id="c"><path fill-rule="evenodd" d="M4.788 21.976c-1.651-.963-2.282-3.134-1.368-4.732l.9-1.572L5.788 3.977c.185-1.472.991-2.141 1.798-2.361.816-.222 1.55-.154 2.602.46 1.052.612 1.485 1.482 1.658 2.583.184-.092.378-.166.581-.22.754-.205 1.407-.238 2.244.25.876.558 1.423 1.509 1.482 2.478.138-.054.28-.1.421-.139.93-.251 1.86-.145 2.622.299C20.473 8.07 20.994 8.962 21 9.81c.005.766-.239 1.647-1.163 2.356l-9.296 7.132-.9 1.572c-.977 1.71-3.204 2.066-4.853 1.105zm1.483-10.051l-.462 4.008.715.417 1.364-3.483-1.617-.942zm.647-4.581l-.47 3.732 1.712.998 1.328-3.232-2.57-1.498zm6.33 7.818l3.094-2.374-2.68-1.562-2.197 2.896 1.784 1.04zM9.463 18.05l3.125-2.357-1.595-.93-2.223 2.883.693.404zm1.225-4.424l2.142-2.823-2.542-1.482-1.35 3.285 1.75 1.02zm-2.039-.281l-1.42 3.432.845.492 2.187-2.984-1.612-.94zm7.844-4.765a3.256 3.256 0 0 0-1.35.758l-.778 1.025 2.827 1.648 1.47-1.13c.388-.296.574-.596.556-.89-.026-.407-.424-.892-1.014-1.237-.482-.28-1.09-.343-1.711-.174zm-4.035-2.565c-.473.128-.87.43-1.12.853l-.568 1.38 2.736 1.595.9-1.186a1.899 1.899 0 0 0-.615-2.503 1.854 1.854 0 0 0-1.333-.14zm-5.136-1.69l-.227 1.81 2.763 1.61.479-1.165c.265-1.212-.145-2.4-1.006-2.903-.5-.292-1.035-.412-1.396-.314-.126.034-.51.137-.613.961zm-2.379 13.51a2.06 2.06 0 0 0 .663 2.76 2.025 2.025 0 0 0 2.698-.8l.507-.884-3.363-1.958-.505.882z"/></symbol><symbol id="d"><path fill-rule="evenodd" d="M18.47 6.204a2591.019 2591.019 0 0 1-3.948 8.887l-.81-.34c.931-1.817 2.63-5.266 5.154-10.463h.452l-.848 1.916zm-6.73 13.087c-2.702.836-5.044.431-7.147-1.248.166-.193.39-.457.695-.815 1.056.853 2.164 1.285 3.3 1.285 1.907 0 3.34-.456 4.57-2.705l.89.377c-.047.13-.094.265-.143.407-.383 1.117-.78 2.27-2.166 2.699zM21.346 3c-.14-.226-.428-.497-1.009-.501h-1.856c-.315 0-.763.135-1.105.777l-.014.03c-3.135 6.453-5.07 10.362-5.752 11.618-.828 1.528-1.513 1.8-3.023 1.8-.82 0-1.66-.39-2.498-1.161l-.078-.07c-.515-.455-1.213-.425-1.673.093-1.181 1.4-1.423 1.668-1.47 1.714-.312.304-.372.621-.369.834.008.45.296.714.39.8C4.759 20.643 6.85 21.5 9.135 21.5c1.006 0 2.05-.167 3.13-.5 2.25-.697 2.896-2.58 3.324-3.825.093-.27.177-.52.272-.725.36-.768 2.693-6.034 4.237-9.52.714-1.614 1.244-2.81 1.29-2.908.163-.347.15-.72-.04-1.021zM7.634 9.066c-.861 0-1.563.704-1.563 1.57 0 .865.702 1.569 1.563 1.569.862 0 1.563-.704 1.563-1.57 0-.865-.701-1.57-1.563-1.57m.005 4.528a2.957 2.957 0 0 1-2.948-2.961A2.957 2.957 0 0 1 7.639 7.67a2.957 2.957 0 0 1 2.947 2.962 2.957 2.957 0 0 1-2.947 2.96"/></symbol><symbol id="e"><path fill-rule="evenodd" d="M12 3.822c-4.504 0-8.167 3.66-8.176 8.162a8.04 8.04 0 0 0 2.625-.436l-.228-.455a.584.584 0 0 1 1.044-.523l.26.52a8.268 8.268 0 0 0 1.632-1.109l-.49-.49a.585.585 0 0 1 .826-.825l.496.498a8.242 8.242 0 0 0 1.102-1.638l-.52-.26a.584.584 0 0 1 .522-1.045l.463.231A8.07 8.07 0 0 0 12 3.822zm8.085 7.014a8.186 8.186 0 0 0-6.921-6.921 9.279 9.279 0 0 1-.555 3.063l.82.411a.584.584 0 0 1-.522 1.044l-.762-.38a9.338 9.338 0 0 1-1.324 1.942l.424.424a.585.585 0 0 1-.826.826l-.424-.424a9.384 9.384 0 0 1-1.942 1.324l.38.762a.584.584 0 0 1-1.044.524l-.411-.821a9.285 9.285 0 0 1-3.063.555 8.184 8.184 0 0 0 6.921 6.921c.01-.93.151-1.83.415-2.677l-.711-.411a.584.584 0 1 1 .584-1.013l.558.321a9.343 9.343 0 0 1 1.498-2.301l-.424-.424a.585.585 0 0 1 .826-.826l.423.424a9.35 9.35 0 0 1 2.412-1.552l-.267-.535a.585.585 0 0 1 1.045-.522l.326.652a9.337 9.337 0 0 1 2.564-.386zM12 20.178c4.503 0 8.168-3.66 8.178-8.163a8.024 8.024 0 0 0-2.122.276l.308.616a.585.585 0 0 1-1.044.523l-.371-.742a8.238 8.238 0 0 0-2.106 1.33l.491.49a.585.585 0 0 1-.826.825l-.497-.498a8.21 8.21 0 0 0-1.314 2.058l.763.441a.584.584 0 1 1-.584 1.013l-.571-.33a8.061 8.061 0 0 0-.305 2.16zM2.026 12.56l.001-.007C2.017 12.369 2 12.186 2 12 2 6.486 6.486 2 12 2c.19 0 .375.018.563.027l.006.002c5.052.286 9.105 4.33 9.402 9.379-.001.01.005.02.004.032 0 .003-.003.005-.003.008.01.183.028.366.028.552 0 5.514-4.486 10-10 10-.19 0-.375-.017-.563-.027h-.04c-.008 0-.016-.004-.025-.004-5.023-.315-9.045-4.348-9.342-9.376 0-.012-.005-.022-.004-.033z"/></symbol><symbol id="f"><path fill-rule="evenodd" d="M2.798 8.106C3.328 6.87 4.037 5.81 4.931 4.92c.888-.882 1.959-1.59 3.193-2.12a9.755 9.755 0 0 1 3.892-.8c1.357 0 2.645.267 3.882.799 1.234.53 2.296 1.237 3.182 2.122a10.068 10.068 0 0 1 2.133 3.185A9.735 9.735 0 0 1 22 11.99c0 1.356-.259 2.66-.787 3.894-1.057 2.464-2.857 4.263-5.315 5.318a9.721 9.721 0 0 1-4.986.733c-.011.011-.033.022-.066.022a.729.729 0 0 1-.197-.044c-1.185-.264-2.338-.55-3.4-1.127a10.063 10.063 0 0 1-2.755-2.166 9.954 9.954 0 0 1-1.827-3.031 9.814 9.814 0 0 1-.667-3.6c0-1.357.267-2.646.798-3.883zm2.69-1.346c.01 0 .03.011.062.043.081.054.368.288.854.885.242.3.475.627.697.99.443.721.873 1.865.968 2.989.019.219.032.437.032.646 0 .333-.021.646-.073.937.582.084.999.136 1.25.147a51.025 51.025 0 0 1-.053-2.147c0-1.239.059-2.375.177-3.416.183-1.615.427-2.948.708-3.99A8.349 8.349 0 0 0 5.487 6.76zM16.72 5.105l-.042.01-.479.365c-.2.152-.499.426-.895.823-.395.396-.749.812-1.072 1.25-.322.437-.613.98-.895 1.635a6.08 6.08 0 0 0-.52 2.458c0 .438.05.927.155 1.459a16.118 16.118 0 0 0 1.957-.542 18.692 18.692 0 0 0 5.164-2.708 8.256 8.256 0 0 0-3.373-4.75zm.021 13.801a8.377 8.377 0 0 0 2.644-2.98 8.167 8.167 0 0 0 .978-3.936c0-.178-.01-.468-.04-.875a19.789 19.789 0 0 1-4.966 2.52c-.68.233-1.354.428-2.051.574.573 1.531 1.718 3.094 3.435 4.697zm-5.372 1.448c.136 0 .51.022.645.022 1.29 0 2.52-.292 3.686-.876-1.749-1.687-2.926-3.385-3.54-5.083-.645.073-1.196.125-1.644.135.156 1.959.448 3.896.853 5.802zm-.916-6.937c.302-.01.76-.052 1.385-.104a8.097 8.097 0 0 1-.166-1.614c-.004-.22.002-.427.02-.646a7.22 7.22 0 0 1 .437-1.927A9.418 9.418 0 0 1 12.9 7.49c.283-.468.62-.913.988-1.345.745-.87 1.219-1.281 1.75-1.687a8.304 8.304 0 0 0-3.623-.833c-.302 0-.53.01-.667.02-.634 2.292-.946 4.865-.946 7.73-.001.666.02 1.343.05 2.041zm-.302 6.74a48.013 48.013 0 0 1-.78-5.625c-.428-.011-.958-.073-1.604-.177-.354 1.155-.968 2.28-1.853 3.374 1.187 1.261 2.603 2.063 4.237 2.427zm-4.986-3.345c.707-.915 1.197-1.812 1.467-2.686a14.099 14.099 0 0 1-2.935-1.177 7.96 7.96 0 0 0 1.468 3.863zm1.727-3.822c.032-.218.053-.438.053-.666 0-.177-.015-.354-.032-.542A5.975 5.975 0 0 0 6.3 9.656c-.387-.78-.915-1.394-1.468-1.947l-.01-.01c-.708 1.155-1.104 2.458-1.187 3.905a12.447 12.447 0 0 0 3.258 1.386z"/></symbol><symbol id="g"><path fill-rule="evenodd" d="M18.02 15.079h3.175v-2.014H18.02v2.014zm-5.014 0h4.01v-2.014h-4.01v2.014zm-1.644 0c-.683-1.151-1.921-1.933-3.349-1.933-.007 0-.014.003-.02.003v-.084h4.01v2.014h-.641zm-3.349 4.109a2.113 2.113 0 0 1-2.106-2.115c0-1.166.945-2.114 2.106-2.114 1.16 0 2.106.948 2.106 2.114a2.113 2.113 0 0 1-2.106 2.115zm-5.208-4.11v-2.013H6.99v.236a3.905 3.905 0 0 0-2.328 1.778H2.805zm0-6.04H6.99V6.813H2.805v2.225zm15.214 3.02h3.176v-2.014H18.02v2.014zm-5.013 0h4.01v-2.014h-4.01v2.014zm0-3.022h4.01V6.812h-4.01v2.224zm-5.013.002h4.01V6.813h-4.01v2.225zm-5.188 3.02H6.99v-2.014H2.805v2.014zm5.188 0h4.01v-2.014h-4.01v2.014zm10.026-3.02h3.176V6.813H18.02v2.225zM1 6.61v12.485h1.805v-3.01h1.438c-.082.318-.14.645-.14.988C4.103 19.24 5.857 21 8.013 21s3.91-1.761 3.91-3.927c0-.343-.058-.67-.141-.987h.222v3.009h1.002v-3.01h4.01v3.01h1.003v-3.01h3.176v3.01H23V6.61C23 5.516 22.46 5 21.57 5H2.492C1.514 5 1 5.628 1 6.61z"/></symbol><symbol id="h"><path fill-rule="evenodd" d="M20.25 3v1.923H3.832V3H2.03v16.22H1V21h3.983v-1.78H3.832v-5.397H20.25v5.397h-1.232V21H23v-1.78h-.95V3h-1.8zm-3.226 5.85h3.226V6.702h-3.226v2.146zm-4.489 0h3.488V6.702h-3.488v2.146zm-4.52 0h3.52V6.702h-3.52v2.146zm-4.183 0h3.182V6.702H3.832v2.146zm13.192 3.194h3.226V9.839h-3.226v2.205zm-4.489 0h3.488V9.839h-3.488v2.205zm-4.52 0h3.52V9.839h-3.52v2.205zm-4.183 0h3.182V9.839H3.832v2.205z"/></symbol><symbol id="i"><path fill-rule="evenodd" d="M17.248 12.29a40.428 40.428 0 0 1-1.22 3.809c-.06.158-.15.538-.3.627-.535.316-1.422.394-2.204.464l-.449.042a20.38 20.38 0 0 1-3.182.077 18.66 18.66 0 0 1-2.442-.277 5.42 5.42 0 0 0-.035-.426c-.038-.31-.088-.895-.146-1.203-.242-1.265-.65-2.5-1.214-3.667a9.058 9.058 0 0 0-.477-.815c-.308-.487-.88-1.395-.787-1.768.006-.022.02-.078.167-.164.359-.205.995-.034 1.337.357.207.238.352.548.436.928a4.142 4.142 0 0 1 .083.932.886.886 0 0 0 .87.897c.484-.012.896-.369.912-.854a5.405 5.405 0 0 0-.035-.814 5.211 5.211 0 0 0-.073-.466c-.15-.778-.43-1.515-.704-2.236-.088-.235-.179-.47-.262-.705-.596-1.67-.539-2.797.186-3.652.499-.589 1.24-.908 2.405-1.035 1.474-.161 3.288-.054 4.735.282 1.332.308 2.427.918 2.932 1.63.604.853.433 2.452.34 3.31a31.864 31.864 0 0 1-.873 4.727zm-3.343 7.705c-.976-.004-1.95 0-2.925-.014l-.008-.877h.012c.76 0 1.522-.039 2.274-.115l.425-.04c.086-.007.182-.018.27-.026l-.048 1.072zM8.95 21.958l.026-2.952c.271.023.534.053.82.067.062.004.124.002.185.005l.01 1.054c.004.455.369.82.828.827 1.015.017 2.028.013 3.043.017l-.016 1.056a522.77 522.77 0 0 1-2.476-.037c-.81-.014-1.618-.028-2.42-.037zM15.256.903c1.04.241 2.943.867 3.984 2.335.912 1.287.816 3.004.655 4.512a33.542 33.542 0 0 1-.922 4.988c-.35 1.316-.777 2.927-1.273 4.25a2.408 2.408 0 0 1-1.058 1.255 3.991 3.991 0 0 1-.89.367l-.163 4.045a.89.89 0 0 1-.897.845c-1.108-.008-2.23-.026-3.353-.045-1.104-.02-2.209-.038-3.298-.046a.9.9 0 0 1-.63-.264.88.88 0 0 1-.254-.628l.037-3.74c-.031-.005-.065-.008-.097-.014-1.193-.222-1.39-.905-1.425-1.61-.005-.096-.01-.206-.025-.33-.035-.276-.077-.821-.129-1.091a13.137 13.137 0 0 0-1.07-3.235c-.088-.18-.229-.398-.381-.64-.57-.903-1.281-2.03-1.006-3.129.092-.368.341-.885 1.003-1.267a2.556 2.556 0 0 1 1.622-.303c-.348-1.093-.8-3.198.657-4.918C7.403.99 8.89.698 9.918.585a16.857 16.857 0 0 1 5.338.318zm-.777 3.792a.49.49 0 0 0 .331.611c.382.115.715.415.889.802.179.398.188.877.023 1.283a.488.488 0 0 0 .276.637.496.496 0 0 0 .644-.272 2.657 2.657 0 0 0-.038-2.047 2.46 2.46 0 0 0-1.508-1.342.496.496 0 0 0-.617.328z"/></symbol><symbol id="j"><path fill-rule="evenodd" d="M12.975 8.025a40.203 40.203 0 0 0-1.866 1.67l-.868-.869a40.6 40.6 0 0 1 1.864-1.67l.87.869zm1.572-1.256l-.87-.87a41.468 41.468 0 0 1 1.948-1.396 8.303 8.303 0 0 0-11.07 11.05c.338-.5.686-.99 1.043-1.47l.868.868c-.426.572-.84 1.159-1.244 1.76.164.236.34.466.531.687L17.456 5.695a8.308 8.308 0 0 0-.665-.515 41.77 41.77 0 0 0-2.244 1.59zm-4.852 4.34a41.093 41.093 0 0 0-1.989 2.254l-.869-.869a40.95 40.95 0 0 1 1.99-2.253l.868.868zm6.324-.04l.825.826a40.6 40.6 0 0 1-1.67 1.864l-.825-.824a40.196 40.196 0 0 0 1.67-1.866zm1.256-1.573a41.78 41.78 0 0 0 1.59-2.247 8.3 8.3 0 0 0-.426-.557L6.75 18.382a8.3 8.3 0 0 0 .58.441c.603-.403 1.19-.819 1.764-1.245l.824.824c-.489.364-.988.717-1.496 1.061A8.304 8.304 0 0 0 19.514 8.35a41.468 41.468 0 0 1-1.412 1.975l-.827-.828zm-4.34 4.853l.824.824a40.95 40.95 0 0 1-2.253 1.99l-.825-.825c.78-.64 1.531-1.303 2.253-1.99zm6.136 4.722c-3.905 3.905-10.237 3.905-14.142 0-3.905-3.905-3.905-10.237 0-14.142 3.905-3.905 10.237-3.905 14.142 0 3.905 3.905 3.905 10.237 0 14.142z"/></symbol><symbol id="k"><path fill-rule="evenodd" d="M6.926 20.187c-2.823 0-5.12-2.302-5.12-5.133S4.104 9.92 6.927 9.92c.154 0 .3.032.452.046l-1.25 4.958 1.751.445 1.244-4.933c1.721.829 2.922 2.578 2.922 4.617 0 2.831-2.297 5.133-5.12 5.133M9.577 8.64a6.955 6.955 0 0 1 4.275 6.415c0 3.83-3.106 6.946-6.925 6.946C3.106 22 0 18.884 0 15.054s3.107-6.946 6.926-6.946c.307 0 .607.027.904.065l1.096-4.345H6.318c-1.343-.078-1.629.162-1.632.164.035.982.035 1.022 1.236 1.022v1.813c-2.774 0-3.007-1.43-3.007-2.894 0-.495.183-.93.532-1.259.56-.531 1.491-.738 2.924-.657l4.877-.002-.776 3.077H18.9v1.813h-8.886L9.576 8.64zm5.4 3.417V11.05h8.02v1.007h-8.02zm1.003 4.026v-1.007H24v1.007h-8.02zm-1.003 4.026v-1.006h8.02v1.006h-8.02z"/></symbol><symbol id="l"><path fill-rule="evenodd" d="M8.155 15.271L5.071 17.86a.716.716 0 0 1-1.008-.093.716.716 0 0 1 .084-1.008L7.23 14.17a.716.716 0 0 1 1.007.094.716.716 0 0 1-.083 1.007zm5.652-8.366l3.21-2.695.014 1.539-3.208 2.691-.016-1.535zm2.782 3.28l-1.616-.296 3.2-2.685 1.62.292-3.204 2.689zm.536 1.965l6.868-5.763-5.128-.924-.045-5.18-6.861 5.758.047 3.924-3.05 2.56a2.534 2.534 0 0 0-2.914.228l-3.084 2.588a2.534 2.534 0 0 0-.732 2.83L.12 19.94l1.189 1.417 2.133-1.79c.89.469 2.006.39 2.817-.292l3.085-2.588a2.54 2.54 0 0 0 .776-2.724l3.028-2.54 3.978.728z"/></symbol><symbol id="m"><path fill-rule="evenodd" d="M21.854 17.454c-.23.531-.536.674-.72.728-.31.08-.726.026-1.19-.151-.879-.352-2.007-1.142-3.25-2.272-.969-.917-2.724-1.464-4.694-1.464-1.97 0-3.724.547-4.68 1.452-1.256 1.142-2.384 1.932-3.263 2.284l-.016.007c-.429.181-.835.23-1.157.149-.2-.056-.496-.192-.737-.707-.258-.593-.363-1.499-.317-2.69.052-1.142.258-2.47.586-3.744.28-1.149.691-2.24 1.149-3.06.974-1.685 1.906-2.194 3.059-2.194.72 0 1.526.2 2.483.435l.215.051c.742.175 1.584.376 2.54.46l.361-.004c.872-.08 1.713-.28 2.456-.456l.233-.056c2.447-.632 3.923-1.01 5.517 1.726.428.763.818 1.801 1.16 3.08.324 1.264.53 2.59.58 3.731.048 1.217-.056 2.12-.315 2.695m2.133-2.768c.06 1.514-.09 2.649-.462 3.472-.38.88-1.039 1.485-1.9 1.734-.723.188-1.506.113-2.358-.21-1.109-.445-2.39-1.33-3.825-2.635-.632-.597-1.978-.974-3.442-.974-1.463 0-2.808.377-3.428.963-1.443 1.312-2.722 2.196-3.815 2.635A3.978 3.978 0 0 1 3.21 20c-.276 0-.547-.033-.808-.1-.598-.166-1.4-.591-1.921-1.704-.378-.87-.529-2-.47-3.478.058-1.282.277-2.696.635-4.094.316-1.288.788-2.534 1.327-3.5 2.272-3.933 5.065-3.24 7.53-2.632l.248.06c.715.17 1.455.344 2.195.412l.191-.004c.656-.064 1.396-.238 2.111-.408l.218-.053c2.454-.632 5.257-1.354 7.552 2.583.506.904.951 2.079 1.332 3.506.36 1.406.58 2.82.636 4.098zM8.088 7.815H6.86v1.893H4.925v1.203h1.934v1.857h1.23v-1.857h1.94V9.708H8.09V7.815zm8.764.001a.9.9 0 0 0-.91.889.9.9 0 0 0 .91.888.9.9 0 0 0 .91-.888.9.9 0 0 0-.91-.889zm0 3.831a.9.9 0 0 0-.91.889.9.9 0 0 0 .91.888.9.9 0 0 0 .91-.888.9.9 0 0 0-.91-.889zM14.89 9.732a.9.9 0 0 0-.91.888.9.9 0 0 0 .91.889.9.9 0 0 0 .91-.889.9.9 0 0 0-.91-.888zm3.923 0a.9.9 0 0 0-.91.888.9.9 0 0 0 .91.889.9.9 0 0 0 .91-.889.9.9 0 0 0-.91-.888z"/></symbol><symbol id="n"><path fill-rule="evenodd" d="M18.33 4.758l-.712-.268c.308-.718.53-1.24.653-1.53.148-.352.502-.735.705-.662.065.024.196.072.185.488-.289.684-.563 1.336-.83 1.972zm-4.368 10.29c-.727 1.677-.946 2.48-1.105 3.066-.13.481-.218.8-.547 1.442-.44.859-1.805 2.77-4.983 1.953-1.123-.288-1.883-.881-2.259-1.762-.36-.845-.224-1.672-.07-1.928.595-.991.936-1.268 1.343-1.268.089 0 .183.013.282.036.207.046.42.093.276.801-.216.4-.32.759-.32 1.09 0 .527.27.977.742 1.235.458.25 2.055.896 3.407-1.259.413-.66 1.647-3.088 3.744-7.361l1.019.38c-.65 1.53-1.166 2.737-1.53 3.575zm2.758-6.472l-.84 1.98-.968-.363.947-1.94.86.323zm-.424-1.222l.81-1.667.016-.038.105-.242.716.269-.836 1.981-.81-.303zM19.632.63c-1.328-.49-2.569.485-3.063 1.651-.18.425-.559 1.312-1.137 2.664-4.538 9.36-5.918 12.009-6.276 12.58-.254.406-.452.581-.603.647a.51.51 0 0 0 .019-.033l.096-.241c.555-2.37-1.11-2.935-1.631-3.05-2.104-.472-3.133 1.247-3.629 2.073-.53.88-.545 2.324-.04 3.51.418.977 1.362 2.258 3.489 2.803.723.186 1.38.266 1.98.266 3.219 0 4.7-2.327 5.12-3.15a7.832 7.832 0 0 0 .678-1.78c.155-.566.346-1.27 1.023-2.831.894-2.063 2.665-6.241 5.264-12.417l.065-.266C21.12 1.43 20.195.838 19.632.63zM6.742 8.305c.901 0 1.635.711 1.635 1.586 0 .876-.734 1.587-1.636 1.587-.902 0-1.635-.711-1.635-1.587 0-.875.733-1.586 1.635-1.586m-.003 4.563c1.691 0 3.067-1.334 3.067-2.975 0-1.64-1.376-2.975-3.067-2.975-1.69 0-3.066 1.335-3.066 2.975 0 1.64 1.376 2.975 3.066 2.975"/></symbol><symbol id="o"><g fill-rule="evenodd"><path d="M15.42 21.397c-5.19 1.889-10.928-.787-12.817-5.977C.714 10.23 3.39 4.492 8.58 2.603 13.77.714 19.508 3.39 21.397 8.58c1.889 5.19-.787 10.928-5.977 12.817zm-.615-1.692a8.2 8.2 0 1 0-5.61-15.41 8.2 8.2 0 0 0 5.61 15.41z"/><path d="M9.326 21.41s-2.57-1.116-2.628-1.095c-.268.097-.3-.496-.28-.769a2 2 0 1 1 3.473 1.494c-.211.23-.257.255-.565.37zm-.57-.78a1 1 0 1 0-.684-1.88 1 1 0 0 0 .684 1.88zm5.98-1.112a2 2 0 1 1-1.368-3.76 2 2 0 0 1 1.368 3.76zm-.342-.94a1 1 0 1 0-.684-1.88 1 1 0 0 0 .684 1.88zm5.726-1.415c-.26.095-.272.434-.532.42a2 2 0 1 1 1.62-3.3c.153.178-.11.527-.026.76.06.166-.962 2.083-1.063 2.12zm-.088-.637a1 1 0 1 0-.684-1.88 1 1 0 0 0 .684 1.88zm-1.71-4.699a2 2 0 1 1-1.368-3.759 2 2 0 0 1 1.368 3.76zm-.342-.94a1 1 0 1 0-.684-1.879 1 1 0 0 0 .684 1.88zm-5.296 2.993a2 2 0 1 1-1.368-3.76 2 2 0 0 1 1.368 3.76zm-.342-.94a1 1 0 1 0-.684-1.88 1 1 0 0 0 .684 1.88zm-5.296 2.992a2 2 0 1 1-1.368-3.76 2 2 0 0 1 1.368 3.76zm-.342-.94a1 1 0 1 0-.684-1.88 1 1 0 0 0 .684 1.88zm-1.71-4.699a2 2 0 0 1-2.301-.7c-.108-.149.084-.713.18-.879.052-.087.948-2.033.985-2.046.165-.06.103-.231.271-.246a2 2 0 0 1 .865 3.871zm-.342-.94a1 1 0 1 0-.684-1.879 1 1 0 0 0 .684 1.88zm5.98-1.112a2 2 0 1 1-1.368-3.759 2 2 0 0 1 1.368 3.76zm-.342-.94a1 1 0 1 0-.684-1.879 1 1 0 0 0 .684 1.88zm5.98-1.111a2 2 0 0 1-1.901-3.468c.158-.12.625.146.822.074.12-.043 1.79.878 1.832.99.07.193.551.228.561.422A2 2 0 0 1 16.27 6.19zm-.342-.94a1 1 0 1 0-.684-1.88 1 1 0 0 0 .684 1.88z"/></g></symbol><symbol id="p"><path fill-rule="evenodd" d="M11.96 8.5L8.7 10.869 9.945 14.7h4.03l1.246-3.831L11.96 8.5zm5.715 9.266l-1.381.169-.676 1.303a8.102 8.102 0 0 0 2.057-1.472zm-9.4 1.416l-.588-1.265-1.447-.239c.6.606 1.277 1.11 2.035 1.504zm.375-1.604l1.08 2.321a8.695 8.695 0 0 0 4.482.048l1.238-2.39-1.204-1.657H9.869l-1.22 1.678zm-4.628-6.503l1.19-1.107-.257-1.693a9.381 9.381 0 0 0-.933 2.8zm1.725-.377l-1.826 1.7a8.371 8.371 0 0 0 1.306 4.174L7.815 17l1.176-1.617-1.32-4.06-1.924-.625zM10.6 4.013l1.348.749 1.452-.728a8.99 8.99 0 0 0-2.8-.021zm.746 1.581l-2.12-1.177a8.188 8.188 0 0 0-3.461 2.462l.382 2.522L7.992 10l3.354-2.437V5.594zm7.892 2.79l-.268 1.37 1.031 1.044a8.032 8.032 0 0 0-.763-2.413zm-1.358 1.01l.465-2.382a8.184 8.184 0 0 0-3.411-2.535l-2.278 1.142v1.945L16.01 10l1.87-.607zm2.195 2.93l-1.847-1.869-1.906.619L15 15.136l1.192 1.639 2.486-.303a8.372 8.372 0 0 0 1.397-4.149zM12 2a9.97 9.97 0 0 1 7.071 2.929A9.97 9.97 0 0 1 22 11.999a9.972 9.972 0 0 1-2.929 7.072A9.971 9.971 0 0 1 12 22a9.968 9.968 0 0 1-7.071-2.929A9.97 9.97 0 0 1 2 12a9.97 9.97 0 0 1 2.929-7.071A9.97 9.97 0 0 1 12 2z"/></symbol><symbol id="q"><path fill-rule="evenodd" d="M8.458 19.481c-.133-.336-.045-.713.26-.981.445-.39 1.17-.364 1.636.071.465.436.52 1.081.1 1.422a.927.927 0 0 1-.181.114 8.341 8.341 0 0 0 4.056-.122 1.388 1.388 0 0 1-.058-.059c-.436-.465-.462-1.19-.073-1.636.391-.445 1.018-.427 1.403.062.22.282.33.653.32.997a8.32 8.32 0 0 0 2.006-1.48 8.276 8.276 0 0 0 1.785-2.653.907.907 0 0 1-.563-.313c-.39-.445-.364-1.17.07-1.636.318-.339.746-.46 1.087-.339a8.339 8.339 0 0 0-.269-3.22 1.39 1.39 0 0 1-.066.067c-.466.435-1.19.461-1.636.071-.446-.39-.429-1.017.062-1.403a1.56 1.56 0 0 1 1.003-.318 8.298 8.298 0 0 0-1.473-1.994 8.28 8.28 0 0 0-2.5-1.719.895.895 0 0 1-.32.645c-.446.39-1.17.364-1.636-.072-.38-.356-.487-.852-.282-1.208a8.349 8.349 0 0 0-2.316.008c.246.447.208 1.009-.115 1.379-.39.444-1.016.427-1.402-.062a1.552 1.552 0 0 1-.316-.836 8.272 8.272 0 0 0-2.851 1.865 8.305 8.305 0 0 0-1.398 1.854c.345-.154.74-.07 1.017.245.39.445.364 1.17-.072 1.636-.435.465-1.08.52-1.42.1a1.014 1.014 0 0 1-.194-.404 8.338 8.338 0 0 0-.041 4.736c.054-.082.12-.16.198-.232.466-.435 1.19-.462 1.636-.072.445.39.428 1.016-.062 1.402a1.553 1.553 0 0 1-1.233.292 8.29 8.29 0 0 0 1.569 2.181 8.287 8.287 0 0 0 2.269 1.612zm10.613-.41c-3.905 3.905-10.237 3.905-14.142 0-3.905-3.905-3.905-10.237 0-14.142 3.905-3.905 10.237-3.905 14.142 0 3.905 3.905 3.905 10.237 0 14.142zM10.165 8.35a1.18 1.18 0 0 1 0 1.645c-.445.456-1.153.466-1.574.01a1.255 1.255 0 0 1 0-1.664c.42-.456 1.128-.446 1.574.01zm5.696.04c.456.422.445 1.129-.01 1.574a1.18 1.18 0 0 1-1.645 0c-.456-.445-.464-1.153-.009-1.573a1.256 1.256 0 0 1 1.664 0zm-4.958 4.94c.455.446.464 1.154.01 1.575-.456.42-1.21.42-1.665 0-.455-.42-.446-1.13.01-1.575a1.18 1.18 0 0 1 1.645 0zm4.201-.04c.42.455.42 1.209 0 1.664-.421.455-1.129.447-1.574-.009a1.182 1.182 0 0 1 0-1.645c.445-.455 1.154-.464 1.574-.01z"/></symbol><symbol id="r"><path fill-rule="evenodd" d="M12.05 18.81a2.099 2.099 0 0 1-.054-.015c-.738.209-1.484.39-2.226.586a60.3 60.3 0 0 0-.045.61c.015.037-.04.096.006.12a8.411 8.411 0 0 0 4.346.062 3.94 3.94 0 0 0 0-.316c-.002-.153-.023-.308-.013-.46-.673-.186-1.34-.407-2.015-.588zm5.844-1.35a1.612 1.612 0 0 1-.042-.018c-.905.649-1.801 1.31-2.727 1.93-.031.153-.021.311-.027.467a8.568 8.568 0 0 0 3.188-2.214c-.132-.054-.262-.11-.392-.166zm-12.096-.338l-.01-.007c-.098.073-.197.144-.298.214a8.258 8.258 0 0 0 3.225 2.427l.01-.385c-.529-.455-1.09-.865-1.65-1.28-.439-.305-.848-.652-1.277-.969zm2.979-3.396l-.158-.116c-.38.091-.755.201-1.132.305-.27.105-.583.1-.825.272-.06.399-.062.81-.097 1.214.01.336-.102.676-.03 1.009.929.686 1.87 1.362 2.8 2.05.585-.108 1.153-.292 1.724-.452.156-.064.33-.069.485-.133.06-.464.013-.938.013-1.406-.031-.236.044-.481-.025-.713-.9-.698-1.84-1.349-2.755-2.03zm6.66-.148a.192.192 0 0 0-.083.02c-.923.722-1.849 1.447-2.77 2.173-.048.534-.007 1.071-.006 1.607.024.155-.035.314.014.466.32.197.694.276 1.05.384.31.058.592.23.911.238.746-.466 1.505-.912 2.219-1.427.124-.118.31-.171.392-.33.078-.68.102-1.366.16-2.048.018-.134.015-.269.04-.4.003-.043.036-.115-.014-.14-.268-.112-.555-.173-.833-.256-.36-.092-.705-.26-1.08-.287zm4.134-1.297l-.032-.047c-.133.22-.263.44-.392.66-.194.372-.463.705-.627 1.093-.242.822-.229 1.69-.342 2.535.236.14.498.256.777.25a8.518 8.518 0 0 0 1.353-3.355.146.146 0 0 1-.088-.046c-.16-.392-.405-.743-.649-1.09zm-15.199-.015l-.034-.051c-.25.134-.513.26-.719.46a8.308 8.308 0 0 0 1.172 3.656c.027.02.044.12.077.097.234-.07.43-.226.642-.345l.06-.881c-.01-.368.098-.734.044-1.1-.41-.614-.83-1.223-1.242-1.836zm6.106-2.433c-.037.003-.076.005-.11.025-.355.978-.66 1.977-.995 2.963-.032.028.005.068.03.087.828.67 1.716 1.26 2.564 1.903.038.016.068.075.111.075.857-.675 1.725-1.34 2.577-2.023-.22-.849-.532-1.67-.79-2.508-.075-.165-.068-.369-.2-.504-1.06-.034-2.125 0-3.187-.018zm5.537-2.075a.2.2 0 0 0-.086.025c-.302.286-.519.646-.775.972-.17.253-.43.467-.488.78.24.78.51 1.552.759 2.33.098.216.103.469.237.667.69.27 1.418.434 2.125.66.134-.192.253-.396.37-.598.278-.53.66-1.03.766-1.634-.29-.802-.586-1.601-.873-2.404-.426-.168-.85-.343-1.273-.517-.261-.075-.49-.242-.762-.281zm-7.813-.069c-.31.034-.607.141-.905.232-.397.143-.819.211-1.205.381-.331.862-.626 1.737-.946 2.603-.033.13-.112.245-.12.382.173.385.417.738.642 1.097.196.281.354.62.667.79.546-.114 1.074-.293 1.615-.431a.569.569 0 0 0 .455-.277c.376-1.007.69-2.038 1.03-3.058l-.92-1.358c-.097-.122-.146-.31-.312-.36zm10.968-.112l-.03-.047c-.067.195-.12.394-.182.591.195.58.397 1.159.587 1.741.16.448.249.923.472 1.346.106.211.273.38.412.57a8.47 8.47 0 0 0-1.26-4.2zM4.915 7.472A8.525 8.525 0 0 0 3.62 11.4c.058-.029.119-.052.179-.077.061-.035.159-.042.175-.124.394-1.092.768-2.192 1.146-3.29.01-.064.06-.12.055-.186-.08-.087-.174-.169-.259-.25zm5.89-2.31l-.186-.005c-.327.326-.598.705-.875 1.075-.195.293-.442.547-.63.845.112.213.244.415.379.614.249.327.425.713.739.985a.55.55 0 0 0 .4.155c1.065-.017 2.131.028 3.197-.016.32-.393.621-.801.927-1.205.088-.163.264-.27.315-.453-.404-.659-.84-1.297-1.26-1.943-1.002-.016-2.004-.025-3.005-.052zm4.278-.99l-.022-.008c-.134.203-.243.421-.36.635l.525.776c.262.349.44.776.807 1.032.672.353 1.386.626 2.106.866.115-.335.192-.686.182-1.042a8.467 8.467 0 0 0-3.238-2.258zM9.351 4.04v-.002l-.006-.01a8.577 8.577 0 0 0-3.72 2.488c.157.253.377.46.56.692.391-.115.78-.234 1.17-.353.3-.092.63-.132.875-.342.508-.557.925-1.192 1.39-1.786a2.044 2.044 0 0 0-.269-.687zm2.678-.451c-.5 0-1 .04-1.492.131.065.139.137.274.201.414 1.015.038 2.03.068 3.044.106a1.53 1.53 0 0 0 .23-.41 8.18 8.18 0 0 0-1.983-.241zM11.92 2c.428-.003.857.02 1.282.07 2.329.267 4.53 1.414 6.124 3.123 1.567 1.664 2.51 3.888 2.651 6.169.168 2.416-.605 4.874-2.091 6.78-1.495 1.944-3.744 3.279-6.157 3.703-2.354.433-4.853-.055-6.895-1.288-2.206-1.31-3.843-3.516-4.498-5.99-.763-2.796-.205-5.91 1.453-8.282C5.596 3.663 8.728 2 11.92 2z"/></symbol><symbol id="s"><path fill-rule="evenodd" d="M18.787 15.292c1.152-1.012 1.68-2.086 1.447-2.946l-.72-2.658c-.31.528-.758 1.055-1.337 1.564-1.384 1.215-3.38 2.212-5.62 2.807-2.24.595-4.472.72-6.284.352-.759-.153-1.412-.388-1.948-.691l.72 2.658c.232.86 1.23 1.528 2.74 1.834 1.656.336 3.717.216 5.804-.338 2.086-.554 3.932-1.47 5.198-2.582zM5.189 8.619c-1.152 1.012-1.68 2.085-1.447 2.945.233.86 1.231 1.529 2.74 1.834 1.657.336 3.718.216 5.805-.338 2.086-.554 3.932-1.47 5.198-2.582 1.152-1.012 1.68-2.086 1.446-2.946-.232-.86-1.23-1.528-2.74-1.834-1.656-.336-3.718-.216-5.804.338C8.3 6.59 6.454 7.507 5.189 8.62zm4.809-4.02c2.397-.637 4.785-.77 6.724-.378 2.074.42 3.419 1.4 3.786 2.76l1.394 5.151c.367 1.36-.303 2.874-1.886 4.266-1.482 1.3-3.617 2.368-6.014 3.004-2.397.636-4.785.77-6.724.377-2.074-.42-3.419-1.4-3.786-2.76l-1.394-5.151c-.367-1.36.303-2.874 1.886-4.266 1.482-1.3 3.617-2.368 6.014-3.004z"/></symbol><symbol id="t"><path fill-rule="evenodd" d="M6.854 20.512l.792 1.043a.916.916 0 0 1-.176 1.263.866.866 0 0 1-1.237-.18L4.9 20.82a.92.92 0 0 1-.132-.827l.445-1.365a.9.9 0 0 1 .263-.4l3.295-2.893c-.514-.655-.864-1.494-.623-2.718a1.927 1.927 0 0 0-.232-1.358 1.14 1.14 0 0 0-.536.389c-.201.266-.255.408-.568 1.078-.313.67-.96 1.428-2.27 1.373-.872-.036-1.405-.58-1.598-1.633v-6.68c0-.537 0-1.49.59-2.05L2.5 2.025h3.598c2.39 0 5.011-.473 7.682 2.723l.122.105c1.56 1.407 1.98 1.785 3.712 1.785h4.003c.488 0 .883.406.883.904a.893.893 0 0 1-.883.904h-4.003c-2.4 0-3.28-.795-4.88-2.237l-.188-.17C11.12 4.459 9.98 3.897 8.274 3.897c-.547-.009-.845-.009-.895 0a5.73 5.73 0 0 0-1.281.399l-.76.5c-.369.243-.618.81-.629.994v5.926c-.018.19.078.313.286.371.21.058.415-.127.617-.556v-.816l1.494-1.083c.6-.4.661-.847.661-1.022 0-.174-.13-.523-.333-.677a.916.916 0 0 1-.181-1.264.872.872 0 0 1 1.235-.186c.719.547 1.046 1.485 1.046 2.127 0 .469-.13.926-.358 1.344a3.75 3.75 0 0 1 .703 3.02c-.14.709.004 1.038.772 1.76a.91.91 0 0 1 .285.68.906.906 0 0 1-.308.67l-3.817 3.35.043 1.078zm10.136-5.878a.868.868 0 0 1 1.248 0 .917.917 0 0 1 0 1.278l-2.223 2.275a.868.868 0 0 1-.499.255l-2.93.428-2.718 1.738.53 1.084a.912.912 0 0 1-.395 1.212.857.857 0 0 1-.394.096.882.882 0 0 1-.79-.5l-.89-1.82a.912.912 0 0 1 .322-1.168l3.558-2.274a.844.844 0 0 1 .343-.129l2.822-.412 2.016-2.063zM5.1 6.894l.603-.616c.191-.196.61-.158.8.037.192.196.235.65.043.847l-.603.617a.484.484 0 0 1-.348.147c-.125 0-.284-.109-.38-.207-.192-.196-.308-.627-.115-.824z"/></symbol><symbol id="u"><path fill-rule="evenodd" d="M6.232 4.766c.794 0 1.439.652 1.439 1.455 0 .802-.645 1.455-1.439 1.455A1.449 1.449 0 0 1 4.794 6.22c0-.803.646-1.455 1.438-1.455M9.416 6.22C9.416 4.445 7.99 3 6.232 3 4.477 3 3.048 4.445 3.048 6.22c0 1.386.873 2.558 2.088 3.013-.076.304-.159.68-.238 1.093-.695-.286-1.828-1.166-2.694-3.884a.87.87 0 0 0-1.099-.569.885.885 0 0 0-.562 1.112c1.164 3.652 2.95 4.775 4.093 5.108a16.757 16.757 0 0 0-.09 1.855c-.673.26-2.461 1.395-2.537 6.155a.877.877 0 0 0 .858.897.88.88 0 0 0 .887-.868c.04-2.48.563-3.62.96-4.135.295 1.784 1.018 3.53 2.53 4.8a.866.866 0 0 0 1.229-.116.89.89 0 0 0-.115-1.243c-3.126-2.625-1.91-8.334-1.447-10.074a3.214 3.214 0 0 0 2.505-3.143zm2.947 1.533c0-.802.645-1.455 1.439-1.455.793 0 1.438.653 1.438 1.455s-.645 1.455-1.438 1.455a1.448 1.448 0 0 1-1.439-1.455m10.62 10.996c-2.519-1.134-4.394-3.368-5.64-5.323 1.75-.327 2.652-.745 2.722-.779a.887.887 0 0 0 .414-1.176.87.87 0 0 0-1.163-.419c-.017.008-.97.452-2.913.748a21.867 21.867 0 0 1-.707-1.473 3.222 3.222 0 0 0 1.29-2.574c0-1.777-1.429-3.22-3.184-3.22-1.756 0-3.185 1.443-3.185 3.22 0 1.777 1.43 3.22 3.185 3.22.087 0 .169-.018.254-.025.113.27.272.626.476 1.047-1.256.083-2.757.09-4.528-.062a.875.875 0 0 0-.944.806.881.881 0 0 0 .797.954c1.05.09 2.017.128 2.901.128 1 0 1.89-.051 2.682-.128.281.477.603.98.961 1.49-1.128.771-3.297 2.57-3.22 4.962a.877.877 0 0 0 .872.854h.029a.878.878 0 0 0 .844-.911c-.048-1.482 1.565-2.86 2.55-3.51 1.255 1.49 2.84 2.904 4.796 3.785a.873.873 0 0 0 1.152-.448.887.887 0 0 0-.442-1.166"/></symbol><symbol id="v"><path fill-rule="evenodd" d="M16.697 15.302c-1.034.148-2.343-.235-2.357-.239a.49.49 0 0 0-.603.334.493.493 0 0 0 .33.61c.047.013.888.256 1.83.301.014.205.014.623.008 1.891l-9.194-.976v-1.81l-.894.018a.835.835 0 0 1-.46-.24c-.317-.313-.485-.91-.485-1.727 0-.372-.002-.78-.005-1.21a.936.936 0 0 0 .213.025c.052 0 .103-.002.147-.004.17-.01.46-.025.963-.025.619 0 1.093-.193 1.414-.384.33.206.849.384 1.69.384.813 0 1.352-.273 1.698-.608.277.205.862.342 1.564.358.532.823 1.303 1.223 1.927 1.288h2.042c.485 0 .895-.298.895-.834 0-.535-.41-.812-.895-.812h-1.937c-.14-.016-.79-.097-.79-.738 0-.55.503-.73.685-.73h3.598c.017 0 .03-.008.048-.01.484.345 1.208.725 1.109 2.377-.153 2.53-1.294 2.684-2.429 2.766-.037-.003-.073-.012-.112-.005zm-9.986 5.43v-2.52l9.19.977-.003 1.12c0 .143-.002.284-.003.422H6.711zM6.98 3.827c2.01-.507 3.463-.876 9.47-.132.48.042.708.206.708 1.024v3.686h-1.596v-1.44a.49.49 0 0 0-.487-.49c-.27 0-.487.22-.487.49V8.42l-.708.015c-.655.18-1.582.734-1.582 2.279 0 .095.024.274.041.343a1.085 1.085 0 0 1-.828-.248V6.83a.49.49 0 0 0-.487-.49.49.49 0 0 0-.487.49v3.76c-.027.11-.22.677-1.243.677-.594 0-.915-.1-1.095-.187a.478.478 0 0 0-.146-.282c-.01-.01-.025-.013-.035-.022V7.322a.488.488 0 0 0-.487-.491.489.489 0 0 0-.487.49v3.737c-.198.106-.482.21-.854.21-.452 0-.74.011-.927.02a2.32 2.32 0 0 0-.41-.444 569.627 569.627 0 0 0-.075-4.317c1.025-.463 4.684-1.815 11.08-1.025a.48.48 0 0 0 .543-.428.49.49 0 0 0-.424-.547c-6.036-.747-9.717.33-11.216.935.023-.27.213-1.14 1.643-1.491l.576-.143zm11.93 4.331V4.72c0-2.33-1.614-2.724-2.278-2.782-6.3-.783-7.885-.381-10.079.175l-.561.14c-2.537.621-3.06 2.49-2.985 3.333.002.05.113 5.035.113 7.88 0 1.32.34 2.325 1.011 2.989.274.272.565.445.829.554V22.5h12.674l.007-.878c.02-2.4.031-3.796.015-4.632 1.312-.217 3.129-.993 3.331-4.342.162-2.686-1.244-3.97-2.077-4.489z"/></symbol><symbol id="w"><path fill-rule="evenodd" d="M18.539 12.956c-.23 0-.455.02-.68.031l-.173-2.959c.303-.02.605-.042.911-.043h.04c.818 0 1.592.091 2.278.265l.18 2.993c-.784-.19-1.67-.278-2.556-.287zm-4.723.65l-.287.062-.167-2.898.25-.054.522-.115c.818-.18 1.672-.347 2.544-.466l.17 2.934c-1.051.121-2.067.324-3.032.537zm-4.36.793c-.322.028-.646.027-.97.032l-.17-2.957c.415-.004.828-.017 1.235-.052.959-.08 1.893-.248 2.808-.437l.168 2.904c-1.031.225-2.032.421-3.07.51zm-5.829-.705l-.202-2.876c1.2.35 2.53.559 3.874.626l.171 2.97c-1.336-.067-2.65-.302-3.843-.72zM6.885 4.3l.148 2.557a13.443 13.443 0 0 1-3.935-.686l-.176-2.505c1.253.387 2.6.595 3.963.634zm1.797-.04c1.124-.1 2.205-.321 3.255-.559l.143 2.476c-1.147.263-2.328.527-3.522.633-.17.014-.341.006-.511.015L7.9 4.291c.261-.009.523-.008.782-.03zm7.575-1.383l.147 2.536c-1.169.087-2.3.307-3.322.537l-.143-2.477.192-.044c1.002-.23 2.055-.454 3.126-.552zm1.049-.052c1.292.026 2.406.237 3.203.675l.145 2.399c-1.04-.368-2.246-.522-3.238-.53l-.147-2.542.037-.002zm.17 3.56c1.226.017 2.408.252 3.245.631l.132 2.19a11.24 11.24 0 0 0-2.26-.236 13.88 13.88 0 0 0-.965.047l-.153-2.632zm-4.335.59c1.061-.243 2.176-.466 3.322-.551l.156 2.698a32.42 32.42 0 0 0-2.701.488l-.526.115c-.029.008-.06.014-.09.02l-.16-2.77zm-5.035.868c.18-.009.361-.008.542-.023 1.202-.107 2.363-.36 3.492-.619l.16 2.762c-.93.194-1.878.368-2.834.449-.395.033-.801.045-1.21.047l-.15-2.616zm-4.93-.569a14.73 14.73 0 0 0 3.916.59l.148 2.569c-1.361-.077-2.72-.314-3.89-.693l-.175-2.466zm19.126-4.35a.907.907 0 0 0-.375-.682C20.423 1.152 18.351 1.015 17.3 1c-1.618.006-3.147.324-4.574.65l-.532.123c-1.252.288-2.435.56-3.672.67-2.146.188-4.42-.159-6.244-.956a.91.91 0 0 0-1.276.899l1.392 19.766a.912.912 0 1 0 1.82-.13l-.449-6.37c1.837.535 3.87.736 5.847.565 1.407-.12 2.752-.419 4.052-.709l.544-.121c1.379-.304 2.849-.602 4.337-.606 1.226.035 2.332.205 3.157.59a.911.911 0 0 0 1.296-.88l-.696-11.565z"/></symbol><symbol id="x"><path fill-rule="evenodd" d="M21.154 18.133h-1.476l-.02-1.66-.94.054-.604.03c-3.612.176-8.565.18-12.132.015l-.7-.06-.964-.03-.022 1.65H2.82v-5.508c-.007-.401.073-.708.23-.902l1.263-1.186-1.392-.942.727-.202c.218.521.953 1.398 1.645 1.431 2.19.105 4.441.158 6.694.158 2.252 0 4.505-.053 6.694-.158.692-.033 1.344-.91 1.562-1.43l.81.2-1.394.943 1.255 1.175c.167.206.247.513.24.929v5.493zM6.564 7.027c.02-.021.038-.035.055-.038 3.933-.252 6.642-.251 10.682-.005a.18.18 0 0 1 .11.045l1.555 2.71a.995.995 0 0 1-.333.075 140.97 140.97 0 0 1-13.292 0 .995.995 0 0 1-.333-.075l1.556-2.712zm16.773 2.569l-.196-.71a1.527 1.527 0 0 0-1.43-1.091h-1.657l-1.17-1.804-.063-.085c-.419-.504-.938-.664-1.354-.713-4.179-.258-6.946-.257-11.016.005-.36.044-.877.203-1.297.706L3.92 7.794H2.263c-.643 0-1.258.469-1.43 1.094l-.196.708c-.108.394-.007.954.633 1.235l.164.073c-.287.488-.426 1.073-.414 1.736v5.95c0 .74.607 1.343 1.354 1.343h2.363c.746 0 1.353-.602 1.353-1.33l.003-.224c3.497.153 8.221.15 11.787-.008l.003.22c0 .74.607 1.342 1.354 1.342H21.6a1.35 1.35 0 0 0 1.355-1.342v-5.934c.012-.674-.126-1.26-.416-1.753l.163-.072c.638-.28.743-.837.636-1.236zm-6.805 5.1c-2.662.27-6.515.27-9.072 0l.385-.88a93.84 93.84 0 0 0 8.286 0l.401.88zM7.111 12.76l.168.03c3.306.156 6.123.156 9.417 0l.182-.03 1.002 2.728c-2.94.194-4.92.291-5.94.291-1.02 0-2.968-.097-5.843-.293L7.11 12.76zm10.579-.258l2.691-.358.109.993-2.691.358-.109-.993zm-14.09.635l.104-.993 2.58.358-.104.993-2.58-.358z"/></symbol><symbol id="y"><path fill-rule="evenodd" d="M9.895 16.331a4.052 4.052 0 0 1-4.047 4.048A4.053 4.053 0 0 1 1.8 16.331a4.052 4.052 0 0 1 4.048-4.047c.252 0 .497.03.736.074l-1.053 2.503a1.506 1.506 0 0 0-1.188 1.47c0 .83.675 1.505 1.505 1.505.829 0 1.504-.675 1.504-1.505 0-.258-.072-.498-.187-.711l1.069-2.541a4.035 4.035 0 0 1 1.661 3.252m5.158-2.36a11.31 11.31 0 0 1 .19 3.925h5.89v1.8H14.15a.9.9 0 0 1-.859-1.166c.004-.015.536-1.825.006-4.161-.732-3.234-2.983-4.184-3.748-4.417l-.601 1.43a5.843 5.843 0 0 1 2.747 4.949 5.854 5.854 0 0 1-5.847 5.848A5.854 5.854 0 0 1 0 16.331a5.854 5.854 0 0 1 5.848-5.847c.499 0 .982.07 1.445.188l.488-1.159-1.57-.389a.902.902 0 0 1-.541-.386c-.491-.764-.834-2.635 1.342-4.283.072-.062 1.811-1.52 5.842-2.955l.604 1.697c-.904.321-1.679.642-2.337.945.391.345 1.164.894 2.143.905 1.805 0 2.875.111 5.503 2.401.35.306 1.126.462 2.144.429l.058 1.799c-.111.004-.22.005-.327.005-1.363 0-2.391-.294-3.058-.876-2.248-1.958-2.9-1.958-4.33-1.958v-.9l-.01.9c-2.011-.024-3.382-1.381-3.716-1.748-.171.032-.599.172-1.396.763-.952.708-1.066 1.302-1.029 1.629l2.537.628c.429.084 4.308.975 5.413 5.852zm3.575-1.302v-1h5v1h-5zm-1 3.262v-1h5v1h-5z"/></symbol><symbol id="z"><path fill-rule="evenodd" d="M16.436 15.388c.578-.09 1.07-.188 1.444-.272l-.195 1.03c-.292.055-.77.138-1.342.214l.093-.972zm-6.676-.273c.378.085.875.185 1.46.275l.097.971a25.873 25.873 0 0 1-1.364-.217l-.193-1.029zm9.391-10.727c-.407.384-2.205 1.096-5.332 1.096-3.126 0-4.926-.712-5.333-1.096.407-.382 2.207-1.095 5.333-1.095 3.127 0 4.925.713 5.332 1.095zm.075 3.659a32.67 32.67 0 0 1-2.113.345l.137-1.42c.893-.172 1.692-.418 2.321-.745l-.345 1.82zm-.574 3.012c-.363.078-1.02.21-1.828.326l.19-1.975a33.78 33.78 0 0 0 2.01-.31l-.372 1.96zm-4.328 1.553c.474-.013.941-.046 1.39-.088l-.193 1.981a16.23 16.23 0 0 1-1.194.091l-.003-1.984zm.004 2.98c.372-.014.74-.037 1.095-.073l-.092.953c-.325.029-.66.05-1.002.062l-.001-.942zm-.996.942a17.779 17.779 0 0 1-1.003-.062l-.094-.952c.355.037.723.06 1.096.072l.001.942zm-1.393-4.01c.447.043.915.076 1.388.088l.003 1.984c-.407-.016-.81-.044-1.196-.089l-.195-1.982zm-1.114-1.138a27.015 27.015 0 0 1-1.829-.327l-.364-1.926a33.48 33.48 0 0 0 2 .298l.193 1.955zm-.294-2.973a33.174 33.174 0 0 1-2.097-.33l-.347-1.846c.626.322 1.418.565 2.3.736l.144 1.44zm2.792.216a25.238 25.238 0 0 1-1.78-.104l-.138-1.393c.62.077 1.265.123 1.916.137l.002 1.36zm.995-1.36a19.892 19.892 0 0 0 1.916-.137l-.132 1.376c-.568.057-1.172.1-1.782.117l-.002-1.356zm.003 2.354a26.245 26.245 0 0 0 1.683-.104l-.193 1.992a20.6 20.6 0 0 1-1.488.104l-.002-1.992zm-.995 1.992a20.13 20.13 0 0 1-1.488-.103l-.195-1.976c.54.046 1.108.079 1.681.09l.002 1.99zm-4.13.504c.436.088 1.037.196 1.73.29l.193 1.953a21.787 21.787 0 0 1-1.561-.318l-.363-1.925zm8.888 1.926c-.296.074-.849.198-1.548.315l.19-1.954c.69-.092 1.288-.2 1.725-.287l-.367 1.926zM13.82 1.5c-3.115 0-6.253.68-7.008 2.174H4.793V3.16H3V22.5h1.793V4.962H6.67c.035.192.108.082.21.252l2.22 11.77.321.07c.091.02 2.245.487 4.41.487 2.166 0 4.299-.467 4.389-.487l.32-.07 2.249-11.819c.133-.238.212-.495.212-.777C21 2.393 17.393 1.5 13.819 1.5z"/></symbol><symbol id="A"><path fill-rule="evenodd" d="M19.556 20.564c-.382.38-.742.541-.951.593.052-.208.212-.563.59-.942l.012-.01c.38-.377.736-.538.944-.589-.052.21-.213.568-.595.948zM7.557 10.3L4.062 6.817c-.205-.205-.286-.504-.175-.746.23-.502.618-.888 1.158-1.134a.473.473 0 0 1 .196-.04c.175 0 .368.082.516.23L9.253 8.61c.46.457.9.943 1.306 1.436l1.95 2.405-1.008 1.163-2.497-2.01c-.5-.409-.988-.848-1.447-1.304zm9.56 7.833l-4.825-3.883.866-.998 3.958 4.881zm4.404.119c-.531-.528-1.347-.605-2.186-.286L11.98 8.895a21.204 21.204 0 0 0-1.433-1.574L7.052 3.838c-.75-.747-1.86-.972-2.803-.546a4.126 4.126 0 0 0-2.045 2.057c-.413.903-.187 2.011.564 2.758l3.495 3.482c.5.5 1.033.98 1.585 1.43l9.101 7.325c-.321.834-.245 1.648.286 2.178.317.315.747.478 1.233.478.22 0 .452-.033.69-.102.585-.168 1.186-.539 1.693-1.044 1.221-1.218 1.51-2.766.67-3.602zM14.499 2.419a2.253 2.253 0 0 1 2.254 2.246A2.252 2.252 0 0 1 14.5 6.909a2.252 2.252 0 0 1-2.253-2.244A2.252 2.252 0 0 1 14.5 2.419m-.001 5.907a3.674 3.674 0 0 0 3.677-3.663c0-2.02-1.65-3.663-3.677-3.663a3.674 3.674 0 0 0-3.676 3.663c0 2.02 1.65 3.663 3.676 3.663"/></symbol><symbol id="B"><path fill-rule="evenodd" d="M17.369 4.298c-2.822 1.3-5.056 3.364-8.007 6.315-2.95 2.95-4.669 6.295-5.154 7.453-.486 1.158-.363 1.576-.106 1.833.256.256 1.404.223 3.514-.92 2.038-1.103 4.376-2.906 6.416-4.946 2.041-2.041 3.844-4.38 4.947-6.417 1.143-2.11 1.176-3.258.92-3.514-.257-.257-1.425-.295-2.53.196zm-3.253-2.402c2.922-.788 5.362-.392 6.871 1.117 1.509 1.509 1.905 3.949 1.117 6.87-.723 2.677-2.39 5.464-4.574 7.648-2.183 2.184-4.97 3.85-7.646 4.573-2.922.788-5.362.392-6.871-1.117-1.509-1.508-1.905-3.949-1.117-6.871.722-2.675 2.39-5.462 4.573-7.646 2.185-2.185 4.972-3.852 7.647-4.574zm2.207 14.428c2.952-2.951 4.63-6.798 4.5-9.607-1.106 2.635-3.63 5.874-5.93 8.176-2.302 2.301-5.541 4.824-8.176 5.93 2.81.13 6.656-1.548 9.606-4.5zM7.66 7.668c-2.951 2.95-4.63 6.797-4.499 9.606C4.266 14.64 6.789 11.4 9.091 9.1c2.301-2.302 5.54-4.825 8.175-5.93-2.81-.13-6.656 1.548-9.606 4.499z"/></symbol><symbol id="C"><path fill-rule="evenodd" d="M17.369 4.298c-2.822 1.3-5.056 3.364-8.007 6.315-2.95 2.95-4.669 6.295-5.154 7.453-.486 1.158-.363 1.576-.106 1.833.256.256 1.404.223 3.514-.92 2.038-1.103 4.376-2.906 6.416-4.946 2.041-2.041 3.844-4.38 4.947-6.417 1.143-2.11 1.176-3.258.92-3.514-.257-.257-1.425-.295-2.53.196zm-3.253-2.402c2.922-.788 5.362-.392 6.871 1.117 1.509 1.509 1.905 3.949 1.117 6.87-.723 2.677-2.39 5.464-4.574 7.648-2.183 2.184-4.97 3.85-7.646 4.573-2.922.788-5.362.392-6.871-1.117-1.509-1.508-1.905-3.949-1.117-6.871.722-2.675 2.39-5.462 4.573-7.646 2.185-2.185 4.972-3.852 7.647-4.574zm2.207 14.428c2.952-2.951 4.63-6.798 4.5-9.607-1.106 2.635-3.63 5.874-5.93 8.176-2.302 2.301-5.541 4.824-8.176 5.93 2.81.13 6.656-1.548 9.606-4.5zM7.66 7.668c-2.951 2.95-4.63 6.797-4.499 9.606C4.266 14.64 6.789 11.4 9.091 9.1c2.301-2.302 5.54-4.825 8.175-5.93-2.81-.13-6.656 1.548-9.606 4.499z"/></symbol><symbol id="D"><path fill-rule="evenodd" d="M7.952 9.652c1.002 0 1.817.83 1.817 1.848 0 1.019-.815 1.848-1.817 1.848-1.001 0-1.817-.83-1.817-1.848 0-1.019.816-1.848 1.817-1.848m0 5.488c1.974 0 3.58-1.633 3.58-3.64s-1.606-3.64-3.58-3.64c-1.973 0-3.579 1.633-3.579 3.64s1.606 3.64 3.58 3.64m-3.374 5.068c-1.001 0-1.817-.83-1.817-1.848 0-1.019.816-1.848 1.817-1.848 1.002 0 1.817.83 1.817 1.848 0 1.019-.815 1.848-1.817 1.848m0-5.488C2.606 14.72 1 16.353 1 18.36S2.606 22 4.58 22c1.973 0 3.578-1.633 3.578-3.64s-1.605-3.64-3.579-3.64M12 20.208c-1.002 0-1.818-.83-1.818-1.848 0-1.019.816-1.848 1.818-1.848 1.002 0 1.817.83 1.817 1.848 0 1.019-.815 1.848-1.817 1.848m0-5.488c-1.974 0-3.58 1.633-3.58 3.64S10.026 22 12 22s3.58-1.633 3.58-3.64-1.606-3.64-3.58-3.64m7.42 5.488c-1 0-1.816-.83-1.816-1.848 0-1.019.815-1.848 1.817-1.848 1.001 0 1.817.83 1.817 1.848 0 1.019-.816 1.848-1.817 1.848m0-5.488c-1.974 0-3.58 1.633-3.58 3.64S17.448 22 19.422 22C21.394 22 23 20.367 23 18.36s-1.606-3.64-3.58-3.64m-3.372-5.068c1.002 0 1.817.83 1.817 1.848 0 1.019-.815 1.848-1.817 1.848s-1.817-.83-1.817-1.848c0-1.019.815-1.848 1.817-1.848m-3.58 1.848c0 2.007 1.606 3.64 3.58 3.64s3.58-1.633 3.58-3.64-1.606-3.64-3.58-3.64-3.58 1.633-3.58 3.64M12 2.792c1.002 0 1.817.83 1.817 1.848 0 1.019-.815 1.848-1.817 1.848s-1.818-.83-1.818-1.848c0-1.019.816-1.848 1.818-1.848m0 5.488c1.974 0 3.58-1.633 3.58-3.64S13.973 1 12 1 8.42 2.633 8.42 4.64 10.026 8.28 12 8.28"/></symbol><symbol id="E"><path fill-rule="evenodd" d="M21.971 11.475c.011.175.029.35.029.525 0 2.383-.843 4.57-2.233 6.289a10.06 10.06 0 0 1-3.565 2.773 9.886 9.886 0 0 1-7.378.413 10 10 0 0 1-4.872-3.563A9.926 9.926 0 0 1 2 12c0-.408.033-.814.08-1.212a9.903 9.903 0 0 1 1.303-3.835 10.023 10.023 0 0 1 5.535-4.46A9.921 9.921 0 0 1 11.998 2a9.84 9.84 0 0 1 2.405.306 10.02 10.02 0 0 1 5.868 4.08 9.972 9.972 0 0 1 1.7 5.089zm-2.678.045h.979a8.273 8.273 0 0 0-1.395-4.154h-3.361l-1.888-3.268.118-.205a8.107 8.107 0 0 0-4.122.16l.023.045-1.886 3.268H5.116a8.25 8.25 0 0 0-1.334 3.523h.922L6.59 14.16l-1.45 2.51a8.354 8.354 0 0 0 4.39 3.256l1.16-2.008h3.773l.952 1.639a8.344 8.344 0 0 0 3.234-2.612l-1.243-2.155 1.887-3.271zM10.11 8.623h3.777l1.886 3.268-1.886 3.272H10.11l-1.887-3.272 1.887-3.268z"/></symbol><symbol id="F"><path fill-rule="evenodd" d="M18.975 20.337l-.728.705a.622.622 0 0 1-.446.188c-.078-.004-.137-.029-.175-.074l-3.425-4.076c-.053-.05-.055-.132-.052-.178a.565.565 0 0 1 .18-.352.534.534 0 0 1 .363-.16c.093 0 .184.033.256.1l4.145 3.248c.047.037.072.093.076.17a.58.58 0 0 1-.194.429m-9.818-3.328l5.655-5.465c.548 1.103.75 2.215.558 3.17-.77-.24-1.685-.045-2.336.585-.613.594-.826 1.413-.662 2.108-.987.236-2.105.091-3.215-.398M6.075 8.4c.855-.825 1.955-1.206 3.181-1.108 1.302.11 2.656.784 3.811 1.902.48.462.883.957 1.224 1.463l-6.06 5.857a8.946 8.946 0 0 1-1.515-1.183c-2.227-2.15-2.502-5.132-.641-6.93m14.171 9.962l-3.3-2.581c.877-2.37-.098-5.437-2.584-7.84C11.35 5.03 7.32 4.697 4.78 7.15c-2.599 2.513-2.324 6.57.64 9.435 1.82 1.757 3.988 2.701 5.997 2.701.69 0 1.36-.116 1.993-.345l2.793 3.33c.368.438.901.697 1.502.726a2.488 2.488 0 0 0 1.836-.704l.728-.704c.498-.48.763-1.127.728-1.773a1.951 1.951 0 0 0-.75-1.452M17.138 2.77c.685 0 1.243.54 1.243 1.2 0 .663-.558 1.2-1.243 1.2s-1.243-.537-1.243-1.2c0-.66.558-1.2 1.243-1.2m0 4.171c1.695 0 3.073-1.333 3.073-2.97C20.212 2.333 18.834 1 17.139 1s-3.073 1.333-3.073 2.97c0 1.638 1.378 2.971 3.073 2.971"/></symbol><symbol id="G"><path fill-rule="evenodd" d="M19.583 5.5C21.083 7.25 22 9.5 22 12c0 5.5-4.5 10-10 10S2 17.5 2 12 6.5 2 12 2a9.95 9.95 0 0 1 6.333 2.25s.584.5 1.25 1.25zm-8.786-1.52a8.096 8.096 0 0 0-6.242 4.892c3.121.759 4.47-1.266 6.158-4.64 0-.084.084-.168.084-.253zM6.683 18.216c-.082-.245-.082-.49-.082-.654-.082-1.637.9-2.946 1.718-3.6 1.473-1.146 3.519-1.146 5.401-1.146 1.637 0 3.191 0 4.01-.737 1.063-.9 1.554-1.882 1.554-2.864 0-1.064-.572-1.964-1.145-2.618a8.33 8.33 0 0 0-5.646-2.782c-.246.327-.41.736-.573 1.063-1.31 2.537-2.864 5.565-6.22 5.565-.49 0-1.063-.082-1.718-.246-.081.573-.163 1.228-.163 1.8a8.16 8.16 0 0 0 2.864 6.22zm5.078 1.964c4.634 0 8.426-3.792 8.342-8.595v-.084a7.274 7.274 0 0 1-1.349 1.517c-1.432 1.18-3.37 1.18-5.308 1.18-1.685 0-3.455 0-4.466.842-.59.506-1.18 1.348-1.096 2.36.085.927.59 1.77 1.686 2.443.674.253 1.432.337 2.19.337z"/></symbol><symbol id="H"><path fill-rule="evenodd" d="M12 2C6.486 2 2 6.486 2 12s4.486 10 10 10 10-4.486 10-10S17.514 2 12 2zm.855 18.205c-1.313-.018-2.612-.118-3.734-.642.36-.451 1.595-1.26 2.165-2.633.7-1.686 1.138-2.96 1.186-4.647a9.033 9.033 0 0 1 3.59-1.05c.45 4.486-.33 6.08-3.207 8.972zm3.988-9.958a9.978 9.978 0 0 0-4.834 1.203 9.032 9.032 0 0 1-2.705-2.584c2.871-2.68 6.858-2.855 9.427-1.692.926 1.692 1.3 2.52 1.491 3.706-1.302-.61-1.937-.62-3.38-.633zm.68-4.365c-3.128-.387-5.978-.31-8.724 2.155-.655-1.218-.955-1.985-.955-2.924 1.275-.688 2.686-1.293 4.234-1.293 1.934 0 4.125.805 5.444 2.062zM6.968 5.539c0 .753.664 2.334 1.372 3.588.829 1.466 1.74 2.255 3.178 3.14a9.04 9.04 0 0 1-.886 3.635c-3.756-1.147-5.363-4.028-6.11-7.22C5.176 7.59 5.93 6.27 6.969 5.54zM3.93 13.522c-.17-.784-.218-2.058 0-3.289 1.133 3.822 3.506 5.575 6.238 6.52-.726 1.177-.82 1.673-2.026 2.421-2.67-1.482-3.619-2.907-4.212-5.652zm10.591 6.287c2.157-2.065 3.32-5.442 2.511-8.6 1.384.042 2.07.178 3.321.848-.232 4.457-2.916 6.677-5.832 7.752z"/></symbol><symbol id="I"><path fill-rule="evenodd" d="M4.265 7.058a5.419 5.419 0 0 1 1.694.021c-1.495 1.37-2.45 3.32-2.734 5.342a8.02 8.02 0 0 1-.107-1.246c0-1.507.424-2.912 1.147-4.117m2.56-2.636c3.228.313 5.786 2.94 6.023 6.208a5.521 5.521 0 0 1-1.267-.04c-.946-2.787-3.64-4.661-6.467-4.698a8.034 8.034 0 0 1 1.711-1.47m4.02-1.238c2.802.811 4.84 3.376 4.957 6.358a5.94 5.94 0 0 1-1.855.892A7.856 7.856 0 0 0 8.473 3.62a7.862 7.862 0 0 1 2.372-.436m6.995 3.797a5.847 5.847 0 0 1-1.013 1.638 8.062 8.062 0 0 0-2.58-4.778 8.016 8.016 0 0 1 3.593 3.14m.617 1.22a8 8 0 0 1 .395 1.293c-1.233 3.279-4.776 5.049-8.11 4.08.127-.667.37-1.302.71-1.886.32.048.64.08.959.08 1.567 0 3.08-.565 4.298-1.525.026-.02.05-.04.072-.064A7.071 7.071 0 0 0 18.457 8.2m-.108 6.205a6.655 6.655 0 0 1-1.548 1.434c-.492-.523-1.113-1.052-2.098-1.185a7.851 7.851 0 0 0 4.311-3.107 7.98 7.98 0 0 1-.665 2.858m-6.976 1.735a6.63 6.63 0 0 1-.497.506 6.941 6.941 0 0 1-.248-1.938 7.744 7.744 0 0 0 1.962.255c.063 0 .124-.01.186-.012-.608.308-1.034.778-1.403 1.189m-3.229 0a7.43 7.43 0 0 0-.73-.737c-.18-2.284.62-4.614 2.28-6.03.365.49.655 1.039.85 1.638-1.105 1.815-1.29 4.085-.69 6.085-.035.001-.06.013-.096.013-.713 0-1.044-.333-1.614-.969m-3.82-1.382c-.409-2.675.703-5.674 2.92-7.3a5.98 5.98 0 0 1 1.702 1.091c-1.727 1.496-2.634 3.841-2.638 6.223a3.296 3.296 0 0 0-1.014-.153 3.27 3.27 0 0 0-.97.139M.833 18.78A.834.834 0 0 1 0 17.944c0-.462.372-.835.832-.835.712 0 1.043-.333 1.613-.969.08-.09.162-.18.248-.272a9.603 9.603 0 0 1-1.24-4.693C1.454 5.84 5.77 1.5 11.076 1.5s9.621 4.34 9.621 9.675a9.65 9.65 0 0 1-2.034 5.929c.012 0 .021.005.033.005.716 0 1.047-.333 1.62-.97.608-.677 1.366-1.52 2.853-1.52.46 0 .832.375.832.837a.834.834 0 0 1-.832.836c-.715 0-1.047.332-1.619.97-.609.677-1.366 1.519-2.854 1.519-1.487 0-2.244-.842-2.853-1.52-.571-.637-.903-.969-1.619-.969-.713 0-1.043.332-1.614.968-.608.678-1.365 1.52-2.851 1.52-1.485 0-2.241-.842-2.85-1.52-.57-.636-.9-.968-1.614-.968-.712 0-1.043.332-1.613.968-.608.678-1.364 1.52-2.85 1.52zm22.336-.444c.46 0 .832.375.832.837a.834.834 0 0 1-.832.837c-.715 0-1.047.331-1.618.968-.61.678-1.366 1.521-2.855 1.521-1.487 0-2.244-.843-2.853-1.52-.571-.638-.903-.97-1.618-.97-.714 0-1.045.332-1.615.968-.608.678-1.365 1.522-2.85 1.522-1.486 0-2.243-.844-2.85-1.522-.57-.636-.902-.967-1.614-.967-.713 0-1.044.331-1.614.967-.607.678-1.364 1.522-2.85 1.522a.834.834 0 0 1-.83-.837c0-.462.37-.836.83-.836.713 0 1.044-.333 1.614-.969.607-.678 1.363-1.52 2.85-1.52 1.486 0 2.242.842 2.85 1.52.57.636.9.969 1.613.969.714 0 1.045-.333 1.615-.969.608-.678 1.364-1.52 2.85-1.52 1.488 0 2.245.842 2.854 1.52.572.636.904.969 1.618.969.716 0 1.048-.333 1.62-.97.608-.677 1.366-1.52 2.853-1.52z"/></symbol><symbol id="J"><path fill-rule="evenodd" d="M20.649 16.271l-2.09-1.231 1.811-1.09a.725.725 0 0 0 .248-.982.694.694 0 0 0-.96-.253l-2.495 1.501L13.403 12l3.76-2.216 2.494 1.501a.69.69 0 0 0 .961-.254.725.725 0 0 0-.248-.98l-1.81-1.09 2.089-1.232a.725.725 0 0 0 .257-.979.694.694 0 0 0-.959-.263L17.858 7.72l-.019-2.146a.709.709 0 0 0-.708-.71.71.71 0 0 0-.696.723l.027 2.956-3.76 2.217V6.326l2.52-1.454a.725.725 0 0 0 .266-.977.694.694 0 0 0-.956-.271l-1.83 1.056V2.217A.71.71 0 0 0 12 1.5a.71.71 0 0 0-.702.717V4.68l-1.83-1.056a.694.694 0 0 0-.956.271.725.725 0 0 0 .265.977l2.521 1.454v4.433l-3.76-2.217.027-2.956a.71.71 0 0 0-.696-.723.71.71 0 0 0-.708.71L6.14 7.72 4.054 6.487a.694.694 0 0 0-.959.263.725.725 0 0 0 .257.979l2.09 1.232-1.811 1.09a.725.725 0 0 0-.248.98.698.698 0 0 0 .96.254l2.495-1.5L10.597 12l-3.76 2.217-2.495-1.502a.694.694 0 0 0-.96.253.725.725 0 0 0 .247.982l1.81 1.09-2.088 1.231a.725.725 0 0 0-.257.979.699.699 0 0 0 .959.262l2.089-1.231.019 2.146c.003.394.317.71.701.71a.71.71 0 0 0 .702-.723l-.026-2.957 3.76-2.216v4.433l-2.52 1.454a.725.725 0 0 0-.266.977.7.7 0 0 0 .611.364c.117 0 .236-.03.345-.093l1.83-1.056v2.463A.71.71 0 0 0 12 22.5a.71.71 0 0 0 .702-.717V19.32l1.83 1.056c.11.063.227.093.344.093a.7.7 0 0 0 .612-.364.725.725 0 0 0-.265-.977l-2.521-1.454V13.24l3.76 2.216-.027 2.957a.71.71 0 0 0 .695.723.71.71 0 0 0 .708-.71l.02-2.146 2.089 1.232a.69.69 0 0 0 .959-.263.724.724 0 0 0-.257-.979z"/></symbol><symbol id="M"><path fill-rule="evenodd" d="M20.649 16.271l-2.09-1.231 1.811-1.09a.725.725 0 0 0 .248-.982.694.694 0 0 0-.96-.253l-2.495 1.501L13.403 12l3.76-2.216 2.494 1.501a.69.69 0 0 0 .961-.254.725.725 0 0 0-.248-.98l-1.81-1.09 2.089-1.232a.725.725 0 0 0 .257-.979.694.694 0 0 0-.959-.263L17.858 7.72l-.019-2.146a.709.709 0 0 0-.708-.71.71.71 0 0 0-.696.723l.027 2.956-3.76 2.217V6.326l2.52-1.454a.725.725 0 0 0 .266-.977.694.694 0 0 0-.956-.271l-1.83 1.056V2.217A.71.71 0 0 0 12 1.5a.71.71 0 0 0-.702.717V4.68l-1.83-1.056a.694.694 0 0 0-.956.271.725.725 0 0 0 .265.977l2.521 1.454v4.433l-3.76-2.217.027-2.956a.71.71 0 0 0-.696-.723.71.71 0 0 0-.708.71L6.14 7.72 4.054 6.487a.694.694 0 0 0-.959.263.725.725 0 0 0 .257.979l2.09 1.232-1.811 1.09a.725.725 0 0 0-.248.98.698.698 0 0 0 .96.254l2.495-1.5L10.597 12l-3.76 2.217-2.495-1.502a.694.694 0 0 0-.96.253.725.725 0 0 0 .247.982l1.81 1.09-2.088 1.231a.725.725 0 0 0-.257.979.699.699 0 0 0 .959.262l2.089-1.231.019 2.146c.003.394.317.71.701.71a.71.71 0 0 0 .702-.723l-.026-2.957 3.76-2.216v4.433l-2.52 1.454a.725.725 0 0 0-.266.977.7.7 0 0 0 .611.364c.117 0 .236-.03.345-.093l1.83-1.056v2.463A.71.71 0 0 0 12 22.5a.71.71 0 0 0 .702-.717V19.32l1.83 1.056c.11.063.227.093.344.093a.7.7 0 0 0 .612-.364.725.725 0 0 0-.265-.977l-2.521-1.454V13.24l3.76 2.216-.027 2.957a.71.71 0 0 0 .695.723.71.71 0 0 0 .708-.71l.02-2.146 2.089 1.232a.69.69 0 0 0 .959-.263.724.724 0 0 0-.257-.979z"/></symbol><symbol id="L"><path fill-rule="evenodd" d="M20.649 16.271l-2.09-1.231 1.811-1.09a.725.725 0 0 0 .248-.982.694.694 0 0 0-.96-.253l-2.495 1.501L13.403 12l3.76-2.216 2.494 1.501a.69.69 0 0 0 .961-.254.725.725 0 0 0-.248-.98l-1.81-1.09 2.089-1.232a.725.725 0 0 0 .257-.979.694.694 0 0 0-.959-.263L17.858 7.72l-.019-2.146a.709.709 0 0 0-.708-.71.71.71 0 0 0-.696.723l.027 2.956-3.76 2.217V6.326l2.52-1.454a.725.725 0 0 0 .266-.977.694.694 0 0 0-.956-.271l-1.83 1.056V2.217A.71.71 0 0 0 12 1.5a.71.71 0 0 0-.702.717V4.68l-1.83-1.056a.694.694 0 0 0-.956.271.725.725 0 0 0 .265.977l2.521 1.454v4.433l-3.76-2.217.027-2.956a.71.71 0 0 0-.696-.723.71.71 0 0 0-.708.71L6.14 7.72 4.054 6.487a.694.694 0 0 0-.959.263.725.725 0 0 0 .257.979l2.09 1.232-1.811 1.09a.725.725 0 0 0-.248.98.698.698 0 0 0 .96.254l2.495-1.5L10.597 12l-3.76 2.217-2.495-1.502a.694.694 0 0 0-.96.253.725.725 0 0 0 .247.982l1.81 1.09-2.088 1.231a.725.725 0 0 0-.257.979.699.699 0 0 0 .959.262l2.089-1.231.019 2.146c.003.394.317.71.701.71a.71.71 0 0 0 .702-.723l-.026-2.957 3.76-2.216v4.433l-2.52 1.454a.725.725 0 0 0-.266.977.7.7 0 0 0 .611.364c.117 0 .236-.03.345-.093l1.83-1.056v2.463A.71.71 0 0 0 12 22.5a.71.71 0 0 0 .702-.717V19.32l1.83 1.056c.11.063.227.093.344.093a.7.7 0 0 0 .612-.364.725.725 0 0 0-.265-.977l-2.521-1.454V13.24l3.76 2.216-.027 2.957a.71.71 0 0 0 .695.723.71.71 0 0 0 .708-.71l.02-2.146 2.089 1.232a.69.69 0 0 0 .959-.263.724.724 0 0 0-.257-.979z"/></symbol><symbol id="K"><path fill-rule="evenodd" d="M20.649 16.271l-2.09-1.231 1.811-1.09a.725.725 0 0 0 .248-.982.694.694 0 0 0-.96-.253l-2.495 1.501L13.403 12l3.76-2.216 2.494 1.501a.69.69 0 0 0 .961-.254.725.725 0 0 0-.248-.98l-1.81-1.09 2.089-1.232a.725.725 0 0 0 .257-.979.694.694 0 0 0-.959-.263L17.858 7.72l-.019-2.146a.709.709 0 0 0-.708-.71.71.71 0 0 0-.696.723l.027 2.956-3.76 2.217V6.326l2.52-1.454a.725.725 0 0 0 .266-.977.694.694 0 0 0-.956-.271l-1.83 1.056V2.217A.71.71 0 0 0 12 1.5a.71.71 0 0 0-.702.717V4.68l-1.83-1.056a.694.694 0 0 0-.956.271.725.725 0 0 0 .265.977l2.521 1.454v4.433l-3.76-2.217.027-2.956a.71.71 0 0 0-.696-.723.71.71 0 0 0-.708.71L6.14 7.72 4.054 6.487a.694.694 0 0 0-.959.263.725.725 0 0 0 .257.979l2.09 1.232-1.811 1.09a.725.725 0 0 0-.248.98.698.698 0 0 0 .96.254l2.495-1.5L10.597 12l-3.76 2.217-2.495-1.502a.694.694 0 0 0-.96.253.725.725 0 0 0 .247.982l1.81 1.09-2.088 1.231a.725.725 0 0 0-.257.979.699.699 0 0 0 .959.262l2.089-1.231.019 2.146c.003.394.317.71.701.71a.71.71 0 0 0 .702-.723l-.026-2.957 3.76-2.216v4.433l-2.52 1.454a.725.725 0 0 0-.266.977.7.7 0 0 0 .611.364c.117 0 .236-.03.345-.093l1.83-1.056v2.463A.71.71 0 0 0 12 22.5a.71.71 0 0 0 .702-.717V19.32l1.83 1.056c.11.063.227.093.344.093a.7.7 0 0 0 .612-.364.725.725 0 0 0-.265-.977l-2.521-1.454V13.24l3.76 2.216-.027 2.957a.71.71 0 0 0 .695.723.71.71 0 0 0 .708-.71l.02-2.146 2.089 1.232a.69.69 0 0 0 .959-.263.724.724 0 0 0-.257-.979z"/></symbol><symbol id="N"><path fill-rule="evenodd" d="M20.649 16.271l-2.09-1.231 1.811-1.09a.725.725 0 0 0 .248-.982.694.694 0 0 0-.96-.253l-2.495 1.501L13.403 12l3.76-2.216 2.494 1.501a.69.69 0 0 0 .961-.254.725.725 0 0 0-.248-.98l-1.81-1.09 2.089-1.232a.725.725 0 0 0 .257-.979.694.694 0 0 0-.959-.263L17.858 7.72l-.019-2.146a.709.709 0 0 0-.708-.71.71.71 0 0 0-.696.723l.027 2.956-3.76 2.217V6.326l2.52-1.454a.725.725 0 0 0 .266-.977.694.694 0 0 0-.956-.271l-1.83 1.056V2.217A.71.71 0 0 0 12 1.5a.71.71 0 0 0-.702.717V4.68l-1.83-1.056a.694.694 0 0 0-.956.271.725.725 0 0 0 .265.977l2.521 1.454v4.433l-3.76-2.217.027-2.956a.71.71 0 0 0-.696-.723.71.71 0 0 0-.708.71L6.14 7.72 4.054 6.487a.694.694 0 0 0-.959.263.725.725 0 0 0 .257.979l2.09 1.232-1.811 1.09a.725.725 0 0 0-.248.98.698.698 0 0 0 .96.254l2.495-1.5L10.597 12l-3.76 2.217-2.495-1.502a.694.694 0 0 0-.96.253.725.725 0 0 0 .247.982l1.81 1.09-2.088 1.231a.725.725 0 0 0-.257.979.699.699 0 0 0 .959.262l2.089-1.231.019 2.146c.003.394.317.71.701.71a.71.71 0 0 0 .702-.723l-.026-2.957 3.76-2.216v4.433l-2.52 1.454a.725.725 0 0 0-.266.977.7.7 0 0 0 .611.364c.117 0 .236-.03.345-.093l1.83-1.056v2.463A.71.71 0 0 0 12 22.5a.71.71 0 0 0 .702-.717V19.32l1.83 1.056c.11.063.227.093.344.093a.7.7 0 0 0 .612-.364.725.725 0 0 0-.265-.977l-2.521-1.454V13.24l3.76 2.216-.027 2.957a.71.71 0 0 0 .695.723.71.71 0 0 0 .708-.71l.02-2.146 2.089 1.232a.69.69 0 0 0 .959-.263.724.724 0 0 0-.257-.979z"/></symbol><use xlink:href="#a" fill="#656565"/><use xlink:href="#a" fill="#fff" y="30"/><use xlink:href="#b" fill="#656565" x="30"/><use xlink:href="#b" fill="#fff" x="30" y="30"/><use xlink:href="#c" fill="#656565" x="60"/><use xlink:href="#c" fill="#fff" x="60" y="30"/><use xlink:href="#d" fill="#656565" x="90"/><use xlink:href="#d" fill="#fff" x="90" y="30"/><use xlink:href="#e" fill="#656565" x="120"/><use xlink:href="#e" fill="#fff" x="120" y="30"/><use xlink:href="#f" fill="#656565" x="150"/><use xlink:href="#f" fill="#fff" x="150" y="30"/><use xlink:href="#g" fill="#656565" x="180"/><use xlink:href="#g" fill="#fff" x="180" y="30"/><use xlink:href="#h" fill="#656565" x="210"/><use xlink:href="#h" fill="#fff" x="210" y="30"/><use xlink:href="#i" fill="#656565" x="240"/><use xlink:href="#i" fill="#fff" x="240" y="30"/><use xlink:href="#j" fill="#656565" x="270"/><use xlink:href="#j" fill="#fff" x="270" y="30"/><use xlink:href="#k" fill="#656565" x="300"/><use xlink:href="#k" fill="#fff" x="300" y="30"/><use xlink:href="#l" fill="#656565" x="330"/><use xlink:href="#l" fill="#fff" x="330" y="30"/><use xlink:href="#m" fill="#656565" x="360"/><use xlink:href="#m" fill="#fff" x="360" y="30"/><use xlink:href="#n" fill="#656565" x="390"/><use xlink:href="#n" fill="#fff" x="390" y="30"/><use xlink:href="#o" fill="#656565" x="420"/><use xlink:href="#o" fill="#fff" x="420" y="30"/><use xlink:href="#p" fill="#656565" x="450"/><use xlink:href="#p" fill="#fff" x="450" y="30"/><use xlink:href="#q" fill="#656565" x="480"/><use xlink:href="#q" fill="#fff" x="480" y="30"/><use xlink:href="#r" fill="#656565" x="510"/><use xlink:href="#r" fill="#fff" x="510" y="30"/><use xlink:href="#s" fill="#656565" x="540"/><use xlink:href="#s" fill="#fff" x="540" y="30"/><use xlink:href="#t" fill="#656565" x="570"/><use xlink:href="#t" fill="#fff" x="570" y="30"/><use xlink:href="#u" fill="#656565" x="600"/><use xlink:href="#u" fill="#fff" x="600" y="30"/><use xlink:href="#v" fill="#656565" x="630"/><use xlink:href="#v" fill="#fff" x="630" y="30"/><use xlink:href="#w" fill="#656565" x="660"/><use xlink:href="#w" fill="#fff" x="660" y="30"/><use xlink:href="#x" fill="#656565" x="690"/><use xlink:href="#x" fill="#fff" x="690" y="30"/><use xlink:href="#y" fill="#656565" x="720"/><use xlink:href="#y" fill="#fff" x="720" y="30"/><use xlink:href="#z" fill="#656565" x="750"/><use xlink:href="#z" fill="#fff" x="750" y="30"/><use xlink:href="#A" fill="#656565" x="780"/><use xlink:href="#A" fill="#fff" x="780" y="30"/><use xlink:href="#B" fill="#656565" x="810"/><use xlink:href="#B" fill="#fff" x="810" y="30"/><use xlink:href="#C" fill="#656565" x="840"/><use xlink:href="#C" fill="#fff" x="840" y="30"/><use xlink:href="#D" fill="#656565" x="870"/><use xlink:href="#D" fill="#fff" x="870" y="30"/><use xlink:href="#E" fill="#656565" x="900"/><use xlink:href="#E" fill="#fff" x="900" y="30"/><use xlink:href="#F" fill="#656565" x="930"/><use xlink:href="#F" fill="#fff" x="930" y="30"/><use xlink:href="#G" fill="#656565" x="960"/><use xlink:href="#G" fill="#fff" x="960" y="30"/><use xlink:href="#H" fill="#656565" x="990"/><use xlink:href="#H" fill="#fff" x="990" y="30"/><use xlink:href="#I" fill="#656565" x="1020"/><use xlink:href="#I" fill="#fff" x="1020" y="30"/><use xlink:href="#J" fill="#656565" x="1050"/><use xlink:href="#J" fill="#fff" x="1050" y="30"/><use xlink:href="#K" fill="#656565" x="1080"/><use xlink:href="#K" fill="#fff" x="1080" y="30"/><use xlink:href="#L" fill="#656565" x="1110"/><use xlink:href="#L" fill="#fff" x="1110" y="30"/><use xlink:href="#M" fill="#656565" x="1140"/><use xlink:href="#M" fill="#fff" x="1140" y="30"/><use xlink:href="#N" fill="#656565" x="1170"/><use xlink:href="#N" fill="#fff" x="1170" y="30"/></svg>