<svg xmlns="http://www.w3.org/2000/svg" width="12" height="11" viewBox="0 0 12 11">
  <defs>
    <style>
      .cls-1 {
        fill: #526586;
        fill-rule: evenodd;
      }
    </style>
  </defs>
  <path class="cls-1" d="M993.138,452H982.863a0.951,0.951,0,0,0-.861,1.018l0,7.159a0.948,0.948,0,0,0,.861,1.016h3.392v1.033h-0.647a0.139,0.139,0,0,0-.117.141v0.5a0.127,0.127,0,0,0,.117.129h4.769a0.143,0.143,0,0,0,.135-0.129v-0.5a0.155,0.155,0,0,0-.135-0.141h-0.629V461.2l-0.007-.007h3.4a0.948,0.948,0,0,0,.861-1.016l0-7.16A0.95,0.95,0,0,0,993.138,452ZM988,460.432a0.393,0.393,0,1,1,.327-0.387A0.362,0.362,0,0,1,988,460.432ZM993.239,459H982.761v-6.1h10.478V459Z" transform="translate(-982 -452)"/>
</svg>
