<svg xmlns="http://www.w3.org/2000/svg" width="12" height="12" viewBox="0 0 12 12">
  <defs>
    <style>
      .cls-1 {
        fill: #526586;
        fill-rule: evenodd;
      }
    </style>
  </defs>
  <path id="Forma_1" data-name="Forma 1" class="cls-1" d="M993.851,483.356l-3.029,3a0.5,0.5,0,0,1-.7-0.712l2.165-2.144h-5.8a0.5,0.5,0,0,1,0-1h5.8l-2.165-2.144a0.5,0.5,0,0,1,.7-0.712l3.029,3A0.5,0.5,0,0,1,993.851,483.356ZM987.98,478H983.5a0.5,0.5,0,0,0-.5.5v9a0.5,0.5,0,0,0,.5.5h4.485a0.5,0.5,0,0,1,0,1H983.5a1.5,1.5,0,0,1-1.5-1.5v-9a1.5,1.5,0,0,1,1.5-1.5h4.485A0.5,0.5,0,0,1,987.98,478Z" transform="translate(-982 -477)"/>
</svg>
