<svg xmlns="http://www.w3.org/2000/svg" width="18" height="18.031" viewBox="0 0 18 18.031">
  <defs>
    <style>
      .cls-1 {
        fill: #09183e;
        fill-rule: evenodd;
      }
    </style>
  </defs>
  <path id="Forma_1" data-name="Forma 1" class="cls-1" d="M641.414,360.013a0.727,0.727,0,0,0-.932-0.413,0.708,0.708,0,0,0-.421.917,7.277,7.277,0,0,1-.122,5.556,7.444,7.444,0,0,1-4.136,3.968,7.659,7.659,0,0,1-7.276-.911,7.4,7.4,0,0,1-2.536-3.228,7.267,7.267,0,0,1,.072-5.683,7.446,7.446,0,0,1,4.136-3.969,7.605,7.605,0,0,1,5.536-.024l-0.512.851c-0.141.234-.033,0.391,0.24,0.347l2.435-.387a0.4,0.4,0,0,0,.328-0.544l-0.826-2.287c-0.092-.257-0.283-0.275-0.424-0.041l-0.494.821a9.077,9.077,0,0,0-6.82-.058,8.876,8.876,0,0,0-4.929,4.73,8.658,8.658,0,0,0-.085,6.772,8.81,8.81,0,0,0,3.021,3.847,9.129,9.129,0,0,0,8.671,1.086,8.87,8.87,0,0,0,4.928-4.729A8.671,8.671,0,0,0,641.414,360.013Zm-8.731-1.55a0.582,0.582,0,0,0-.586.576v4.741l4.338,2.715a0.6,0.6,0,0,0,.268.064,0.586,0.586,0,0,0,.521-0.312,0.571,0.571,0,0,0-.252-0.776l-3.7-2.392v-4.04A0.581,0.581,0,0,0,632.683,358.463Z" transform="translate(-624 -354)"/>
</svg>
