<svg xmlns="http://www.w3.org/2000/svg" width="18" height="18" viewBox="0 0 18 18">
  <defs>
    <style>
      .cls-1 {
        fill: #0f204c;
        fill-rule: evenodd;
      }
    </style>
  </defs>
  <path id="Forma_1" data-name="Forma 1" class="cls-1" d="M1001,321a9,9,0,1,1,9-9A9.01,9.01,0,0,1,1001,321Zm0-16.82a7.82,7.82,0,1,0,7.82,7.82A7.829,7.829,0,0,0,1001,304.18Zm-0.96,10.765a0.016,0.016,0,0,1-.01,0,0.569,0.569,0,0,1-.413.173,0.584,0.584,0,0,1-.417-0.173l-2.293-2.292a0.59,0.59,0,0,1,.834-0.835l1.876,1.875,4.643-4.64a0.584,0.584,0,0,1,.83,0,0.59,0.59,0,0,1,0,.834Z" transform="translate(-992 -303)"/>
</svg>
