<svg xmlns="http://www.w3.org/2000/svg" width="12" height="12" viewBox="0 0 12 12">
  <defs>
    <style>
      .cls-1 {
        fill: #526586;
        fill-rule: evenodd;
      }
    </style>
  </defs>
  <path class="cls-1" d="M992.242,403.76A5.96,5.96,0,0,0,988.081,402c-0.027,0-.055,0-0.081,0s-0.054,0-.082,0a6,6,0,0,0,0,11.992c0.028,0,.055,0,0.082,0s0.054,0,.081,0A6,6,0,0,0,992.242,403.76Zm-7.981.5a5.269,5.269,0,0,1,2.252-1.337,5.707,5.707,0,0,0-.546.748,7.12,7.12,0,0,0-.568,1.147h-1.624A5.335,5.335,0,0,1,984.261,404.264Zm-0.94,1.271h1.838a8.942,8.942,0,0,0-.332,2.108h-2.1A5.246,5.246,0,0,1,983.321,405.535Zm0,4.93a5.246,5.246,0,0,1-.6-2.109h2.1a8.942,8.942,0,0,0,.332,2.109h-1.838Zm0.94,1.271a5.439,5.439,0,0,1-.486-0.558H985.4a7.12,7.12,0,0,0,.568,1.147,5.707,5.707,0,0,0,.546.748A5.269,5.269,0,0,1,984.261,411.736Zm3.382,1.4a3.838,3.838,0,0,1-1.069-1.189,6.277,6.277,0,0,1-.4-0.773h1.473v1.962h0Zm0-2.675H985.9a8.147,8.147,0,0,1-.362-2.109h2.1v2.109h0Zm0-2.822h-2.1a8.146,8.146,0,0,1,.362-2.108h1.74v2.108h0Zm0-2.821H986.17a6.206,6.206,0,0,1,.4-0.773,3.838,3.838,0,0,1,1.069-1.189v1.962h0Zm5.035,0.713a5.23,5.23,0,0,1,.6,2.108h-2.1a8.942,8.942,0,0,0-.332-2.108h1.837Zm-0.94-1.271a5.335,5.335,0,0,1,.486.558H990.6a7.034,7.034,0,0,0-.567-1.147,5.8,5.8,0,0,0-.546-0.748A5.265,5.265,0,0,1,991.738,404.264Zm-3.382-1.4a3.851,3.851,0,0,1,1.07,1.189,6.2,6.2,0,0,1,.4.773h-1.473V402.86h0Zm0,2.675h1.74a8.147,8.147,0,0,1,.363,2.108h-2.1v-2.108Zm2.1,2.821a8.147,8.147,0,0,1-.363,2.109h-1.74v-2.109h2.1Zm-2.1,4.784v-1.962h1.473a6.272,6.272,0,0,1-.4.773A3.851,3.851,0,0,1,988.356,413.14Zm3.382-1.4a5.265,5.265,0,0,1-2.251,1.337,5.8,5.8,0,0,0,.546-0.748,7.034,7.034,0,0,0,.567-1.147h1.624A5.439,5.439,0,0,1,991.738,411.736Zm0.94-1.271h-1.837a8.942,8.942,0,0,0,.332-2.109h2.1A5.23,5.23,0,0,1,992.678,410.465Z" transform="translate(-982 -402)"/>
</svg>
