<svg xmlns="http://www.w3.org/2000/svg" width="18.004" height="16.031" viewBox="0 0 18.004 16.031">
  <defs>
    <style>
      .cls-1 {
        fill: #09183e;
        fill-rule: evenodd;
      }
    </style>
  </defs>
  <path id="Фигура_1_копия" data-name="Фигура 1 копия" class="cls-1" d="M1006.22,168.819a4.415,4.415,0,1,1,4.2-4.41A4.309,4.309,0,0,1,1006.22,168.819Zm0-7.8a3.392,3.392,0,1,0,3.22,3.387A3.307,3.307,0,0,0,1006.22,161.022Zm0.37,5.388h-0.76v-1.6h-1.53v-0.8h1.53v-1.6h0.76v1.6h1.53v0.8h-1.53v1.6Zm-1.56,6.142c-1.2.353-3.19-.425-3.19-0.2,0,0.592,2.27,1.093,3.47.885a11.083,11.083,0,0,0,3.7-1.387c0.72-.436,1.38.521,0.53,1.427a17.72,17.72,0,0,1-4.46,2.727c-0.71.182-5.87-.859-6.467-1.008a1.327,1.327,0,0,0-1.084.485c-0.268.251-.3-0.106-0.3-0.132,0.075-1.258.212-3.665,0.282-4.843,0.015-.253.166-0.248,0.406-0.291a19.667,19.667,0,0,1,2.743-.351,27.1,27.1,0,0,1,4.66,1.343C1005.82,171.332,1005.95,172.281,1005.03,172.552Zm-9.33,3.191h-3a0.32,0.32,0,0,1-.285-0.422l0.491-4.914a0.5,0.5,0,0,1,.474-0.385l2.7,0.147a0.4,0.4,0,0,1,.351.438l-0.33,4.735A0.414,0.414,0,0,1,995.7,175.743Zm-1.205-2.3a0.827,0.827,0,1,0,.748.824A0.788,0.788,0,0,0,994.5,173.445Z" transform="translate(-992.406 -160)"/>
</svg>
