<svg xmlns="http://www.w3.org/2000/svg" width="12" height="12" viewBox="0 0 12 12">
  <defs>
    <style>
      .cls-1 {
        fill: #526586;
        fill-rule: evenodd;
      }
    </style>
  </defs>
  <path id="Forma_1" data-name="Forma 1" class="cls-1" d="M993.627,430.748h-1.718v6.324A1.861,1.861,0,0,1,990.128,439c-0.03,0-.057-0.008-0.087-0.01V439h-6.336v-0.008a1.864,1.864,0,0,1-1.705-1.92v-0.984a0.39,0.39,0,0,1,.373-0.405h1.285l0.047-7.216a1.423,1.423,0,0,1,1.37-1.467h7.506A1.483,1.483,0,0,1,994,428.537v1.807A0.39,0.39,0,0,1,993.627,430.748Zm-10.88,5.744v0.58a1.08,1.08,0,0,0,1.033,1.119h4.9a2.017,2.017,0,0,1-.337-1.119v-0.58h-5.6Zm2.328-8.683a0.644,0.644,0,0,0-.623.661l-0.047,7.213h4.317a0.39,0.39,0,0,1,.373.405v0.984a1.037,1.037,0,1,0,2.067,0v-8.535a1.578,1.578,0,0,1,.193-0.728h-6.28Zm8.178,0.728a0.674,0.674,0,1,0-1.344,0v1.4h1.344v-1.4Zm-3.461,6.378h-4.17a0.406,0.406,0,0,1,0-.809h4.17A0.406,0.406,0,0,1,989.792,434.915Zm0-1.618h-4.17a0.406,0.406,0,0,1,0-.809h4.17A0.406,0.406,0,0,1,989.792,433.3Zm0-1.618h-4.17a0.406,0.406,0,0,1,0-.809h4.17A0.406,0.406,0,0,1,989.792,431.679Zm-2.24-1.618h-1.93a0.406,0.406,0,0,1,0-.809h1.93A0.406,0.406,0,0,1,987.552,430.061Z" transform="translate(-982 -427)"/>
</svg>
