<svg xmlns="http://www.w3.org/2000/svg" width="17.997" height="18.031" viewBox="0 0 17.997 18.031">
  <defs>
    <style>
      .cls-1 {
        fill: #09183e;
        fill-rule: evenodd;
      }
    </style>
  </defs>
  <path class="cls-1" d="M1009.68,257.684l-3.6,3.871a0.444,0.444,0,0,1-.66,0,0.533,0.533,0,0,1,0-.709l2.8-3.007H992.28a0.5,0.5,0,0,1,0-1.007h15.94l-2.8-3.015a0.533,0.533,0,0,1,0-.709,0.442,0.442,0,0,1,.66,0l3.59,3.867A0.522,0.522,0,0,1,1009.68,257.684ZM995.55,262.4a0.44,0.44,0,0,1,.658,0,0.525,0.525,0,0,1,0,.708l-2.8,3.015h15.933a0.488,0.488,0,0,1,.47.5,0.482,0.482,0,0,1-.46.5H993.411l2.8,3.015a0.526,0.526,0,0,1,0,.709,0.446,0.446,0,0,1-.662,0l-3.6-3.872a0.525,0.525,0,0,1,0-.708Z" transform="translate(-991.813 -252.969)"/>
</svg>
