<svg xmlns="http://www.w3.org/2000/svg" width="18" height="18" viewBox="0 0 18 18">
  <defs>
    <style>
      .cls-1 {
        fill: #0f204c;
        fill-rule: evenodd;
      }
    </style>
  </defs>
  <path class="cls-1" d="M1009.07,363.889l-1.26.211a7.025,7.025,0,0,1-.51,1.226l0.74,1.045a1.1,1.1,0,0,1-.12,1.433l-1.12,1.12a1.109,1.109,0,0,1-1.43.121l-1.04-.745a6.994,6.994,0,0,1-1.23.508l-0.21,1.263a1.109,1.109,0,0,1-1.1.929h-1.59a1.109,1.109,0,0,1-1.093-.929l-0.211-1.263a7.152,7.152,0,0,1-1.188-.489l-1.057.752a1.1,1.1,0,0,1-.643.207,1.107,1.107,0,0,1-.786-0.327l-1.12-1.121a1.11,1.11,0,0,1-.121-1.433l0.741-1.03a7.033,7.033,0,0,1-.515-1.222l-1.278-.218a1.111,1.111,0,0,1-.929-1.1v-1.583a1.111,1.111,0,0,1,.929-1.1l1.248-.211a6.993,6.993,0,0,1,.5-1.229l-0.752-1.057a1.113,1.113,0,0,1,.12-1.432l1.125-1.121a1.11,1.11,0,0,1,1.432-.12l1.035,0.744a7,7,0,0,1,1.222-.515l0.218-1.278a1.109,1.109,0,0,1,1.093-.929h1.59a1.117,1.117,0,0,1,1.1.929l0.21,1.248a7.148,7.148,0,0,1,1.27.523l1.04-.745a1.106,1.106,0,0,1,1.43.121l1.12,1.12a1.1,1.1,0,0,1,.12,1.433l-0.74,1.041a8.6,8.6,0,0,1,.51,1.226l1.26,0.214a1.093,1.093,0,0,1,.92,1.1v1.583A1.109,1.109,0,0,1,1009.07,363.889Zm-0.07-2.681a0.1,0.1,0,0,0-.09-0.1l-1.58-.267a0.5,0.5,0,0,1-.4-0.373,5.738,5.738,0,0,0-.66-1.575,0.505,0.505,0,0,1,.03-0.553l0.92-1.305a0.091,0.091,0,0,0-.01-0.128l-1.12-1.12a0.085,0.085,0,0,0-.07-0.03,0.067,0.067,0,0,0-.05.019l-1.3.932a0.5,0.5,0,0,1-.55.023,6.209,6.209,0,0,0-1.62-.662,0.5,0.5,0,0,1-.37-0.41l-0.27-1.568a0.091,0.091,0,0,0-.09-0.083h-1.59a0.1,0.1,0,0,0-.1.083l-0.266,1.591a0.517,0.517,0,0,1-.373.406,5.938,5.938,0,0,0-1.571.662,0.516,0.516,0,0,1-.557-0.023l-1.3-.925a0.1,0.1,0,0,0-.128.011l-1.121,1.121a0.1,0.1,0,0,0-.011.128l0.936,1.316a0.5,0.5,0,0,1,.027.549,5.98,5.98,0,0,0-.643,1.579,0.509,0.509,0,0,1-.41.376l-1.568.263a0.1,0.1,0,0,0-.083.1v1.583a0.1,0.1,0,0,0,.083.1l1.59,0.271a0.511,0.511,0,0,1,.406.372,5.977,5.977,0,0,0,.662,1.572,0.514,0.514,0,0,1-.022.556l-0.925,1.3a0.1,0.1,0,0,0,.011.128l1.12,1.121a0.1,0.1,0,0,0,.072.03,0.11,0.11,0,0,0,.056-0.019l1.316-.936a0.5,0.5,0,0,1,.294-0.094,0.526,0.526,0,0,1,.256.067,6.223,6.223,0,0,0,1.541.632,0.506,0.506,0,0,1,.373.406l0.262,1.579a0.1,0.1,0,0,0,.1.083h1.58a0.1,0.1,0,0,0,.1-0.083l0.27-1.579a0.491,0.491,0,0,1,.37-0.406,6,6,0,0,0,1.57-.654,0.521,0.521,0,0,1,.56.022l1.3,0.929a0.128,0.128,0,0,0,.06.019,0.1,0.1,0,0,0,.07-0.03l1.12-1.121a0.1,0.1,0,0,0,.01-0.128l-0.93-1.308a0.525,0.525,0,0,1-.02-0.553,6.021,6.021,0,0,0,.65-1.575,0.511,0.511,0,0,1,.41-0.373l1.58-.263a0.094,0.094,0,0,0,.08-0.1H1009v-1.583Zm-8,4.674a3.884,3.884,0,1,1,3.89-3.884A3.886,3.886,0,0,1,1001,365.882Zm0-6.753a2.869,2.869,0,1,0,2.87,2.869A2.871,2.871,0,0,0,1001,359.129Z" transform="translate(-992 -353)"/>
</svg>
