<svg xmlns="http://www.w3.org/2000/svg" xmlns:xlink="http://www.w3.org/1999/xlink" width="120" height="40" viewBox="0 0 120 40"><defs><path id="gj6ta" d="M1101.13 1050H999.44l-.92.01c-.67.01-1.34.07-2 .18a6.67 6.67 0 0 0-3.52 1.8 6.26 6.26 0 0 0-1.8 3.53 13 13 0 0 0-.18 2l-.02.92v23.12c0 .3 0 .61.02.92a13 13 0 0 0 .17 2 6.59 6.59 0 0 0 1.8 3.52 6.27 6.27 0 0 0 3.53 1.81c.66.1 1.33.17 2 .18a41.61 41.61 0 0 0 2.01.01h101.69l.92-.01c.67-.01 1.34-.07 2-.18a6.28 6.28 0 0 0 4.7-3.42c.31-.6.52-1.25.63-1.9.1-.67.17-1.34.18-2.01v-.92l.01-1.1v-20.92-1.1-.92a13.5 13.5 0 0 0-.2-2 6.47 6.47 0 0 0-5.33-5.33c-.65-.1-1.32-.17-1.99-.18h-.92l-1.09-.01z"/><path id="gj6tb" d="M999.44 1089.13h-.9c-.63-.01-1.25-.07-1.87-.17a5.88 5.88 0 0 1-3.05-1.56 5.32 5.32 0 0 1-1.57-3.06c-.1-.62-.15-1.24-.16-1.87l-.02-.92v-23.1l.02-.89c0-.63.06-1.25.16-1.87a5.76 5.76 0 0 1 1.56-3.06 5.57 5.57 0 0 1 3.06-1.57c.62-.1 1.24-.16 1.87-.16l.9-.02h102.77l.92.02c.62 0 1.24.06 1.86.16a5.6 5.6 0 0 1 4.62 4.62 13 13 0 0 1 .17 1.88v.9l.01 1.09v22l-.01.93c-.01.62-.07 1.24-.17 1.85a5.48 5.48 0 0 1-2.95 4.08c-.53.27-1.1.45-1.67.55-.62.1-1.25.16-1.87.16l-.9.01h-1.09z"/><path id="gj6tc" d="M1015.77 1070.3c.02-1.7.91-3.26 2.36-4.15a5.06 5.06 0 0 0-4-2.16c-1.67-.18-3.3 1-4.16 1-.87 0-2.19-.98-3.6-.95a5.31 5.31 0 0 0-4.48 2.73c-1.93 3.35-.5 8.27 1.36 10.98.93 1.33 2.01 2.8 3.43 2.75 1.39-.05 1.9-.88 3.58-.88 1.66 0 2.14.88 3.59.85 1.49-.02 2.43-1.33 3.32-2.67.67-.94 1.18-1.99 1.52-3.1a4.78 4.78 0 0 1-2.92-4.4z"/><path id="gj6td" d="M1013.04 1062.21a4.87 4.87 0 0 0 1.11-3.49 4.96 4.96 0 0 0-3.2 1.66 4.64 4.64 0 0 0-1.15 3.36 4.1 4.1 0 0 0 3.24-1.53z"/><path id="gj6te" d="M1029.06 1075.58h3.75l-1.85-5.43h-.05zm4.25 1.56h-4.74l-1.14 3.36h-2l4.48-12.42h2.09l4.48 12.42h-2.04z"/><path id="gj6tf" d="M1044.25 1075.97c0-1.83-.95-3.04-2.4-3.04-1.41 0-2.37 1.24-2.37 3.04 0 1.83.96 3.05 2.38 3.05 1.44 0 2.39-1.2 2.39-3.05zm1.9 0c0 2.82-1.5 4.62-3.77 4.62a3.07 3.07 0 0 1-2.85-1.58h-.04v4.49h-1.86v-12.05h1.8v1.5h.03a3.21 3.21 0 0 1 2.89-1.6c2.3 0 3.8 1.82 3.8 4.62z"/><path id="gj6tg" d="M1054.22 1075.97c0-1.83-.95-3.04-2.4-3.04-1.42 0-2.37 1.24-2.37 3.04 0 1.83.95 3.05 2.38 3.05 1.44 0 2.39-1.2 2.39-3.05zm1.9 0c0 2.82-1.5 4.62-3.77 4.62a3.07 3.07 0 0 1-2.85-1.58h-.04v4.49h-1.86v-12.05h1.8v1.5h.03a3.21 3.21 0 0 1 2.89-1.6c2.3 0 3.8 1.82 3.8 4.62z"/><path id="gj6th" d="M1062.71 1077.04c.14 1.23 1.33 2.04 2.97 2.04 1.57 0 2.7-.81 2.7-1.92 0-.97-.69-1.54-2.3-1.94l-1.6-.39c-2.29-.55-3.34-1.61-3.34-3.34 0-2.15 1.86-3.62 4.51-3.62 2.63 0 4.43 1.47 4.49 3.62h-1.88c-.11-1.24-1.14-2-2.63-2-1.5 0-2.52.76-2.52 1.87 0 .87.65 1.4 2.25 1.79l1.37.33c2.55.6 3.6 1.63 3.6 3.44 0 2.33-1.85 3.78-4.79 3.78-2.75 0-4.61-1.42-4.73-3.66z"/><path id="gj6ti" d="M1074.35 1069.3v2.14h1.72v1.47h-1.72v5c0 .77.34 1.13 1.1 1.13.2 0 .4-.02.6-.04v1.46c-.33.07-.68.1-1.02.09-1.84 0-2.55-.7-2.55-2.45v-5.19h-1.32v-1.47h1.32v-2.14z"/><path id="gj6tj" d="M1083.78 1075.97c0-1.95-.9-3.1-2.41-3.1-1.51 0-2.4 1.16-2.4 3.1 0 1.97.89 3.12 2.4 3.12 1.5 0 2.4-1.15 2.4-3.12zm-6.71 0c0-2.85 1.68-4.64 4.3-4.64s4.29 1.79 4.29 4.64c0 2.86-1.66 4.64-4.3 4.64-2.63 0-4.29-1.78-4.29-4.64z"/><path id="gj6tk" d="M1087.19 1071.44h1.77v1.54h.04c.25-.99 1.16-1.67 2.18-1.63.21 0 .43.02.64.07v1.74a2.6 2.6 0 0 0-.84-.12 1.87 1.87 0 0 0-1.94 2.09v5.37h-1.85z"/><path id="gj6tl" d="M1094.1 1075.12h4.53a2.16 2.16 0 0 0-2.22-2.28 2.3 2.3 0 0 0-2.3 2.28zm6.29 2.72c-.25 1.64-1.85 2.77-3.9 2.77-2.64 0-4.27-1.77-4.27-4.6 0-2.84 1.64-4.68 4.19-4.68 2.5 0 4.08 1.72 4.08 4.47v.63h-6.4v.11a2.36 2.36 0 0 0 2.44 2.57c.9.08 1.75-.43 2.1-1.27z"/><path id="gj6tm" d="M1027.6 1063.84h1.12a1.88 1.88 0 0 0 1.97-2.14 1.87 1.87 0 0 0-1.97-2.13h-1.12zm1.23-5.11a2.64 2.64 0 0 1 2.8 2.96c0 1.9-1.03 3-2.8 3h-2.16v-5.96z"/><path id="gj6tn" d="M1036 1062.45c0-.98-.43-1.55-1.2-1.55s-1.2.57-1.2 1.55c0 .98.43 1.55 1.2 1.55s1.2-.57 1.2-1.55zm-3.32 0a2.13 2.13 0 1 1 4.25 0 2.13 2.13 0 1 1-4.25 0z"/><path id="gj6to" d="M1042.57 1064.7h-.92l-.93-3.32h-.07l-.93 3.33h-.9l-1.25-4.52h.9l.8 3.45h.07l.93-3.45h.85l.93 3.45h.07l.8-3.45h.89z"/><path id="gj6tp" d="M1044.85 1060.2h.86v.71h.07c.23-.53.77-.85 1.34-.8a1.46 1.46 0 0 1 1.56 1.68v2.92h-.9v-2.7c0-.73-.3-1.09-.96-1.09a1.03 1.03 0 0 0-1.08 1.15v2.64h-.89z"/><path id="gj6tq" d="M1050.1 1058.44h.88v6.26h-.89z"/><path id="gj6tr" d="M1055.54 1062.45c0-.98-.43-1.55-1.2-1.55s-1.2.57-1.2 1.55c0 .98.43 1.55 1.2 1.55s1.2-.57 1.2-1.55zm-3.32 0a2.13 2.13 0 1 1 4.25 0 2.13 2.13 0 1 1-4.25 0z"/><path id="gj6ts" d="M1060.3 1063.04v-.37l-1.1.07c-.63.04-.9.25-.9.64 0 .4.35.64.83.64a1.07 1.07 0 0 0 1.16-.98zm-2.9.39c0-.81.6-1.28 1.67-1.35l1.22-.07v-.39c0-.47-.31-.74-.92-.74-.5 0-.84.18-.94.5h-.86c.1-.77.82-1.27 1.84-1.27 1.13 0 1.77.56 1.77 1.51v3.08h-.86v-.63h-.07c-.29.46-.8.73-1.35.7a1.36 1.36 0 0 1-1.5-1.34z"/><path id="gj6tt" d="M1063.27 1062.45c0 .95.44 1.53 1.2 1.53.74 0 1.2-.59 1.2-1.53 0-.94-.46-1.53-1.2-1.53-.75 0-1.2.58-1.2 1.53zm-.92 0c0-1.43.73-2.33 1.87-2.33.57-.02 1.11.28 1.38.8h.07v-2.48h.89v6.26h-.86v-.71h-.07c-.29.5-.83.8-1.41.78-1.15 0-1.87-.9-1.87-2.32z"/><path id="gj6tu" d="M1073.56 1062.45c0-.98-.44-1.55-1.2-1.55-.78 0-1.21.57-1.21 1.55 0 .98.43 1.55 1.2 1.55s1.21-.57 1.21-1.55zm-3.33 0a2.13 2.13 0 1 1 4.25 0 2.13 2.13 0 1 1-4.25 0z"/><path id="gj6tv" d="M1075.67 1060.2h.85v.71h.07c.23-.53.77-.85 1.35-.8a1.46 1.46 0 0 1 1.55 1.68v2.92h-.89v-2.7c0-.73-.3-1.09-.97-1.09a1.03 1.03 0 0 0-1.07 1.15v2.64h-.9z"/><path id="gj6tw" d="M1084.52 1059.07v1.15h.97v.74h-.97v2.32c0 .47.19.68.63.68l.34-.02v.74c-.16.03-.32.04-.48.04-1 0-1.38-.35-1.38-1.21v-2.55h-.72v-.74h.72v-1.15z"/><path id="gj6tx" d="M1086.7 1058.44h.89v2.48h.07c.24-.53.79-.86 1.37-.8a1.48 1.48 0 0 1 1.55 1.67v2.9h-.89v-2.68c0-.72-.34-1.08-.96-1.08a1.05 1.05 0 0 0-1.14 1.14v2.63h-.89z"/><path id="gj6ty" d="M1092.63 1062.02h2.28a1.1 1.1 0 0 0-1.1-1.16c-.32 0-.62.12-.84.34-.22.22-.34.52-.34.82zm3.13 1.46a1.83 1.83 0 0 1-1.95 1.3 2.05 2.05 0 0 1-2.08-2.32 2.08 2.08 0 0 1 2.08-2.35c1.25 0 2 .86 2 2.27v.31h-3.18v.05a1.19 1.19 0 0 0 1.2 1.29c.44.05.86-.16 1.07-.55z"/></defs><g><g transform="translate(-991 -1050)"><g><g><g><use fill="#494949" xlink:href="#gj6ta"/></g><g><use xlink:href="#gj6tb"/></g></g><g><g><g><g><use fill="#fff" xlink:href="#gj6tc"/></g><g><use fill="#fff" xlink:href="#gj6td"/></g></g></g><g><g><use fill="#fff" xlink:href="#gj6te"/></g><g><use fill="#fff" xlink:href="#gj6tf"/></g><g><use fill="#fff" xlink:href="#gj6tg"/></g><g><use fill="#fff" xlink:href="#gj6th"/></g><g><use fill="#fff" xlink:href="#gj6ti"/></g><g><use fill="#fff" xlink:href="#gj6tj"/></g><g><use fill="#fff" xlink:href="#gj6tk"/></g><g><use fill="#fff" xlink:href="#gj6tl"/></g></g></g></g><g><g><g><use fill="#fff" xlink:href="#gj6tm"/></g><g><use fill="#fff" xlink:href="#gj6tn"/></g><g><use fill="#fff" xlink:href="#gj6to"/></g><g><use fill="#fff" xlink:href="#gj6tp"/></g><g><use fill="#fff" xlink:href="#gj6tq"/></g><g><use fill="#fff" xlink:href="#gj6tr"/></g><g><use fill="#fff" xlink:href="#gj6ts"/></g><g><use fill="#fff" xlink:href="#gj6tt"/></g><g><use fill="#fff" xlink:href="#gj6tu"/></g><g><use fill="#fff" xlink:href="#gj6tv"/></g><g><use fill="#fff" xlink:href="#gj6tw"/></g><g><use fill="#fff" xlink:href="#gj6tx"/></g><g><use fill="#fff" xlink:href="#gj6ty"/></g></g></g></g></g></svg>