<svg xmlns="http://www.w3.org/2000/svg" xmlns:xlink="http://www.w3.org/1999/xlink" width="135" height="40" viewBox="0 0 135 40"><defs><path id="uo2pa" d="M1123 1058a8 8 0 0 1 8-8h119a8 8 0 0 1 8 8v24a8 8 0 0 1-8 8h-119a8 8 0 0 1-8-8z"/><path id="uo2pb" d="M1253 1050h-125a5 5 0 0 0-5 5v30a5 5 0 0 0 5 5h125a5 5 0 0 0 5-5v-30a5 5 0 0 0-5-5zm0 .8a4.2 4.2 0 0 1 4.2 4.2v30a4.2 4.2 0 0 1-4.2 4.2h-125a4.2 4.2 0 0 1-4.2-4.2v-30a4.2 4.2 0 0 1 4.2-4.2h125z"/><path id="uo2pc" d="M1170.42 1060.24c.03.74-.24 1.46-.75 2a2.9 2.9 0 0 1-2.2.88 3 3 0 0 1-2.21-.9 3 3 0 0 1-.91-2.22 3 3 0 0 1 .91-2.23 3.16 3.16 0 0 1 3.44-.65c.36.15.68.38.94.67l-.53.53a2 2 0 0 0-1.64-.72 2.32 2.32 0 0 0-2.33 2.4 2.36 2.36 0 0 0 4 1.73c.3-.33.49-.77.51-1.22h-2.18v-.72h2.91c.02.15.04.3.04.45z"/><path id="uo2pd" d="M1175 1057.74h-2.7v1.9h2.46v.72h-2.46v1.9h2.7v.74h-3.48v-6h3.48z"/><path id="uo2pe" d="M1178.28 1063h-.77v-5.26h-1.68v-.74h4.17v.74h-1.72z"/><path id="uo2pf" d="M1182.95 1063v-6h.77v6z"/><path id="uo2pg" d="M1187.13 1063h-.77v-5.26h-1.68v-.74h4.12v.74h-1.67z"/><path id="uo2ph" d="M1192.78 1061.72a2.29 2.29 0 0 0 3.26 0c.45-.46.7-1.08.67-1.72a2.36 2.36 0 0 0-2.34-2.4c-.61 0-1.2.24-1.63.68a2.36 2.36 0 0 0-.63 1.72c-.02.64.22 1.26.67 1.72zm3.83.5a3.11 3.11 0 0 1-4.4 0 3 3 0 0 1-.88-2.22 3 3 0 0 1 .88-2.22c.57-.6 1.37-.93 2.2-.9a3.07 3.07 0 0 1 3.08 3.13 3 3 0 0 1-.88 2.21z"/><path id="uo2pi" d="M1198.58 1063v-6h.93l2.92 4.67V1057h.77v6h-.8l-3.05-4.89V1063z"/><path id="uo2pj" d="M1229.94 1067.5h1.86v12.5h-1.86zm18.88 4.5l-5.07 11.79h-2l1.9-4.21-3.33-7.58h2l2.22 5.42h.06l2.14-5.42zm-12.66 6.59a2.26 2.26 0 0 0 2.2-2.01 3.3 3.3 0 0 0-1.7-.42c-.94 0-2 .34-2 1.34 0 .75.85 1.06 1.46 1.06zm.23-6.87c2.13 0 3.79 1.27 3.79 3.46v4.8h-1.8v-1h-.06a2.65 2.65 0 0 1-2.38 1.23 2.9 2.9 0 0 1-3.11-2.75c0-1.82 1.82-2.82 3.6-2.82.68 0 1.35.17 1.95.48v-.12a1.8 1.8 0 0 0-2-1.6c-.7-.07-1.37.29-1.71.9l-1.65-.69a3.5 3.5 0 0 1 3.33-1.9zm-11.54 1.8a2.14 2.14 0 1 0 0-4.28h-2.65v4.26h2.6zm-.04-6.02a3.89 3.89 0 1 1 0 7.76h-2.61v4.75h-1.87v-12.51zm-24.4 11.08a2.38 2.38 0 0 0 2.29-2.58 2.39 2.39 0 0 0-2.28-2.57 2.58 2.58 0 0 0 0 5.15zm2.16-6.58h1.74v7.62c0 3.14-1.82 4.44-4 4.44a4 4 0 0 1-3.78-2.53l1.62-.67c.34.9 1.2 1.5 2.15 1.51 1.4 0 2.27-.87 2.27-2.5v-.6h-.07a2.88 2.88 0 0 1-2.24 1 4.26 4.26 0 0 1 0-8.52c.85-.03 1.67.32 2.24.95h.07zm3.06-4.5h1.87v12.5h-1.87zm8.43 6.8c-.3-.6-.92-.95-1.58-.9a2.33 2.33 0 0 0-2.23 2.49zm2.2.6l-5.7 2.34a2.15 2.15 0 0 0 2.07 1.29c.85 0 1.65-.44 2.09-1.17l1.45 1a4.23 4.23 0 0 1-7.76-2.37 4 4 0 0 1 4-4.24 4 4 0 0 1 3.64 2.7zm-39.44-1.84c.06.36.1.74.09 1.12a6 6 0 0 1-1.56 4.23 6.07 6.07 0 0 1-4.61 1.85 6.61 6.61 0 1 1 0-13.21 6.3 6.3 0 0 1 4.53 1.82l-1.27 1.27a4.8 4.8 0 1 0-3.28 8.31 4.42 4.42 0 0 0 3.34-1.32c.58-.63.93-1.43 1-2.27h-4.32v-1.8zm6.74 4.73c.45-.48.69-1.13.66-1.8a2.58 2.58 0 1 0-2.4 2.59c.66-.02 1.29-.3 1.74-.79zm1.3-4.82c.8.8 1.24 1.9 1.23 3.03a4.26 4.26 0 1 1-4.27-4.25 4.19 4.19 0 0 1 3.03 1.22zm8.02 4.82c.45-.48.69-1.13.66-1.8a2.58 2.58 0 1 0-2.4 2.59c.66-.02 1.29-.3 1.74-.79zm1.3-4.82c.8.8 1.24 1.9 1.23 3.03a4.26 4.26 0 1 1-4.27-4.25 4.19 4.19 0 0 1 3.03 1.22z"/><path id="uo2pk" d="M1133.44 1057.54a2 2 0 0 0-.44 1.4v22.12c-.03.51.13 1.01.47 1.4l.07.08 12.36-12.39v-.3l-12.39-12.38z"/><path id="uo2pm" d="M1150 1074.28l-4.1-4.13v-.3l4.1-4.13.09.06 4.91 2.78c1.4.79 1.4 2.09 0 2.89l-4.89 2.78z"/><path id="uo2po" d="M1150.12 1074.23l-4.22-4.23-12.46 12.46c.58.52 1.45.55 2.07.07l14.61-8.3"/><path id="uo2pq" d="M1150.12 1065.78l-14.61-8.3a1.61 1.61 0 0 0-2.07.06l12.46 12.46z"/><path id="uo2ps" d="M1150 1074.13l-14.49 8.25c-.6.45-1.4.45-2 0l-.07.07.07.08c.6.45 1.4.45 2 0l14.61-8.3z"/><path id="uo2pt" d="M1133.44 1082.32a2 2 0 0 1-.44-1.41v.15c-.03.51.13 1.01.47 1.4l.07-.07z"/><path id="uo2pu" d="M1155 1071.3l-5 2.83.09.1 4.91-2.79c.59-.25 1-.8 1.06-1.44a1.86 1.86 0 0 1-1.06 1.3z"/><path id="uo2pv" d="M1135.51 1057.62l19.49 11.08c.54.24.93.72 1.06 1.3a1.75 1.75 0 0 0-1.06-1.44l-19.49-11.08c-1.39-.8-2.51-.14-2.51 1.46v.15c0-1.6 1.12-2.26 2.51-1.47z"/><linearGradient id="uo2pl" x1="1144.8" x2="1128.01" y1="1058.71" y2="1075.49" gradientUnits="userSpaceOnUse"><stop offset="0" stop-color="#00a0ff"/><stop offset=".01" stop-color="#00a1ff"/><stop offset=".26" stop-color="#00beff"/><stop offset=".51" stop-color="#00d2ff"/><stop offset=".76" stop-color="#00dfff"/><stop offset="1" stop-color="#00e3ff"/></linearGradient><linearGradient id="uo2pn" x1="1156.83" x2="1132.64" y1="1070" y2="1070" gradientUnits="userSpaceOnUse"><stop offset="0" stop-color="#ffe000"/><stop offset=".41" stop-color="#ffbd00"/><stop offset=".78" stop-color="orange"/><stop offset="1" stop-color="#ff9c00"/></linearGradient><linearGradient id="uo2pp" x1="1147.83" x2="1125.07" y1="1072.3" y2="1095.05" gradientUnits="userSpaceOnUse"><stop offset="0" stop-color="#ff3a44"/><stop offset="1" stop-color="#c31162"/></linearGradient><linearGradient id="uo2pr" x1="1130.3" x2="1140.46" y1="1050.18" y2="1060.34" gradientUnits="userSpaceOnUse"><stop offset="0" stop-color="#32a071"/><stop offset=".07" stop-color="#2da771"/><stop offset=".48" stop-color="#15cf74"/><stop offset=".8" stop-color="#06e775"/><stop offset="1" stop-color="#00f076"/></linearGradient></defs><g><g transform="translate(-1123 -1050)"><g><use xlink:href="#uo2pa"/></g><g><use fill="#494949" xlink:href="#uo2pb"/></g><g><use fill="#fff" xlink:href="#uo2pc"/><use fill="#fff" fill-opacity="0" stroke="#fff" stroke-miterlimit="50" stroke-width=".2" xlink:href="#uo2pc"/></g><g><use fill="#fff" xlink:href="#uo2pd"/><use fill="#fff" fill-opacity="0" stroke="#fff" stroke-miterlimit="50" stroke-width=".2" xlink:href="#uo2pd"/></g><g><use fill="#fff" xlink:href="#uo2pe"/><use fill="#fff" fill-opacity="0" stroke="#fff" stroke-miterlimit="50" stroke-width=".2" xlink:href="#uo2pe"/></g><g><use fill="#fff" xlink:href="#uo2pf"/><use fill="#fff" fill-opacity="0" stroke="#fff" stroke-miterlimit="50" stroke-width=".2" xlink:href="#uo2pf"/></g><g><use fill="#fff" xlink:href="#uo2pg"/><use fill="#fff" fill-opacity="0" stroke="#fff" stroke-miterlimit="50" stroke-width=".2" xlink:href="#uo2pg"/></g><g><use fill="#fff" xlink:href="#uo2ph"/><use fill="#fff" fill-opacity="0" stroke="#fff" stroke-miterlimit="50" stroke-width=".2" xlink:href="#uo2ph"/></g><g><use fill="#fff" xlink:href="#uo2pi"/><use fill="#fff" fill-opacity="0" stroke="#fff" stroke-miterlimit="50" stroke-width=".2" xlink:href="#uo2pi"/></g><g><use fill="#fff" xlink:href="#uo2pj"/></g><g><use fill="url(#uo2pl)" xlink:href="#uo2pk"/></g><g><use fill="url(#uo2pn)" xlink:href="#uo2pm"/></g><g><use fill="url(#uo2pp)" xlink:href="#uo2po"/></g><g><use fill="url(#uo2pr)" xlink:href="#uo2pq"/></g><g opacity=".2"><use xlink:href="#uo2ps"/></g><g opacity=".12"><use xlink:href="#uo2pt"/></g><g opacity=".12"><use xlink:href="#uo2pu"/></g><g opacity=".25"><use fill="#fff" xlink:href="#uo2pv"/></g></g></g></svg>