<svg xmlns="http://www.w3.org/2000/svg" xmlns:xlink="http://www.w3.org/1999/xlink" width="18" height="30" viewBox="0 0 18 30"><defs><path id="cnf1a" d="M1024.06 625.55a3.03 3.03 0 1 1 0 6.05 3.03 3.03 0 0 1 0-6.05zm0 10.6a7.56 7.56 0 1 0-7.55-7.58 7.56 7.56 0 0 0 7.55 7.58z"/><path id="cnf1b" d="M1026.82 642.29c1.69-.33 3.3-.96 4.76-1.86a2.12 2.12 0 0 0-2.24-3.6 10.12 10.12 0 0 1-10.4.1 2.13 2.13 0 0 0-2.18 3.64 14.1 14.1 0 0 0 4.54 1.72l-4.77 4.79a2.13 2.13 0 0 0 .94 3.55c.73.2 1.51-.02 2.05-.55l4.54-4.56 4.55 4.56a2.11 2.11 0 0 0 3.54-.95c.2-.74-.01-1.52-.55-2.05z"/></defs><g><g transform="translate(-1015 -621)"><g><use fill="#fff" xlink:href="#cnf1a"/></g><g><use fill="#fff" xlink:href="#cnf1b"/></g></g></g></svg>