<svg xmlns="http://www.w3.org/2000/svg" xmlns:xlink="http://www.w3.org/1999/xlink" width="24" height="24" viewBox="0 0 24 24"><defs><path id="yvqaa" d="M31 819.5c.4-3.34 2.12-6.93 4.58-10.22l-.43-.43a.5.5 0 0 1 .7-.7l.34.34c.38-.48.78-.95 1.19-1.4l-.73-.74a.5.5 0 0 1 .7-.7l.7.7c.42-.45.85-.88 1.3-1.3l-.7-.7a.5.5 0 0 1 .7-.7l.73.72c.46-.4.92-.8 1.4-1.18l-.33-.34a.5.5 0 0 1 .7-.7l.42.42c3.28-2.48 6.86-4.2 10.17-4.57h.4a3.48 3.48 0 0 0-2.12-.95 19.23 19.23 0 0 0-20.66 20.66c.05.83.4 1.57.94 2.14z"/><path id="yvqab" d="M53.58 798.98l-.08.02h-1c-3.04.34-6.4 1.97-9.5 4.3l.35.35a.5.5 0 0 1-.7.7l-.44-.43c-.48.38-.94.77-1.4 1.18l.54.55a.5.5 0 0 1-.7.7l-.58-.57c-.44.42-.87.85-1.29 1.3l.57.57a.5.5 0 1 1-.7.7l-.54-.54c-.41.46-.8.93-1.19 1.4l.43.44a.5.5 0 0 1-.7.7l-.34-.33c-2.32 3.1-3.95 6.47-4.31 9.54v.94l-.02.08c.4.2.84.33 1.3.37a19.11 19.11 0 0 0 3.98-.12 19.23 19.23 0 0 0 16.69-20.55c-.04-.46-.17-.9-.37-1.3z"/></defs><g><g transform="translate(-30 -797)"><g><use fill="#4a9aeb" xlink:href="#yvqaa"/></g><g><use fill="#4a9aeb" xlink:href="#yvqab"/></g></g></g></svg>