<svg xmlns="http://www.w3.org/2000/svg" xmlns:xlink="http://www.w3.org/1999/xlink" width="20" height="19" viewBox="0 0 20 19"><defs><path id="zjy5a" d="M36.34 715.47l-.36-3.52 1.07-2.77 1.53.3a8.46 8.46 0 0 1-.74 5.99zm-5.63.25l1.06-3.06 3.43-.33.35 3.32-2.82 1.7zm1.2 4.25a9.22 9.22 0 0 1-7.02-1.2l1.1-2.14 4.1-.37 2.15 1.74zm-11.1-8.47c0-1.74.54-3.35 1.45-4.71l1.96.31 1.05 2.39-1.83 2.83-2.53.35c-.05-.38-.1-.77-.1-1.17zm9.3-5.38l-1.37 2.64-2.75.33-.98-2.21 2.8-2.03zm-1.92-3.18a9.17 9.17 0 0 1 6.14 1.03v1.23l-3.6.35-2.54-1.4zm-4.03 9.75l1.82-2.8 2.84-.34 2.19 2.8-1.08 3.12-3.97.35zm11-8.2a8.76 8.76 0 0 1 3.16 4.13l-1.28-.25-1.89-2.92zM29.82 702a9.92 9.92 0 0 0-8.15 4.19A9.23 9.23 0 0 0 20 711.5c0 5.24 4.4 9.5 9.83 9.5 5.42 0 9.83-4.26 9.83-9.5s-4.41-9.5-9.83-9.5z"/></defs><g><g transform="translate(-20 -702)"><g><use fill="#4a9aeb" xlink:href="#zjy5a"/></g></g></g></svg>