<svg viewBox="0 0 512 512" xmlns="http://www.w3.org/2000/svg"><path d="m256 351.332031c-72.648438 0-137.386719 34.464844-178.761719 87.894531 48.089844 46.945313 111.4375 72.773438 178.761719 72.773438s130.671875-25.828125 178.761719-72.773438c-41.375-53.429687-106.113281-87.894531-178.761719-87.894531zm0 0"/><path d="m256 160.664062c72.648438 0 137.386719-34.460937 178.761719-87.890624-48.089844-46.945313-111.4375-72.773438-178.761719-72.773438s-130.671875 25.828125-178.761719 72.773438c41.375 53.429687 106.113281 87.890624 178.761719 87.890624zm0 0"/><path d="m455.324219 95.332031c-5.707031 7.050781-11.800781 13.851563-18.304688 20.355469-48.355469 48.351562-112.640625 74.976562-181.019531 74.976562-68.382812 0-132.667969-26.628906-181.019531-74.976562-6.503907-6.503906-12.597657-13.304688-18.304688-20.355469-36.714843 45.375-56.675781 101.484375-56.675781 160.667969s19.960938 115.292969 56.675781 160.664062c5.707031-7.046874 11.800781-13.847656 18.304688-20.351562 48.355469-48.351562 112.640625-74.976562 181.019531-74.976562 68.382812 0 132.667969 26.628906 181.019531 74.976562 6.503907 6.503906 12.601563 13.304688 18.304688 20.351562 36.714843-45.371093 56.675781-101.480468 56.675781-160.664062s-19.960938-115.292969-56.675781-160.667969zm0 0"/></svg>