<svg xmlns="http://www.w3.org/2000/svg" xmlns:xlink="http://www.w3.org/1999/xlink" width="24" height="24" viewBox="0 0 24 24"><defs><path id="nmzra" d="M44 403h-1.15l1.15-1.15zm-2.08-.5c-2.57 1.28-6.93-.1-8.99-2.15-2.43-2.44-2.6-6.55-.37-8.79 2.24-2.24 6.34-2.06 8.78.37 2.06 2.07 3.43 6.43 2.15 9zm11.9 7.62c-4.19-3.61-8.64-7.84-8.82-8.62v-3l-.01-.06a11.15 11.15 0 0 0-2.94-7.21c-2.81-2.82-7.58-2.99-10.2-.37-2.61 2.61-2.44 7.38.38 10.2 1.67 1.66 4.59 2.9 7.21 2.93h3.06c.91.03 5.18 4.6 8.6 8.82a.5.5 0 0 0 .37.19h.03a.5.5 0 0 0 .35-.15l2-2a.5.5 0 0 0-.03-.73z"/><path id="nmzrb" d="M39.5 397.78l-1.3-1.28 1.3-1.3 1.28 1.3zm-2 2l-1.3-1.28 1.3-1.3 1.28 1.3zm-3.3-3.28l1.3-1.3 1.28 1.3-1.28 1.28zm3.3-3.3l1.28 1.3-1.28 1.28-1.3-1.28zm5.35 1.95a.5.5 0 0 0-.7 0l-.65.64-1.3-1.29.65-.65a.5.5 0 0 0-.7-.7l-.65.64-1.3-1.29.65-.65a.5.5 0 0 0-.7-.7l-.65.64-.65-.64a.5.5 0 0 0-.7.7l.64.65-1.29 1.3-1.65-1.65a.5.5 0 0 0-.7.7l1.64 1.65-1.29 1.3-.65-.65a.5.5 0 0 0-.7.7l.64.65-.64.65a.5.5 0 0 0 .7.7l.65-.64 1.3 1.29-.65.65a.5.5 0 0 0 .7.7l.65-.64 1.3 1.29-.65.65a.5.5 0 0 0 .7.7l.65-.64.65.64a.5.5 0 0 0 .7 0 .5.5 0 0 0 0-.7l-.64-.65 1.29-1.3 1.65 1.65a.5.5 0 0 0 .7 0 .5.5 0 0 0 0-.7l-1.64-1.65 1.29-1.3.65.65a.5.5 0 0 0 .7 0 .5.5 0 0 0 0-.7l-.64-.65.64-.65a.5.5 0 0 0 0-.7z"/><path id="nmzrc" d="M35.85 407.63a2.47 2.47 0 0 0-.02 3.72l.36.36c.5-.6.81-1.37.81-2.21 0-.84-.31-1.6-.8-2.2z"/><path id="nmzrd" d="M34 409.5c0-.98.42-1.93 1.17-2.6l.3-.3a3.42 3.42 0 0 0-3.91.01l.3.31a3.49 3.49 0 0 1-.03 5.17l-.28.29a3.42 3.42 0 0 0 3.91.01l-.31-.32A3.48 3.48 0 0 1 34 409.5z"/><path id="nmzre" d="M31.16 407.65l-.35-.35-.13.14-.01.02a3.47 3.47 0 0 0 0 4.08l.01.02.13.14.34-.33a2.47 2.47 0 0 0 .02-3.72z"/></defs><g><g transform="translate(-30 -389)"><g><use fill="#4a9aeb" xlink:href="#nmzra"/></g><g><use fill="#4a9aeb" xlink:href="#nmzrb"/></g><g><use fill="#4a9aeb" xlink:href="#nmzrc"/></g><g><use fill="#4a9aeb" xlink:href="#nmzrd"/></g><g><use fill="#4a9aeb" xlink:href="#nmzre"/></g></g></g></svg>