<svg xmlns="http://www.w3.org/2000/svg" xmlns:xlink="http://www.w3.org/1999/xlink" width="19" height="18" viewBox="0 0 19 18"><defs><path id="rmora" d="M251.1 133.75h-7.52c-.13 0-.27-.02-.4-.04v6.17c0 1.13.9 2.05 1.98 2.05h5.93z"/><path id="rmorb" d="M259.42 133.75h-7.52v8.18h5.94c1.1 0 1.98-.92 1.98-2.04v-6.18c-.13.02-.26.04-.4.04z"/><path id="rmorc" d="M259.4 128.02h-4.2c-.4.43-.87.79-1.4 1.06l.91.94a1.24 1.24 0 0 1 0 1.74 1.16 1.16 0 0 1-1.68 0l-1.13-1.19v2.36h7.5a1.2 1.2 0 0 0 1.2-1.23v-2.45a1.2 1.2 0 0 0-1.2-1.23z"/><path id="rmord" d="M249.96 131.75a1.16 1.16 0 0 1-1.68 0 1.24 1.24 0 0 1-.35-.87c0-.32.12-.63.35-.86l.9-.94a5.17 5.17 0 0 1-1.39-1.06h-4.2a1.2 1.2 0 0 0-1.2 1.23v2.45c0 .68.54 1.23 1.2 1.23h7.5v-2.36z"/><path id="rmore" d="M254.92 125.4a3.62 3.62 0 0 1-3 2.6 3.68 3.68 0 0 1 2.62-3.11.4.4 0 0 1 .32.17c.04.05.1.18.06.33zm-6.83 0a.39.39 0 0 1 .06-.34.4.4 0 0 1 .31-.17l.1.01a3.68 3.68 0 0 1 2.52 3.1 3.62 3.62 0 0 1-3-2.6zm7.4-.83c-.3-.4-.81-.6-1.27-.45a4.41 4.41 0 0 0-2.72 2.48 4.41 4.41 0 0 0-2.71-2.48c-.46-.14-.98.04-1.28.45-.22.3-.29.7-.18 1.06a4.43 4.43 0 0 0 3.31 3.11l-1.8 1.86a.42.42 0 0 0 0 .57.39.39 0 0 0 .57 0l2.1-2.16 2.09 2.16a.39.39 0 0 0 .56 0 .42.42 0 0 0 0-.57l-1.8-1.86a4.43 4.43 0 0 0 3.32-3.11c.1-.37.03-.75-.19-1.06z"/></defs><g><g transform="translate(-242 -124)"><g><g><use fill="#4a9aeb" xlink:href="#rmora"/></g><g><use fill="#4a9aeb" xlink:href="#rmorb"/></g></g><g><use fill="#4a9aeb" xlink:href="#rmorc"/></g><g><use fill="#4a9aeb" xlink:href="#rmord"/></g><g><use fill="#4a9aeb" xlink:href="#rmore"/></g></g></g></svg>