<svg xmlns="http://www.w3.org/2000/svg" xmlns:xlink="http://www.w3.org/1999/xlink" width="18" height="15" viewBox="0 0 18 15"><defs><path id="5clla" d="M214.77 719.04c-.53 0-.44-.2-.63-.7l-1.56-5.13 9.71-6.02 1.14.3-.94 2.56z"/><path id="5cllb" d="M214.77 719.03c.42 0 .6-.19.83-.4l4.94-4.76-2.81-.68-2.61 1.63-.35 4.08z"/><path id="5cllc" d="M215.05 714.88l6.65 4.86c.75.4 1.3.2 1.5-.7l2.7-12.64c.28-1.1-.42-1.59-1.15-1.26l-15.88 6.07c-1.09.44-1.08 1.04-.2 1.3l4.08 1.26 9.44-5.9c.44-.27.85-.12.52.18z"/></defs><g><g transform="translate(-208 -705)"><g><g><use fill="#366390" xlink:href="#5clla"/></g><g><use fill="#277cb1" xlink:href="#5cllb"/></g><g><use fill="#4a9aeb" xlink:href="#5cllc"/></g></g></g></g></svg>