<svg xmlns="http://www.w3.org/2000/svg" xmlns:xlink="http://www.w3.org/1999/xlink" width="24" height="16" viewBox="0 0 24 16"><defs><path id="abtaa" d="M788.88 471.82a.5.5 0 0 1-.7.06l-6-5a.5.5 0 0 1 .64-.76l6 5c.21.17.24.49.06.7zm-9.88-4.8a2.8 2.8 0 0 1-1.58-.5l-8.2-5.6a.5.5 0 0 1 .56-.83l8.2 5.6a1.8 1.8 0 0 0 2.04 0l8.2-5.6a.5.5 0 0 1 .56.82l-8.2 5.61a2.8 2.8 0 0 1-1.58.5zm-3.18-.14l-6 5a.5.5 0 0 1-.7-.06.5.5 0 0 1 .06-.7l6-5a.5.5 0 0 1 .64.77zM788.5 458h-19a2.5 2.5 0 0 0-2.5 2.5v11a2.5 2.5 0 0 0 2.5 2.5h19a2.5 2.5 0 0 0 2.5-2.5v-11a2.5 2.5 0 0 0-2.5-2.5z"/></defs><g><g transform="translate(-767 -458)"><g><use fill="#fff" xlink:href="#abtaa"/></g></g></g></svg>