<svg xmlns="http://www.w3.org/2000/svg" xmlns:xlink="http://www.w3.org/1999/xlink" width="30" height="25" viewBox="0 0 30 25"><defs><path id="7nrja" d="M908.92 630.94c.38 8.63-6.04 18.24-17.42 18.24-3.46 0-6.68-1.01-9.39-2.75 3.25.38 6.5-.52 9.07-2.54a6.13 6.13 0 0 1-5.72-4.26c.96.18 1.9.13 2.76-.1a6.14 6.14 0 0 1-4.9-6.1c.82.46 1.76.74 2.77.77a6.14 6.14 0 0 1-1.9-8.19 17.38 17.38 0 0 0 12.63 6.41 6.14 6.14 0 0 1 10.44-5.6c1.4-.27 2.7-.78 3.89-1.48a6.14 6.14 0 0 1-2.7 3.39c1.24-.15 2.42-.48 3.52-.97a12.45 12.45 0 0 1-3.05 3.18"/></defs><g><g transform="translate(-882 -625)"><use fill="#fff" xlink:href="#7nrja"/></g></g></svg>