<svg xmlns="http://www.w3.org/2000/svg" xmlns:xlink="http://www.w3.org/1999/xlink" width="24" height="18" viewBox="0 0 24 18"><defs><path id="dba0a" d="M49.33 1026l-.46-1.05c1.04-.13 2-.39 2.65-.83l.75 1.89zm-4.98-2.36l-.04-.03-.27-.85c.74.2 1.8.3 2.9.29l.44 1c-1.42.02-2.74-.16-3.03-.4zm-4.86 1.36a2 2 0 1 1 .01-4 2 2 0 0 1 0 4zm5.67-6.03l1.35 3.08c-1.27-.01-2.4-.18-2.66-.4a.5.5 0 0 0-.2-.12l-.53-1.74zm5.6 3.3l.36.89c-.5.48-1.54.73-2.67.84l-.44-1a7.34 7.34 0 0 0 2.76-.73zm2.7 4.04l-2-5a.5.5 0 0 0-.82-.17c-.54.55-1.78.8-3.05.89l-1.5-3.43 1.39-.56c-.96-2.9-4.26-5.09-7.74-5.09-4.68 0-8.06 3.42-9.24 6.63.03 3.53 2 6.73 5.16 8.36.07.04.14.06.22.06H45a.5.5 0 0 0 .48-.65l-.1-.35h1.13a.5.5 0 0 0 0-1h-1.45l-.38-1.21a11.44 11.44 0 0 0 3.14.25l.73 1.66c.08.18.26.3.46.3h4a.5.5 0 0 0 .46-.69z"/><path id="dba0b" d="M39.75 1011.95c3.93 0 7.54 2.4 8.67 5.72l1.77-.7a.5.5 0 0 0-.37-.93l-.85.34A9.53 9.53 0 0 0 40 1010a9.52 9.52 0 0 0-9.08 6.68 10.86 10.86 0 0 1 8.83-4.73z"/></defs><g><g transform="translate(-30 -1010)"><g><use fill="#4a9aeb" xlink:href="#dba0a"/></g><g><use fill="#4a9aeb" xlink:href="#dba0b"/></g></g></g></svg>