<svg xmlns="http://www.w3.org/2000/svg" xmlns:xlink="http://www.w3.org/1999/xlink" width="24" height="24" viewBox="0 0 24 24"><defs><path id="enzwa" d="M30 219a12 12 0 1 1 24 0 12 12 0 0 1-24 0z"/><path id="enzwb" d="M34.46 216.07h2.43l-1.28 3.97c-.09.28.1.51.42.51a.8.8 0 0 0 .72-.5l1.27-3.98h2.15l-1.47 5.08c-.13.45-.64.81-1.14.81h-3.72c-.6 0-.96-.43-.8-.96l1.42-4.93z"/><path id="enzwc" d="M42.87 218.24h2.49l-.45 1.38h-2.5l-.69 2.34h-2.34l1.15-3.72z"/><path id="enzwd" d="M47.71 216.01h3.17c.46 0 1.25.35 1.09.9l-.06.21h-2.83c-.15 0-.3.11-.34.24l-.87 2.95c-.04.14.04.24.19.24h2.84l-.2.7c-.13.41-.6.74-1.06.74H46.3c-.6 0-.95-.42-.8-.94l1.23-4.34c.1-.38.55-.7.98-.7z"/><path id="enzwe" d="M45.6 217.44h-4.82l.45-1.44h4.83l-.45 1.44z"/></defs><g><g transform="translate(-30 -207)"><g><use fill="#fff" xlink:href="#enzwa"/></g><g><g><use xlink:href="#enzwb"/></g><g><use xlink:href="#enzwc"/></g><g><use xlink:href="#enzwd"/></g><g><use xlink:href="#enzwe"/></g></g></g></g></svg>