<?xml version="1.0" standalone="no"?>
<!DOCTYPE svg PUBLIC "-//W3C//DTD SVG 20010904//EN"
 "http://www.w3.org/TR/2001/REC-SVG-20010904/DTD/svg10.dtd">
<svg version="1.0" xmlns="http://www.w3.org/2000/svg"
 width="194.000000pt" height="215.000000pt" viewBox="0 0 194.000000 215.000000"
 preserveAspectRatio="xMidYMid meet">
<metadata>
Created by potrace 1.15, written by Peter Selinger 2001-2017
</metadata>
<g transform="translate(0.000000,215.000000) scale(0.100000,-0.100000)"
fill="#000000" stroke="none">
<path d="M295 2087 c-90 -30 -181 -111 -225 -202 -22 -43 -25 -64 -25 -155 0
-96 2 -110 29 -162 37 -73 101 -137 174 -174 52 -27 66 -29 162 -29 94 0 111
3 160 27 195 96 272 339 165 522 -34 58 -108 126 -170 156 -60 29 -205 38
-270 17z m85 -192 l0 -125 -131 0 -131 0 6 28 c24 96 90 169 191 209 65 25 65
26 65 -112z m169 92 c56 -28 115 -95 135 -154 9 -26 16 -50 16 -55 0 -4 -54
-8 -120 -8 l-120 0 0 126 c0 142 -6 137 89 91z m-169 -422 c0 -139 3 -135 -73
-109 -83 28 -160 115 -182 207 l-7 27 131 0 131 0 0 -125z m315 93 c-21 -94
-115 -191 -207 -212 l-28 -6 0 125 0 125 121 0 121 0 -7 -32z"/>
<path d="M1420 1464 c-63 -37 -365 -206 -670 -377 -305 -171 -557 -314 -558
-319 -2 -4 -10 -8 -18 -8 -21 0 -14 -70 16 -145 5 -11 11 -28 14 -38 3 -9 15
-17 26 -17 19 0 119 45 130 59 3 3 21 15 40 25 248 135 893 493 920 510 19 12
100 58 179 101 l143 78 -6 45 c-3 25 -12 53 -19 61 -8 9 -21 33 -31 54 -10 21
-24 37 -34 37 -9 0 -69 -30 -132 -66z"/>
<path d="M1270 764 c-250 -223 -484 -434 -520 -469 -36 -35 -82 -77 -102 -95
-44 -38 -51 -75 -15 -89 12 -5 34 -21 49 -35 15 -14 31 -26 36 -26 6 0 12 -7
16 -15 3 -8 16 -15 29 -15 18 0 59 34 148 123 69 67 308 295 532 506 352 333
407 388 407 413 0 16 -6 31 -15 34 -8 3 -17 14 -20 25 -4 10 -15 19 -25 19
-10 0 -20 7 -24 15 -3 8 -13 15 -23 15 -10 0 -223 -183 -473 -406z"/>
</g>
</svg>
