<svg xmlns="http://www.w3.org/2000/svg" xmlns:xlink="http://www.w3.org/1999/xlink" width="24" height="24" viewBox="0 0 24 24"><defs><path id="m7qqa" d="M45.33 1092.33a4.2 4.2 0 0 1-.86 3.37c-1 1.36-2.7 2.4-4.16 2.52-2.84.25-5.06 1.65-5.8 3.65-.72 1.98.08 4.32 2.19 6.43 2.1 2.1 4.45 2.9 6.42 2.18 2-.73 3.4-2.95 3.65-5.8a6.35 6.35 0 0 1 2.51-4.16 4.2 4.2 0 0 1 3.38-.86H53a11.42 11.42 0 0 0-7.67-7.68v.35z"/><path id="m7qqb" d="M52.6 1100.66h-.11a3.27 3.27 0 0 0-2.63.67c-1.12.83-2 2.27-2.1 3.44-.28 3.24-1.93 5.79-4.3 6.65-.6.22-1.21.32-1.83.32-1.87 0-3.85-.94-5.64-2.73v-.01c-2.4-2.4-3.27-5.11-2.42-7.46.87-2.38 3.42-4.03 6.65-4.3 1.17-.1 2.61-1 3.44-2.12a3.28 3.28 0 0 0 .66-2.73v-.65A11.49 11.49 0 1 0 42 1114.5a11.46 11.46 0 0 0 11.25-13.83h-.66z"/></defs><g><g transform="translate(-30 -1091)"><g><use fill="#4a9aeb" xlink:href="#m7qqa"/></g><g><use fill="#4a9aeb" xlink:href="#m7qqb"/></g></g></g></svg>