<?xml version="1.0" encoding="UTF-8"?>
<svg width="24px" height="24px" viewBox="0 0 24 24" version="1.1" xmlns="http://www.w3.org/2000/svg" xmlns:xlink="http://www.w3.org/1999/xlink">
    <!-- Generator: Sketch 52.1 (67048) - http://www.bohemiancoding.com/sketch -->
    <title>boxing-ring</title>
    <desc>Created with Sketch.</desc>
    <g id="PC" stroke="none" stroke-width="1" fill="none" fill-rule="evenodd">
        <g id="Главная" transform="translate(-29.000000, -306.000000)" fill="#4A9AEB">
            <g id="Основные-турниры" transform="translate(14.000000, 254.000000)">
                <g id="1" transform="translate(0.000000, 42.000000)">
                    <g id="boxing-ring" transform="translate(15.000000, 10.000000)">
                        <polygon id="Path" points="14 15.946 24 9.547 24 9.498 24 9.497 24 7.733 23 8.373 23 8.75 22.644 8.602 21.618 9.258 22.423 9.593 20.603 10.751 19.804 10.419 14 14.133"></polygon>
                        <polygon id="Path" points="14 18.946 24 12.547 24 12.5 24 10.733 23 11.373 23 11.75 22.644 11.602 14 17.133"></polygon>
                        <path d="M12,13.691 L12,14.809 L4.203,10.911 L3.359,11.371 L1.579,10.481 L2.423,10.021 L1.334,9.476 L1,9.658 L1,9.309 L0,8.809 L0,10.691 L12,16.691 L12,17.809 L1.334,12.476 L1,12.658 L1,12.309 L0,11.809 L0,13.5 L0,13.691 L12.055,19.719 C12.137,19.884 12.303,20 12.5,20 C12.741,20 12.933,19.826 12.98,19.599 L13.015,19.576 C13.011,19.551 13,19.527 13,19.5 L13,17.773 L13,16.586 L13,14.773 L13,13.586 L13,12.5 L13,11.5 C13,11.224 13.224,11 13.5,11 C13.776,11 14,11.224 14,11.5 L14,12.946 L24,6.546 L24,6.498 L24,6.497 L24,5.5 C24,5.224 23.776,5 23.5,5 C23.224,5 23,5.224 23,5.5 L23,5.75 L12,1.167 L12,0.5 C12,0.224 11.776,0 11.5,0 C11.224,0 11,0.224 11,0.5 L11,1.203 L1,6.658 L1,6.5 C1,6.224 0.776,6 0.5,6 C0.224,6 0,6.224 0,6.5 L0,7.691 L12,13.691 Z M12,2.25 L22.423,6.593 L20.603,7.751 L12,4.167 L12,2.25 Z M12,5.25 L19.574,8.406 L17.754,9.564 L12,7.167 L12,5.25 Z M11,7.203 L6.229,9.806 L4.449,8.916 L11,5.342 L11,7.203 Z M11,2.342 L11,4.203 L3.36,8.371 L1.58,7.481 L11,2.342 Z" id="Shape" fill-rule="nonzero"></path>
                        <path d="M12.77,20.921 C12.687,20.974 12.594,21 12.5,21 C12.424,21 12.347,20.982 12.276,20.947 L0,14.809 L0,17.5 C0,17.689 0.107,17.862 0.276,17.947 L12.276,23.947 C12.347,23.982 12.424,24 12.5,24 C12.594,24 12.687,23.974 12.769,23.922 L23.769,16.922 C23.913,16.83 24,16.671 24,16.5 L24,13.733 L12.77,20.921 Z" id="Path"></path>
                    </g>
                </g>
            </g>
        </g>
    </g>
</svg>