<svg xmlns="http://www.w3.org/2000/svg" xmlns:xlink="http://www.w3.org/1999/xlink" width="16" height="24" viewBox="0 0 16 24"><defs><path id="joawa" d="M46.06 491l-1.42 1.03.54 1.67a.5.5 0 0 1-.47.66.5.5 0 0 1-.3-.1L43 493.23l-1.42 1.03a.5.5 0 0 1-.59 0 .5.5 0 0 1-.18-.56l.54-1.67-1.42-1.03a.5.5 0 1 1 .3-.9h1.75l.54-1.67c.13-.41.81-.41.95 0l.54 1.67h1.75a.5.5 0 0 1 .3.9zM43 486a5.5 5.5 0 1 0 .01 11.01A5.5 5.5 0 0 0 43 486z"/><path id="joawb" d="M42.67 473H39a.5.5 0 0 0-.46.3l-3 7a.5.5 0 0 0 .18.62l2.65 1.76z"/><path id="joawc" d="M50.46 480.3l-3-7-.03-.03-.01-.04c-.02-.04-.06-.06-.1-.09l-.06-.06a.5.5 0 0 0-.23-.07l-.02-.01H43.76l-4.55 10.24 2.5 1.68a.5.5 0 0 0 .73-.21l.22-.47 3.37-7.94a.5.5 0 1 1 .92.4l-3.4 8.02a.5.5 0 0 0 .44.28c.1 0 .2-.03.28-.08l6-4a.5.5 0 0 0 .18-.62z"/></defs><g><g transform="translate(-35 -473)"><g><use fill="#4a9aeb" xlink:href="#joawa"/></g><g><use fill="#4a9aeb" xlink:href="#joawb"/></g><g><use fill="#4a9aeb" xlink:href="#joawc"/></g></g></g></svg>