<svg xmlns="http://www.w3.org/2000/svg" xmlns:xlink="http://www.w3.org/1999/xlink" width="20" height="22" viewBox="0 0 20 22"><defs><path id="969pa" d="M48.09 325.25a2.74 2.74 0 0 1-2.72-2.75 2.74 2.74 0 0 1 2.72-2.75c1.5 0 2.72 1.23 2.72 2.75a2.74 2.74 0 0 1-2.72 2.75zm5.32 1.97l-2.46-2.48a3.65 3.65 0 0 0-2.86-5.9c-2 0-3.63 1.64-3.63 3.66a3.65 3.65 0 0 0 3.63 3.67c.84 0 1.6-.3 2.22-.79l2.46 2.49a.45.45 0 0 0 .64 0 .46.46 0 0 0 0-.65zm-14.87-17.55h8.18c.25 0 .45-.2.45-.46v-.92c0-.76-.6-1.37-1.36-1.37H44.2a1.81 1.81 0 0 0-1.57-.92c-.65 0-1.25.36-1.57.92h-1.6c-.76 0-1.37.61-1.37 1.37v.92c0 .25.2.46.45.46zm11.87 17.12a.45.45 0 0 0-.5-.1c-.58.26-1.2.4-1.82.4a4.57 4.57 0 0 1-4.55-4.59 4.57 4.57 0 0 1 6.61-4.08.45.45 0 0 0 .66-.4v-8.81c0-.76-.61-1.38-1.36-1.38h-.91c-.25 0-.45.2-.45.46v.92c0 .76-.62 1.37-1.37 1.37h-8.18c-.75 0-1.36-.61-1.36-1.37v-.92c0-.25-.2-.46-.46-.46h-.9c-.76 0-1.37.62-1.37 1.38v17.42c0 .75.61 1.37 1.36 1.37h14.55c.25 0 .45-.2.45-.46v-.16a.46.46 0 0 0-.13-.32z"/></defs><g><g transform="translate(-34 -306)"><g><use fill="#4a9aeb" xlink:href="#969pa"/></g></g></g></svg>