<svg xmlns="http://www.w3.org/2000/svg" xmlns:xlink="http://www.w3.org/1999/xlink" width="24" height="24" viewBox="0 0 24 24"><defs><path id="55rca" d="M30 1070a3 3 0 1 1 6 0 3 3 0 0 1-6 0z"/><path id="55rcb" d="M48.18 1056.71a13.23 13.23 0 0 0-2.93-4.88 9.92 9.92 0 0 0-6.42-2.82 8.37 8.37 0 0 0-6.48 2.34c-3.31 3.3-3.09 9.34.48 12.9 1.2 1.2 2.93 2.25 4.88 2.93a.5.5 0 0 0 .52-.12l9.83-9.83a.5.5 0 0 0 .12-.52z"/><path id="55rcc" d="M53.83 1069.12l-5.47-4.68c.65-1.48.8-3.34.44-5.42a.5.5 0 0 0-.85-.26l-8.2 8.2a.5.5 0 1 0 .27.85c2.08.35 3.94.2 5.42-.45l4.68 5.47a.5.5 0 0 0 .6.12 7.25 7.25 0 0 0 3.23-3.23.5.5 0 0 0-.12-.6z"/></defs><g><g transform="translate(-30 -1049)"><g><use fill="#4a9aeb" xlink:href="#55rca"/></g><g><use fill="#4a9aeb" xlink:href="#55rcb"/></g><g><use fill="#4a9aeb" xlink:href="#55rcc"/></g></g></g></svg>