<svg xmlns="http://www.w3.org/2000/svg" xmlns:xlink="http://www.w3.org/1999/xlink" width="20" height="24" viewBox="0 0 20 24"><defs><path id="wvt0a" d="M30 1177a1.5 1.5 0 1 1 3 0 1.5 1.5 0 0 1-3 0z"/><path id="wvt0b" d="M34 1177a1.5 1.5 0 1 1 3 0 1.5 1.5 0 0 1-3 0z"/><path id="wvt0c" d="M38 1177a1.5 1.5 0 1 1 3 0 1.5 1.5 0 0 1-3 0z"/><path id="wvt0d" d="M32 1181a1.5 1.5 0 1 1 3 0 1.5 1.5 0 0 1-3 0z"/><path id="wvt0e" d="M36 1181a1.5 1.5 0 1 1 3 0 1.5 1.5 0 0 1-3 0z"/><path id="wvt0f" d="M34 1185a1.5 1.5 0 1 1 3 0 1.5 1.5 0 0 1-3 0z"/><path id="wvt0g" d="M36 1189a1.5 1.5 0 1 1 3 0 1.5 1.5 0 0 1-3 0z"/><path id="wvt0h" d="M38 1185a1.5 1.5 0 1 1 3 0 1.5 1.5 0 0 1-3 0z"/><path id="wvt0i" d="M40 1181a1.5 1.5 0 1 1 3 0 1.5 1.5 0 0 1-3 0z"/><path id="wvt0j" d="M42 1177a1.5 1.5 0 1 1 3 0 1.5 1.5 0 0 1-3 0z"/><path id="wvt0k" d="M49.72 1179.55l-2-1a.5.5 0 0 0-.66.22l-1.34 2.53 2.95 1.48 1.28-2.56a.5.5 0 0 0-.23-.67z"/><path id="wvt0l" d="M37.06 1197.77a.5.5 0 0 0 .01.49.5.5 0 0 0 .43.24h3a.5.5 0 0 0 .45-.28l7.27-14.55-2.96-1.48z"/></defs><g><g transform="translate(-30 -1175)"><g><use fill="#4a9aeb" xlink:href="#wvt0a"/></g><g><use fill="#4a9aeb" xlink:href="#wvt0b"/></g><g><use fill="#4a9aeb" xlink:href="#wvt0c"/></g><g><use fill="#4a9aeb" xlink:href="#wvt0d"/></g><g><use fill="#4a9aeb" xlink:href="#wvt0e"/></g><g><use fill="#4a9aeb" xlink:href="#wvt0f"/></g><g><use fill="#4a9aeb" xlink:href="#wvt0g"/></g><g><use fill="#4a9aeb" xlink:href="#wvt0h"/></g><g><use fill="#4a9aeb" xlink:href="#wvt0i"/></g><g><use fill="#4a9aeb" xlink:href="#wvt0j"/></g><g><use fill="#4a9aeb" xlink:href="#wvt0k"/></g><g><use fill="#4a9aeb" xlink:href="#wvt0l"/></g></g></g></svg>