<svg xmlns="http://www.w3.org/2000/svg" xmlns:xlink="http://www.w3.org/1999/xlink" width="24" height="24" viewBox="0 0 24 24"><defs><path id="3m2ia" d="M53.32 733.38a1.56 1.56 0 0 0-1.42-.42l-2.8-2.8-2.37-2.96-2.3 2.3 2.96 2.36 2.8 2.8a1.56 1.56 0 0 0 2.63 1.43l.5-.5c.61-.61.61-1.6 0-2.2z"/><path id="3m2ib" d="M36.23 714.05a3.58 3.58 0 0 0-4.99-.04 3.47 3.47 0 0 0 .05 4.98l12.35 9.87 2.46-2.46z"/><path id="3m2ic" d="M36.07 731.62a2.46 2.46 0 0 0-.02 3.71l.36.36c.5-.6.81-1.36.81-2.2 0-.84-.31-1.6-.8-2.2z"/><path id="3m2id" d="M34.23 733.48c0-.98.42-1.92 1.16-2.59l.3-.3a3.44 3.44 0 0 0-3.92.01l.3.3a3.48 3.48 0 0 1-.01 5.18l-.29.28a3.44 3.44 0 0 0 3.93.01l-.32-.31a3.48 3.48 0 0 1-1.15-2.58z"/><path id="3m2ie" d="M31.39 731.63l-.36-.35-.13.14-.01.02a3.47 3.47 0 0 0 0 4.08l.01.02c.04.06.1.1.13.15l.34-.34a2.49 2.49 0 0 0 .01-3.72z"/></defs><g><g transform="translate(-30 -713)"><g><use fill="#4a9aeb" xlink:href="#3m2ia"/></g><g><use fill="#4a9aeb" xlink:href="#3m2ib"/></g><g><use fill="#4a9aeb" xlink:href="#3m2ic"/></g><g><use fill="#4a9aeb" xlink:href="#3m2id"/></g><g><use fill="#4a9aeb" xlink:href="#3m2ie"/></g></g></g></svg>