<svg xmlns="http://www.w3.org/2000/svg" xmlns:xlink="http://www.w3.org/1999/xlink" width="25" height="25" viewBox="0 0 25 25"><defs><path id="9es5a" d="M1100.78 44.63l11.7 5.85 11.7-5.85V57.1l-11.7 5.85-11.7-5.85z"/><path id="9es5b" d="M1100.78 45.8v3.64l11.66 5.72 11.74-5.73V45.8l-11.7 5.73z"/><path id="9es5c" d="M1112.48 62.96V50.48l-10.92-5.46h-.78V57.1z"/><path id="9es5d" d="M1100.78 45.8v3.64l11.66 5.72.04-.02V51.5v.02z"/><path id="9es5e" d="M1100 44.22l12.48-6.22 12.48 6.22v.82l-12.48 6.22-12.48-6.2z"/><path id="9es5f" d="M1116.8 42.37c-.42.27-1.14.6-2.37.7.45-.96 1.29-2.34 2.36-2.34.45 0 .76.25.76.58 0 .28-.2.69-.74 1.06zm-8.65 0c-.55-.37-.74-.78-.74-1.06 0-.33.31-.58.76-.58 1.05 0 1.9 1.38 2.36 2.34a5.03 5.03 0 0 1-2.38-.7zm11.48-2.4c-.4-.74-1.28-1.19-2.32-1.19-2.35 0-4.01 2.2-4.83 3.6-.82-1.4-2.5-3.58-4.84-3.58-1.5 0-2.57.92-2.57 2.16 0 2.23 2.44 3.67 7.33 3.67 4.9 0 7.49-1.85 7.49-3.65 0-.35-.08-.7-.26-1.01z"/><path id="9es5g" d="M1100 44.24l12.48 6.1 12.48-6.1v4.04l-12.52 6.1-12.44-6.1z"/><path id="9es5h" d="M1117.16 48.6v-.45l-4.68-2.54-4.68 2.54v.45l-3.12-1.37v-.62l7.64-4.05.16.08.15-.08 7.65 4.03v.62z"/><path id="9es5i" d="M1117.16 48.14V60.6l3.12-1.56V46.58z"/><path id="9es5j" d="M1104.68 59.06l3.12 1.56V48.16l-3.12-1.58v12.48z"/></defs><g><g transform="translate(-1100 -38)"><g><use fill="#db5449" xlink:href="#9es5a"/></g><g><use fill="#c54b42" xlink:href="#9es5b"/></g><g><use fill="#d05045" xlink:href="#9es5c"/></g><g><use fill="#bb483e" xlink:href="#9es5d"/></g><g><use fill="#eb6258" xlink:href="#9es5e"/></g><g><use fill="#efefef" xlink:href="#9es5f"/></g><g><use fill="#e2574c" xlink:href="#9es5g"/></g><g><use fill="#efefef" xlink:href="#9es5h"/></g><g><use fill="#dcdcdc" xlink:href="#9es5i"/></g><g><use fill="#d1d1d1" xlink:href="#9es5j"/></g></g></g></svg>