<svg xmlns="http://www.w3.org/2000/svg" xmlns:xlink="http://www.w3.org/1999/xlink" width="24" height="24" viewBox="0 0 24 24"><defs><path id="4ftwa" d="M49.7 1133.81c-.42-.53-1.15-.81-2.2-.81-.93 0-1.7.4-2.24 1.17-.97 1.38-.97 3.73-.47 5.66.78-2.12 2.93-4.66 4.91-6.02z"/><path id="4ftwb" d="M44.52 1140.74l.02-.08-6.24 5.35c-1.81.27-3.11 4.04-3.28 5.26l-4.87 4.88a.5.5 0 0 0 .7.7l4.88-4.87c1.22-.17 4.99-1.47 5.26-3.28l5.05-5.9-1.02-.68c-.43-.4-.58-.9-.5-1.38z"/><path id="4ftwc" d="M53.1 1137.21a1.72 1.72 0 0 0-.83-.29c.38-.51.66-1 .8-1.43.22-.71 0-1.12-.22-1.34a1.02 1.02 0 0 0-.4-.24 1.17 1.17 0 0 0-.28-.05l-.14-.01-.2.02-.17.04c-1.96.53-5.7 4.42-6.15 7a.5.5 0 0 0 .14.44l1.15.76c.89.27 1.9.44 2.87.44 1.2 0 2.35-.24 3.16-.81a2.63 2.63 0 0 0 1.17-2.24c0-1.1-.3-1.87-.9-2.29z"/></defs><g><g transform="translate(-30 -1133)"><g><use fill="#4a9aeb" xlink:href="#4ftwa"/></g><g><use fill="#4a9aeb" xlink:href="#4ftwb"/></g><g><use fill="#4a9aeb" xlink:href="#4ftwc"/></g></g></g></svg>