<svg xmlns="http://www.w3.org/2000/svg" xmlns:xlink="http://www.w3.org/1999/xlink" width="30" height="31" viewBox="0 0 30 31"><defs><path id="f0gya" d="M1027.85 1148.52c-.26-.1-.47-.02-.57.16-.15.28-.04.82.26 1.3.31.48.58.72.79.72.19 0 .38-.25.29-.85-.06-.36-.26-1.14-.77-1.33zm-3.06 2.26c-.27 0-.5.1-.65.27-.36.44-.2 1.23.36 1.72.24.2.6.33.94.33a1 1 0 0 0 .82-.36c.33-.44.14-1.05-.47-1.57-.3-.25-.66-.4-1-.4zm-.03 5.4c2.64 0 5.51.9 8.69 3.72.31.28.74-.07.46-.42-3.12-3.94-6-4.69-8.88-5.32a9.53 9.53 0 0 1-6.6-4.93c-.25-.43-.36-.36-.38.2-.03.68.02 1.58.17 2.46h-.43a9.12 9.12 0 1 1 9.06-8.04c-.66-.12-1.97-.14-2.9-.06-.34.03-.3.2-.03.24 3.01.54 5.09 2.41 5.56 5.8.01.08.11.1.15.03a13.79 13.79 0 1 0-11.84 6.71c2.02 0 4.03-.39 6.97-.39z"/></defs><g><g transform="translate(-1004 -1129)"><g><g><use fill="#e9832c" xlink:href="#f0gya"/></g></g></g></g></svg>