<svg xmlns="http://www.w3.org/2000/svg" xmlns:xlink="http://www.w3.org/1999/xlink" width="43" height="14" viewBox="0 0 43 14"><defs><path id="3c8aa" d="M690.04 1150.68l2.16-13.35h3.45l-2.16 13.35h-3.45"/><path id="3c8ab" d="M705.96 1137.66a8.5 8.5 0 0 0-3.08-.56c-3.4 0-5.8 1.81-5.82 4.4-.02 1.92 1.71 3 3.02 3.63 1.34.66 1.79 1.07 1.78 1.66 0 .9-1.07 1.3-2.06 1.3a6.9 6.9 0 0 1-3.24-.7l-.44-.21-.48 2.99c.8.37 2.29.7 3.83.71 3.62 0 5.97-1.79 6-4.56 0-1.52-.91-2.68-2.9-3.63-1.2-.62-1.94-1.03-1.93-1.65 0-.56.63-1.15 1.97-1.15a6.03 6.03 0 0 1 2.58.51l.3.15.47-2.9"/><path id="3c8ac" d="M714.8 1137.34h-2.67c-.82 0-1.44.24-1.8 1.1l-5.11 12.24h3.61l.73-2h4.4l.42 2h3.2l-2.79-13.34zm-4.26 8.6l1.37-3.73c-.02.04.29-.77.46-1.27l.23 1.15.8 3.84h-2.86z"/><path id="3c8ad" d="M687.16 1137.34l-3.37 9.1-.36-1.85a10.25 10.25 0 0 0-4.77-5.6l3.08 11.68h3.64l5.42-13.33h-3.64"/><path id="3c8ae" d="M680.66 1137.33h-5.54l-.05.28c4.32 1.1 7.17 3.78 8.36 6.98l-1.2-6.13c-.22-.85-.82-1.1-1.57-1.13"/></defs><g><g transform="translate(-675 -1137)"><g><use fill="#fff" xlink:href="#3c8aa"/></g><g><use fill="#fff" xlink:href="#3c8ab"/></g><g><use fill="#fff" xlink:href="#3c8ac"/></g><g><use fill="#fff" xlink:href="#3c8ad"/></g><g><use fill="#fff" xlink:href="#3c8ae"/></g></g></g></svg>