<svg xmlns="http://www.w3.org/2000/svg" xmlns:xlink="http://www.w3.org/1999/xlink" width="46" height="28" viewBox="0 0 46 28"><defs><path id="xchja" d="M774.29 1144.34a13.66 13.66 0 1 1-27.32 0 13.66 13.66 0 0 1 27.32 0"/><path id="xchjb" d="M778.97 1130.68a13.61 13.61 0 0 0-10.55 4.98h2.76c.38.46.72.94 1.04 1.45h-4.84c-.3.46-.55.94-.79 1.44h6.42c.22.47.41.96.58 1.45H766c-.15.47-.29.95-.4 1.45h8.37a13.76 13.76 0 0 1-.4 7.23h-7.57c.17.5.36.98.58 1.45h6.42c-.24.5-.5.98-.79 1.44h-4.84c.31.5.66.99 1.04 1.45h2.76c-.43.51-.89 1-1.38 1.44a13.66 13.66 0 1 0 9.17-23.79"/><path id="xchjc" d="M758.52 1148.35h-1.23l.03-.58c-.38.46-.88.68-1.56.68-.8 0-1.35-.63-1.35-1.54 0-1.37.96-2.17 2.6-2.17.17 0 .39.01.6.04.05-.19.07-.27.07-.37 0-.37-.26-.5-.95-.5-.73-.02-1.33.17-1.57.25l.2-1.27a5.9 5.9 0 0 1 1.78-.3c1.27 0 1.94.57 1.94 1.65 0 .3-.04.65-.12 1.12-.13.81-.4 2.57-.44 3zm-1.08-2.52a2.54 2.54 0 0 0-.33-.02c-.84 0-1.27.3-1.27.86 0 .36.21.58.54.58.6 0 1.04-.58 1.06-1.42z"/><path id="xchjd" d="M753.79 1148.35h-1.49l.85-5.33-1.9 5.33h-1l-.13-5.3-.9 5.3h-1.38l1.16-6.93h2.13l.13 3.88 1.3-3.88h2.37l-1.14 6.93"/><path id="xchje" d="M781.88 1148.35h-1.23l.03-.58c-.38.46-.88.68-1.55.68-.81 0-1.36-.63-1.36-1.54 0-1.37.96-2.17 2.6-2.17.17 0 .39.01.6.04.05-.19.07-.27.07-.37 0-.37-.26-.5-.96-.5-.72-.02-1.32.17-1.57.25l.21-1.27a5.9 5.9 0 0 1 1.78-.3c1.27 0 1.94.57 1.94 1.65 0 .3-.04.65-.12 1.12-.13.81-.4 2.57-.44 3zm-1.08-2.52a2.53 2.53 0 0 0-.33-.02c-.84 0-1.27.3-1.27.86 0 .36.21.58.54.58.6 0 1.04-.58 1.06-1.42z"/><path id="xchjf" d="M765.1 1148.25c-.4.13-.71.18-1.06.18-.75 0-1.17-.43-1.17-1.23 0-.25.11-.9.2-1.5.1-.53.65-3.84.65-3.84h1.47l-.17.85h.9l-.21 1.35h-.9c-.17 1.07-.4 2.4-.41 2.58 0 .3.15.42.5.42.17 0 .3-.02.4-.05l-.2 1.24"/><path id="xchjg" d="M768.8 1144.89c.01-.12.16-1.02-.68-1.02-.47 0-.8.36-.94 1.02h1.62zm.83 3.33c-.5.15-1 .23-1.5.23-1.66 0-2.52-.87-2.52-2.52 0-1.92 1.1-3.34 2.58-3.34 1.22 0 2 .8 2 2.04 0 .41-.06.82-.19 1.38h-2.94c-.1.82.43 1.16 1.29 1.16.52 0 1-.1 1.53-.35l-.25 1.4z"/><path id="xchjh" d="M759.4 1144.49c0 .71.35 1.2 1.14 1.57.6.28.7.37.7.62 0 .35-.27.51-.86.51-.44 0-.86-.07-1.33-.22l-.2 1.3c.33.07.63.14 1.54.16 1.56 0 2.29-.6 2.29-1.88 0-.77-.3-1.22-1.05-1.56-.62-.29-.7-.35-.7-.62 0-.3.26-.45.73-.45.3 0 .7.03 1.07.08l.21-1.3c-.38-.07-.97-.11-1.3-.11-1.66 0-2.24.86-2.23 1.9"/><path id="xchji" d="M776.84 1142.73c.41 0 .8.1 1.33.38l.24-1.5c-.22-.1-.98-.6-1.63-.6-1 0-1.83.5-2.42 1.31-.86-.28-1.22.3-1.65.87l-.39.08c.03-.18.06-.37.05-.56h-1.36c-.19 1.74-.52 3.5-.77 5.25l-.07.38h1.48a96 96 0 0 0 .47-3.34l.56-.3c.08-.32.34-.42.86-.4-.06.36-.1.75-.1 1.15 0 1.84 1 2.98 2.6 2.98.4 0 .76-.05 1.3-.2l.26-1.58c-.49.25-.9.36-1.26.36-.86 0-1.38-.64-1.38-1.69 0-1.52.77-2.59 1.88-2.59"/><path id="xchjj" d="M787.54 1147.06c-.5 0-.75-.38-.75-1.12 0-1.11.47-1.9 1.14-1.9.5 0 .78.39.78 1.1 0 1.13-.48 1.92-1.17 1.92zm1.86-5.64l-.33 2c-.4-.53-.84-.92-1.41-.92-.75 0-1.43.57-1.88 1.4-.62-.12-1.26-.34-1.26-.34.05-.46.07-.75.06-.85h-1.36c-.18 1.75-.51 3.51-.77 5.26l-.07.38h1.48c.2-1.3.36-2.38.47-3.24.5-.46.76-.86 1.27-.83a4.83 4.83 0 0 0-.36 1.83c0 1.4.72 2.34 1.8 2.34.54 0 .96-.2 1.36-.63l-.07.53h1.4l1.13-6.93h-1.46z"/><path id="xchjk" d="M754.21 1147.94h-1.48l.85-5.33-1.9 5.33h-1l-.13-5.3-.9 5.3h-1.38l1.16-6.93h2.13l.06 4.29 1.44-4.3h2.3l-1.15 6.94"/><path id="xchjl" d="M758.95 1147.93h-1.23l.03-.58c-.38.46-.88.68-1.56.68-.8 0-1.35-.63-1.35-1.54 0-1.37.96-2.17 2.6-2.17.17 0 .39.01.6.04.05-.19.07-.26.07-.37 0-.37-.26-.5-.95-.5-.73-.02-1.33.17-1.58.25l.21-1.27c.74-.22 1.23-.3 1.78-.3 1.27 0 1.94.57 1.94 1.65 0 .3-.04.65-.12 1.12-.13.81-.4 2.57-.44 3zm-1.08-2.5a2.47 2.47 0 0 0-.33-.03c-.84 0-1.27.29-1.27.86 0 .35.21.57.54.57.6 0 1.04-.58 1.06-1.4z"/><path id="xchjm" d="M778.84 1141.2l-.25 1.5a2.83 2.83 0 0 0-1.32-.38c-1.1 0-1.89 1.07-1.89 2.6 0 1.05.53 1.69 1.39 1.69.36 0 .77-.12 1.26-.36l-.26 1.58c-.55.15-.9.2-1.31.2-1.6 0-2.6-1.15-2.6-2.99 0-2.48 1.38-4.2 3.35-4.2.64 0 1.4.27 1.63.35"/><path id="xchjn" d="M782.3 1147.93h-1.22l.03-.58c-.38.46-.88.68-1.56.68-.8 0-1.35-.63-1.35-1.54 0-1.37.96-2.17 2.6-2.17.17 0 .39.01.6.04.05-.19.07-.26.07-.37 0-.37-.26-.5-.96-.5-.72-.02-1.32.17-1.57.25l.21-1.27a5.9 5.9 0 0 1 1.78-.3c1.27 0 1.94.57 1.94 1.65 0 .3-.04.65-.12 1.12-.13.81-.4 2.57-.44 3zm-1.07-2.5a2.45 2.45 0 0 0-.33-.03c-.84 0-1.27.29-1.27.86 0 .35.21.57.54.57.6 0 1.04-.58 1.06-1.4z"/><path id="xchjo" d="M765.53 1147.84c-.4.13-.72.18-1.06.18-.76 0-1.17-.43-1.17-1.23-.01-.25.1-.9.2-1.5l.64-3.84h1.47l-.17.85h.75l-.2 1.35h-.75c-.17 1.07-.42 2.4-.42 2.58 0 .3.15.42.5.42.17 0 .3-.02.4-.06l-.2 1.25"/><path id="xchjp" d="M769.22 1144.46c.01-.12.16-1-.68-1-.47 0-.8.35-.94 1h1.62zm.83 3.34c-.5.16-1 .23-1.51.23-1.65 0-2.51-.86-2.51-2.51 0-1.93 1.1-3.35 2.58-3.35 1.22 0 2 .8 2 2.04 0 .41-.06.82-.19 1.39h-2.94c-.1.81.43 1.15 1.29 1.15.52 0 1-.1 1.53-.35l-.25 1.4z"/><path id="xchjq" d="M759.84 1144.08c0 .72.34 1.2 1.13 1.58.6.28.7.36.7.62 0 .35-.27.5-.86.5a4.2 4.2 0 0 1-1.33-.21l-.2 1.3c.33.07.63.14 1.54.16 1.57 0 2.3-.6 2.3-1.88 0-.78-.31-1.23-1.05-1.57-.63-.29-.7-.35-.7-.61 0-.3.25-.46.73-.46.29 0 .69.03 1.07.08l.2-1.3c-.38-.07-.96-.12-1.3-.12-1.66 0-2.24.87-2.23 1.91"/><path id="xchjr" d="M787.97 1146.65c.7 0 1.18-.79 1.18-1.91 0-.72-.28-1.11-.79-1.11-.67 0-1.15.79-1.15 1.9 0 .74.26 1.12.76 1.12zm2.2 1.29h-1.41l.07-.53c-.4.44-.83.63-1.37.63-1.08 0-1.79-.93-1.79-2.34 0-1.88 1.1-3.46 2.41-3.46.58 0 1.01.24 1.42.77l.33-2h1.46l-1.13 6.93z"/><path id="xchjs" d="M783.64 1142.3c-.18 1.74-.51 3.51-.77 5.26l-.07.38h1.49c.53-3.45.65-4.12 1.49-4.04.13-.7.38-1.32.56-1.63-.62-.13-.97.22-1.42.89.03-.3.1-.57.09-.86h-1.37"/><path id="xchjt" d="M771.44 1142.3c-.19 1.74-.52 3.51-.78 5.26l-.07.38h1.49c.53-3.45.66-4.12 1.49-4.04.13-.7.38-1.32.56-1.63-.62-.13-.97.22-1.42.89.04-.3.1-.57.09-.86h-1.36"/></defs><g><g transform="translate(-747 -1130)"><g><use fill="#c00" xlink:href="#xchja"/></g><g><use fill="#f90" xlink:href="#xchjb"/></g><g><use fill="#006" xlink:href="#xchjc"/></g><g><use fill="#006" xlink:href="#xchjd"/></g><g><use fill="#006" xlink:href="#xchje"/></g><g><use fill="#006" xlink:href="#xchjf"/></g><g><use fill="#006" xlink:href="#xchjg"/></g><g><use fill="#006" xlink:href="#xchjh"/></g><g><use fill="#006" xlink:href="#xchji"/></g><g><use fill="#006" xlink:href="#xchjj"/></g><g><use fill="#fff" xlink:href="#xchjk"/></g><g><use fill="#fff" xlink:href="#xchjl"/></g><g><use fill="#fff" xlink:href="#xchjm"/></g><g><use fill="#fff" xlink:href="#xchjn"/></g><g><use fill="#fff" xlink:href="#xchjo"/></g><g><use fill="#fff" xlink:href="#xchjp"/></g><g><use fill="#fff" xlink:href="#xchjq"/></g><g><use fill="#fff" xlink:href="#xchjr"/></g><g><use fill="#fff" xlink:href="#xchjs"/></g><g><use fill="#fff" xlink:href="#xchjt"/></g></g></g></svg>