<svg xmlns="http://www.w3.org/2000/svg" xmlns:xlink="http://www.w3.org/1999/xlink" width="28" height="28" viewBox="0 0 28 28"><defs><path id="oa0xa" d="M911.01 1130.12a13.6 13.6 0 0 1 6.9 1.87l-1.27 1.14-1.9-1.98-3.22 2.89-1.91-2.1-6 5.44 3.85 4.26-1.51 1.34 3.78 4.27-1.5 1.33 5.4 6.07 3.22-2.98 2.77 3.19c-.55.43-1.15.84-1.81 1.21a13.6 13.6 0 0 1-6.8 1.82c-7.59 0-13.78-6.24-13.78-13.88 0-7.65 6.2-13.89 13.78-13.89"/><path id="oa0xb" d="M908.5 1143.12l3.28-2.97 2.96 3.3-3.28 2.97-2.95-3.3"/><path id="oa0xc" d="M910.84 1148.82l3.28-2.97 2.95 3.3-3.28 2.97-2.95-3.3"/><path id="oa0xd" d="M906.16 1137.49l3.28-2.97 2.95 3.3-3.28 2.97-2.95-3.3"/><path id="oa0xe" d="M912.18 1135.89l2.46-2.23 2.21 2.48-2.46 2.22-2.21-2.47"/><path id="oa0xf" d="M916.55 1146.1l2.46-2.23 2.21 2.47-2.46 2.23-2.21-2.47"/><path id="oa0xg" d="M918.71 1151.1l2.46-2.24 2.21 2.48-2.46 2.24-2.21-2.48"/><path id="oa0xh" d="M919.7 1139.64l1.64-1.49 1.48 1.66-1.64 1.49-1.48-1.66"/><path id="oa0xi" d="M917.6 1134.74l1.64-1.49 1.47 1.66-1.63 1.49-1.47-1.66"/><path id="oa0xj" d="M921.8 1144.54l1.63-1.49 1.47 1.66-1.63 1.49-1.47-1.66"/><path id="oa0xk" d="M914.44 1140.87l2.47-2.23 2.22 2.47-2.47 2.23-2.22-2.47"/></defs><g><g transform="translate(-897 -1130)"><g><g><use fill="#4a9aeb" xlink:href="#oa0xa"/></g><g><use fill="#4a9aeb" xlink:href="#oa0xb"/></g><g><use fill="#4a9aeb" xlink:href="#oa0xc"/></g><g><use fill="#4a9aeb" xlink:href="#oa0xd"/></g><g><use fill="#4a9aeb" xlink:href="#oa0xe"/></g><g><use fill="#4a9aeb" xlink:href="#oa0xf"/></g><g><use fill="#4a9aeb" xlink:href="#oa0xg"/></g><g><use fill="#4a9aeb" xlink:href="#oa0xh"/></g><g><use fill="#4a9aeb" xlink:href="#oa0xi"/></g><g><use fill="#4a9aeb" xlink:href="#oa0xj"/></g><g><use fill="#4a9aeb" xlink:href="#oa0xk"/></g></g></g></g></svg>