<svg xmlns="http://www.w3.org/2000/svg" xmlns:xlink="http://www.w3.org/1999/xlink" width="47" height="28" viewBox="0 0 47 28"><defs><path id="skb8a" d="M868.56 1143.99c0 7.74-6.25 14.01-13.96 14.01-7.7 0-13.95-6.27-13.95-14.01s6.24-14.01 13.95-14.01c7.71 0 13.96 6.27 13.96 14"/><path id="skb8b" d="M843.83 1152.89a13.9 13.9 0 0 1-1.07-1.49h4.95c.3-.47.57-.97.8-1.48h-6.55c-.22-.48-.42-.98-.6-1.48h7.75a14.03 14.03 0 0 0 .4-7.42h-8.54c.1-.5.24-1 .4-1.48h7.74c-.17-.51-.37-1-.6-1.49h-6.55c.24-.5.51-1 .8-1.48h4.95c-.32-.52-.68-1.01-1.06-1.48h-2.82c.43-.53.9-1.03 1.4-1.48a13.88 13.88 0 0 0-9.37-3.63 13.99 13.99 0 0 0-13.96 14c0 7.75 6.25 14.02 13.96 14.02a13.89 13.89 0 0 0 10.79-5.11h-2.82"/><path id="skb8c" d="M844.11 1144.33c0-.13.2-1.02-.81-1.04-.56 0-.96.37-1.12 1.04h1.93zm.92 3.45c-.6.16-1.17.23-1.78.23-1.95 0-2.96-.89-2.96-2.6 0-1.98 1.29-3.44 3.04-3.44 1.43 0 2.35.82 2.35 2.1 0 .43-.06.84-.22 1.43H842c-.12.83.49 1.2 1.51 1.2a4.6 4.6 0 0 0 1.8-.36l-.28 1.44z"/><path id="skb8d" d="M846.2 1143.94c0 .73.42 1.24 1.35 1.62.72.3.83.38.83.64 0 .36-.32.53-1.02.53-.53 0-1-.07-1.57-.23l-.26 1.34a10 10 0 0 0 1.84.17c1.87 0 2.73-.61 2.73-1.94 0-.8-.36-1.27-1.24-1.62-.74-.3-.83-.36-.83-.63 0-.32.3-.48.87-.48.34 0 .82.04 1.27.1l.25-1.36c-.46-.06-1.15-.11-1.56-.11-1.98 0-2.66.9-2.66 1.97"/><path id="skb8e" d="M838.07 1145.32a3.46 3.46 0 0 0-.39-.02c-1 0-1.5.3-1.5.88 0 .37.25.6.63.6.72 0 1.23-.6 1.26-1.46zm1.27 2.6h-1.45l.04-.61c-.45.48-1.03.7-1.83.7-.95 0-1.6-.65-1.6-1.58 0-1.42 1.13-2.24 3.07-2.24.2 0 .45.01.7.04.06-.19.08-.27.08-.37 0-.4-.3-.54-1.12-.54-.8 0-1.35.13-1.85.26l.24-1.3a7.9 7.9 0 0 1 2.09-.31c1.5 0 2.3.6 2.3 1.7 0 .3-.1.9-.15 1.15-.06.38-.47 2.58-.52 3.1z"/><path id="skb8f" d="M853.16 1147.82a4.5 4.5 0 0 1-1.25.19c-.89 0-1.37-.46-1.37-1.27-.03-.22.19-1.25.24-1.54l.82-4.49h1.72l-.26 1.4h.89l-.24 1.41h-.9s-.48 2.46-.48 2.65c0 .3.18.43.6.43.2 0 .34-.02.46-.06l-.23 1.28"/><path id="skb8g" d="M860.38 1146.6c-.62.01-1-.5-1-1.29 0-.92.55-1.96 1.43-1.96.7 0 .95.57.95 1.17 0 1.3-.54 2.08-1.38 2.08zm.5-4.63c-1.26 0-2.25.52-2.83 1.4l.5-1.3c-.92-.34-1.5.15-2.04.83l-.18.22v-1.02h-1.62c-.22 1.8-.61 3.62-.92 5.42l-.07.4h1.74c.17-.92.3-1.66.44-2.25.37-1.62 1-2.12 1.93-1.9-.21.46-.33 1-.33 1.6 0 1.45.78 2.64 2.73 2.64 1.97 0 3.4-1.05 3.4-3.46 0-1.45-.96-2.58-2.75-2.58z"/><path id="skb8h" d="M833.68 1147.91h-1.74l1.03-5.46-2.37 5.46h-1.58l-.3-5.42-1.03 5.42h-1.57l1.34-7.1h2.71l.23 3.96 1.71-3.96h2.93l-1.36 7.1"/><path id="skb8i" d="M844.55 1143.89c0-.13.2-1.02-.81-1.04-.56 0-.96.37-1.12 1.04h1.93zm.92 3.45c-.6.16-1.17.23-1.78.23-1.95 0-2.96-.89-2.96-2.6 0-1.98 1.29-3.44 3.04-3.44 1.43 0 2.35.82 2.35 2.1 0 .43-.07.84-.22 1.43h-3.46c-.12.83.48 1.2 1.51 1.2a4.6 4.6 0 0 0 1.8-.36l-.28 1.44z"/><path id="skb8j" d="M846.64 1143.5c0 .73.41 1.24 1.35 1.62.71.3.83.38.83.64 0 .37-.32.53-1.02.53-.53 0-1.01-.07-1.58-.23l-.25 1.34c.5.12 1.21.16 1.84.17 1.87 0 2.73-.61 2.73-1.94 0-.8-.36-1.27-1.25-1.62-.74-.3-.83-.36-.83-.63 0-.31.3-.47.87-.47.35 0 .82.03 1.28.08l.25-1.34c-.46-.07-1.16-.12-1.56-.12-1.98 0-2.67.9-2.66 1.97"/><path id="skb8k" d="M838.5 1144.88a3.24 3.24 0 0 0-.39-.02c-.99 0-1.5.3-1.5.88 0 .37.25.6.64.6.7 0 1.22-.6 1.25-1.46zm1.27 2.6h-1.45l.04-.62c-.44.49-1.03.71-1.83.71-.95 0-1.6-.65-1.6-1.58 0-1.42 1.13-2.24 3.07-2.24.2 0 .45.01.7.04.06-.19.08-.27.08-.37 0-.4-.3-.54-1.12-.54-.8 0-1.35.13-1.85.26l.24-1.3a7.9 7.9 0 0 1 2.1-.31c1.5 0 2.28.6 2.28 1.7.02.3-.09.9-.14 1.15-.06.38-.47 2.58-.52 3.1z"/><path id="skb8l" d="M853.6 1147.38c-.47.14-.84.2-1.25.2-.89 0-1.37-.46-1.37-1.28-.03-.22.19-1.25.23-1.54l.83-4.49h1.73l-.26 1.4h.89l-.25 1.41h-.89s-.49 2.46-.49 2.65c0 .3.18.43.6.43.2 0 .35-.02.47-.05l-.23 1.27"/><path id="skb8m" d="M864.05 1144.11c0-1.45-.95-2.58-2.73-2.58-2.06 0-3.39 1.38-3.39 3.4 0 1.45.78 2.64 2.73 2.64 1.97 0 3.4-1.05 3.4-3.46zm-1.86-.03c0 1.3-.54 2.08-1.38 2.08-.62.01-1-.5-1-1.29 0-.92.55-1.96 1.43-1.96.7 0 .95.57.95 1.17z"/><path id="skb8n" d="M855.14 1141.66c-.22 1.8-.61 3.62-.91 5.42l-.08.4h1.75c.63-3.48.84-4.47 2.15-4.12l.64-1.65c-.92-.34-1.51.15-2.05.83.05-.3.14-.6.12-.88h-1.62"/><path id="skb8o" d="M834.12 1147.49h-1.74l1.04-5.47-2.38 5.47h-1.59l-.28-5.44-1.04 5.44h-1.58l1.35-7.12h2.71l.14 4.4 1.92-4.4h2.82l-1.37 7.12"/></defs><g><g transform="translate(-822 -1130)"><g><use fill="#c00" xlink:href="#skb8a"/></g><g><use fill="#06c" xlink:href="#skb8b"/></g><g><use fill="#006" xlink:href="#skb8c"/></g><g><use fill="#006" xlink:href="#skb8d"/></g><g><use fill="#006" xlink:href="#skb8e"/></g><g><use fill="#006" xlink:href="#skb8f"/></g><g><use fill="#006" xlink:href="#skb8g"/></g><g><use fill="#006" xlink:href="#skb8h"/></g><g><use fill="#fff" xlink:href="#skb8i"/></g><g><use fill="#fff" xlink:href="#skb8j"/></g><g><use fill="#fff" xlink:href="#skb8k"/></g><g><use fill="#fff" xlink:href="#skb8l"/></g><g><use fill="#fff" xlink:href="#skb8m"/></g><g><use fill="#fff" xlink:href="#skb8n"/></g><g><use fill="#fff" xlink:href="#skb8o"/></g></g></g></svg>