<?xml version="1.0" encoding="utf-8"?>
<!-- Generator: Adobe Illustrator 19.0.0, SVG Export Plug-In . SVG Version: 6.00 Build 0)  -->
<svg version="1.1" id="Layer_1" xmlns="http://www.w3.org/2000/svg" xmlns:xlink="http://www.w3.org/1999/xlink" x="0px" y="0px"
	 viewBox="-474 476 50 50" style="enable-background:new -474 476 50 50;" xml:space="preserve">
<style type="text/css">
	.st0{fill:#FFFFFF;}
</style>
<g>
	<path class="st0" d="M-430.8,490.1h-1.8c1.3-1.1,2.2-2.7,2.2-4.6c0-3.3-2.7-5.9-5.9-5.9c-1.6,0-3,0.6-4.2,1.7l-5.1,5.1
		c-0.5-1.3-1.8-2.2-3.3-2.2c-1.5,0-2.8,0.9-3.3,2.2l-5.2-5.1c-1.1-1.1-2.6-1.7-4.2-1.7c-3.3,0-5.9,2.7-5.9,5.9
		c0,1.8,0.8,3.5,2.2,4.6h-1.8c-0.4,0-0.7,0.3-0.7,0.7v9.1c0,0.4,0.3,0.7,0.7,0.7h1.1v21.1c0,0.4,0.3,0.7,0.7,0.7h32.8
		c0.4,0,0.7-0.3,0.7-0.7v-21.1h1.1c0.4,0,0.7-0.3,0.7-0.7v-9.1C-430.1,490.4-430.4,490.1-430.8,490.1z M-439.6,482.3
		c0.9-0.8,2-1.3,3.2-1.3c2.5,0,4.6,2.1,4.6,4.6s-2.1,4.6-4.6,4.6h-9v-2.1L-439.6,482.3z M-452.9,491.5h3.2v15.7
		c0,0.4,0.3,0.7,0.7,0.7c0.4,0,0.7-0.3,0.7-0.7v-15.7h3.2v20l-3.5-2.1c-0.2-0.1-0.5-0.1-0.7,0l-3.5,2.1V491.5z M-449,485.6
		c1.2,0,2.2,1,2.2,2.2v2.4h-4.4v-2.4C-451.2,486.5-450.2,485.6-449,485.6z M-466.2,485.5c0-2.5,2.1-4.6,4.6-4.6
		c1.2,0,2.3,0.5,3.2,1.3l5.8,5.8v2.1h-9C-464.1,490.1-466.2,488.1-466.2,485.5z M-431.4,499.2h-10.3c-0.4,0-0.7,0.3-0.7,0.7
		c0,0.4,0.3,0.7,0.7,0.7h8.5V521h-31.5v-20.4h8.5c0.4,0,0.7-0.3,0.7-0.7c0-0.4-0.3-0.7-0.7-0.7h-10.3v-7.7h12.3v21.2
		c0,0.2,0.1,0.5,0.3,0.6c0.2,0.1,0.5,0.1,0.7,0l4.2-2.5l4.2,2.5c0.1,0.1,0.2,0.1,0.4,0.1c0.1,0,0.2,0,0.3-0.1
		c0.2-0.1,0.3-0.3,0.3-0.6v-21.2h12.3V499.2L-431.4,499.2z"/>
	<path class="st0" d="M-461.6,482.3c-1.8,0-3.2,1.4-3.2,3.2c0,0.4,0.3,0.7,0.7,0.7c0.4,0,0.7-0.3,0.7-0.7c0-1,0.8-1.8,1.8-1.8
		c0.4,0,0.7-0.3,0.7-0.7C-460.9,482.6-461.2,482.3-461.6,482.3z"/>
</g>
</svg>
