<?xml version="1.0" encoding="utf-8"?>
<!-- Generator: Adobe Illustrator 19.0.0, SVG Export Plug-In . SVG Version: 6.00 Build 0)  -->
<svg version="1.1" id="Layer_1" xmlns="http://www.w3.org/2000/svg" xmlns:xlink="http://www.w3.org/1999/xlink" x="0px" y="0px"
	 viewBox="-24 26 50 50" style="enable-background:new -24 26 50 50;" xml:space="preserve">
<style type="text/css">
	.st0{fill:#FFFFFF;}
</style>
<path class="st0" d="M16.2,59.7c-1.2,0-2.3,0.5-3.1,1.3c-0.8,0.8-1.3,1.9-1.3,3.1s0.5,2.3,1.3,3.1c0.9,0.8,2,1.3,3.1,1.3
	c2.4,0,4.4-2,4.4-4.4C20.6,61.7,18.6,59.7,16.2,59.7z M16.2,66.6c-1.3,0-2.5-1.1-2.5-2.4c0-1.3,1.1-2.4,2.5-2.4
	c1.3,0,2.4,1.1,2.4,2.4S17.6,66.6,16.2,66.6z M17.4,45.1c-0.2-0.2-0.4-0.3-0.7-0.3h-5c-0.5,0-1,0.4-1,1v8c0,0.5,0.4,1,1,1h8
	c0.5,0,1-0.4,1-1v-5.4c0-0.3-0.1-0.5-0.3-0.7L17.4,45.1z M18.7,52.8h-6v-6.1h3.7l2.3,2.1V52.8z M-7.6,59.7c-1.2,0-2.3,0.5-3.1,1.3
	c-0.8,0.8-1.3,1.9-1.3,3.1s0.5,2.3,1.3,3.1c0.9,0.8,2,1.3,3.1,1.3c2.4,0,4.4-2,4.4-4.4C-3.3,61.7-5.2,59.7-7.6,59.7z M-7.6,66.6
	c-1.3,0-2.5-1.1-2.5-2.4c0-1.3,1.1-2.4,2.5-2.4c1.3,0,2.4,1.1,2.4,2.4S-6.3,66.6-7.6,66.6z M-14.1,60.9h-2v-2.6c0-0.5-0.4-1-1-1
	c-0.5,0-1,0.4-1,1v3.6c0,0.5,0.4,1,1,1h2.9c0.5,0,1-0.4,1-1C-13.2,61.4-13.6,60.9-14.1,60.9z M-9.2,55.6c0-0.5-0.4-1-1-1H-22
	c-0.5,0-1,0.4-1,1c0,0.5,0.4,1,1,1h11.9C-9.6,56.6-9.2,56.1-9.2,55.6z M-20,52.1l11.9,0.1c0.5,0,1-0.4,1-1c0-0.5-0.4-1-1-1L-20,50.1
	c0,0,0,0,0,0c-0.5,0-1,0.4-1,1C-21,51.6-20.6,52.1-20,52.1z M-18,47.6h11.9c0.5,0,1-0.4,1-1c0-0.5-0.4-1-1-1H-18c-0.5,0-1,0.4-1,1
	C-19,47.2-18.6,47.6-18,47.6z M24.6,46.3L24.6,46.3l-7-5.8c-0.2-0.1-0.4-0.2-0.6-0.2H8.8v-3.5c0-0.5-0.4-1-1-1h-24.9
	c-0.5,0-1,0.4-1,1v7.2c0,0.5,0.4,1,1,1c0.5,0,1-0.4,1-1v-6.2h23v23.2h-8c-0.5,0-1,0.4-1,1c0,0.5,0.4,1,1,1h11.9c0.5,0,1-0.4,1-1
	c0-0.5-0.4-1-1-1h-2V42.2h7.9l6.4,5.3L23,60.9h-1c-0.5,0-1,0.4-1,1c0,0.5,0.4,1,1,1h2c0.5,0,1-0.4,1-1L25,47.1
	C25,46.8,24.9,46.5,24.6,46.3z"/>
</svg>
