<?xml version="1.0" encoding="utf-8"?>
<!-- Generator: Adobe Illustrator 17.0.0, SVG Export Plug-In . SVG Version: 6.00 Build 0)  -->
<!DOCTYPE svg PUBLIC "-//W3C//DTD SVG 1.1//EN" "http://www.w3.org/Graphics/SVG/1.1/DTD/svg11.dtd">
<svg version="1.1" id="Layer_1" xmlns="http://www.w3.org/2000/svg" xmlns:xlink="http://www.w3.org/1999/xlink" x="0px" y="0px"
	 width="50px" height="50px" viewBox="0 0 50 50" enable-background="new 0 0 50 50" xml:space="preserve">
<path fill="#FFFFFF" d="M49.625,24.879c0-6.331-2.39-12.362-6.731-16.982C38.216,2.917,31.9,0.147,25.089,0.074
	c-0.216-0.099-0.46-0.098-0.674,0.004C17.649,0.183,11.376,2.953,6.731,7.897C2.39,12.517,0,18.548,0,24.879
	c0,6.47,2.481,12.595,6.985,17.249c4.621,4.775,10.805,7.449,17.434,7.553c0.098,0.042,0.203,0.068,0.314,0.068
	c0.112,0,0.223-0.026,0.327-0.063c6.683-0.066,12.919-2.743,17.579-7.557C47.144,37.474,49.625,31.349,49.625,24.879z M42.044,40.42
	c-0.221-0.214-0.455-0.41-0.684-0.615c-0.166-0.15-0.329-0.304-0.499-0.449c-0.483-0.411-0.978-0.803-1.488-1.174
	c-0.042-0.03-0.082-0.066-0.123-0.096c-0.556-0.399-1.132-0.77-1.719-1.121c-0.176-0.105-0.357-0.199-0.535-0.299
	c-0.295-0.166-0.584-0.341-0.886-0.495c0.054-0.14,0.102-0.283,0.153-0.423c0.066-0.178,0.132-0.357,0.194-0.536
	c0.099-0.286,0.193-0.573,0.284-0.861c0.054-0.171,0.11-0.342,0.16-0.513c0.095-0.32,0.182-0.643,0.267-0.966
	c0.037-0.142,0.078-0.283,0.113-0.424c0.116-0.467,0.221-0.937,0.315-1.411c0.005-0.021,0.007-0.042,0.011-0.063
	c0.088-0.451,0.166-0.906,0.234-1.362c0.022-0.153,0.04-0.307,0.06-0.461c0.044-0.327,0.086-0.654,0.119-0.984
	c0.018-0.182,0.032-0.364,0.048-0.547c0.026-0.306,0.05-0.612,0.066-0.92c0.01-0.19,0.018-0.381,0.026-0.571
	c0.006-0.15,0.017-0.298,0.02-0.447h9.831C47.825,31.165,45.729,36.344,42.044,40.42z M33.394,38.299
	c-0.207,0.4-0.426,0.79-0.65,1.177c-0.091,0.158-0.176,0.319-0.271,0.475c-0.325,0.536-0.666,1.061-1.025,1.57
	c-0.059,0.083-0.124,0.161-0.184,0.244c-0.305,0.421-0.617,0.834-0.944,1.233c-0.132,0.162-0.272,0.316-0.408,0.474
	c-0.266,0.31-0.535,0.616-0.814,0.91c-0.159,0.169-0.324,0.332-0.488,0.496c-0.27,0.27-0.543,0.532-0.823,0.788
	c-0.176,0.159-0.352,0.317-0.531,0.471c-0.287,0.246-0.579,0.481-0.875,0.712c-0.182,0.141-0.361,0.283-0.546,0.418
	c-0.072,0.053-0.149,0.099-0.221,0.151V35.074c0.094,0.003,0.189,0.003,0.283,0.008c0.154,0.007,0.309,0.016,0.463,0.026
	c0.251,0.017,0.502,0.038,0.751,0.062c0.152,0.015,0.306,0.03,0.457,0.048c0.264,0.031,0.526,0.069,0.788,0.109
	c0.132,0.02,0.265,0.038,0.397,0.06c0.363,0.062,0.725,0.132,1.085,0.212c0.026,0.006,0.054,0.01,0.082,0.017
	c0.385,0.086,0.768,0.185,1.149,0.292c0.121,0.034,0.242,0.073,0.363,0.109c0.26,0.078,0.52,0.158,0.779,0.245
	c0.142,0.048,0.283,0.099,0.423,0.15c0.238,0.085,0.475,0.174,0.71,0.267c0.143,0.057,0.286,0.115,0.428,0.174
	c0.085,0.036,0.17,0.076,0.255,0.113c-0.104,0.231-0.208,0.463-0.318,0.691C33.603,37.87,33.502,38.087,33.394,38.299z
	 M20.442,44.412c-0.28-0.295-0.55-0.601-0.816-0.911c-0.134-0.157-0.275-0.308-0.406-0.468c-0.363-0.443-0.713-0.898-1.049-1.368
	c-0.026-0.036-0.054-0.07-0.081-0.106c-0.36-0.508-0.7-1.033-1.027-1.568c-0.103-0.17-0.197-0.347-0.296-0.518
	c-0.217-0.374-0.43-0.75-0.629-1.135c-0.11-0.215-0.213-0.433-0.318-0.65c-0.11-0.226-0.213-0.455-0.316-0.684
	c0.085-0.038,0.169-0.078,0.254-0.114c0.15-0.063,0.299-0.125,0.449-0.185c0.234-0.093,0.468-0.182,0.704-0.268
	c0.144-0.052,0.288-0.105,0.433-0.154c0.26-0.088,0.521-0.17,0.784-0.249c0.122-0.037,0.243-0.077,0.367-0.112
	c0.384-0.109,0.772-0.21,1.161-0.298c0.025-0.006,0.05-0.01,0.076-0.015c0.366-0.082,0.734-0.154,1.103-0.218
	c0.131-0.022,0.264-0.04,0.395-0.06c0.267-0.042,0.533-0.08,0.801-0.112c0.153-0.018,0.307-0.033,0.46-0.048
	c0.253-0.025,0.506-0.046,0.76-0.063c0.156-0.01,0.313-0.019,0.47-0.026c0.097-0.005,0.194-0.005,0.291-0.008v12.421
	c-0.095-0.067-0.194-0.128-0.288-0.197c-0.192-0.14-0.38-0.285-0.568-0.431c-0.289-0.224-0.574-0.455-0.853-0.693
	c-0.184-0.158-0.367-0.317-0.548-0.482c-0.276-0.251-0.546-0.511-0.812-0.776C20.775,44.75,20.606,44.585,20.442,44.412z
	 M13.899,32.495c-0.038-0.144-0.078-0.287-0.114-0.431c-0.1-0.407-0.192-0.817-0.275-1.229c-0.006-0.034-0.016-0.068-0.022-0.102
	c-0.088-0.449-0.165-0.9-0.233-1.353c-0.02-0.136-0.035-0.274-0.054-0.411c-0.042-0.318-0.083-0.636-0.116-0.956
	c-0.018-0.171-0.031-0.343-0.046-0.515c-0.025-0.291-0.046-0.582-0.063-0.874c-0.01-0.182-0.018-0.364-0.026-0.547
	c-0.005-0.132-0.006-0.265-0.01-0.397h11.071v7.786c-0.115,0.004-0.228,0.014-0.343,0.018c-0.169,0.008-0.339,0.017-0.507,0.028
	c-0.274,0.017-0.547,0.041-0.819,0.067c-0.161,0.016-0.322,0.03-0.483,0.05c-0.298,0.035-0.593,0.078-0.888,0.124
	c-0.13,0.02-0.262,0.037-0.392,0.058c-0.423,0.073-0.843,0.154-1.261,0.249c-0.048,0.011-0.094,0.025-0.142,0.036
	c-0.369,0.086-0.737,0.18-1.102,0.283c-0.14,0.04-0.279,0.084-0.419,0.126c-0.272,0.082-0.544,0.166-0.814,0.259
	c-0.157,0.053-0.313,0.11-0.468,0.166c-0.253,0.091-0.504,0.187-0.755,0.287c-0.157,0.062-0.313,0.126-0.469,0.192
	c-0.09,0.038-0.182,0.073-0.273,0.113c-0.042-0.112-0.088-0.223-0.13-0.335c-0.062-0.166-0.122-0.334-0.18-0.501
	c-0.094-0.271-0.184-0.543-0.27-0.816c-0.051-0.163-0.104-0.326-0.153-0.49C14.057,33.088,13.977,32.792,13.899,32.495z
	 M12.973,23.204c0.016-0.283,0.036-0.565,0.059-0.846c0.014-0.162,0.026-0.325,0.042-0.487c0.03-0.307,0.067-0.614,0.107-0.92
	c0.017-0.13,0.031-0.262,0.05-0.392c0.062-0.434,0.133-0.866,0.214-1.295c0.01-0.051,0.022-0.102,0.033-0.153
	c0.074-0.377,0.153-0.752,0.242-1.125c0.034-0.145,0.073-0.288,0.109-0.432c0.07-0.279,0.143-0.559,0.222-0.836
	c0.046-0.162,0.095-0.323,0.144-0.484c0.078-0.259,0.159-0.516,0.245-0.772c0.055-0.165,0.111-0.33,0.169-0.494
	c0.034-0.096,0.071-0.191,0.106-0.287c0.092,0.041,0.185,0.076,0.277,0.116c0.158,0.068,0.316,0.134,0.474,0.199
	c0.256,0.105,0.513,0.204,0.772,0.3c0.157,0.058,0.315,0.116,0.472,0.171c0.275,0.095,0.551,0.183,0.829,0.268
	c0.142,0.043,0.283,0.09,0.424,0.131c0.363,0.105,0.729,0.199,1.097,0.287c0.057,0.014,0.113,0.03,0.17,0.043
	c0.424,0.098,0.852,0.183,1.282,0.258c0.131,0.022,0.263,0.039,0.395,0.061c0.301,0.047,0.603,0.092,0.907,0.129
	c0.163,0.019,0.328,0.034,0.492,0.051c0.276,0.027,0.553,0.051,0.832,0.07c0.172,0.011,0.346,0.021,0.518,0.029
	c0.119,0.006,0.238,0.016,0.357,0.02v7.266h-11.07c0.003-0.122,0.004-0.244,0.009-0.366C12.956,23.543,12.964,23.373,12.973,23.204z
	 M15.964,11.772c0.2-0.402,0.416-0.793,0.634-1.182c0.1-0.178,0.193-0.361,0.296-0.536c0.329-0.557,0.674-1.101,1.039-1.628
	c0.04-0.057,0.084-0.11,0.124-0.166c0.329-0.467,0.67-0.923,1.025-1.364c0.136-0.169,0.281-0.327,0.42-0.492
	c0.271-0.319,0.543-0.635,0.827-0.938c0.168-0.179,0.343-0.351,0.515-0.524c0.271-0.273,0.546-0.541,0.828-0.8
	c0.186-0.17,0.375-0.336,0.567-0.5c0.284-0.245,0.574-0.481,0.868-0.711c0.197-0.153,0.394-0.306,0.595-0.452
	c0.102-0.074,0.207-0.141,0.311-0.213v12.937c-0.102-0.003-0.203-0.004-0.305-0.009c-0.159-0.007-0.319-0.017-0.478-0.027
	c-0.262-0.018-0.522-0.04-0.782-0.066c-0.154-0.016-0.307-0.03-0.461-0.05c-0.276-0.034-0.551-0.074-0.825-0.117
	c-0.132-0.021-0.264-0.038-0.395-0.062c-0.375-0.066-0.749-0.141-1.12-0.225c-0.027-0.006-0.054-0.01-0.082-0.017
	c-0.399-0.092-0.796-0.198-1.189-0.311c-0.117-0.034-0.234-0.073-0.35-0.109c-0.275-0.084-0.55-0.171-0.822-0.267
	c-0.142-0.05-0.282-0.102-0.423-0.154c-0.247-0.091-0.494-0.186-0.739-0.287c-0.146-0.06-0.291-0.121-0.435-0.183
	c-0.097-0.042-0.192-0.088-0.289-0.132c0.106-0.246,0.212-0.491,0.324-0.732C15.75,12.225,15.852,11.996,15.964,11.772z
	 M29.213,5.499c0.283,0.304,0.556,0.62,0.827,0.94c0.139,0.165,0.283,0.325,0.418,0.494c0.331,0.412,0.648,0.838,0.954,1.273
	c0.062,0.088,0.13,0.171,0.192,0.26c0.366,0.531,0.713,1.078,1.043,1.638c0.086,0.148,0.164,0.303,0.249,0.451
	c0.235,0.417,0.464,0.837,0.678,1.269c0.106,0.212,0.202,0.429,0.302,0.644c0.117,0.251,0.227,0.507,0.336,0.763
	c-0.091,0.04-0.182,0.083-0.273,0.122c-0.148,0.063-0.296,0.125-0.445,0.185c-0.238,0.096-0.476,0.187-0.716,0.275
	c-0.144,0.053-0.287,0.106-0.431,0.156c-0.264,0.09-0.531,0.174-0.797,0.255c-0.121,0.037-0.242,0.077-0.363,0.112
	c-0.387,0.11-0.779,0.213-1.172,0.303c-0.035,0.008-0.07,0.014-0.106,0.022c-0.359,0.081-0.721,0.152-1.085,0.216
	c-0.132,0.023-0.266,0.041-0.399,0.062c-0.269,0.042-0.539,0.082-0.81,0.114c-0.153,0.018-0.307,0.034-0.462,0.049
	c-0.255,0.026-0.512,0.047-0.769,0.064c-0.158,0.01-0.316,0.02-0.475,0.027c-0.098,0.004-0.199,0.005-0.297,0.008V2.342
	c0.082,0.058,0.166,0.11,0.248,0.17c0.192,0.141,0.381,0.291,0.569,0.439c0.301,0.235,0.598,0.476,0.888,0.728
	c0.186,0.161,0.371,0.326,0.552,0.493c0.285,0.263,0.563,0.533,0.837,0.81C28.878,5.151,29.047,5.322,29.213,5.499z M35.692,17.585
	c0.036,0.143,0.075,0.286,0.109,0.43c0.086,0.371,0.166,0.745,0.239,1.121c0.01,0.051,0.022,0.102,0.032,0.153
	c0.081,0.427,0.15,0.856,0.212,1.288c0.018,0.131,0.033,0.263,0.05,0.395c0.039,0.303,0.076,0.606,0.106,0.912
	c0.016,0.161,0.028,0.323,0.042,0.485c0.022,0.28,0.043,0.56,0.058,0.842c0.01,0.168,0.017,0.337,0.023,0.506
	c0.005,0.12,0.005,0.242,0.008,0.362H25.613v-7.268c0.117-0.003,0.232-0.014,0.349-0.019c0.172-0.008,0.343-0.017,0.514-0.028
	c0.276-0.018,0.551-0.042,0.825-0.069c0.162-0.016,0.323-0.031,0.484-0.05c0.303-0.036,0.604-0.08,0.905-0.127
	c0.127-0.02,0.256-0.036,0.383-0.058c0.427-0.074,0.852-0.157,1.273-0.253c0.049-0.011,0.096-0.025,0.145-0.037
	c0.373-0.087,0.744-0.183,1.113-0.287c0.135-0.038,0.269-0.082,0.403-0.123c0.282-0.085,0.562-0.174,0.84-0.269
	c0.15-0.052,0.301-0.107,0.451-0.162c0.263-0.096,0.525-0.197,0.786-0.302c0.15-0.061,0.299-0.122,0.449-0.186
	c0.093-0.04,0.186-0.075,0.28-0.116c0.034,0.096,0.072,0.19,0.106,0.287c0.057,0.162,0.113,0.325,0.166,0.487
	c0.084,0.255,0.166,0.512,0.243,0.77c0.049,0.162,0.098,0.323,0.144,0.485C35.55,17.03,35.622,17.307,35.692,17.585z M36.535,26.62
	c-0.016,0.287-0.038,0.574-0.062,0.859c-0.015,0.175-0.028,0.351-0.046,0.524c-0.032,0.312-0.071,0.622-0.113,0.932
	c-0.019,0.143-0.035,0.286-0.056,0.429c-0.066,0.45-0.142,0.897-0.23,1.342c-0.008,0.042-0.018,0.083-0.027,0.125
	c-0.081,0.403-0.17,0.804-0.267,1.202c-0.036,0.147-0.078,0.291-0.116,0.438c-0.077,0.292-0.154,0.583-0.24,0.872
	c-0.05,0.169-0.103,0.336-0.156,0.503c-0.083,0.266-0.17,0.531-0.262,0.794c-0.06,0.173-0.122,0.346-0.186,0.517
	c-0.04,0.108-0.083,0.215-0.124,0.323c-0.092-0.04-0.185-0.074-0.278-0.113c-0.148-0.062-0.296-0.122-0.445-0.181
	c-0.255-0.101-0.511-0.198-0.768-0.29c-0.15-0.053-0.299-0.107-0.45-0.158c-0.272-0.091-0.546-0.176-0.82-0.258
	c-0.134-0.041-0.269-0.083-0.404-0.121c-0.366-0.102-0.733-0.195-1.104-0.281c-0.044-0.01-0.086-0.022-0.13-0.032
	c-0.414-0.093-0.829-0.174-1.248-0.244c-0.13-0.022-0.261-0.039-0.391-0.058c-0.291-0.045-0.583-0.086-0.876-0.121
	c-0.159-0.018-0.319-0.034-0.479-0.049c-0.269-0.026-0.539-0.05-0.81-0.067c-0.166-0.01-0.333-0.019-0.5-0.027
	c-0.112-0.005-0.223-0.015-0.335-0.018v-7.785H36.57c-0.004,0.13-0.005,0.262-0.01,0.391C36.554,26.255,36.545,26.437,36.535,26.62z
	 M38.179,24.079c-0.003-0.126-0.013-0.251-0.017-0.378c-0.007-0.2-0.016-0.4-0.026-0.6c-0.015-0.274-0.034-0.547-0.057-0.82
	c-0.016-0.193-0.03-0.386-0.05-0.579c-0.029-0.291-0.064-0.579-0.101-0.868c-0.022-0.171-0.041-0.343-0.065-0.515
	c-0.054-0.379-0.118-0.757-0.186-1.133c-0.014-0.078-0.024-0.155-0.039-0.232c-0.085-0.449-0.182-0.896-0.286-1.34
	c-0.035-0.146-0.075-0.291-0.112-0.437c-0.076-0.303-0.154-0.604-0.239-0.904c-0.048-0.168-0.1-0.335-0.15-0.503
	c-0.083-0.278-0.17-0.554-0.262-0.829c-0.056-0.169-0.116-0.338-0.175-0.507c-0.049-0.137-0.092-0.275-0.142-0.411
	c0.314-0.163,0.614-0.348,0.919-0.524c0.18-0.103,0.363-0.2,0.541-0.309c0.595-0.363,1.177-0.748,1.738-1.161
	c0.063-0.046,0.122-0.099,0.184-0.146c0.495-0.371,0.979-0.762,1.447-1.171c0.174-0.151,0.34-0.314,0.51-0.47
	c0.227-0.21,0.461-0.411,0.682-0.629c3.527,4.034,5.537,9.114,5.72,14.465H38.179z M41.18,8.43c-0.221,0.22-0.443,0.442-0.672,0.652
	c-0.146,0.134-0.286,0.274-0.435,0.403c-0.49,0.429-0.992,0.84-1.514,1.225c-0.051,0.038-0.107,0.07-0.158,0.108
	c-0.473,0.343-0.96,0.668-1.458,0.973c-0.182,0.112-0.37,0.215-0.554,0.321c-0.239,0.138-0.483,0.265-0.728,0.395
	c-0.12-0.279-0.255-0.548-0.383-0.821c-0.083-0.178-0.162-0.358-0.25-0.534c-0.296-0.599-0.608-1.185-0.94-1.758
	c-0.051-0.088-0.109-0.171-0.161-0.259c-0.289-0.484-0.591-0.958-0.906-1.422c-0.121-0.178-0.247-0.351-0.372-0.526
	c-0.267-0.375-0.542-0.74-0.825-1.099c-0.134-0.17-0.268-0.34-0.407-0.507c-0.334-0.402-0.68-0.792-1.033-1.171
	c-0.088-0.095-0.173-0.196-0.263-0.29c-0.444-0.463-0.904-0.904-1.377-1.33c-0.131-0.118-0.268-0.227-0.401-0.343
	c-0.239-0.207-0.475-0.419-0.72-0.615C32.755,2.448,37.472,4.733,41.18,8.43z M21.166,2.451c-0.133,0.114-0.267,0.223-0.399,0.341
	c-0.473,0.425-0.934,0.867-1.378,1.33c-0.075,0.078-0.146,0.163-0.22,0.243c-0.367,0.392-0.724,0.796-1.071,1.213
	c-0.134,0.161-0.263,0.326-0.393,0.49c-0.287,0.363-0.566,0.732-0.836,1.111c-0.122,0.17-0.243,0.338-0.362,0.511
	c-0.319,0.467-0.624,0.945-0.917,1.434c-0.048,0.081-0.101,0.158-0.148,0.239c-0.335,0.572-0.648,1.161-0.945,1.759
	c-0.082,0.166-0.156,0.335-0.235,0.502c-0.132,0.278-0.269,0.552-0.392,0.835c-0.238-0.127-0.477-0.253-0.71-0.388
	c-0.182-0.106-0.367-0.208-0.546-0.319c-0.493-0.305-0.974-0.628-1.442-0.968c-0.05-0.035-0.102-0.066-0.15-0.103
	c-0.514-0.381-1.009-0.788-1.492-1.211c-0.146-0.129-0.286-0.267-0.43-0.399C8.875,8.862,8.659,8.646,8.443,8.43
	c3.671-3.66,8.339-5.938,13.418-6.575C21.625,2.046,21.397,2.252,21.166,2.451z M7.334,9.614c0.215,0.213,0.442,0.407,0.663,0.612
	c0.169,0.156,0.334,0.317,0.507,0.468c0.461,0.403,0.936,0.788,1.424,1.156c0.062,0.047,0.12,0.099,0.182,0.146
	c0.554,0.408,1.127,0.789,1.714,1.15c0.176,0.109,0.359,0.206,0.539,0.31c0.299,0.174,0.591,0.355,0.898,0.517
	c-0.05,0.134-0.094,0.271-0.142,0.407c-0.062,0.174-0.123,0.347-0.182,0.522c-0.092,0.275-0.178,0.551-0.263,0.828
	c-0.051,0.168-0.104,0.336-0.152,0.505c-0.087,0.307-0.167,0.616-0.246,0.924c-0.035,0.14-0.074,0.279-0.108,0.419
	c-0.106,0.45-0.205,0.902-0.291,1.357c-0.01,0.05-0.017,0.1-0.026,0.15c-0.075,0.407-0.143,0.816-0.203,1.225
	c-0.022,0.155-0.039,0.312-0.059,0.467c-0.04,0.307-0.078,0.615-0.108,0.923c-0.018,0.181-0.032,0.362-0.046,0.543
	c-0.023,0.288-0.045,0.577-0.06,0.867c-0.01,0.189-0.018,0.378-0.026,0.567c-0.005,0.134-0.015,0.267-0.018,0.4H1.614
	C1.797,18.728,3.806,13.648,7.334,9.614z M11.332,25.679c0.003,0.146,0.014,0.289,0.02,0.435c0.007,0.201,0.016,0.402,0.027,0.602
	c0.017,0.299,0.039,0.597,0.065,0.894c0.017,0.192,0.031,0.384,0.05,0.576c0.033,0.319,0.074,0.638,0.116,0.956
	c0.022,0.163,0.04,0.328,0.065,0.491c0.066,0.441,0.142,0.879,0.226,1.315c0.007,0.038,0.013,0.077,0.02,0.115
	c0.094,0.473,0.2,0.943,0.315,1.41c0.037,0.15,0.081,0.299,0.12,0.449c0.083,0.317,0.168,0.633,0.262,0.947
	c0.053,0.177,0.11,0.352,0.166,0.528c0.09,0.284,0.183,0.569,0.283,0.851c0.064,0.183,0.131,0.364,0.199,0.546
	c0.052,0.142,0.1,0.283,0.154,0.424c-0.293,0.151-0.575,0.323-0.861,0.486c-0.178,0.102-0.358,0.196-0.533,0.301
	c-0.579,0.349-1.145,0.717-1.693,1.112c-0.039,0.029-0.076,0.061-0.115,0.09c-0.507,0.37-0.998,0.76-1.477,1.169
	c-0.164,0.14-0.32,0.289-0.481,0.433c-0.227,0.204-0.46,0.399-0.68,0.612c-3.683-4.077-5.779-9.257-5.965-14.742H11.332z
	 M8.708,41.586c0.207-0.2,0.415-0.403,0.628-0.595c0.145-0.13,0.286-0.264,0.434-0.391c0.478-0.408,0.967-0.801,1.474-1.168
	c0.035-0.026,0.074-0.048,0.109-0.073c0.475-0.339,0.963-0.657,1.461-0.96c0.176-0.106,0.358-0.205,0.536-0.307
	c0.231-0.131,0.466-0.251,0.7-0.375c0.124,0.273,0.261,0.538,0.393,0.806c0.078,0.158,0.15,0.318,0.231,0.475
	c0.296,0.577,0.608,1.143,0.939,1.694c0.05,0.083,0.106,0.162,0.156,0.246c0.287,0.466,0.586,0.922,0.898,1.369
	c0.115,0.164,0.234,0.325,0.351,0.487c0.27,0.37,0.548,0.732,0.834,1.085c0.123,0.152,0.245,0.306,0.371,0.455
	c0.367,0.435,0.744,0.856,1.134,1.265c0.044,0.046,0.084,0.094,0.128,0.139c0.435,0.449,0.888,0.876,1.351,1.289
	c0.132,0.118,0.268,0.229,0.403,0.344c0.207,0.178,0.41,0.362,0.622,0.531C16.913,47.279,12.339,45.092,8.708,41.586z
	 M28.279,47.364c0.13-0.111,0.262-0.218,0.39-0.332c0.465-0.415,0.919-0.845,1.357-1.296c0.055-0.057,0.107-0.118,0.162-0.176
	c0.38-0.399,0.748-0.811,1.105-1.234c0.128-0.151,0.251-0.308,0.377-0.463c0.285-0.353,0.562-0.715,0.831-1.084
	c0.12-0.164,0.241-0.327,0.357-0.495c0.31-0.445,0.607-0.899,0.892-1.363c0.054-0.087,0.112-0.171,0.165-0.259
	c0.33-0.551,0.641-1.117,0.936-1.693c0.084-0.165,0.162-0.335,0.244-0.502c0.129-0.265,0.264-0.526,0.386-0.795
	c0.245,0.126,0.491,0.252,0.731,0.387c0.177,0.1,0.356,0.195,0.53,0.3c0.525,0.315,1.039,0.647,1.537,1.002
	c0.019,0.014,0.04,0.026,0.058,0.039c0.517,0.372,1.016,0.771,1.502,1.185c0.148,0.126,0.29,0.261,0.435,0.391
	c0.219,0.196,0.431,0.402,0.643,0.608c-3.667,3.542-8.29,5.736-13.291,6.335C27.848,47.743,28.062,47.55,28.279,47.364z"/>
</svg>
