<?xml version="1.0" encoding="utf-8"?>
<!-- Generator: Adobe Illustrator 17.0.0, SVG Export Plug-In . SVG Version: 6.00 Build 0)  -->
<!DOCTYPE svg PUBLIC "-//W3C//DTD SVG 1.1//EN" "http://www.w3.org/Graphics/SVG/1.1/DTD/svg11.dtd">
<svg version="1.1" id="Layer_1" xmlns="http://www.w3.org/2000/svg" xmlns:xlink="http://www.w3.org/1999/xlink" x="0px" y="0px"
	 width="50px" height="50px" viewBox="0 0 50 50" enable-background="new 0 0 50 50" xml:space="preserve">
<g>
	<path fill="#FFFFFF" d="M43.5,43.5c0,2.761-2.239,5-5,5h-26c-2.761,0-5-2.239-5-5v-38c0-2.761,2.239-5,5-5h26c2.761,0,5,2.239,5,5
		V43.5z M41.5,5.5c0-1.657-1.343-3-3-3h-26c-1.657,0-3,1.343-3,3v38c0,1.657,1.343,3,3,3h26c1.657,0,3-1.343,3-3V5.5z"/>
	<path fill="#FFFFFF" d="M13.894,9.232c-0.201-0.183-0.327-0.447-0.327-0.74c0.001-0.553,0.448-1,1.001-1l21.866,0.014
		c0.553,0.002,0.999,0.45,0.999,1.001c-0.001,0.553-0.448,1-1.001,1L14.566,9.493C14.307,9.492,14.071,9.394,13.894,9.232z"/>
	<path fill="#FFFFFF" d="M13.894,16.232c-0.201-0.183-0.327-0.447-0.327-0.74c0.001-0.553,0.448-1,1.001-1l10.866,0.014
		c0.553,0.002,0.999,0.45,0.999,1.001c-0.001,0.553-0.448,1-1.001,1l-10.866-0.014C14.307,16.492,14.071,16.394,13.894,16.232z"/>
	<path fill="#FFFFFF" d="M13.894,23.232c-0.201-0.183-0.327-0.447-0.327-0.74c0.001-0.553,0.448-1,1.001-1l16.866,0.014
		c0.553,0.002,0.999,0.45,0.999,1.001c-0.001,0.553-0.448,1-1.001,1l-16.866-0.014C14.307,23.492,14.071,23.394,13.894,23.232z"/>
</g>
</svg>
