<?xml version="1.0" encoding="iso-8859-1"?>
<!-- Generator: Adobe Illustrator 19.0.0, SVG Export Plug-In . SVG Version: 6.00 Build 0)  -->
<svg xmlns="http://www.w3.org/2000/svg" xmlns:xlink="http://www.w3.org/1999/xlink" version="1.1" id="Layer_1" x="0px" y="0px" viewBox="0 0 491.2 491.2" style="enable-background:new 0 0 491.2 491.2;" xml:space="preserve" width="512px" height="512px">
<g>
	<path d="M245.6,0C110.2,0,0,110.2,0,245.6s110.2,245.6,245.6,245.6S491.2,381,491.2,245.6S381,0,245.6,0z M40.7,245.6   c0-113,91.9-204.9,204.9-204.9c49.1,0,94.2,17.4,129.5,46.2L86.9,375.1C58,339.8,40.7,294.7,40.7,245.6z M245.6,450.5   c-49.1,0-94.2-17.4-129.5-46.2l288.2-288.2c28.9,35.3,46.2,80.4,46.2,129.5C450.5,358.6,358.6,450.5,245.6,450.5z" fill="#D80027"/>
</g>
<g>
</g>
<g>
</g>
<g>
</g>
<g>
</g>
<g>
</g>
<g>
</g>
<g>
</g>
<g>
</g>
<g>
</g>
<g>
</g>
<g>
</g>
<g>
</g>
<g>
</g>
<g>
</g>
<g>
</g>
</svg>
