<?xml version="1.0" encoding="utf-8"?>
<!-- Generator: Adobe Illustrator 17.0.0, SVG Export Plug-In . SVG Version: 6.00 Build 0)  -->
<!DOCTYPE svg PUBLIC "-//W3C//DTD SVG 1.1//EN" "http://www.w3.org/Graphics/SVG/1.1/DTD/svg11.dtd">
<svg version="1.1" id="Layer_1" xmlns="http://www.w3.org/2000/svg" xmlns:xlink="http://www.w3.org/1999/xlink" x="0px" y="0px"
	 width="50px" height="50px" viewBox="0 0 50 50" enable-background="new 0 0 50 50" xml:space="preserve">
<g id="Shape_76">
	<g>
		<path fill="#FFFFFF" d="M23.115,33.352c6.06,0,10.986-5.997,10.986-13.367c0-7.371-4.926-13.367-10.986-13.367
			c-2.997,0-5.795,1.434-7.878,4.036c-2.005,2.508-3.11,5.821-3.108,9.331C12.129,27.356,17.057,33.352,23.115,33.352z
			 M23.115,9.548c4.441,0,8.057,4.682,8.057,10.437s-3.615,10.437-8.057,10.437s-8.057-4.682-8.06-10.437
			C15.056,14.229,18.671,9.548,23.115,9.548z M32.342,31.887c-0.81,0-1.465,0.655-1.465,1.465s0.655,1.465,1.465,1.465
			c5.008,0,9.083,4.075,9.083,9.085c0,0.643-0.526,1.169-1.173,1.169H5.975c-0.645,0-1.17-0.524-1.17-1.169
			c0-5.01,4.074-9.085,9.081-9.085c0.81,0,1.465-0.655,1.465-1.465s-0.655-1.465-1.465-1.465c-6.623,0-12.01,5.389-12.01,12.015
			c0,2.26,1.84,4.099,4.1,4.099h34.277c2.262,0,4.103-1.838,4.103-4.099C44.355,37.276,38.965,31.887,32.342,31.887z M24.186,4.991
			c1.049-0.621,2.167-0.935,3.324-0.935c4.441,0,8.057,4.682,8.057,10.436c0,1.033-0.114,2.045-0.34,3.013
			c-0.186,0.788,0.303,1.576,1.09,1.761c0.113,0.028,0.224,0.038,0.335,0.038c0.665,0,1.266-0.456,1.425-1.129
			c0.275-1.188,0.419-2.426,0.419-3.683c0-7.37-4.926-13.367-10.986-13.367c-1.666,0-3.328,0.464-4.813,1.343
			c-0.697,0.412-0.927,1.311-0.516,2.007S23.493,5.402,24.186,4.991z M37.031,26.027c-0.81,0-1.465,0.655-1.465,1.465
			s0.655,1.465,1.465,1.465c5.008,0,8.789,4.173,8.789,9.182c0,0.166-0.031,0.33-0.1,0.478c-0.328,0.74,0.006,1.605,0.744,1.934
			c0.19,0.086,0.394,0.126,0.595,0.126c0.561,0,1.096-0.325,1.339-0.87c0.233-0.526,0.352-1.087,0.352-1.67
			C48.75,31.516,43.654,26.027,37.031,26.027z"/>
	</g>
</g>
</svg>
