<?xml version="1.0" encoding="utf-8"?>
<!-- Generator: Adobe Illustrator 17.0.0, SVG Export Plug-In . SVG Version: 6.00 Build 0)  -->
<!DOCTYPE svg PUBLIC "-//W3C//DTD SVG 1.1//EN" "http://www.w3.org/Graphics/SVG/1.1/DTD/svg11.dtd">
<svg version="1.1" id="Layer_1" xmlns="http://www.w3.org/2000/svg" xmlns:xlink="http://www.w3.org/1999/xlink" x="0px" y="0px"
	 width="50px" height="50px" viewBox="0 0 50 50" enable-background="new 0 0 50 50" xml:space="preserve">
<g>
	<path fill="#FFFFFF" d="M19.847,35.027c-0.256,0-0.505-0.101-0.689-0.286l-3.899-3.899c-0.224-0.224-0.325-0.543-0.271-0.855
		C17.29,16.601,42.524,3.833,45.192,3.833c0.538,0,0.975,0.436,0.975,0.975c0,2.646-12.764,27.79-26.147,30.204
		C19.962,35.022,19.905,35.027,19.847,35.027z M17.003,29.83l3.163,3.162c10.831-2.449,21.055-20.967,23.502-26.671
		C37.987,8.747,19.368,18.971,17.003,29.83z"/>
	<path fill="#FFFFFF" d="M5.225,45.75c-0.538,0-0.975-0.436-0.975-0.975c0-3.769,3.212-11.023,5.473-13.287
		c1.163-1.162,2.806-1.829,4.508-1.829c1.676,0,3.223,0.623,4.355,1.754c2.346,2.348,2.249,6.262-0.215,8.724
		C16.157,42.353,9.386,45.75,5.225,45.75z M14.231,31.609c-1.189,0-2.329,0.459-3.13,1.257c-1.592,1.595-4.326,7.232-4.823,10.858
		c3.652-0.492,8.991-3.24,10.714-4.965c1.675-1.674,1.773-4.407,0.215-5.967C16.445,32.029,15.387,31.609,14.231,31.609z"/>
	
		<rect x="19.207" y="24.304" transform="matrix(0.7071 0.7071 -0.7071 0.7071 25.1156 -10.0763)" fill="#FFFFFF" width="11.029" height="1.949"/>
</g>
</svg>
