<?xml version="1.0" encoding="utf-8"?>
<!-- Generator: Adobe Illustrator 19.0.0, SVG Export Plug-In . SVG Version: 6.00 Build 0)  -->
<svg version="1.1" id="Layer_1" xmlns="http://www.w3.org/2000/svg" xmlns:xlink="http://www.w3.org/1999/xlink" x="0px" y="0px"
	 viewBox="-474 476 50 50" style="enable-background:new -474 476 50 50;" xml:space="preserve">
<style type="text/css">
	.st0{fill:#FFFFFF;}
</style>
<g>
	<g>
		<path class="st0" d="M-444.2,513.8c2.8-1.6,4.3-4.5,4.1-6.6c-0.9,0-1.8,0-2.7,0C-443.1,509.4-443.4,511.6-444.2,513.8z"/>
		<path class="st0" d="M-455.3,507.3c0-0.1-0.1-0.1-0.3-0.1c-0.8,0-1.7,0-2.5,0h-0.1c-0.1,2.6,1.7,5.4,4.3,6.7v-0.1
			C-454.7,511.6-455.2,509.5-455.3,507.3z"/>
		<polygon class="st0" points="-449.1,508.6 -450,510.6 -452.1,510.8 -450.6,512.2 -450.9,514.4 -449.1,513.4 -447.2,514.4 
			-447.6,512.2 -446,510.8 -448.1,510.6 		"/>
		<path class="st0" d="M-432.5,504.7c-0.3-0.8-0.8-0.8-1.4-1c-3-1.2-5.7-1.7-8.5-2.7c-0.3-0.1-1-0.6-1-2.1c0-0.6-0.1-0.9-0.8-0.9
			c-0.3,0-0.1,0-0.3-0.4c-0.3-1.3-0.1-2.1-0.1-2.3c0-0.3,0.3-0.4,0.3-0.5c1-1.4,1.3-3.1,1.3-4c0,0,0.1,0.1,0.4-0.4
			c0.3-0.6,0.3-0.8,0.5-1.6c0.3-0.5,0.3-1.7-0.4-1.7c-0.4,0.1-0.3,0-0.3-0.5v-3.9c-0.1-1.3-0.9-2.2-1.6-2.6
			c-0.9-0.6-1.3-0.8-1.7-1.2c-0.5-0.3-0.5-0.6-0.1-1.2c0.1-0.1,0.4-0.4,0.6-0.5l0,0l0,0h-0.1l0,0c-0.3,0-2.5,0.3-3.2,0.5
			c-1.7,0.4-3.4,0.9-4.7,2.1c-0.9,0.8-1.8,1.7-1.8,3c0,0.6,0,2.7,0,3.9c0,0.3,0,0.5-0.3,0.4c-0.9,0-0.4,1.4-0.3,1.6
			c0.3,0.9,0.4,1,0.5,1.7c0.1,0.5,0.3,0.4,0.3,0.4c0.3,1,0.6,3,1.4,4c0.1,0.1,0.3,0.3,0.3,0.5c-0.1,0.8-0.1,1.6-0.3,2.3
			c0,0.1-0.1,0.4-0.3,0.4c-0.6,0-0.8,0.4-0.8,0.9c0,1-0.6,1.9-1,2.1c-1.6,0.6-6.7,2.2-8.3,2.7c-1.2,0.3-1.4,0.8-1.7,1.2l-1.4,3.7
			c5.2,3.7,9.2,5.8,12.2,6.9l0,0c0.6,0.4,1.3,0.8,1.7,1.4c0.6,0.9,1.4,1.7,2.3,2.1c0,0.5,0,0.9,0,1.4c-0.8,0-1.6,0.4-1.9,1
			c-0.5,0.6-0.6,1.4-0.5,2.3l0.1,0.9h8.7l0.1-0.9c0.1-0.8,0-1.7-0.5-2.3c-0.5-0.5-1.2-0.9-1.9-1c0-0.5,0-0.9,0-1.4
			c1-0.5,1.8-1.3,2.3-2.2c0.4-0.6,1-1.2,1.7-1.4c4-1.3,9.1-3.5,12-6.9L-432.5,504.7z M-438.8,507.5c-0.5,3.5-2.3,6.2-5.6,7.9
			c-0.5,0.3-0.9,0.6-1.3,1.2c-0.6,0.9-1.3,1.6-2.3,1.9l-0.1,0.1c0,1,0,2.1,0,3.2c0.3,0,0.5,0,0.8,0c1,0,1.8,0.9,1.6,1.9
			c-2.3,0-4.5,0-6.9,0c-0.3-1,0.5-1.9,1.6-1.9c0.3,0,0.6,0,0.9,0c0-0.1,0-0.1,0-0.3c0-0.9,0-1.9,0-2.8c0-0.1,0-0.3-0.3-0.3
			c-0.9-0.4-1.7-1-2.2-1.9c-0.4-0.5-0.8-0.8-1.3-1.2c-3.2-1.7-5.2-4.4-5.7-7.9c0-0.4,0-0.6-0.1-1c0-0.1,0-0.1,0-0.3
			c1.4,0,2.7,0,4.1,0c0-0.3,0-0.5,0-0.9c4.3,0,8.4,0,12.7,0c0,0.3,0,0.5,0,0.9c1.4,0,2.7,0,4.1,0
			C-438.8,506.4-438.8,506.9-438.8,507.5z"/>
	</g>
</g>
</svg>
