<?xml version="1.0" encoding="utf-8"?>
<!-- Generator: Adobe Illustrator 19.0.0, SVG Export Plug-In . SVG Version: 6.00 Build 0)  -->
<svg version="1.1" id="Layer_1" xmlns="http://www.w3.org/2000/svg" xmlns:xlink="http://www.w3.org/1999/xlink" x="0px" y="0px"
	 viewBox="-474 476 50 50" style="enable-background:new -474 476 50 50;" xml:space="preserve">
<style type="text/css">
	.st0{fill:#FFFFFF;}
</style>
<g>
	<circle class="st0" cx="-460.5" cy="501.4" r="2.2"/>
	<circle class="st0" cx="-437" cy="501.4" r="2.2"/>
	<path class="st0" d="M-431.4,487.8h-35.2c-2,0-3.7,1.7-3.7,3.7v19c0,2,1.7,3.7,3.7,3.7h35.1c2,0,3.7-1.7,3.7-3.7v-19
		C-427.7,489.5-429.4,487.8-431.4,487.8z M-430.9,506.5c-0.3-0.1-0.6-0.1-0.9-0.1c-2.1,0-3.7,1.7-3.7,3.7c0,0.3,0,0.6,0.1,0.9h-27.4
		c0-0.2,0.1-0.5,0.1-0.7c0-2.1-1.7-3.7-3.7-3.7c-0.2,0-0.4,0-0.7,0.1v-11.3c0.2,0,0.4,0.1,0.7,0.1c2.1,0,3.7-1.7,3.7-3.7
		c0-0.2,0-0.5-0.1-0.7h27.3c0,0.1,0,0.3,0,0.5c0,2.1,1.7,3.7,3.7,3.7c0.3,0,0.6,0,0.9-0.1L-430.9,506.5L-430.9,506.5z"/>
	<path class="st0" d="M-448.8,492.9c-4.5,0-8.1,3.6-8.1,8.1c0,4.5,3.6,8.1,8.1,8.1c4.5,0,8.1-3.6,8.1-8.1
		C-440.7,496.5-444.3,492.9-448.8,492.9z M-453.4,499.4h3.5v-3.5h2.4v3.5h3.5v2.4h-3.5v3.5h-2.4v-3.5h-3.5V499.4z"/>
</g>
</svg>
