<?xml version="1.0" encoding="utf-8"?>
<!-- Generator: Adobe Illustrator 19.0.0, SVG Export Plug-In . SVG Version: 6.00 Build 0)  -->
<svg version="1.1" id="Layer_1" xmlns="http://www.w3.org/2000/svg" xmlns:xlink="http://www.w3.org/1999/xlink" x="0px" y="0px"
	 viewBox="-474 476 50 50" style="enable-background:new -474 476 50 50;" xml:space="preserve">
<style type="text/css">
	.st0{opacity:0.9;fill:#FFFFFF;enable-background:new    ;}
</style>
<g>
	<g id="history">
		<path class="st0" d="M-447.7,479.3c-8,0-15.1,4.3-18.8,11l-5.3-5.3v14.9h14.9l-6.4-6.4c3-5.7,8.7-9.6,15.6-9.6
			c9.4,0,17.2,7.8,17.2,17.2s-7.8,17.2-17.2,17.2c-7.6,0-13.7-4.8-16.2-11.4h-4.8c2.5,9.2,11,16,21.1,16c12.1,0,21.7-9.8,21.7-21.7
			S-435.8,479.3-447.7,479.3z M-451.1,490.7v11.7l10.8,6.4l1.8-3l-9.2-5.5v-9.6H-451.1z"/>
	</g>
</g>
</svg>
