<?xml version="1.0" encoding="utf-8"?>
<!-- Generator: Adobe Illustrator 19.0.0, SVG Export Plug-In . SVG Version: 6.00 Build 0)  -->
<svg version="1.1" id="Layer_1" xmlns="http://www.w3.org/2000/svg" xmlns:xlink="http://www.w3.org/1999/xlink" x="0px" y="0px"
	 viewBox="-474 476 50 50" style="enable-background:new -474 476 50 50;" xml:space="preserve">
<style type="text/css">
	.st0{fill:#FFFFFF;}
</style>
<g>
	<path class="st0" d="M-426.6,488.1c0-0.2,0-0.4-0.1-0.5c-0.2-0.4-0.5-0.6-0.8-0.7l-21-10.2c-0.3-0.2-0.7-0.2-1.1,0l-21.2,10.3
		c-0.4,0.2-0.7,0.6-0.7,1.1v0c0,0,0,0,0,0v25.8c0,0.5,0.3,0.9,0.7,1.1l21.2,10.3c0,0,0,0,0,0c0,0,0.1,0,0.1,0c0,0,0,0,0,0
		c0,0,0.1,0,0.1,0c0,0,0,0,0,0c0,0,0.1,0,0.1,0c0,0,0,0,0,0c0,0,0.1,0,0.1,0s0.1,0,0.1,0c0,0,0,0,0,0c0,0,0.1,0,0.1,0c0,0,0,0,0,0
		c0,0,0.1,0,0.1,0c0,0,0,0,0,0c0,0,0.1,0,0.1,0c0,0,0,0,0,0l21.2-10.3c0.4-0.2,0.7-0.6,0.7-1.1L-426.6,488.1
		C-426.6,488.1-426.6,488.1-426.6,488.1z M-449,479.2l18.4,8.9l-6.8,3.3l-18.4-8.9L-449,479.2z M-449,497l-18.4-8.9l8.8-4.3
		l18.4,8.9L-449,497z M-469,490.1l18.7,9.1v23l-18.7-9.1V490.1z M-447.8,522.2v-23l8.8-4.3v6c0,0.7,0.6,1.2,1.2,1.2
		c0.7,0,1.2-0.6,1.2-1.2v-7.2l7.5-3.6v23L-447.8,522.2z"/>
</g>
</svg>
