<?xml version="1.0" encoding="utf-8"?>
<!-- Generator: Adobe Illustrator 17.0.0, SVG Export Plug-In . SVG Version: 6.00 Build 0)  -->
<!DOCTYPE svg PUBLIC "-//W3C//DTD SVG 1.1//EN" "http://www.w3.org/Graphics/SVG/1.1/DTD/svg11.dtd">
<svg version="1.1" id="Layer_1" xmlns="http://www.w3.org/2000/svg" xmlns:xlink="http://www.w3.org/1999/xlink" x="0px" y="0px"
	 width="50px" height="50px" viewBox="0 0 50 50" enable-background="new 0 0 50 50" xml:space="preserve">
<g>
	<path fill="#FFFFFF" d="M49.5,38.361c0,2.838-2.301,5.139-5.139,5.139H5.639c-2.838,0-5.139-2.301-5.139-5.139V11.639
		C0.5,8.801,2.801,6.5,5.639,6.5h38.722c2.838,0,5.139,2.301,5.139,5.139V38.361z M47.5,11.583c0-1.703-1.38-3.083-3.083-3.083
		H5.583C3.88,8.5,2.5,9.88,2.5,11.583v26.833c0,1.703,1.38,3.083,3.083,3.083h38.833c1.703,0,3.083-1.38,3.083-3.083V11.583z"/>
	<path fill="#FFFFFF" d="M25.861,29.691c-2.015,0-3.926-0.872-5.381-2.454L8.147,13.878c-0.385-0.417-0.359-1.068,0.058-1.452
		c0.417-0.386,1.067-0.358,1.452,0.057l12.333,13.361c1.062,1.155,2.436,1.792,3.87,1.792c1.433,0,2.807-0.636,3.869-1.79
		l12.334-13.363c0.385-0.416,1.034-0.444,1.452-0.057c0.417,0.384,0.443,1.035,0.058,1.452L31.241,27.239
		C29.788,28.819,27.876,29.691,25.861,29.691z"/>
	<path fill="#FFFFFF" d="M7.876,36.819c-0.28,0-0.558-0.113-0.761-0.336c-0.382-0.421-0.351-1.07,0.069-1.452l11.306-10.278
		c0.421-0.381,1.07-0.349,1.452,0.069c0.382,0.421,0.351,1.07-0.069,1.452L8.567,36.552C8.369,36.731,8.122,36.819,7.876,36.819z"/>
	<path fill="#FFFFFF" d="M42.819,36.819c-0.263,0-0.526-0.1-0.727-0.301L31.815,26.241c-0.402-0.401-0.402-1.052,0-1.453
		c0.401-0.402,1.052-0.402,1.453,0l10.278,10.278c0.402,0.401,0.402,1.052,0,1.453C43.345,36.719,43.082,36.819,42.819,36.819z"/>
</g>
</svg>
