<?xml version="1.0" encoding="utf-8"?><!DOCTYPE svg PUBLIC "-//W3C//DTD SVG 1.1//EN" "http://www.w3.org/Graphics/SVG/1.1/DTD/svg11.dtd"><svg version="1.1" id="Layer_1" xmlns="http://www.w3.org/2000/svg" xmlns:xlink="http://www.w3.org/1999/xlink" x="0px" y="0px" width="30px" height="30px" viewBox="0 0 30 30" enable-background="new 0 0 30 30" xml:space="preserve"><path fill="#2ECC71" d="M15.229,5.937c-2.968,0-5.375,2.407-5.375,5.375c0,2.688,2.688,5.417,2.688,8.062h5.375c0-2.729,2.688-5.375,2.688-8.062C20.604,8.344,18.198,5.937,15.229,5.937z M18.068,14.71c-0.535,1.064-1.083,2.156-1.341,3.321h-3.001c-0.259-1.13-0.794-2.205-1.318-3.254c-0.622-1.251-1.21-2.432-1.21-3.464c0-2.223,1.808-4.031,4.031-4.031s4.031,1.808,4.031,4.031C19.26,12.333,18.68,13.488,18.068,14.71z M17.917,22.734c0,0.371-0.3,0.672-0.672,0.672h-0.123c-0.277,0.782-1.016,1.344-1.892,1.344s-1.615-0.562-1.892-1.344h-0.123c-0.371,0-0.672-0.3-0.672-0.672c0-0.371,0.3-0.672,0.672-0.672h4.031C17.616,22.062,17.917,22.363,17.917,22.734z M17.917,20.719c0,0.371-0.3,0.672-0.672,0.672h-4.031c-0.371,0-0.672-0.3-0.672-0.672c0-0.371,0.3-0.672,0.672-0.672h4.031C17.616,20.047,17.917,20.347,17.917,20.719z M8.583,6.699l1.21,0.699C9.53,7.762,9.303,8.147,9.117,8.559L7.911,7.864L8.583,6.699z M15.229,4.594c-0.231,0-0.447,0.045-0.672,0.068V3.25h1.344v1.412C15.677,4.638,15.46,4.594,15.229,4.594z M11.315,5.876l-0.699-1.21l1.165-0.672L12.476,5.2C12.064,5.386,11.678,5.613,11.315,5.876z M21.343,8.559c-0.186-0.412-0.415-0.798-0.677-1.161l1.21-0.699l0.672,1.165L21.343,8.559z M19.144,5.875c-0.362-0.261-0.749-0.488-1.16-0.675l0.696-1.206l1.163,0.672L19.144,5.875z M8.581,11.984H7.167v-1.344h1.412c-0.024,0.224-0.068,0.441-0.068,0.672C8.51,11.541,8.555,11.761,8.581,11.984z M23.292,10.641v1.344h-1.415c0.026-0.223,0.071-0.444,0.071-0.672c0-0.231-0.045-0.447-0.068-0.672H23.292z M21.327,14.058l1.22,0.703l-0.672,1.164l-1.1-0.635C20.974,14.884,21.158,14.475,21.327,14.058z M9.126,14.06c0.167,0.417,0.35,0.829,0.547,1.236l-1.09,0.629l-0.672-1.164L9.126,14.06z"/></svg>